<svg xmlns="http://www.w3.org/2000/svg" viewBox="0 0 387.84 255.42"><defs><style>.a{fill:#060403;}.b{fill:#eeb255;}.c{fill:#e98e45;}.d{fill:#e29f45;}.e{fill:#846032;}.f{fill:#de6238;}.g{fill:#eace90;}.h{fill:#b54d30;}.i{fill:#d3713a;}.j{fill:#e19e45;}.k{fill:#ebaf54;}.l{fill:#e4b857;}.m{fill:#d3703a;}.n{fill:#664a29;}.o{fill:#e6ba58;}.p{fill:#b26868;}.q{fill:#c29d5a;}.r{fill:#b34d30;}.s{fill:#dc9b44;}.t{fill:#cf6e39;}.u{fill:#be9958;}.v{fill:#cb6c84;}.w{fill:#975455;}.x{fill:#698c1a;}.y{fill:#fefefe;}.z{fill:#010100;}.aa{fill:#fcfcfc;}.ab{fill:#050403;}.ac{fill:#903d1b;}</style></defs><path class="a" d="M259.83,251.07a12.19,12.19,0,0,1,.76,2.43c.06.63-.09,1.61-.5,1.88a2.21,2.21,0,0,1-1.94-.24c-1.44-.92-2.76-2-4.15-3.07a2.71,2.71,0,0,0-2.78-.36,10,10,0,0,1-6.14,0l-1.33-.36,2.22,3.94a10.68,10.68,0,0,1,.89,7.11c-.23,1.55-1.44,2.38-2.66,3.06-.23.14-1.12-.39-1.32-.79-.59-1.16-.92-2.45-1.46-3.63a9.63,9.63,0,0,0-1.19-1.62l-.39,0,.14.41c.5,2,1.05,4,1.44,6,.09.43-.4,1-.62,1.47a6.73,6.73,0,0,1-1.55-.82,58.76,58.76,0,0,0-4.45-4.07,4.17,4.17,0,0,0-2.94-.33,8,8,0,0,1-6.86-1.4c-2.79-2.08-6.24-2.76-9.68-3.21s-6.7.8-10,1.21c-13.21,1.6-26,.24-37.65-6.68-2.86-1.68-5.45-3.79-6.42-7.26-3,.19-6,.34-9,.55s-6.13.6-9.21.68c-9.43.24-18.87.57-28.3.51a276.11,276.11,0,0,1-40.42-2.86c-9.59-1.47-19.21-2.85-28.74-4.71a45.74,45.74,0,0,1-21.6-10.21c-10.54-9.15-14-22-9.37-35.55A49.09,49.09,0,0,1,25.86,175c9.83-10.33,21.48-17.65,35.4-21.15,1.44-.36,2.91-.63,4.37-.92a1.4,1.4,0,0,1,1.82,1c.25.87-.42,1.14-1.08,1.41a71.36,71.36,0,0,0-26.95,19,29.35,29.35,0,0,0-7.64,16c-.9,6.92,1.3,12.8,6,17.8,4.3,4.58,9.69,7.44,15.55,9.45a63.58,63.58,0,0,0,23.57,3.36,101.66,101.66,0,0,0,23.83-4.2c7.74-2.23,14.62-6.21,21.55-10.11a181.54,181.54,0,0,0,22.78-15c.47-.36.89-.77,1.32-1.14-.06-.14-.07-.24-.12-.29-1.87-2.12-1.75-2.53,1-3.32a5.06,5.06,0,0,1,1.56-.4c2.23.11,3.67-1.21,5.09-2.64,3-3.07,6.06-6.11,9.17-9.24a26,26,0,0,1-2.68-1.14c-.4-.21-1-.76-.91-1.06a1.88,1.88,0,0,1,1-1.24c2.61-1,5.25-1.83,7.87-2.74a3.63,3.63,0,0,0,1.41-.72c3.29-3.56,6.54-7.16,10-10.95-1.59-.32-2.93-.58-4.27-.86a2.81,2.81,0,0,1-1.15-.34c-.38-.3-.94-.84-.88-1.17a2.08,2.08,0,0,1,1.06-1.35c3.81-1.47,7.65-2.83,11.49-4.23a3.06,3.06,0,0,0,1.19-.57c3.31-3.53,6.58-7.1,9.87-10.65l-.08-.41c-2.74,0-5.47,0-8.2-.15-.81,0-2,.44-2.32-.78s.9-1.45,1.63-1.86a43.4,43.4,0,0,1,14.45-5,2.19,2.19,0,0,0,1.36-.72c2.13-3.24,4.2-6.53,6.28-9.81,0-.06,0-.17,0-.21-2.66,0-5.32,0-8,0-1.45,0-2.91.14-4.35,0a1.9,1.9,0,0,1-1.4-1c-.11-.38.4-1.15.83-1.46a49.36,49.36,0,0,1,16.1-7.79,1.82,1.82,0,0,0,1.53-1.42c1.14-4.29,2.36-8.55,3.57-12.9A60,60,0,0,0,205.15,94c-.48.05-1.36-.08-1.41-.29a3,3,0,0,1,.2-1.78c.17-.42.66-.72,1-1a29.62,29.62,0,0,1,14.54-6.4A1.66,1.66,0,0,0,221.11,83c.86-3.4,1.89-6.77,2.91-10.33h-14a16.31,16.31,0,0,1-2.71,0,2,2,0,0,1-1.43-1c-.13-.36.37-1.14.79-1.45,5.06-3.74,10.89-5.63,16.93-7,1.49-.34,3-.54,4.5-.84a1.21,1.21,0,0,0,.7-.49C230.62,59,232.38,56,234.2,53A49.72,49.72,0,0,0,223,48.81c-3.14-.75-6.36-1.14-9.54-1.73-.49-.09-1.25-.32-1.34-.64a1.68,1.68,0,0,1,.42-1.54A24.28,24.28,0,0,1,218,42a40,40,0,0,1,21.14-.2A3.75,3.75,0,0,1,240,42c2.53,1.52,4.53.54,6.4-1.28a13.28,13.28,0,0,1,1.85-1.38c.64-.43,1.29-.84,2.17-1.42a95.53,95.53,0,0,0-5.49-8c-3.25-3.89-6.81-7.53-10.25-11.26-.33-.37-.84-.64-1-1.06a2.39,2.39,0,0,1-.2-1.62,1.6,1.6,0,0,1,1.26-.67c3.28-.08,6.27,1,9.2,2.34A41.84,41.84,0,0,1,261,32a2.16,2.16,0,0,0,2.53,1.05c2.31-.42,4.67-.55,7.2-.82-.21-2.59-.24-5.3-.67-8-.61-3.71-1.53-7.38-2.26-11.08-.08-.39.13-1.15.38-1.23a2.45,2.45,0,0,1,1.75,0,5.4,5.4,0,0,1,1.52,1.53,45.26,45.26,0,0,1,8.77,19.53,1.64,1.64,0,0,0,.91,1c13.86,4.7,23.27,14.34,30,27,.06.12.11.25.17.37a5.35,5.35,0,0,0,3.19,3.12c4.95,1.9,8,5.83,9.88,10.64a71.94,71.94,0,0,1,2.09,8c.5,2-.59,3.18-2.13,3.89A13.76,13.76,0,0,1,320,88.24c-3.64.4-6.85,2-10.08,3.51,2.5.14,5,.17,7.51.46a16.43,16.43,0,0,0,6.55-.58c2.52-.72,4.86.12,7.08,1.15,5.46,2.51,11.28,3.25,17.17,3.77a7.07,7.07,0,0,0,5.58-1.92A5.83,5.83,0,0,1,358.3,93a6,6,0,0,0,2.36-.87c1.91-.82,3.7-1,5.21.81a27,27,0,0,1,13.44-10.24c7.46-2.52,11.93-.9,17.6,4.49,1,.9,1.3,2.49,1.81,3.81a23.23,23.23,0,0,1,1.35,4.32,26.75,26.75,0,0,1-3.2,17.42,39.77,39.77,0,0,1-7.6,9.88,2.61,2.61,0,0,0-.86,3c1.27,4.19-.07,7.73-2.86,10.86a1.72,1.72,0,0,1-.49.48c-2.35,1-3.34,3.18-4.52,5.27a11.81,11.81,0,0,1-6.39,5.41,21.94,21.94,0,0,0-6.83,4.27c-1.68,1.49-3.59,2.63-6.05,2.05-.25-.05-.65.35-.91.61-.81.79-1.59,1.61-2.36,2.43a2.32,2.32,0,0,0-.62.83c-1.85,6.35-6.29,10.56-11.51,14.16-.59.41-1.07,1-1.63,1.41-2,1.64-4,3.37-6.18,4.84a5.09,5.09,0,0,1-5.2.51c-3.47-1.63-7-3.22-10.3-5.1a20.79,20.79,0,0,1-7.15-7.53c-1.35.84-2.68,1.66-4,2.5a13,13,0,0,1-6.9,2.18,3.09,3.09,0,0,0-1.9.8A96.3,96.3,0,0,1,279,188a3.12,3.12,0,0,0-1.3,1.41c-6,13-13.77,24.83-24.59,34.39-3.39,3-7.22,5.46-10.86,8.17-.27.2-.58.37-1.14.73,2.7,1.23,5.14,2.52,7.71,3.45,2.81,1,5.76,1.7,8.64,2.55a8.77,8.77,0,0,1,1.86.8,24.43,24.43,0,0,1,9,9.65c.89,1.7,1.58,3.6.3,5.38a4.18,4.18,0,0,1-2.31,1.41c-.84.19-1.48-.32-2.12-1.2a29.82,29.82,0,0,0-4.11-3.89l-.26-.16Zm2.63-5.86.24.3,4.55,7.91c-.2-3.43-2.29-5.74-4.41-8l-.37-.19-.3-.24,0-.21-.17,0,.16.16Zm-23,13.79.39.13-.22-.33-.44-.27-.1.16Zm43.81-156.78-.66.16-9.2,3.16c-1.4-.11-2.79-.18-4.18-.34-.89-.11-1.76-.35-2.64-.54a3.26,3.26,0,0,0-2.65,2.33,1.17,1.17,0,0,0,.69.87c3.42.88,6.87,1.64,10.29,2.54,2.16.56,4.39,1,6.13,2.63,1.23,1.11,2.49,2.21,3.72,3.32.84.75,1.72,1.48,2.5,2.3a4.82,4.82,0,0,1,1.54,3.75,13.29,13.29,0,0,0,.32,2.4A1.47,1.47,0,0,0,290,124c.69-1.73,1.05-2,2.47-.83a52.77,52.77,0,0,1,6.26,6c2.23,2.55,4,5.52,6.27,8,1.43,1.55,3.06,2.88,4,4.83.46,1,.91,1.94,1.5,3.21l2.21-2.64,1.47-1.2c1.34,2.38.81,4.61-.14,6.85-.48,1.32-2.53,1.94-1.77,4.07l3.4-2.7c.9-.82,1.84-1.6,2.7-2.45.58-.57,1-1.3,1.61-1.82a1.34,1.34,0,0,1,2.38.83,5.09,5.09,0,0,1,0,2c-.38,1.72-.87,3.41-1.32,5.11l0,0-.18.33-1.36,2.64c2.77-.31,5.19-1.1,6.56-3.77a16.79,16.79,0,0,1,1.45-2c3.89-5.35,8.22-10.27,14-13.74a1.28,1.28,0,0,0,.48-.73,40.86,40.86,0,0,1,6.67-13.87c4.61-6.29,9.38-12.45,16.22-16.52,0-.6-.32-1.34-.08-1.84.89-1.88.35-3.8.42-5.71a15,15,0,0,0,.14-1.62,2.22,2.22,0,0,0-.43-1.35c-1.67-1.57-2.77-1.51-4.66.11l-2.06.36a5.7,5.7,0,0,0-1.79.36c-1.44.81-2.8,1.75-4.19,2.64a8.14,8.14,0,0,1-1.58.3c-2.76-.06-5.51-.18-8.26-.28a42.05,42.05,0,0,1-13.15-4.16,14.79,14.79,0,0,0-2.93-.85c-1.27.26-2.54.52-3.81.8a6.2,6.2,0,0,1-1.51.38c-2.61-.2-5.21-.57-7.82-.7-2-.1-4,.06-5.92.11-2.29.21-4.59.33-6.86.67a8.62,8.62,0,0,0-4.85,2.14,7.4,7.4,0,0,1-2.58,1.07c-1.69.57-3.39,1.1-5.09,1.65l-1.78.85-.78.31.05.17.94-.24h2.92c1.18.19,1,1,.83,1.8a1.69,1.69,0,0,1-2.2,1.38,6.09,6.09,0,0,0-5,1.55c-.36.28-1.17.55-1.39.36-.57-.46-1.06-1.14-.21-1.91.52-.48.95-1.07,1.42-1.6l.56-.27.15-.17h-.17ZM22.44,184.05l-.28.44c-1.54,3-3.41,5.92-4.56,9.08-4.32,11.86-2.47,22.59,6.53,31.75,6,6.16,13.61,9.34,21.94,10.87,18.89,3.49,37.86,6.42,57.1,7.11,6.49.23,13,.29,19.47.42,4,0,7.9.18,11.83,0,8.34-.35,16.66-.87,25-1.33a11,11,0,0,0,1.29-.18c.69-2.35,1.24-4.49,1.95-6.58.57-1.71,1.33-3.36,2-5v0l.22-.32,5.42-8.1a4.3,4.3,0,0,0,.24-.48c.72-1.54,1.34-3.13,2.17-4.61,2.18-3.88,5.59-6.69,8.76-9.71l2.43-1.9.31.3c-.26.29-.5.59-.78.86q-3.93,3.9-7.88,7.78-1.55,2.48-3.1,4.93l-.13.47.33-.31,9.11-7.77,4.93-3.76,1.53.09a10.11,10.11,0,0,1-.44,1.57c-.12.25-.5.37-.75.57l-7.82,6.08h0l-1.36,1.13-.25.2-1,.93c-.24.2-.49.38-.72.6-6,5.59-9.58,12.64-11.66,20.47-.42,1.59-.1,3.37-.13,5.07.58,1,.94,2.26,1.77,2.94a28.46,28.46,0,0,0,5.75,3.82c11.68,5.46,24,6.43,36.53,4.33a29.18,29.18,0,0,1,10.12-.16c3,.53,6,1.2,8.2,3.32a4.71,4.71,0,0,0,4.71,1.17,7.73,7.73,0,0,1,4.52.21l2.64,1.77a2.23,2.23,0,0,0-.42-1.53,19.21,19.21,0,0,0-2.36-2.41,27.42,27.42,0,0,0-8.8-5.21c-.4-.13-.7-.61-1-.92l.74-.6c1.5.42,3,.82,4.5,1.26.39.11.73.42,1.11.47a16.66,16.66,0,0,1,9.41,4.35l3.23,5.1c-.55-2.53-1.09-5-2.69-7L241,253.94c-.75-.79-1.51-1.55-2.24-2.36a12.08,12.08,0,0,0-8.69-4.39,10.09,10.09,0,0,1-1.34-.21l-12.82-2.35c-.7-.17-1.4-.34-2.09-.53-3.39-.91-7-1.29-9.8-3.72-1-.92-2.08-1.87-3.2-2.89-1.66.47-3.55,1.08-5.47,1.56a29.4,29.4,0,0,1-12.42.47c-.49-.09-1.21-.63-1.26-1-.12-.95.76-.93,1.44-.95s1.64,0,2.45,0c12.32,0,22.54-4.44,30.2-14.23a28,28,0,0,0,2.32-4.25,12.91,12.91,0,0,0-1.59-15.89,29.06,29.06,0,0,0-17-8,10.27,10.27,0,0,0-6.24.7c-1,.52-1.38.07-1.29-1.34,2.22-1.85,4.89-1.87,7.49-1.5,2.77.39,5.47,1.19,8.2,1.82a42.92,42.92,0,0,1,4.7,2.35,1.64,1.64,0,0,0,2.43-.31c3.62-3.54,7.33-7,10.85-10.64,2.33-2.42,4.39-5.11,6.26-7.31l-5.89-6.48c-3.38-3.86-6.55-7.85-8.66-12.58a.78.78,0,0,0-.19-.35c-2.3-1.57-2.87-4-3.33-6.53-.28-1.53-.3-3.11-.43-4.67l.51-.05.75,4.45.25,0v-4.6c.35.24.85.41,1,.74a17.63,17.63,0,0,1,.83,2.58,38.53,38.53,0,0,0,6.18,13.17,10.68,10.68,0,0,0,1,1.47c2.56,2.88,5,5.89,7.76,8.56,4.94,4.74,10.15,9.2,15.12,13.92a9.61,9.61,0,0,0,6.45,2.73,49.09,49.09,0,0,0,17.88-2.9c10.33-3.44,19.14-9.45,27.54-16.16.93-.75,1.79-1.59,2.7-2.41l-3.6-2.14.22-.4,4.18,2,.12-.25L298,166l.34-.44a18.25,18.25,0,0,0,2.3,1.56c1.19.57,2.46,1.4,3.68,1.38,3.85-.05,6.78-2.44,9.91-4.48a3.58,3.58,0,0,0-1.25-.57c-1.2-.36-2.43-.65-3.61-1.09a1.28,1.28,0,0,1-.69-1c0-.34.46-.69.78-1a1.81,1.81,0,0,1,.76-.27c4.87-1.2,7.31-4.7,8.72-9.19l.39-1.13.07-.5-.32.08a3.48,3.48,0,0,0-.66.45c-3.43,3.9-7.89,5.49-12.94,5.76l-2.23-.18c.77-1.13,1.36-2,1.95-2.89l1.41-1a7.92,7.92,0,0,0,5.18-4.42l.15-.38-.35.19-2.55,1.45a24.94,24.94,0,0,1-11.88,2.27c-.42,0-1.15-.43-1.17-.71-.22-2.74-.64-5.56,1.53-7.85a5.87,5.87,0,0,0,.47-.78c-1.7.13-3.13.37-3.95,2s-1.64,3-2.54,4.48a31,31,0,0,1-2.88,4.39c-3.13,3.6-6.71,6.46-11.64,7.48a78.31,78.31,0,0,1-13.2,1.62l-1.63,0-.81,0c-1.93-.05-3.05-1.35-4.14-2.68a10.29,10.29,0,0,1-1.1-1.54c-1.81-3.28-3.52-6.62-5.4-9.86-1.63-2.8-3.45-5.5-5.18-8.24a28.82,28.82,0,0,0-9.17-8.92,10.75,10.75,0,0,0-4.59-1.38,24.66,24.66,0,0,0-5.91.59,7.1,7.1,0,0,0-3.16,1.42,20.31,20.31,0,0,0-5.79,8.18c-.7,1.78-1.28,3.6-1.91,5.4-.09-.32-.32-.68-.25-1,1.44-5.62,3.91-10.67,8.69-14.18,5.34-3.93,10.79-4.47,16.3,0,.28.22.59.41.89.61a51.4,51.4,0,0,1,11.59,15.13c.52,1,1,2,1.59,3.11.62-1,1.23-1.87,1.69-2.79,1.89-3.79,3.75-7.58,5.56-11.4.51-1.06,1-1.81,2.39-1.64a12.11,12.11,0,0,0,2.78-.29l0-.36c-1.45-.4-3.17-.14-4.22-1.57a2.19,2.19,0,0,1,1,.08,7.2,7.2,0,0,0,2.62.49c1.81-.37,3.11.48,4.51,1.3,5.37,3.15,11.06,5.27,17.41,5A13.39,13.39,0,0,0,296.4,133L291,126.36c-1.07.74-2.07,1-3.11,0a1.43,1.43,0,0,0-1-.13,29.81,29.81,0,0,1-12.9-1.16c-1.53-.69-3.11-1.27-4.57-2.1a51.24,51.24,0,0,1-20.25-21.09l-.24-.55h0c-.13-.43-.27-.85-.38-1.28a39,39,0,0,1-1.15-4.56,2.61,2.61,0,0,1,.79-2c.25-.24,1.14.19,1.74.32.21,2.75,1.2,3.94,3.58,4.1a16,16,0,0,0,7.4-1.29,7.1,7.1,0,0,0,1-.32,168.36,168.36,0,0,1,31.1-10.1c9.07-2.15,18.21-3.88,27.58-1.82.47.12,1,.22,1.42.37,1.32.43,2,0,1.84-1.41a32,32,0,0,0-.59-3.89C320.8,68.7,312.53,63,301.75,64.88c-3.25.57-6.4,1.65-9.6,2.49a8.44,8.44,0,0,1-1,.12l-.09-.5,9.1-2.53,9.16-1.26c-6.93-11.42-15.2-21.44-28.55-26.16l.14,2.15a1.42,1.42,0,0,1-.41,0c-2.19-.88-4.36-1.85-6.59-2.64a13.45,13.45,0,0,0-4.43-1c-8.29.15-15.55,3.26-22,8.27-7.89,6.11-13.35,14.12-17.69,23-4.16,8.5-6.31,17.62-8.15,26.81a111.86,111.86,0,0,1-16.32,40.15,17.35,17.35,0,0,1-1.86,2.32c-3.55,3.71-7.19,7.33-10.68,11.08-8.06,8.69-16,17.49-24.09,26.13a231.69,231.69,0,0,1-32.56,28.65,126.93,126.93,0,0,1-30.9,16.61c-10.61,3.92-21.75,5-32.89,5.89a75.66,75.66,0,0,1-19.34-1c-8-1.46-15.53-4-22.13-8.93l-.25-.12-1.4-1.21a28.09,28.09,0,0,1-6-7.62,20.72,20.72,0,0,1-2.46-12.64c.4-2.73,1.13-5.42,1.71-8.13l.2-.61.14-.48ZM286.88,120l.26.18-.09-.35-2-2.38-.44.42ZM391.63,88.83l.26.22,4.72,2a8.86,8.86,0,0,0-4.94-5.22A9.14,9.14,0,0,0,385.53,84a20.4,20.4,0,0,0-13.49,6c-4.12,3-6.33,8.55-4.32,10.72l2.94-1,2.82-.21,0,.44-2.57.45a11.8,11.8,0,0,0-1.17.3c-2.26.74-3.47,3-2.69,4.91l3.58-2.29c2.59-1,5.12-1.13,7.52.54-2.24-.38-4.48-1-6.7.06a6.24,6.24,0,0,0-3.81,2.82,2.77,2.77,0,0,1-1.1.81c-1.27.66-2.83,1-3.8,2a126,126,0,0,0-9.1,9.67,50.24,50.24,0,0,0-9.09,15.34,10.23,10.23,0,0,1-4.14,5.66c-4.84,3.15-8.41,7.62-11.53,12.45a18.16,18.16,0,0,1-1.37,1.65c-1.22,1.16-2.49,2.26-3.74,3.39a9,9,0,0,0-5.57,1.75c-.61.37-1.27.65-2,1l.9,1c1.1-1.21,2.39-1,3.69-.67s2.71.63,4.08.89a16.57,16.57,0,0,1,9.13,4.37,4,4,0,0,0,.91.53,3.57,3.57,0,0,0,.28.27c2.4,2,5.33,3.76,4,8,.82-.64,1.36-1,1.86-1.46,1.8-1.53,3.55-3.09,5.36-4.59,3.39-2.81,6.29-6,8-10.14,1-2.43.18-4.28-1.38-6l-2.89-3.09.21-.28,2.06,1.47,3.45,4.79c1.35-.65,4.07-3.74,4.06-5.15,0-1.74-1.33-2.88-2.49-4-.29-.28-.61-.53-.92-.8l-4-2.47c1.66-.31,2.73.87,4,1.43.45.38,1,1.16,1.32,1.07,1.56-.48,1.74,1,2.46,1.61a9.79,9.79,0,0,1,1.17,1.6c2.61-3.73,5.76-7,4.52-12-.06-1.57-.2-3.13-.16-4.69,0-1.06.82-1.37,1.67-.72a14.63,14.63,0,0,1,1.53,1.52l2.61,4.56c1.06-2.13,2-4,2.94-5.95a2,2,0,0,0,.17-1c-.15-1.53-.36-3.05-.55-4.57a17.05,17.05,0,0,1,.05-2.58c.1-.64.33-1.53.79-1.77s1.28.16,1.94.28q1.62,2.76,3.21,5.51a12.69,12.69,0,0,0,1.55-9.09c.07-.67.1-1.35.23-2,.34-1.61.73-1.83,2.31-1.42l3.32,6.34c.64-.71,1.43-1.55,2.18-2.43,5.64-6.58,9.2-13.88,7.94-22.86-.22-1.61-.41-3.33-1.88-4.29A24.74,24.74,0,0,0,392,89.85a17.15,17.15,0,0,0-12,.52,5,5,0,0,1,2-1.24,21.69,21.69,0,0,1,9.75-.26Zm-124,29.43v0a2.2,2.2,0,0,0,.51,0,19.27,19.27,0,0,1,9.74.47c1.45.51,2.88,1.11,4.31,1.67l.31-.22c-.41-.68-.66-1.65-1.27-2-1.82-1-3.79-1.84-5.7-2.73-1.27-.43-2.53-.88-3.8-1.3-1.81-.6-3.11.14-4.29,1.48a17.92,17.92,0,0,1-2.27,1.9l1.93.89Zm25,6.25-.13-.17-.06.17h.2a12.8,12.8,0,0,0,1.32,2.24,92.42,92.42,0,0,1,13.58,19.3c.05.11.19.17.28.24,1.76-.76,1.8-.77,1-2.43a18.3,18.3,0,0,0-4-5.69c-2.38-2.31-4.17-5.21-6.37-7.71C296.76,128.37,294.69,126.49,292.71,124.51ZM265.3,252.44l.37.23-.12-.46a28.14,28.14,0,0,0-6.28-9.37,6,6,0,0,0-5.2-2,14.51,14.51,0,0,1-3.83-.54c-.21,0-.32-.52-.63-1-3.25-1.53-6.85-3.23-10.47-4.9a1.52,1.52,0,0,0-1.11,0c-4,1.65-8.06,3.35-12,5,.22.09.66.27,1.11.42a33.9,33.9,0,0,1,11.18,6.05,19.51,19.51,0,0,0,8.27,3.83,7.42,7.42,0,0,0,4,0c2.07-.7,3.62,0,5.2,1.05.38.26.74.54,1.1.81l1.05.82c-1.85-4.83-5.48-7.25-10.46-7.89,2.9-.9,5.69-1.09,8.19.72C258.92,247.53,262.09,250,265.3,252.44ZM247.23,224c.85-.65,1.74-1.26,2.56-2a92,92,0,0,0,20.08-25.12c1.16-2.06,2.24-4.17,3.52-6.57l-6.57,2c-3.27.47-6.52,1.07-9.81,1.37-4.63.42-8.86-.38-12.27-4.05a79,79,0,0,0-6.78-5.85L232.71,179a122.29,122.29,0,0,1-18.5,19.32c.87.68,1.66,1.28,2.43,1.9,3.85,3.14,6,7,5.76,12.16a21.9,21.9,0,0,1-2.29,8.48,32.49,32.49,0,0,1-14.31,14.28c-.82.44-1.64.86-2.46,1.28a45.3,45.3,0,0,0,6.37.62,51.48,51.48,0,0,0,27.35-6.32c3.55-2,6.79-4.46,10.17-6.72Zm34.1-84.71c-.52-.14-.87-.25-1.21-.33A31.52,31.52,0,0,1,270,134.7c-2.1-1.4-4.06-2.53-6.74-1.82-.81.21-1.24.38-1.53,1.14a75.13,75.13,0,0,1-7.05,14,1.78,1.78,0,0,0-.17,1.35,22.81,22.81,0,0,0,5.1,8.57,3.25,3.25,0,0,0,1.94.95,51.29,51.29,0,0,0,13.13-1.09c.92-.2,1.33-.59,1.42-1.48.17-1.79.37-3.58.57-5.37.09-.82.19-1.63.32-2.73l3.27,2C279.63,146.41,279.24,142.78,281.33,139.28ZM48.72,162l-.1-.23a3.72,3.72,0,0,0-.83.3c-4.41,2.92-9,5.63-13.18,8.83-4.46,3.41-8.48,7.29-10.76,12.68-3.51,8.3-3.75,16.35,1.45,24,3.83,5.66,9.38,9.15,15.58,11.69a54.71,54.71,0,0,0,15.22,3.83c4,.4,8.07.7,12.11,1l.08-.5c-.67-.15-1.33-.33-2-.44-2.55-.4-5.13-.66-7.66-1.2-8.19-1.76-15.83-4.82-22-10.72-7.79-7.49-10.22-16.48-6.68-26.82,2.39-7,6.91-12.5,12.36-17.31C44.39,165.38,46.59,163.73,48.72,162ZM286.11,94.62l-.53.24c-.17-.36-.34-.72-.52-1.07A20.56,20.56,0,0,0,284,91.64a1.06,1.06,0,0,0-1.8-.23,9.32,9.32,0,0,1,2.34,5.76,5.25,5.25,0,0,1-.82-1.41c-.52-1.08-1-2.2-1.62-3.23a1.45,1.45,0,0,0-2.42-.39c2.33,1.8,2.91,4.5,3.59,6.91,3.36-1.11,6.61-2.2,9.86-3.29a2.17,2.17,0,0,0,.73-.36,16.09,16.09,0,0,1,7.53-2.82,9.66,9.66,0,0,0,2.92-1,53,53,0,0,1,11.94-4.81c.39-.1.8-.15,1.2-.25s.69-.21,1-.32l-.09-.37c-11.78-1.77-22.81,1.82-33.86,4.65Zm29.12,66.08a3.09,3.09,0,0,0,.07.61c3.63,8,10.36,12.33,18.25,15.22a4.83,4.83,0,0,0,4.63-1.59,4.18,4.18,0,0,0-.89-5.42c-1.41-1.3-2.93-2.5-4.46-3.66a11.84,11.84,0,0,0-3.28-2.09c-3.28-1.05-6.64-1.84-10-2.7a1.06,1.06,0,0,0-.89.21c-1.14,1.31-2,.67-2.82-.34C315.77,160.83,315.55,160.82,315.23,160.7Zm-28.11-20.86c-1.34-.11-2.43-.12-3.49-.32-1.28-.24-1.9.33-2.34,1.44a14.63,14.63,0,0,0-.21,9c.13.53.15,1.09.27,2l-3.65-2.39c-.28,2.58-.54,5-.8,7.54a14.31,14.31,0,0,0,7.79-3.69,1.73,1.73,0,0,0,.57-.88C285.9,148.39,286.49,144.18,287.12,139.84Zm89.54-15.11-.52.1c.16,2,.33,4,.45,6.08a3.18,3.18,0,0,1-.21,1.44c-.59,1.31-1.26,2.6-1.9,3.89-1,2-2.06,3.81-1.37,6.23.29,1-.27,2.33-.44,3.52,4.33-1.24,8.26-6.94,7.17-11.23C379,131.36,377.73,128.07,376.66,124.73Zm-108.83-5.45a27.26,27.26,0,0,0,19,4.61c0-1.23-1.86-3.32-3.83-4.35-.15,2.22-.21,2.24-2.23,1.27A19.08,19.08,0,0,0,267.83,119.28ZM367.74,135a11.07,11.07,0,0,1,.12,1.12c0,1.93.41,4-.07,5.77a18.52,18.52,0,0,1-4.78,7.81,12.58,12.58,0,0,0-1.3,2c2.65.38,6.57-2.36,8.36-5.58S371.1,139,367.74,135Zm14.69,1.32a9.27,9.27,0,0,0,3.89-9.66c-.58-2.6-1.41-5.14-2.14-7.7a4,4,0,0,0-.47-.71,17.43,17.43,0,0,1-1.29,9.43,7,7,0,0,0-.41,6A10.35,10.35,0,0,1,382.43,136.36ZM265.3,115a14.41,14.41,0,0,1,1-1.07c1.72-1.5,3.5-2.57,6-2a32,32,0,0,1,11.07,5c.28.2.58.36.88.54l.19-.31-1.11-.94c-.72-.61-1.42-1.25-2.16-1.85-.89-.73-1.7-1.78-2.72-2.08-4.67-1.35-9.41-2.48-14.13-3.69C262.83,111.72,263,112.88,265.3,115ZM210.87,241.05v.19l22.61,4.31.18-.54c-3.12-1.22-6.23-2.48-9.38-3.65a13.91,13.91,0,0,0-7-.74C215.13,240.93,213,240.92,210.87,241.05Zm87.29-92.13,7.7-1.45L302,140.61C299.46,142.81,297.25,144.94,298.16,148.92Zm.12-13.67a17.83,17.83,0,0,1-7.91,4.06.9.9,0,0,0-.58.59c-.23,2.61-.41,5.23-.62,8,1.18-2.07,2.37-3.89,3.28-5.84,1.07-2.31,2.95-2.84,5.19-2.87h3.43C300.05,137.77,299.23,136.59,298.28,135.25ZM277,93c2.91,1.61,3.74,4.34,4.34,7.17.94-.12,1.29-.66,1-1.43a37.68,37.68,0,0,0-2.38-5.2A1.85,1.85,0,0,0,277,93Zm12.07,8.86c-2.88-1-6.92,1-7.22,3.56a8.08,8.08,0,0,1,6.26-2.15C289.26,103.35,289.19,102.58,289.09,101.84ZM236.72,248.76c3.44,2.92,6.5,5.81,7.9,10C244.54,255.34,240,249.42,236.72,248.76Zm25.1-4.47-.05,0,0,.08ZM287.4,120.46l0,.09h.08Zm-48.85,141.7-.06.09h.19a.42.42,0,0,0,0-.1S238.58,262.16,238.55,262.16Z" transform="translate(-12.57 -11.83)"/><path class="b" d="M240.66,129.69c-.3-.2-.61-.39-.89-.61-5.51-4.45-11-3.91-16.3,0-4.78,3.51-7.25,8.56-8.69,14.18-.07.28.16.64.25,1-.07,1.29-.13,2.58-.19,3.87v4.6l-.25,0-.75-4.45-.51.05c.13,1.56.15,3.14.43,4.67.46,2.48,1,5,3.33,6.53a.78.78,0,0,1,.19.35c2.11,4.73,5.28,8.72,8.66,12.58-.88,1.58-1.7,3.19-2.65,4.72a65.13,65.13,0,0,1-15.7,17.67c-2.73-.63-5.43-1.43-8.2-1.82-2.6-.37-5.27-.35-7.49,1.5a32.3,32.3,0,0,0-3.85,3.52,23.78,23.78,0,0,0-2.19,4.08c-1.14,2.16-.32,4,.89,5.81l-4.93,3.76a19.65,19.65,0,0,0-1.87.65c-1.46.65-2.9,1.35-4.34,2q3.94-3.88,7.88-7.78c.28-.27.52-.57.78-.86l-.31-.3-2.43,1.9a1.59,1.59,0,0,0-2.1-.16,14.47,14.47,0,0,0-1.52,1.12c-5.37,3.93-9.88,8.6-12.76,14.69a1.38,1.38,0,0,1-.61.65c-4.27,2-8.45,4.21-12.85,5.85a61,61,0,0,1-10.87,2.75,129,129,0,0,1-15.26,2,103.4,103.4,0,0,1-19.65-.7c-4.81-.69-9.68-1-14.49-1.74q-9.08-1.39-18.08-3.27c-9.19-1.89-18.31-4.09-27.51-5.9a27.38,27.38,0,0,1-12.91-5.8,20.66,20.66,0,0,1-2.08-2.3C37.44,219.42,45,222,53,223.45a75.66,75.66,0,0,0,19.34,1c11.14-.85,22.28-2,32.89-5.89a126.93,126.93,0,0,0,30.9-16.61,231.69,231.69,0,0,0,32.56-28.65c8.1-8.64,16-17.44,24.09-26.13,3.49-3.75,7.13-7.37,10.68-11.08a17.35,17.35,0,0,0,1.86-2.32A111.86,111.86,0,0,0,221.61,93.6c1.84-9.19,4-18.31,8.15-26.81,4.34-8.86,9.8-16.87,17.69-23,6.47-5,13.73-8.12,22-8.27a13.45,13.45,0,0,1,4.43,1c2.23.79,4.4,1.76,6.59,2.64a1.42,1.42,0,0,0,.41,0,24.72,24.72,0,0,1,3.18,2.22c4.59,4.32,8.88,8.93,12,14.47A69.8,69.8,0,0,1,299,62.69l-5.92,1.65.12.43,6.52-1.34c.15.34.29.69.44,1L291.05,67l.09.5a8.44,8.44,0,0,0,1-.12c3.2-.84,6.35-1.92,9.6-2.49C312.53,63,320.8,68.7,323.19,79.51a32,32,0,0,1,.59,3.89c.13,1.38-.52,1.84-1.84,1.41-.46-.15-.95-.25-1.42-.37,0-.74-.31-1.06-1.06-1.08a4.76,4.76,0,0,1-1.44-.31c-5.95-2.31-12-2-17.95-.3C291.31,85.27,282.61,88,274,90.9c-4.1,1.36-8,3.22-12,4.89a5.32,5.32,0,0,0-1.09.89,16,16,0,0,1-7.4,1.29c-2.38-.16-3.37-1.35-3.58-4.1a2.6,2.6,0,0,1,.21-.36,1.9,1.9,0,0,0,.06-2.69,1.83,1.83,0,0,0-2.7-.16,18.3,18.3,0,0,0-3,2.94c-.87,1.17-.58,1.92.6,2.89a4.7,4.7,0,0,1,.85,1.15c.86,1.33,1.25,3,2.94,3.71h0l.24.55A51.24,51.24,0,0,0,269.33,123c1.46.83,3,1.41,4.57,2.1-1.48.06-2.95.15-4.43.17-1.84,0-3.68,0-5.53,0a69.12,69.12,0,0,1-8.88-.14c-5.51-.76-10.17-3.68-14.76-6.6-1.36-.86-2.47-2.11-3.75-3.1a2.13,2.13,0,0,0-1.36-.33c-.19,0-.54.57-.49.81a19.42,19.42,0,0,0,.92,3.19c.7,1.65,1.54,3.25,2.31,4.87l-2.54-1.18-.25.5,4.15,2.11c.33.83.71,1.64,1,2.48A16.08,16.08,0,0,1,240.66,129.69ZM270.1,81.51c1.1-.57,2.23-1.1,3.29-1.74.22-.14.17-.71.25-1.09V78a2.79,2.79,0,0,0,.4-.07c1.76-.42,2.07-1.2,1.15-2.73a2.42,2.42,0,0,1-.12-1.27,47.24,47.24,0,0,0,.41-5.54c-.21-4.71-1.77-8.88-5.51-12-4.6-3.82-11.22-3.63-16.59.43-7,5.29-10.35,15.2-8.08,23.9A1.51,1.51,0,0,0,247.43,82l1.37,1.75c-1.21.69-2.44,1.35-3.63,2.08-.6.37-1.4.88-.8,1.67.2.27,1.21.12,1.73-.11,1.49-.64,2.91-1.42,4.36-2.15a4.86,4.86,0,0,0,1.58.54,48.44,48.44,0,0,0,14.19-2.31A26.6,26.6,0,0,0,270.1,81.51ZM243.21,98.58c-.14-1-.2-2.21-.47-3.35-1.56-6.64-7.81-8.92-13.32-4.88-5.3,3.89-7.92,11.46-6.24,18.08,1.53,6,7.35,8.33,12.5,4.83S242.8,104.67,243.21,98.58Z" transform="translate(-12.57 -11.83)"/><path class="c" d="M214.84,148.11c.06-1.29.12-2.58.19-3.87.63-1.8,1.21-3.62,1.91-5.4a20.31,20.31,0,0,1,5.79-8.18,7.1,7.1,0,0,1,3.16-1.42,24.66,24.66,0,0,1,5.91-.59,10.75,10.75,0,0,1,4.59,1.38,28.82,28.82,0,0,1,9.17,8.92,15.11,15.11,0,0,0,.52,1.81c1.4,3.39,2.74,6.8,4.27,10.12s3.08,6.46,4.82,9.58a3.54,3.54,0,0,0,2.46,1.56,14,14,0,0,0,3.75-.75l.81,0,1.63,0a78.31,78.31,0,0,0,13.2-1.62c4.93-1,8.51-3.88,11.64-7.48a31,31,0,0,0,2.88-4.39c.9-1.47,1.79-2.94,2.54-4.48s2.25-1.9,3.95-2a5.87,5.87,0,0,1-.47.78c-2.17,2.29-1.75,5.11-1.53,7.85,0,.28.75.69,1.17.71a24.94,24.94,0,0,0,11.88-2.27c-.46.58-.93,1.14-1.38,1.72s-.7,1-1.05,1.44l-1.41,1c-.83.42-1.69.79-2.49,1.27-3.44,2-7.22,3.61-9.87,6.84a3.28,3.28,0,0,0-.91,2.95,1.46,1.46,0,0,1-.15,1.1c-1.9,2.24-3.8,4.48-5.79,6.63-4.31,4.65-9.51,8.18-14.88,11.48-3.6,2.2-7.35,3.92-11.69,3.76a6.26,6.26,0,0,1-2.82-.74c-4.65-2.7-9.3-5.41-13.86-8.27-5.47-3.44-10.84-7-16.26-10.56-1.23-.8-2.45-1.62-3.67-2.43a38.53,38.53,0,0,1-6.18-13.17,17.63,17.63,0,0,0-.83-2.58C215.69,148.52,215.19,148.35,214.84,148.11Z" transform="translate(-12.57 -11.83)"/><path class="c" d="M185.86,202.14a23.78,23.78,0,0,1,2.19-4.08,32.3,32.3,0,0,1,3.85-3.52c-.09,1.41.29,1.86,1.29,1.34a10.27,10.27,0,0,1,6.24-.7,29.06,29.06,0,0,1,17,8A12.91,12.91,0,0,1,218,219.05a5.34,5.34,0,0,0-.83.41c-1.41,1-2.72,2.26-4.21,3.18-8.12,5-16.54,9.36-26,11.44a53.15,53.15,0,0,0-7.62,2.7,1.66,1.66,0,0,0-.81,1.23c0,.29.56.65.91.94,1.57,1.27,3.15,2.52,4.73,3.78.56.46,1.07,1.2,1.7,1.32a87.6,87.6,0,0,0,10.26,1.64,91.2,91.2,0,0,0,10.18-.22c2.93-.12,5.85-.35,8.78-.55a2.59,2.59,0,0,0,.72-.29L228.69,247a10.09,10.09,0,0,0,1.34.21,12.08,12.08,0,0,1,8.69,4.39c.73.81,1.49,1.57,2.24,2.36-1.74-.83-3.48-1.66-5.23-2.47a19,19,0,0,0-7.25-1.93c-1.41,0-2,.47-2,1.85l-.74.6c.34.31.64.79,1,.92a27.42,27.42,0,0,1,8.8,5.21,19.21,19.21,0,0,1,2.36,2.41,2.23,2.23,0,0,1,.42,1.53l-2.64-1.77c-.12-.27-.16-.67-.36-.8a18.18,18.18,0,0,0-3.06-1.73c-2.23-.85-4.61-1.35-6.78-2.33-4.81-2.19-9.87-2.76-15-2.87a19.6,19.6,0,0,1-2.3-.16c-4.46-.57-8.91-1.29-13.39-1.7-4.77-.44-9.55-.75-14.33-.8a23.46,23.46,0,0,1-10.63-2.75c-1.85-.94-3.8-1.67-5.7-2.49,0-1.7-.29-3.48.13-5.07,2.08-7.83,5.62-14.88,11.66-20.47.23-.22.48-.4.72-.6l1-.93.25-.2c.81.05,1.37-.2,1.36-1.13h0a4.79,4.79,0,0,0,1.21-.41c3.54-2.33,7.06-4.71,10.6-7,.9-.59,1.86-1.1,2.85-1.67C191.85,204.84,190.8,204.2,185.86,202.14Z" transform="translate(-12.57 -11.83)"/><path class="d" d="M30.84,214.52a20.66,20.66,0,0,0,2.08,2.3,27.38,27.38,0,0,0,12.91,5.8c9.2,1.81,18.32,4,27.51,5.9q9,1.86,18.08,3.27c4.81.75,9.68,1.05,14.49,1.74a103.4,103.4,0,0,0,19.65.7,129,129,0,0,0,15.26-2,61,61,0,0,0,10.87-2.75c4.4-1.64,8.58-3.86,12.85-5.85a1.38,1.38,0,0,0,.61-.65c2.88-6.09,7.39-10.76,12.76-14.69a14.47,14.47,0,0,1,1.52-1.12,1.59,1.59,0,0,1,2.1.16c-3.17,3-6.58,5.83-8.76,9.71-.83,1.48-1.45,3.07-2.17,4.61a4.3,4.3,0,0,1-.24.48l-5.42,8.1-.22.32v0a4.32,4.32,0,0,0-1.11.31A78.83,78.83,0,0,1,140.9,240c-6,1.44-12.17,2.5-18.26,3.73-6.49-.13-13-.19-19.47-.42-19.24-.69-38.21-3.62-57.1-7.11-8.33-1.53-15.9-4.71-21.94-10.87-9-9.16-10.85-19.89-6.53-31.75,1.15-3.16,3-6.06,4.56-9.08l.27.31c-.58,2.71-1.31,5.4-1.71,8.13a20.72,20.72,0,0,0,2.46,12.64,28.09,28.09,0,0,0,6,7.62c0,.93.54,1.27,1.4,1.21Z" transform="translate(-12.57 -11.83)"/><path class="e" d="M376.92,121.79c-.66-.12-1.47-.53-1.94-.28s-.69,1.13-.79,1.77a17.05,17.05,0,0,0-.05,2.58,12.52,12.52,0,0,0-1.3,1.43c-.79,1.18-1.47,2.43-2.26,3.6a25.15,25.15,0,0,1-1.61,2,14.63,14.63,0,0,0-1.53-1.52c-.85-.65-1.64-.34-1.67.72,0,1.56.1,3.12.16,4.69-1,.94-2.11,1.82-3,2.84-1.85,2-3.48,4.3-6.43,4.84-1.26-.56-2.33-1.74-4-1.43l4,2.47a9.74,9.74,0,0,1-1.12,2.56,25,25,0,0,1-3,2.63l-2.06-1.47-.21.28,2.89,3.09a66.56,66.56,0,0,1-5.15,5.69c-2.72,2.4-5.67,4.56-8.62,6.68a11.62,11.62,0,0,1-3.1,1,12.75,12.75,0,0,0-1.19.54,4,4,0,0,1-.91-.53,16.57,16.57,0,0,0-9.13-4.37c-1.37-.26-2.72-.59-4.08-.89l3-3.09c1.25-1.13,2.52-2.23,3.74-3.39a18.16,18.16,0,0,0,1.37-1.65,15.81,15.81,0,0,0,2.13-1.76c3.35-4,6.76-7.84,11.06-10.88,1.26-.89,3.62-1.32,3.05-3.84,0-.09.15-.21.22-.33,2.13-3.78,4.1-7.66,6.45-11.3a63.89,63.89,0,0,1,6.71-8.8,77.67,77.67,0,0,1,7.55-6.56c1.54-1.29,3.18-2.45,4.7-3.76.38-.32.47-1,.7-1.49,2.22-1.09,4.46-.44,6.7-.06-2.4-1.67-4.93-1.53-7.52-.54.09-1,.19-2,.28-2.92l2.57-.45,0-.44-2.82.21c-.83-3-1-5.9,1-8.56a3.33,3.33,0,0,0,.35-1.13,20.4,20.4,0,0,1,13.49-6,9.14,9.14,0,0,1,6.14,1.83c0,1,0,2-.05,3.08a21.69,21.69,0,0,0-9.75.26,5,5,0,0,0-2,1.24,17.15,17.15,0,0,1,12-.52,8.84,8.84,0,0,1,.2,2.27,82.33,82.33,0,0,1-1.66,9.26,43.25,43.25,0,0,1-6.28,13.4c-1.58-.41-2-.19-2.31,1.42-.13.66-.16,1.34-.23,2a13.91,13.91,0,0,0-1.23.75C379.26,119.89,378.1,120.85,376.92,121.79Zm2.27-22.06c-1.32-1.39-6.63-2-8-.87Z" transform="translate(-12.57 -11.83)"/><path class="f" d="M238,183.81a79,79,0,0,1,6.78,5.85c3.41,3.67,7.64,4.47,12.27,4.05,3.29-.3,6.54-.9,9.81-1.37-1,2.61-1.86,5.27-3,7.82-3.8,8.63-9.47,16-16,22.72a5.3,5.3,0,0,0-.65,1.11h0a2,2,0,0,0-.54,0,37,37,0,0,1-12.5.79c-2-.26-4-.68-6.17-1.06.33-.69.48-1.07.67-1.42a38.52,38.52,0,0,0,4.4-18.4,6.6,6.6,0,0,0-5.6-6.9c-1.54-.32-3.09-.59-4.77-.91,3.15-2.36,6.17-4.51,9.07-6.81C233.93,187.55,235.91,185.63,238,183.81Z" transform="translate(-12.57 -11.83)"/><path class="g" d="M321,153.28c.45-1.7.94-3.39,1.32-5.11a5.09,5.09,0,0,0,0-2,1.34,1.34,0,0,0-2.38-.83c-.61.52-1,1.25-1.61,1.82-.86.85-1.8,1.63-2.7,2.45L314,148.22c.95-2.24,1.48-4.47.14-6.85l-1.47,1.2a15.26,15.26,0,0,0-.82-2.14,1.81,1.81,0,0,1,.58-2.59c.67-.39,1.42-.64,2-1.08a1.21,1.21,0,0,0,.41-1c-.3-1-.75-1.9-1.15-2.86A16.92,16.92,0,0,1,303.43,131c-1.71-.86-3-2-2.73-3.78-1.11-.7-2.29-1.09-2.88-1.9s-.57-2-.83-3.07c-2.84.41-4.62-.1-7.07-2.21-1.45-1.25-2.79-2.63-4.2-3.93a21.84,21.84,0,0,1-2-1.82,1.79,1.79,0,0,1-.37-1.52,1.93,1.93,0,0,1,1.48-.68,4.55,4.55,0,0,1,1.66.51c1.24.47,2.47,1,3.71,1.45v0l.36.38h0l.34.25c.43.24.87.46,1.29.71,3.29,2,6.68,3.64,10.62,3.74a3.38,3.38,0,0,0,1.23.44c1.1,0,2.21-.22,3.3-.35.55,3.25.61,3.35,2.11,3.6.47-2.46,2.13-4.06,4-5.57a9.09,9.09,0,0,0,2.14-2.37c2.54-4.38,6.21-6.54,11.33-6.18a6.36,6.36,0,0,0,2.51-.37c3.66-1.29,7.34-.72,11,0,1.08.2,1.84.32,2.67-.39.34-.28.81-.42,1.18-.68.83-.58,1.63-1.2,2.45-1.81h0c2.31-.42,3.64-2.3,5.35-3.61.08-.06.08-.25.09-.38,0-.92,0-1.84.07-2.76,1.39-.89,2.75-1.83,4.19-2.64a5.7,5.7,0,0,1,1.79-.36l2.06-.36a2.53,2.53,0,0,1,2.49,2.23c.14,1.51-.85,2.4-2,3.1-.89.53-1.78.92-1.88,2.22,0,.51-.83,1-1.31,1.43a11.52,11.52,0,0,0-1.86,1.67c-.7,1-1.12,2.27-1.76,3.36-1.2,2-2.38,4.1-4.6,5.21-2.43,1.21-4.88,2.36-7.36,0a1.93,1.93,0,0,0-1.26-.36c-2.29,0-4.57.09-6.85.23-1.31.08-2-.46-2.1-2.15-.53.58-.88,1-1.24,1.35a35.3,35.3,0,0,1-3,3c-.94.76-2.22,1.12-3.09,1.93a13.74,13.74,0,0,0-1.83,2.81h0l-.4.38a43.91,43.91,0,0,0-2.72,3.7,7,7,0,0,0-.22,7.22c1.85,3,4.76,4.81,8.62,4,1.4,1.24,1.42,1.37,0,2.71a20.82,20.82,0,0,1-1.76,1.4,8.55,8.55,0,0,1,2.56.76c1.54,1,1.58,2.66.11,4.5-1.69,2.12-3.49,4.15-5.32,6.16C322.82,152.87,322.13,153.68,321,153.28Z" transform="translate(-12.57 -11.83)"/><path class="h" d="M238,183.81c-2.05,1.82-4,3.74-6.17,5.45-2.9,2.3-5.92,4.45-9.07,6.81,1.68.32,3.23.59,4.77.91a6.6,6.6,0,0,1,5.6,6.9,38.52,38.52,0,0,1-4.4,18.4c-.19.35-.34.73-.67,1.42,2.15.38,4.15.8,6.17,1.06a37,37,0,0,0,12.5-.79,2,2,0,0,1,.54,0c-3.38,2.26-6.62,4.77-10.17,6.72A51.48,51.48,0,0,1,209.71,237a45.3,45.3,0,0,1-6.37-.62c.82-.42,1.64-.84,2.46-1.28a32.49,32.49,0,0,0,14.31-14.28,21.9,21.9,0,0,0,2.29-8.48c.28-5.11-1.91-9-5.76-12.16-.77-.62-1.56-1.22-2.43-1.9A122.29,122.29,0,0,0,232.71,179Z" transform="translate(-12.57 -11.83)"/><path class="i" d="M222.85,164.6c1.22.81,2.44,1.63,3.67,2.43,5.42,3.53,10.79,7.12,16.26,10.56,4.56,2.86,9.21,5.57,13.86,8.27a6.26,6.26,0,0,0,2.82.74c4.34.16,8.09-1.56,11.69-3.76,5.37-3.3,10.57-6.83,14.88-11.48,2-2.15,3.89-4.39,5.79-6.63a1.46,1.46,0,0,0,.15-1.1,3.28,3.28,0,0,1,.91-2.95c2.65-3.23,6.43-4.79,9.87-6.84.8-.48,1.66-.85,2.49-1.27-.59.88-1.18,1.76-1.95,2.89l2.23.18c-1.39.61-2.8,1.21-4.18,1.84a10,10,0,0,0-4.47,4c1.82.11,3.53.59,5.05.26,6.34-1.39,12-4.11,15.78-9.7A6.07,6.07,0,0,1,319,151c-1.41,4.49-3.85,8-8.72,9.19a1.81,1.81,0,0,0-.76.27c-.32.28-.76.63-.78,1a1.28,1.28,0,0,0,.69,1c1.18.44,2.41.73,3.61,1.09a3.58,3.58,0,0,1,1.25.57c-3.13,2-6.06,4.43-9.91,4.48-1.22,0-2.49-.81-3.68-1.38a18.25,18.25,0,0,1-2.3-1.56L298,166l4.15,3-.12.25-4.18-2-.22.4,3.6,2.14c-.91.82-1.77,1.66-2.7,2.41-8.4,6.71-17.21,12.72-27.54,16.16a49.09,49.09,0,0,1-17.88,2.9,9.61,9.61,0,0,1-6.45-2.73c-5-4.72-10.18-9.18-15.12-13.92-2.77-2.67-5.2-5.68-7.76-8.56A10.68,10.68,0,0,1,222.85,164.6Z" transform="translate(-12.57 -11.83)"/><path class="j" d="M240.66,129.69a16.08,16.08,0,0,0-.39-1.83c-.27-.84-.65-1.65-1-2.48l5.36,2.39c2.94,1.32,5.86,2.7,8.83,3.94a7.55,7.55,0,0,0,2.35.17c-2.48-1-5-1.77-7.28-2.89-3.41-1.64-6.54-3.88-10.29-4.8-.12,0-.22-.16-.33-.24-.77-1.62-1.61-3.22-2.31-4.87a19.42,19.42,0,0,1-.92-3.19c0-.24.3-.8.49-.81a2.13,2.13,0,0,1,1.36.33c1.28,1,2.39,2.24,3.75,3.1,4.59,2.92,9.25,5.84,14.76,6.6a69.12,69.12,0,0,0,8.88.14c1.85,0,3.69,0,5.53,0,1.48,0,2.95-.11,4.43-.17a29.81,29.81,0,0,0,12.9,1.16,1.43,1.43,0,0,1,1,.13c1,1,2,.72,3.11,0L296.4,133a13.39,13.39,0,0,1-8.84,3.76c-6.35.31-12-1.81-17.41-5-1.4-.82-2.7-1.67-4.51-1.3A7.2,7.2,0,0,1,263,130a2.19,2.19,0,0,0-1-.08c1.05,1.43,2.77,1.17,4.22,1.57l0,.36a12.11,12.11,0,0,1-2.78.29c-1.4-.17-1.88.58-2.39,1.64-1.81,3.82-3.67,7.61-5.56,11.4-.46.92-1.07,1.77-1.69,2.79-.57-1.12-1.07-2.12-1.59-3.11A51.4,51.4,0,0,0,240.66,129.69Zm16.82-.28V129c-1.15-.31-2.31-.59-3.44-1-3.67-1.15-7.25-2.47-10-5.42A17.75,17.75,0,0,0,241.9,121c-1.77-1.38-3.51-2.79-5.28-4.17-.11-.09-.29-.09-.43-.14,1.85,3.82,5.93,5,8.73,7.77,3,2.9,7.11,3.92,11.09,4.91A6.56,6.56,0,0,0,257.48,129.41Zm-13.57.18c.15.56.14.73.22.81a13.89,13.89,0,0,0,9.77,3.89c.23,0,.47-.31.7-.48C250.55,133.72,247.23,132.17,243.91,129.59Z" transform="translate(-12.57 -11.83)"/><path class="g" d="M326.24,93.66a14.79,14.79,0,0,1,2.93.85,42.05,42.05,0,0,0,13.15,4.16,6.46,6.46,0,0,1-1.56.77c-3,.59-5.92,1.14-8.9,1.62-.69.12-1.11.19-1.31,1a5.86,5.86,0,0,1-2.89,3.94,29.77,29.77,0,0,1-5,2.13c-4.42,1.36-8.84,2.64-12.26,6.07a4.3,4.3,0,0,1-3.88,1.57c-1.1-.21-2.19-.51-3.29-.68-2.09-.33-4.19-.61-6.28-.91-1.82-1.09-3.71-2.1-5.44-3.32a2.34,2.34,0,0,0-3.24,0,30.57,30.57,0,0,1-4,.27,17.8,17.8,0,0,1-3.12-.78c-1.73-.43-3.48-.84-5.21-1.29a29.31,29.31,0,0,0-2.81-.87c-1.69-.27-3.41-.33-5.09-.58-1.84-.27-2.33-1.33-1.48-3,.88.19,1.75.43,2.64.54,1.39.16,2.78.23,4.18.34,1.46,1.53,3.5,1.72,5.37,2.27a1.24,1.24,0,0,0,1.09-.2c.8-1.08,1.91-1.11,3.05-1.07,2.26.08,4.48.07,6.56-1.1.79-.44,1.32-.75.83-1.72a5.93,5.93,0,0,1-.3-1c.16-.8.35-1.61-.83-1.8l-1.35-1.1c1.7-.55,3.4-1.08,5.09-1.65a7.4,7.4,0,0,0,2.58-1.07,8.62,8.62,0,0,1,4.85-2.14c2.27-.34,4.57-.46,6.86-.67a9.64,9.64,0,0,1-1,.57q-3.54,1.37-7.1,2.66c-.91.34-1.52.92-.84,1.79a3,3,0,0,1,.52,2.65v0c-.55.52-1.13,1-1.65,1.55-.24.25-.53.6-.51.88.06,1.06.24,2.11.38,3.21a2.59,2.59,0,0,0,.7.07c1.92-.45,3.83-.92,5.75-1.39,2.86-.47,5.76-.78,8.56-1.47a38.71,38.71,0,0,0,6.08-2.34,2.79,2.79,0,0,0,1.7-2.68,21.58,21.58,0,0,1,1.64-2.25c.61-.67,1.3-1.55,2.08-1.71A4.46,4.46,0,0,0,326.24,93.66Z" transform="translate(-12.57 -11.83)"/><path class="h" d="M281.33,139.28c-2.09,3.5-1.7,7.13-1.07,11l-3.27-2c-.13,1.1-.23,1.91-.32,2.73-.2,1.79-.4,3.58-.57,5.37-.09.89-.5,1.28-1.42,1.48a51.29,51.29,0,0,1-13.13,1.09,3.25,3.25,0,0,1-1.94-.95,22.81,22.81,0,0,1-5.1-8.57,1.78,1.78,0,0,1,.17-1.35,75.13,75.13,0,0,0,7.05-14c.29-.76.72-.93,1.53-1.14,2.68-.71,4.64.42,6.74,1.82A31.52,31.52,0,0,0,280.12,139C280.46,139,280.81,139.14,281.33,139.28Z" transform="translate(-12.57 -11.83)"/><path class="k" d="M48.72,162c-2.13,1.73-4.33,3.38-6.39,5.19C36.88,172,32.36,177.53,30,184.5c-3.54,10.34-1.11,19.33,6.68,26.82,6.14,5.9,13.78,9,22,10.72,2.53.54,5.11.8,7.66,1.2.68.11,1.34.29,2,.44l-.08.5c-4-.34-8.08-.64-12.11-1a54.71,54.71,0,0,1-15.22-3.83c-6.2-2.54-11.75-6-15.58-11.69-5.2-7.69-5-15.74-1.45-24,2.28-5.39,6.3-9.27,10.76-12.68,4.2-3.2,8.77-5.91,13.18-8.83a3.72,3.72,0,0,1,.83-.3Z" transform="translate(-12.57 -11.83)"/><path class="l" d="M321,153.28c1.14.4,1.83-.41,2.44-1.07,1.83-2,3.63-4,5.32-6.16,1.47-1.84,1.43-3.46-.11-4.5a8.55,8.55,0,0,0-2.56-.76,20.82,20.82,0,0,0,1.76-1.4c1.4-1.34,1.38-1.47,0-2.71a27.18,27.18,0,0,0,12-7c2.42-2.24,4.33-4.79,4.14-8.3-.15-2.68-1.44-5.36-3.56-5.84a19.45,19.45,0,0,0-6.13-.38,18.67,18.67,0,0,0-11.69,6.19,13.74,13.74,0,0,1,1.83-2.81c.87-.81,2.15-1.17,3.09-1.93a35.3,35.3,0,0,0,3-3c.36-.38.71-.77,1.24-1.35.07,1.69.79,2.23,2.1,2.15,2.28-.14,4.56-.19,6.85-.23a1.93,1.93,0,0,1,1.26.36c2.48,2.33,4.93,1.18,7.36,0,2.22-1.11,3.4-3.19,4.6-5.21.64-1.09,1.06-2.32,1.76-3.36a11.52,11.52,0,0,1,1.86-1.67c.48-.45,1.27-.92,1.31-1.43.1-1.3,1-1.69,1.88-2.22,1.17-.7,2.16-1.59,2-3.1a2.53,2.53,0,0,0-2.49-2.23c1.89-1.62,3-1.68,4.66-.11a2.22,2.22,0,0,1,.43,1.35,15,15,0,0,1-.14,1.62c-.07,1.91.47,3.83-.42,5.71-.24.5,0,1.24.08,1.84-6.84,4.07-11.61,10.23-16.22,16.52a40.86,40.86,0,0,0-6.67,13.87,1.28,1.28,0,0,1-.48.73c-5.74,3.47-10.07,8.39-14,13.74a16.79,16.79,0,0,0-1.45,2c-1.37,2.67-3.79,3.46-6.56,3.77l1.36-2.64.18-.33Z" transform="translate(-12.57 -11.83)"/><path class="m" d="M215.87,244.63a2.59,2.59,0,0,1-.72.29c-2.93.2-5.85.43-8.78.55a91.2,91.2,0,0,1-10.18.22,87.6,87.6,0,0,1-10.26-1.64c-.63-.12-1.14-.86-1.7-1.32-1.58-1.26-3.16-2.51-4.73-3.78-.35-.29-.94-.65-.91-.94a1.66,1.66,0,0,1,.81-1.23,53.15,53.15,0,0,1,7.62-2.7c9.44-2.08,17.86-6.42,26-11.44,1.49-.92,2.8-2.13,4.21-3.18a5.34,5.34,0,0,1,.83-.41,28,28,0,0,1-2.32,4.25c-7.66,9.79-17.88,14.25-30.2,14.23-.81,0-1.63,0-2.45,0s-1.56,0-1.44.95c.05.41.77,1,1.26,1a29.4,29.4,0,0,0,12.42-.47c1.92-.48,3.81-1.09,5.47-1.56,1.12,1,2.15,2,3.2,2.89,2.81,2.43,6.41,2.81,9.8,3.72C214.47,244.29,215.17,244.46,215.87,244.63Z" transform="translate(-12.57 -11.83)"/><path class="m" d="M265.3,252.44c-3.21-2.43-6.38-4.91-9.64-7.27-2.5-1.81-5.29-1.62-8.19-.72,5,.64,8.61,3.06,10.46,7.89l-1.05-.82c-.36-.27-.72-.55-1.1-.81-1.58-1.06-3.13-1.75-5.2-1.05a7.42,7.42,0,0,1-4,0,19.51,19.51,0,0,1-8.27-3.83,33.9,33.9,0,0,0-11.18-6.05c-.45-.15-.89-.33-1.11-.42,4-1.65,8-3.35,12-5a1.52,1.52,0,0,1,1.11,0c3.62,1.67,7.22,3.37,10.47,4.9.31.53.42,1,.63,1a14.51,14.51,0,0,0,3.83.54,6,6,0,0,1,5.2,2,28.14,28.14,0,0,1,6.28,9.37Z" transform="translate(-12.57 -11.83)"/><path class="m" d="M164.11,244.66c1.9.82,3.85,1.55,5.7,2.49a23.46,23.46,0,0,0,10.63,2.75c4.78,0,9.56.36,14.33.8,4.48.41,8.93,1.13,13.39,1.7a19.6,19.6,0,0,0,2.3.16c5.18.11,10.24.68,15,2.87,2.17,1,4.55,1.48,6.78,2.33a18.18,18.18,0,0,1,3.06,1.73c.2.13.24.53.36.8a7.73,7.73,0,0,0-4.52-.21,4.71,4.71,0,0,1-4.71-1.17c-2.2-2.12-5.24-2.79-8.2-3.32a29.18,29.18,0,0,0-10.12.16c-12.57,2.1-24.85,1.13-36.53-4.33a28.46,28.46,0,0,1-5.75-3.82C165.05,246.92,164.69,245.66,164.11,244.66Z" transform="translate(-12.57 -11.83)"/><path class="n" d="M384.22,114.78a43.25,43.25,0,0,0,6.28-13.4,82.33,82.33,0,0,0,1.66-9.26,8.84,8.84,0,0,0-.2-2.27,24.74,24.74,0,0,1,3.82,1.69c1.47,1,1.66,2.68,1.88,4.29,1.26,9-2.3,16.28-7.94,22.86-.75.88-1.54,1.72-2.18,2.43Z" transform="translate(-12.57 -11.83)"/><path class="o" d="M297,114.19c2.09.3,4.19.58,6.28.91,1.1.17,2.19.47,3.29.68a4.3,4.3,0,0,0,3.88-1.57c3.42-3.43,7.84-4.71,12.26-6.07a29.77,29.77,0,0,0,5-2.13,5.86,5.86,0,0,0,2.89-3.94c.2-.82.62-.89,1.31-1,3-.48,5.94-1,8.9-1.62a6.46,6.46,0,0,0,1.56-.77c2.75.1,5.5.22,8.26.28a8.14,8.14,0,0,0,1.58-.3c0,.92,0,1.84-.07,2.76,0,.13,0,.32-.09.38-1.71,1.31-3,3.19-5.35,3.61,1-1.7.12-3.41-1.76-3.5-2.12-.11-4.24-.19-6.36-.28-2.89-.11-5.28,1.19-7.71,2.68l.82,2.16a22.36,22.36,0,0,1,4-1.52,31.86,31.86,0,0,1,11,.45c-.82.61-1.62,1.23-2.45,1.81-.37.26-.84.4-1.18.68-.83.71-1.59.59-2.67.39-3.63-.68-7.31-1.25-11,0a6.36,6.36,0,0,1-2.51.37c-5.12-.36-8.79,1.8-11.33,6.18a9.09,9.09,0,0,1-2.14,2.37c-1.85,1.51-3.51,3.11-4,5.57-1.5-.25-1.56-.35-2.11-3.6-1.09.13-2.2.31-3.3.35a3.38,3.38,0,0,1-1.23-.44c.62-.11,1.25-.19,1.86-.33.87-.19,1.31-.6,1-1.63-.25-.86-.46-1.47-1.57-1.38A13,13,0,0,1,297,114.19Z" transform="translate(-12.57 -11.83)"/><path class="p" d="M286.11,94.62l-1.59-4.11c11.05-2.83,22.08-6.42,33.86-4.65l.09.37c-.35.11-.69.23-1,.32s-.81.15-1.2.25a53,53,0,0,0-11.94,4.81,9.66,9.66,0,0,1-2.92,1,16.09,16.09,0,0,0-7.53,2.82,2.17,2.17,0,0,1-.73.36c-3.25,1.09-6.5,2.18-9.86,3.29-.68-2.41-1.26-5.11-3.59-6.91a1.45,1.45,0,0,1,2.42.39c.61,1,1.1,2.15,1.62,3.23a5.25,5.25,0,0,0,.82,1.41,9.32,9.32,0,0,0-2.34-5.76,1.06,1.06,0,0,1,1.8.23,20.56,20.56,0,0,1,1.08,2.15c.18.35.35.71.52,1.07Z" transform="translate(-12.57 -11.83)"/><path class="j" d="M300.15,64.46l-.44-1,4.21-.54-.06-.54-4.87.34a69.8,69.8,0,0,0-2.93-6.81c-3.1-5.54-7.39-10.15-12-14.47a24.72,24.72,0,0,0-3.18-2.22c0-.67-.09-1.34-.14-2.15,13.35,4.72,21.62,14.74,28.55,26.16Z" transform="translate(-12.57 -11.83)"/><path class="q" d="M315.23,160.7c.32.12.54.13.63.24.83,1,1.68,1.65,2.82.34a1.06,1.06,0,0,1,.89-.21c3.34.86,6.7,1.65,10,2.7a11.84,11.84,0,0,1,3.28,2.09c1.53,1.16,3.05,2.36,4.46,3.66a4.18,4.18,0,0,1,.89,5.42,4.83,4.83,0,0,1-4.63,1.59c-7.89-2.89-14.62-7.21-18.25-15.22A3.09,3.09,0,0,1,315.23,160.7Z" transform="translate(-12.57 -11.83)"/><path class="j" d="M207.59,194.86a65.13,65.13,0,0,0,15.7-17.67c1-1.53,1.77-3.14,2.65-4.72l5.89,6.48c-1.87,2.2-3.93,4.89-6.26,7.31-3.52,3.64-7.23,7.1-10.85,10.64a1.64,1.64,0,0,1-2.43.31A42.92,42.92,0,0,0,207.59,194.86Z" transform="translate(-12.57 -11.83)"/><path class="l" d="M266.56,104.66c-.85,1.62-.36,2.68,1.48,3,1.68.25,3.4.31,5.09.58a29.31,29.31,0,0,1,2.81.87c1.73.45,3.48.86,5.21,1.29a17.8,17.8,0,0,0,3.12.78,30.57,30.57,0,0,0,4-.27c.63,1,1.25,2.1,1.88,3.14-1.24-.48-2.47-1-3.71-1.45a4.55,4.55,0,0,0-1.66-.51,1.93,1.93,0,0,0-1.48.68,1.79,1.79,0,0,0,.37,1.52,21.84,21.84,0,0,0,2,1.82c1.41,1.3,2.75,2.68,4.2,3.93,2.45,2.11,4.23,2.62,7.07,2.21.26,1,.24,2.28.83,3.07s1.77,1.2,2.88,1.9c-.31,1.81,1,2.92,2.73,3.78a16.92,16.92,0,0,0,10.29,1.91c.4,1,.85,1.89,1.15,2.86a1.21,1.21,0,0,1-.41,1c-.63.44-1.38.69-2,1.08a1.81,1.81,0,0,0-.58,2.59,15.26,15.26,0,0,1,.82,2.14l-2.21,2.64c-.59-1.27-1-2.24-1.5-3.21-.92-1.95-2.55-3.28-4-4.83-2.29-2.47-4-5.44-6.27-8a52.77,52.77,0,0,0-6.26-6c-1.42-1.17-1.78-.9-2.47.83a1.47,1.47,0,0,1-.86.76,13.29,13.29,0,0,1-.32-2.4,4.82,4.82,0,0,0-1.54-3.75c-.78-.82-1.66-1.55-2.5-2.3-1.23-1.11-2.49-2.21-3.72-3.32-1.74-1.58-4-2.07-6.13-2.63-3.42-.9-6.87-1.66-10.29-2.54a1.17,1.17,0,0,1-.69-.87A3.26,3.26,0,0,1,266.56,104.66Z" transform="translate(-12.57 -11.83)"/><path class="r" d="M122.64,243.72c6.09-1.23,12.22-2.29,18.26-3.73a78.83,78.83,0,0,0,22.7-9.07,4.32,4.32,0,0,1,1.11-.31c-.68,1.68-1.44,3.33-2,5-.71,2.09-1.26,4.23-1.95,6.58a11,11,0,0,1-1.29.18c-8.33.46-16.65,1-25,1.33C130.54,243.9,126.59,243.74,122.64,243.72Z" transform="translate(-12.57 -11.83)"/><path class="n" d="M335,166.47a12.75,12.75,0,0,1,1.19-.54,11.62,11.62,0,0,0,3.1-1c2.95-2.12,5.9-4.28,8.62-6.68a66.56,66.56,0,0,0,5.15-5.69c1.56,1.76,2.35,3.61,1.38,6-1.68,4.18-4.58,7.33-8,10.14-1.81,1.5-3.56,3.06-5.36,4.59-.5.43-1,.82-1.86,1.46,1.36-4.29-1.57-6-4-8A3.57,3.57,0,0,1,335,166.47Z" transform="translate(-12.57 -11.83)"/><path class="h" d="M247.23,224a5.3,5.3,0,0,1,.65-1.11c6.49-6.76,12.16-14.09,16-22.72,1.12-2.55,2-5.21,3-7.82l6.57-2c-1.28,2.4-2.36,4.51-3.52,6.57A92,92,0,0,1,249.79,222C249,222.73,248.08,223.34,247.23,224Z" transform="translate(-12.57 -11.83)"/><path class="r" d="M287.12,139.84c-.63,4.34-1.22,8.55-1.86,12.75a1.73,1.73,0,0,1-.57.88,14.31,14.31,0,0,1-7.79,3.69c.26-2.49.52-5,.8-7.54l3.65,2.39c-.12-.92-.14-1.48-.27-2a14.63,14.63,0,0,1,.21-9c.44-1.11,1.06-1.68,2.34-1.44C284.69,139.72,285.78,139.73,287.12,139.84Z" transform="translate(-12.57 -11.83)"/><path class="n" d="M371.49,103.83c-.23.51-.32,1.17-.7,1.49-1.52,1.31-3.16,2.47-4.7,3.76a77.67,77.67,0,0,0-7.55,6.56,63.89,63.89,0,0,0-6.71,8.8c-2.35,3.64-4.32,7.52-6.45,11.3-.07.12-.24.24-.22.33.57,2.52-1.79,3-3.05,3.84-4.3,3-7.71,6.92-11.06,10.88a15.81,15.81,0,0,1-2.13,1.76c3.12-4.83,6.69-9.3,11.53-12.45a10.23,10.23,0,0,0,4.14-5.66,50.24,50.24,0,0,1,9.09-15.34,126,126,0,0,1,9.1-9.67c1-1,2.53-1.31,3.8-2a2.77,2.77,0,0,0,1.1-.81A6.24,6.24,0,0,1,371.49,103.83Z" transform="translate(-12.57 -11.83)"/><path class="s" d="M260.82,96.68a5.32,5.32,0,0,1,1.09-.89c4-1.67,7.95-3.53,12-4.89,8.65-2.88,17.35-5.63,26.11-8.15,5.94-1.71,12-2,17.95.3a4.76,4.76,0,0,0,1.44.31c.75,0,1.09.34,1.06,1.08-9.37-2.06-18.51-.33-27.58,1.82a168.36,168.36,0,0,0-31.1,10.1A7.1,7.1,0,0,1,260.82,96.68Z" transform="translate(-12.57 -11.83)"/><path class="t" d="M376.66,124.73c1.07,3.34,2.32,6.63,3.18,10,1.09,4.29-2.84,10-7.17,11.23.17-1.19.73-2.48.44-3.52-.69-2.42.4-4.27,1.37-6.23.64-1.29,1.31-2.58,1.9-3.89a3.18,3.18,0,0,0,.21-1.44c-.12-2-.29-4-.45-6.08Z" transform="translate(-12.57 -11.83)"/><path class="c" d="M319,151A6.07,6.07,0,0,0,317.7,152c-3.82,5.59-9.44,8.31-15.78,9.7-1.52.33-3.23-.15-5.05-.26a10,10,0,0,1,4.47-4c1.38-.63,2.79-1.23,4.18-1.84,5.05-.27,9.51-1.86,12.94-5.76a3.48,3.48,0,0,1,.66-.45c.09.14.17.28.25.42Z" transform="translate(-12.57 -11.83)"/><path class="l" d="M326.24,93.66a4.46,4.46,0,0,1-2.78,2.11c-.78.16-1.47,1-2.08,1.71a21.58,21.58,0,0,0-1.64,2.25,3.5,3.5,0,0,0-3.73-3c-2.15,0-4.32-.12-6.47,0-4.28.25-7.71,2.41-10.82,5.19a3,3,0,0,0-.52-2.65c-.68-.87-.07-1.45.84-1.79q3.56-1.29,7.1-2.66a9.64,9.64,0,0,0,1-.57c2,0,4-.21,5.92-.11,2.61.13,5.21.5,7.82.7a6.2,6.2,0,0,0,1.51-.38C323.7,94.18,325,93.92,326.24,93.66Z" transform="translate(-12.57 -11.83)"/><path class="p" d="M267.83,119.28a19.08,19.08,0,0,1,12.95,1.53c2,1,2.08,1,2.23-1.27,2,1,3.84,3.12,3.83,4.35A27.26,27.26,0,0,1,267.83,119.28Z" transform="translate(-12.57 -11.83)"/><path class="m" d="M261.38,161.27a14,14,0,0,1-3.75.75,3.54,3.54,0,0,1-2.46-1.56c-1.74-3.12-3.34-6.33-4.82-9.58s-2.87-6.73-4.27-10.12a15.11,15.11,0,0,1-.52-1.81c1.73,2.74,3.55,5.44,5.18,8.24,1.88,3.24,3.59,6.58,5.4,9.86a10.29,10.29,0,0,0,1.1,1.54C258.33,159.92,259.45,161.22,261.38,161.27Z" transform="translate(-12.57 -11.83)"/><path class="t" d="M367.74,135c3.36,4,4.15,7.87,2.33,11.16s-5.71,6-8.36,5.58a12.58,12.58,0,0,1,1.3-2,18.52,18.52,0,0,0,4.78-7.81c.48-1.8.08-3.84.07-5.77A11.07,11.07,0,0,0,367.74,135Z" transform="translate(-12.57 -11.83)"/><path class="t" d="M382.43,136.36a10.35,10.35,0,0,0-.42-2.64,7,7,0,0,1,.41-6,17.43,17.43,0,0,0,1.29-9.43,4,4,0,0,1,.47.71c.73,2.56,1.56,5.1,2.14,7.7A9.27,9.27,0,0,1,382.43,136.36Z" transform="translate(-12.57 -11.83)"/><path class="u" d="M265.3,115c-2.3-2.08-2.47-3.24-1-6.34,4.72,1.21,9.46,2.34,14.13,3.69,1,.3,1.83,1.35,2.72,2.08.74.6,1.44,1.24,2.16,1.85l1.11.94-.19.31c-.3-.18-.6-.34-.88-.54a32,32,0,0,0-11.07-5c-2.51-.6-4.29.47-6,2A14.41,14.41,0,0,0,265.3,115Z" transform="translate(-12.57 -11.83)"/><path class="n" d="M356.46,144.43c3-.54,4.58-2.82,6.43-4.84.93-1,2-1.9,3-2.84,1.24,5-1.91,8.23-4.52,12a9.79,9.79,0,0,0-1.17-1.6c-.72-.65-.9-2.09-2.46-1.61C357.47,145.59,356.91,144.81,356.46,144.43Z" transform="translate(-12.57 -11.83)"/><path class="m" d="M185.86,202.14c4.94,2.06,6,2.7,8.07,5-1,.57-2,1.08-2.85,1.67-3.54,2.34-7.06,4.72-10.6,7a4.79,4.79,0,0,1-1.21.41l7.82-6.08c.25-.2.63-.32.75-.57a10.11,10.11,0,0,0,.44-1.57l-1.53-.09C185.54,206.16,184.72,204.3,185.86,202.14Z" transform="translate(-12.57 -11.83)"/><path class="t" d="M298.16,148.92c-.91-4,1.3-6.11,3.82-8.31l3.88,6.86Z" transform="translate(-12.57 -11.83)"/><path class="n" d="M352.4,150.66a25,25,0,0,0,3-2.63,9.74,9.74,0,0,0,1.12-2.56c.31.27.63.52.92.8,1.16,1.15,2.48,2.29,2.49,4,0,1.41-2.71,4.5-4.06,5.15Z" transform="translate(-12.57 -11.83)"/><path class="m" d="M226.47,251.39c0-1.38.6-1.9,2-1.85a19,19,0,0,1,7.25,1.93c1.75.81,3.49,1.64,5.23,2.47l1.07,1.59-.54,1.94a16.66,16.66,0,0,0-9.41-4.35c-.38-.05-.72-.36-1.11-.47C229.48,252.21,228,251.81,226.47,251.39Z" transform="translate(-12.57 -11.83)"/><path class="t" d="M298.28,135.25c1,1.34,1.77,2.52,2.79,4h-3.43c-2.24,0-4.12.56-5.19,2.87-.91,1.95-2.1,3.77-3.28,5.84.21-2.8.39-5.42.62-8a.9.9,0,0,1,.58-.59A17.83,17.83,0,0,0,298.28,135.25Z" transform="translate(-12.57 -11.83)"/><path class="l" d="M290,102.68a5.93,5.93,0,0,0,.3,1c.49,1,0,1.28-.83,1.72-2.08,1.17-4.3,1.18-6.56,1.1-1.14,0-2.25,0-3.05,1.07a1.24,1.24,0,0,1-1.09.2c-1.87-.55-3.91-.74-5.37-2.27l9.2-3.16.06.08c-.47.53-.9,1.12-1.42,1.6-.85.77-.36,1.45.21,1.91.22.19,1-.08,1.39-.36a6.09,6.09,0,0,1,5-1.55A1.69,1.69,0,0,0,290,102.68Z" transform="translate(-12.57 -11.83)"/><path class="u" d="M292.71,124.51c2,2,4.05,3.86,5.9,6,2.2,2.5,4,5.4,6.37,7.71a18.3,18.3,0,0,1,4,5.69c.76,1.66.72,1.67-1,2.43-.09-.07-.23-.13-.28-.24A92.42,92.42,0,0,0,294,126.75a12.8,12.8,0,0,1-1.32-2.24Z" transform="translate(-12.57 -11.83)"/><path class="n" d="M369,132.86a25.15,25.15,0,0,0,1.61-2c.79-1.17,1.47-2.42,2.26-3.6a12.52,12.52,0,0,1,1.3-1.43c.19,1.52.4,3,.55,4.57a2,2,0,0,1-.17,1c-.92,1.92-1.88,3.82-2.94,5.95Z" transform="translate(-12.57 -11.83)"/><path class="j" d="M248.84,101.35c-1.69-.68-2.08-2.38-2.94-3.71a4.7,4.7,0,0,0-.85-1.15c-1.18-1-1.47-1.72-.6-2.89a18.3,18.3,0,0,1,3-2.94,1.83,1.83,0,0,1,2.7.16,1.9,1.9,0,0,1-.06,2.69,2.6,2.6,0,0,0-.21.36c-.6-.13-1.49-.56-1.74-.32a2.61,2.61,0,0,0-.79,2,39,39,0,0,0,1.15,4.56C248.57,100.5,248.71,100.92,248.84,101.35Z" transform="translate(-12.57 -11.83)"/><path class="v" d="M275.55,115.5c1.91.89,3.88,1.69,5.7,2.73.61.35.86,1.32,1.27,2l-.31.22c-1.43-.56-2.86-1.16-4.31-1.67a19.27,19.27,0,0,0-9.74-.47,2.2,2.2,0,0,1-.51,0c1.26-.56,2.49-1.2,3.79-1.66S274.18,115.87,275.55,115.5Z" transform="translate(-12.57 -11.83)"/><path class="n" d="M376.92,121.79c1.18-.94,2.34-1.9,3.53-2.83a13.91,13.91,0,0,1,1.23-.75,12.69,12.69,0,0,1-1.55,9.09Q378.54,124.56,376.92,121.79Z" transform="translate(-12.57 -11.83)"/><path class="n" d="M372,89.94a3.33,3.33,0,0,1-.35,1.13c-2.05,2.66-1.86,5.57-1,8.56l-2.94,1C365.71,98.49,367.92,92.92,372,89.94Z" transform="translate(-12.57 -11.83)"/><path class="w" d="M275.55,115.5c-1.37.37-2.77.66-4.11,1.13s-2.53,1.1-3.79,1.66v0l-.54.21-1.93-.89a17.92,17.92,0,0,0,2.27-1.9c1.18-1.34,2.48-2.08,4.29-1.48C273,114.62,274.28,115.07,275.55,115.5Z" transform="translate(-12.57 -11.83)"/><path class="s" d="M175.61,214.39c1.44-.68,2.88-1.38,4.34-2a19.65,19.65,0,0,1,1.87-.65l-9.11,7.77a1.08,1.08,0,0,0-.2-.16Q174.07,216.86,175.61,214.39Z" transform="translate(-12.57 -11.83)"/><path class="n" d="M371,100.31c-.09,1-.19,2-.28,2.92l-3.58,2.29c-.78-1.86.43-4.17,2.69-4.91A11.8,11.8,0,0,1,371,100.31Z" transform="translate(-12.57 -11.83)"/><path class="p" d="M277,93a1.85,1.85,0,0,1,2.94.54,37.68,37.68,0,0,1,2.38,5.2c.31.77,0,1.31-1,1.43C280.76,97.32,279.93,94.59,277,93Z" transform="translate(-12.57 -11.83)"/><path class="n" d="M391.62,88.87c0-1,0-2.06.05-3.08A8.86,8.86,0,0,1,396.61,91l-4.72-2-.26-.22Z" transform="translate(-12.57 -11.83)"/><path class="n" d="M323.81,157.59l-3,3.09c-1.3-.31-2.59-.54-3.69.67l-.9-1c.72-.36,1.38-.64,2-1A9,9,0,0,1,323.81,157.59Z" transform="translate(-12.57 -11.83)"/><path class="x" d="M289.09,101.84c.1.74.17,1.51-1,1.41a8.08,8.08,0,0,0-6.26,2.15C282.17,102.84,286.21,100.89,289.09,101.84Z" transform="translate(-12.57 -11.83)"/><path class="i" d="M236.72,248.76c3.23.66,7.82,6.58,7.9,10C243.22,254.57,240.16,251.68,236.72,248.76Z" transform="translate(-12.57 -11.83)"/><path class="l" d="M314,148.22l1.63,1.37-3.4,2.7C311.45,150.16,313.5,149.54,314,148.22Z" transform="translate(-12.57 -11.83)"/><path class="i" d="M306.65,151.57c.35-.48.68-1,1.05-1.44s.92-1.14,1.38-1.72l2.55-1.45.2.19A7.92,7.92,0,0,1,306.65,151.57Z" transform="translate(-12.57 -11.83)"/><path class="t" d="M262.84,245.39c2.12,2.29,4.21,4.6,4.41,8l-4.55-7.91Z" transform="translate(-12.57 -11.83)"/><path class="c" d="M241.49,257.47l.54-1.94c1.6,2.06,2.14,4.51,2.69,7Z" transform="translate(-12.57 -11.83)"/><path class="l" d="M287.8,99.78l1.35,1.1h-2.92l-.21-.24Z" transform="translate(-12.57 -11.83)"/><path class="w" d="M286.88,120l-2.31-2.13.44-.42,2,2.38A1.37,1.37,0,0,0,286.88,120Z" transform="translate(-12.57 -11.83)"/><path class="b" d="M30.59,214.4c-.86.06-1.38-.28-1.4-1.21Z" transform="translate(-12.57 -11.83)"/><path class="m" d="M179.27,216.26c0,.93-.55,1.18-1.36,1.13Z" transform="translate(-12.57 -11.83)"/><path class="m" d="M177.66,217.59l-1,.93Z" transform="translate(-12.57 -11.83)"/><path class="m" d="M263.82,161.34l-1.63,0Z" transform="translate(-12.57 -11.83)"/><path class="l" d="M286.23,100.87l-.94.24-.05-.17.78-.31Z" transform="translate(-12.57 -11.83)"/><path class="d" d="M22.16,184.49l.28-.44.19.14-.2.61Z" transform="translate(-12.57 -11.83)"/><path class="d" d="M22.44,184.05l.33-.34-.14.48Z" transform="translate(-12.57 -11.83)"/><path class="l" d="M282.58,102.38l.66-.16,0,0-.57.26Z" transform="translate(-12.57 -11.83)"/><path class="m" d="M265.55,252.21l.12.46c-.13-.07-.25-.15-.37-.23Z" transform="translate(-12.57 -11.83)"/><path class="s" d="M172.71,219.48l-.33.31.13-.47A1.08,1.08,0,0,1,172.71,219.48Z" transform="translate(-12.57 -11.83)"/><path class="v" d="M267.12,118.47l.54-.21Z" transform="translate(-12.57 -11.83)"/><path class="i" d="M319.37,149.85c-.08-.14-.16-.28-.25-.42l.32-.08Z" transform="translate(-12.57 -11.83)"/><path class="i" d="M311.63,147l.35-.19-.15.38Z" transform="translate(-12.57 -11.83)"/><path class="y" d="M239.43,259l-.37-.31.1-.16.44.27C239.54,258.87,239.48,258.93,239.43,259Z" transform="translate(-12.57 -11.83)"/><path class="j" d="M249.08,101.9l-.24-.55Z" transform="translate(-12.57 -11.83)"/><polygon class="t" points="249.25 232.46 249.18 232.49 249.19 232.41 249.25 232.46"/><path class="l" d="M283.24,102.22l-.06-.19h.17l-.14.18Z" transform="translate(-12.57 -11.83)"/><path class="t" d="M262.19,244.93l-.16-.16.17,0,0,.21Z" transform="translate(-12.57 -11.83)"/><path class="t" d="M262.46,245.21l-.27-.28,0,0,.3.24Z" transform="translate(-12.57 -11.83)"/><path class="t" d="M262.7,245.51l-.24-.3h0l.37.19Z" transform="translate(-12.57 -11.83)"/><path class="r" d="M164.72,230.57l.22-.32Z" transform="translate(-12.57 -11.83)"/><path class="e" d="M391.63,88.83l.26.22Z" transform="translate(-12.57 -11.83)"/><path class="y" d="M259.83,251.07l0-.35.26.16Z" transform="translate(-12.57 -11.83)"/><path class="g" d="M321,153.32l-.18.33Z" transform="translate(-12.57 -11.83)"/><path class="w" d="M287.05,119.83l.09.35-.26-.18A1.37,1.37,0,0,1,287.05,119.83Z" transform="translate(-12.57 -11.83)"/><polygon class="w" points="274.83 108.63 274.86 108.73 274.78 108.72 274.83 108.63"/><path class="y" d="M239.6,258.8l.22.33-.39-.13C239.48,258.93,239.54,258.87,239.6,258.8Z" transform="translate(-12.57 -11.83)"/><path class="y" d="M240,259.77l-.14-.41.39,0Z" transform="translate(-12.57 -11.83)"/><path class="u" d="M292.72,124.51h-.2l.06-.17.13.17Z" transform="translate(-12.57 -11.83)"/><path class="c" d="M238.55,262.16s.07,0,.09,0a.42.42,0,0,1,0,.1h-.19Z" transform="translate(-12.57 -11.83)"/><path class="z" d="M243.21,98.58c-.41,6.09-2.43,11.22-7.53,14.68s-11,1.2-12.5-4.83c-1.68-6.62.94-14.19,6.24-18.08,5.51-4,11.76-1.76,13.32,4.88C243,96.37,243.07,97.56,243.21,98.58Z" transform="translate(-12.57 -11.83)"/><path class="aa" d="M248.8,83.76c-.46-.58-.92-1.16-1.37-1.75.11-.62.46-1.32.28-1.85a17.34,17.34,0,0,1-.51-8.86c1.24-6.36,4.21-11.59,10.31-14.45a10,10,0,0,1,10.9,1.07c4.27,3.28,6.43,10.87,4.63,16.29-.19-.56-.34-1-.5-1.45-1.26-3.64-4.19-6-7.52-6.1a8.59,8.59,0,0,0-8.2,6.71,63.74,63.74,0,0,0-1,7.37Z" transform="translate(-12.57 -11.83)"/><path class="ab" d="M248.8,83.76l7-3a63.74,63.74,0,0,1,1-7.37,8.59,8.59,0,0,1,8.2-6.71c3.33.09,6.26,2.46,7.52,6.1.16.44.31.89.5,1.45,1.8-5.42-.36-13-4.63-16.29a10,10,0,0,0-10.9-1.07c-6.1,2.86-9.07,8.09-10.31,14.45a17.34,17.34,0,0,0,.51,8.86c.18.53-.17,1.23-.28,1.85a1.51,1.51,0,0,1-2.12-1.24c-2.27-8.7,1.07-18.61,8.08-23.9,5.37-4.06,12-4.25,16.59-.43,3.74,3.1,5.3,7.27,5.51,12a47.24,47.24,0,0,1-.41,5.54,2.42,2.42,0,0,0,.12,1.27c.92,1.53.61,2.31-1.15,2.73a2.79,2.79,0,0,1-.4.07,12,12,0,0,0-2.16,0,76.39,76.39,0,0,0-21,7.23c-1.45.73-2.87,1.51-4.36,2.15-.52.23-1.53.38-1.73.11-.6-.79.2-1.3.8-1.67C246.36,85.11,247.59,84.45,248.8,83.76Z" transform="translate(-12.57 -11.83)"/><path class="j" d="M250.46,85.25a76.39,76.39,0,0,1,21-7.23,12,12,0,0,1,2.16,0v.65c-2.65,2.41-6.26,2.59-9.43,3.79l.15.46,5.74-1.42a26.6,26.6,0,0,1-3.87,2A48.44,48.44,0,0,1,252,85.79,4.86,4.86,0,0,1,250.46,85.25Z" transform="translate(-12.57 -11.83)"/><path class="a" d="M237.93,124c.11.08.21.21.33.24,3.75.92,6.88,3.16,10.29,4.8,2.31,1.12,4.8,1.85,7.28,2.89a7.55,7.55,0,0,1-2.35-.17c-3-1.24-5.89-2.62-8.83-3.94l-5.36-2.39-4.15-2.11.25-.5Z" transform="translate(-12.57 -11.83)"/><path class="a" d="M299,62.69l4.87-.34.06.54-4.21.54-6.52,1.34-.12-.43Z" transform="translate(-12.57 -11.83)"/><path class="a" d="M270.1,81.51l-5.74,1.42-.15-.46c3.17-1.2,6.78-1.38,9.43-3.79-.08.38,0,.95-.25,1.09C272.33,80.41,271.2,80.94,270.1,81.51Z" transform="translate(-12.57 -11.83)"/><path class="a" d="M379.19,99.73l-8-.87C372.56,97.76,377.87,98.34,379.19,99.73Z" transform="translate(-12.57 -11.83)"/><path class="a" d="M322.56,121.37a18.67,18.67,0,0,1,11.69-6.19,19.45,19.45,0,0,1,6.13.38c2.12.48,3.41,3.16,3.56,5.84.19,3.51-1.72,6.06-4.14,8.3a27.18,27.18,0,0,1-12,7c-3.86.79-6.77-1-8.62-4a7,7,0,0,1,.22-7.22,43.91,43.91,0,0,1,2.72-3.7l.4-.38ZM319.43,129a6.93,6.93,0,0,0,5.08,6.73c2.07.59,3.85-.15,5.65-.83a24,24,0,0,0,11.78-9.2,6.71,6.71,0,0,0,0-7.67c-1.44-2.26-3.91-2.54-6.13-2.37a19.47,19.47,0,0,0-13.87,7.65C320.59,125,318.92,126.68,319.43,129Z" transform="translate(-12.57 -11.83)"/><path class="a" d="M290.19,114c-.63-1-1.25-2.09-1.88-3.14a2.34,2.34,0,0,1,3.24,0c1.73,1.22,3.62,2.23,5.44,3.32a13,13,0,0,0,7.11,1.58c1.11-.09,1.32.52,1.57,1.38.29,1-.15,1.44-1,1.63-.61.14-1.24.22-1.86.33-3.94-.1-7.33-1.76-10.62-3.74-.42-.25-.86-.47-1.29-.71l-.34-.25h0l-.36-.38Zm-.72-3.12-.28.58A7.36,7.36,0,0,0,290.4,113a48.81,48.81,0,0,0,4.69,3.17,13.73,13.73,0,0,0,8.66,2c.43,0,.79-.6,1.19-.91-.41-.23-.81-.65-1.22-.66-4.88-.13-8.87-2.39-12.69-5.13A7.71,7.71,0,0,0,289.47,110.88Z" transform="translate(-12.57 -11.83)"/><path class="l" d="M322.54,121.36l-.4.38Z" transform="translate(-12.57 -11.83)"/><path class="l" d="M290.2,114l.36.38Z" transform="translate(-12.57 -11.83)"/><path class="l" d="M290.54,114.41l.34.25Z" transform="translate(-12.57 -11.83)"/><path class="a" d="M257.48,129.41a6.56,6.56,0,0,1-1.47,0c-4-1-8.12-2-11.09-4.91-2.8-2.73-6.88-3.95-8.73-7.77.14,0,.32,0,.43.14,1.77,1.38,3.51,2.79,5.28,4.17a17.75,17.75,0,0,1,2.17,1.62c2.71,2.95,6.29,4.27,10,5.42,1.13.36,2.29.64,3.44,1Z" transform="translate(-12.57 -11.83)"/><path class="a" d="M243.91,129.59c3.32,2.58,6.64,4.13,10.69,4.22-.23.17-.47.49-.7.48a13.89,13.89,0,0,1-9.77-3.89C244.05,130.32,244.06,130.15,243.91,129.59Z" transform="translate(-12.57 -11.83)"/><path class="a" d="M298.72,101.92c3.11-2.78,6.54-4.94,10.82-5.19,2.15-.13,4.32,0,6.47,0a3.5,3.5,0,0,1,3.73,3,2.79,2.79,0,0,1-1.7,2.68,38.71,38.71,0,0,1-6.08,2.34c-2.8.69-5.7,1-8.56,1.47l-1-.23c-1.84-.41-4.27-1.94-3.65-4.09Zm5.17,3.83c2.95-.67,5.74-1.19,8.46-2a29.81,29.81,0,0,0,5.47-2.24,2.32,2.32,0,0,0,.94-2,2.9,2.9,0,0,0-1.63-1.92,17.4,17.4,0,0,0-4.82-.59,20,20,0,0,0-11.91,4.26c-1.18.85-1.25,2.13,0,2.88A27.71,27.71,0,0,0,303.89,105.75Z" transform="translate(-12.57 -11.83)"/><path class="l" d="M298.73,101.9c-.62,2.15,1.81,3.68,3.65,4.09l1,.23c-1.92.47-3.83.94-5.75,1.39a2.59,2.59,0,0,1-.7-.07c-.14-1.1-.32-2.15-.38-3.21,0-.28.27-.63.51-.88C297.6,102.91,298.18,102.42,298.73,101.9Z" transform="translate(-12.57 -11.83)"/><path class="a" d="M346.66,105.39a31.86,31.86,0,0,0-11-.45,22.36,22.36,0,0,0-4,1.52l-.82-2.16c2.43-1.49,4.82-2.79,7.71-2.68,2.12.09,4.24.17,6.36.28,1.88.09,2.73,1.8,1.76,3.5Zm-.52-1.18c-.07-1.36-.85-1.79-2.06-1.78a22.19,22.19,0,0,1-2.7-.13,13,13,0,0,0-8.91,1.92c-.29.2-.4.67-.6,1l.29.24C336.63,103,341.45,104.39,346.14,104.21Z" transform="translate(-12.57 -11.83)"/><path class="ac" d="M319.43,129c-.51-2.3,1.16-4,2.51-5.69a19.47,19.47,0,0,1,13.87-7.65c2.22-.17,4.69.11,6.13,2.37a6.71,6.71,0,0,1,0,7.67,24,24,0,0,1-11.78,9.2c-1.8.68-3.58,1.42-5.65.83A6.93,6.93,0,0,1,319.43,129Z" transform="translate(-12.57 -11.83)"/><path class="x" d="M289.47,110.88a7.71,7.71,0,0,1,1.56.63c3.82,2.74,7.81,5,12.69,5.13.41,0,.81.43,1.22.66-.4.31-.76.86-1.19.91a13.73,13.73,0,0,1-8.66-2A48.81,48.81,0,0,1,290.4,113a7.36,7.36,0,0,1-1.21-1.57Z" transform="translate(-12.57 -11.83)"/><path class="ac" d="M303.89,105.75a27.71,27.71,0,0,1-3.51-1.56c-1.23-.75-1.16-2,0-2.88a20,20,0,0,1,11.91-4.26,17.4,17.4,0,0,1,4.82.59,2.9,2.9,0,0,1,1.63,1.92,2.32,2.32,0,0,1-.94,2,29.81,29.81,0,0,1-5.47,2.24C309.63,104.56,306.84,105.08,303.89,105.75Z" transform="translate(-12.57 -11.83)"/><path class="x" d="M346.14,104.21c-4.69.18-9.51-1.25-14,1.26l-.29-.24c.2-.34.31-.81.6-1a13,13,0,0,1,8.91-1.92,22.19,22.19,0,0,0,2.7.13C345.29,102.42,346.07,102.85,346.14,104.21Z" transform="translate(-12.57 -11.83)"/></svg>