<svg xmlns="http://www.w3.org/2000/svg" viewBox="0 0 287.58 330.86"><defs><style>.a{fill:#040302;}.b{fill:#fe7102;}.c{fill:#e8a83f;}.d{fill:#9ba671;}.e{fill:#d27e26;}.f{fill:#839998;}.g{fill:#768446;}.h{fill:#303e3f;}.i{fill:#698180;}.j{fill:#9ba571;}.k{fill:#1e2a2b;}.l{fill:#e7a73f;}.m{fill:#748446;}.n{fill:#1e292a;}.o{fill:#d1f7e3;}.p{fill:#d1a831;}.q{fill:#e7ca59;}.r{fill:#fdef40;}.s{fill:#cfa731;}.t{fill:#cf7d26;}.u{fill:#e4c757;}.v{fill:#758246;}.w{fill:#97a16e;}.x{fill:#010101;}.y{fill:#768548;}.z{fill:#080501;}.aa{fill:#d2fdeb;}</style></defs><path class="a" d="M236.44,288.5c-1.48-1.66-3.09-3.24-4.39-5a6.9,6.9,0,0,1-1.07-3.32c-.11-1.18.23-2.37,1.78-2.59l-2-.54c-6.94,8.79-16.66,13-26.77,16.55a83.74,83.74,0,0,1-13.94,3.25c-4,.68-7.87,2.08-11.81,3.07-4.37,1.1-8.78,2-13.12,3.16a53.2,53.2,0,0,0-8.53,3A81.9,81.9,0,0,0,139,317c-.92.76-1.72,1.68-2.62,2.46a8.35,8.35,0,0,1-1.41.78c-.16-.46-.51-.94-.45-1.36.4-2.71.74-5.45,1.38-8.12s1.56-5,2.39-7.59c-1.68-.28-3.48-.56-5.27-.89a108.36,108.36,0,0,1-20.4-6,28,28,0,0,0-6.3-1.22c-7.58-1-15,.15-22.25,2.19-1.34.37-2.73.6-4.1.84-1,.18-1.42-.26-1.1-1.28a6.8,6.8,0,0,1,.84-1.71c2.89-4.36,5.91-8.62,10.12-11.77-2.84-2.51-5.7-4.93-8.44-7.49a113,113,0,0,1-13.57-15.48A43,43,0,0,0,62.45,255c-5.14-4.8-10.27-9.64-16.47-13.08-2.3-1.28-4.73-2.31-7-3.53-.5-.26-.82-.84-1.23-1.27.47-.37.91-1,1.41-1.07,2.73-.34,5.48-.62,8.22-.76,2.35-.12,4.7,0,7.21,0-.31-.95-.58-1.8-.85-2.65A121.56,121.56,0,0,1,48.1,203c-.16-2.86-1.24-5.66-1.92-8.49-1.71-7.19-4.8-13.84-8-20.47-.38-.79-.75-1.59-1-2.41-.39-1.08,0-1.53,1.1-1.32a3.94,3.94,0,0,1,1.43.57c3.62,2.25,7.21,4.53,10.85,6.83.32-1.22.64-2.75,1.12-4.23,1.46-4.5,3.2-8.93,4.42-13.49,1.27-4.72,2.1-9.56,3-14.36.4-2,.55-4.11.86-6.16,0-.3.36-.82.5-.8a1.39,1.39,0,0,1,.93.54c.6,1,1.12,2,1.66,3l1.25,2.4c2.11-2.69,4-5.5,6.33-8,2.79-3.06,5.84-5.9,8.83-8.78a4.26,4.26,0,0,1,2-.94,1.48,1.48,0,0,1,1.29.58,1.75,1.75,0,0,1,0,1.53c-2.61,3.62-4,7.77-5.3,12a97.6,97.6,0,0,0-4.2,34.07C74,189.12,77.1,202.62,84.17,215a46.57,46.57,0,0,0,8.43,10.56c-.22-1.87-.5-3.57-.6-5.28-.34-5.62-.18-11.19,1.76-16.56a11.65,11.65,0,0,1,1.17-2.47c1-1.54,2.28-1.69,3.59-.42a15.33,15.33,0,0,1,2.06,2.48,74.67,74.67,0,0,1,7.81,15.7c.11.29.21.59.33.91,1.07-1.28,1.32-1.34,3-.66.64-2,1.23-4,1.93-6,3-8.45,6.45-16.67,11.78-23.93a40.53,40.53,0,0,1,5.41-5.71,3.76,3.76,0,0,1,2.68-.73c3.72.39,7.45.83,11.14,1.49,2.89.52,5.72,1.39,8.59,2.06a1.76,1.76,0,0,0,1.26-.18c2.13-1.46,4.3-2.29,6.91-.76a8.92,8.92,0,0,1,1.86-5.27c.29-.36.19-1,.33-1.49a66,66,0,0,1,6.12-14.6c1.42-2.52,3.38-3.25,5.85-3.49a1.62,1.62,0,0,0,1.49-1.2c1.1-2.64,2.77-4.73,5.91-4.89s5.91.75,7.76,3.52c1.23,1.83.8,3.78.26,5.71a18.27,18.27,0,0,1-.86,2.84,5.09,5.09,0,0,0,.42,5.14c3-4,6-8.13,10.28-11.25-.36-.21-.66-.36-.94-.54a45.45,45.45,0,0,1-4.77-3.18,9.76,9.76,0,0,1-2.73-3.54,5.42,5.42,0,0,0-2.44-2.68c-15-9.49-25-22.69-29.42-39.93C156,92.59,157.67,75.24,167,59c10-17.32,25.07-28,44.51-32.37,33.44-7.53,70.89,12.94,80.14,50.61,3.21,13.06,2.16,25.9-2,38.57a55.43,55.43,0,0,1-9.14,17.22c-.2.25-.38.51-.61.83,2.48.22,4.88.41,7.27.66A43.24,43.24,0,0,1,299,137c4.72,1.92,8.58,5.08,12.34,8.34,2.77,2.4,5.25,5.14,7.82,7.76s3.37,5.74,3.87,9.08a145.3,145.3,0,0,1,1.42,27,202.06,202.06,0,0,1-7.23,46.63,181.26,181.26,0,0,1-15.52,38.21,6.4,6.4,0,0,1-6.24,3.39c-4.15-.07-8.3-.31-12.45-.58-.85-.05-1.25.12-1.48.9-1.52,5.12-1.46,10,1.59,14.68,2,3.1,1.76,3.33-1.12,5.12-3,1.88-6.55,2.44-10,3-.91.14-1.82.23-2.73.35L259,300.13a30.54,30.54,0,0,1-3.44-.92c-3.41-1.36-6.79-2.81-10.18-4.22Zm-131.66-45,.24.11v-.11l-.25,0,.08-.18-.14,0A1.08,1.08,0,0,0,104.78,243.49Zm105.85-23.81.2.24,6.39,6.61,4.4-10.64c1.59-2.66,3-5.46,5.4-7.54a.93.93,0,0,0,.2-.71,12.35,12.35,0,0,1,1.26-6.47,3,3,0,0,0-1.57-4.24,15.5,15.5,0,0,1-1.14,2.18c-2,2.59-2,2.58-4.86,1.38h0l-.27-.19-8.65-6-1.41,2.89a2.27,2.27,0,0,0-.21,2.46,20.2,20.2,0,0,1,.86,2.36c.62,2,.19,1.74-1.43,2.88s-2.44,3.26-3.52,5a5.85,5.85,0,0,0-.52,2c-.1.49-.31,1.17-.08,1.48,1.48,2,3.06,4,4.61,5.92h0l.32.41ZM207,250v0l.25.76c.42,1.5.83,3,1.24,4.5l.16.85,0,.34c-.07,1.86-.1,3.71-.23,5.56-.06,1-.46,1.77-1.76,1.68l-.2-1c-.17-1.38-.28-2.76-.5-4.13a86.32,86.32,0,0,0-4.78-17c-1-2.53-2.17-5-3.26-7.46L198,234c-1-2-1.59-4.07-3.62-5.52a29.7,29.7,0,0,1-5-5.13c-3.85-4.54-7.46-9.28-11.44-13.7a44.31,44.31,0,0,0-16.34-11.85,7.8,7.8,0,0,0-7.3.35c-11.3,6.49-20.47,15.06-25.63,27.23-2.62,6.18-4.57,12.65-6.78,19-1,2.89-1.89,5.83-2.87,8.73a2.56,2.56,0,0,1-2.81,2.08,6.3,6.3,0,0,0-.88.15,6.36,6.36,0,0,0,1.37,1.09c2.11.72,3.19,2.4,4.11,4.24a23,23,0,0,1,1.29,2.7c1.25,3.74,2.43,7.5,3.64,11.25.34,2.78,1,5.57-.26,8.47a4.54,4.54,0,0,0,.7-.25,71,71,0,0,0,21.24-18.92,17.23,17.23,0,0,1,7.65-5.78,1.66,1.66,0,0,0,.83-1.08c.19-1.06.21-2.15.31-3.22.14-1.55.73-2,2.25-1.9.38,0,.76,0,1.11.06,1.33-8.82,1-17.56.83-26.3a1,1,0,0,1,.34.71c.18,1.86.26,3.74.54,5.58a80.26,80.26,0,0,1,.12,19.22,9.9,9.9,0,0,1-1,2.74c-.21.49-.72.9-.82,1.41-.48,2.35-1.36,4.21-4,5a20.09,20.09,0,0,0-4.19,2.22,2.85,2.85,0,0,0-.78.87c-1.36,2.06-2.62,4.19-4.1,6.17a2.15,2.15,0,0,0-.32,2.46,31.21,31.21,0,0,0,11.41,14c10.35,7.11,21.86,8.66,34,6.91a78.49,78.49,0,0,0,20.3-6.22,58.79,58.79,0,0,0,15.94-9.83,4.34,4.34,0,0,0,1.14-1.49,10.88,10.88,0,0,0,.71-5.51,58.64,58.64,0,0,0-9.13-25.2c-1.64-2.53-4.29-4.38-5.21-7.45-3.72-3.84-7.31-7.83-11.19-11.51-5.77-5.47-11.74-10.72-17.63-16.06q-5.11-4.61-10.25-9.18c-1.18-.61-2.41-1.14-3.53-1.85a65.36,65.36,0,0,0-14.22-7.33c-8.54-2.91-17.42-3.88-26.38-4.29a1.69,1.69,0,0,0-1.17.61c-2,2.52-4,5-5.75,7.65-3.52,5.4-6,11.35-8.43,17.29-1.14,2.76-2.34,5.51-3.6,8.22-.25.54-.91,1.25-1.38,1.25a2.16,2.16,0,0,0-2,1.24c-.21.67-.75,1.44-.58,2,2.19,7.65,2.74,15.55,3.69,23.39.15,1.24.53,1.51,1.7,1,.78-.35,1.55-.75,2.3-1.17.17-.1.23-.4.31-.62,2.22-6.52,4.27-13.1,6.71-19.53,1.45-3.82,3.51-7.4,5.29-11.09l.27-.41.21-.31a59.91,59.91,0,0,1,12.5-13.79c2.59-2,5.32-3.94,8.1-5.73,4.75-3.05,9.68-3.21,14.8-.81a53.65,53.65,0,0,1,13.52,9.38l.18.17.3.3c2.12,2.38,4.33,4.69,6.35,7.16,3.5,4.25,6.92,8.57,10.31,12.91a7.54,7.54,0,0,1,.88,2.16,11.24,11.24,0,0,0,.33,1.33c4.73,10,8.72,20.21,10.25,31.25.1-6.45-1.58-12.56-4-18.53l.38-.13,3,7h0Zm-90.62,1.65-2.59.8,2.39,1c.07-.72.12-1.29.18-1.85l.08-.08Zm80.55-97.13,0-.16h-.14l.13.13c1,1,1.91,2.11,2.87,3.17a14.28,14.28,0,0,0,5.73,3.12,3.29,3.29,0,0,0,.42.21,50.23,50.23,0,0,0,15.13,2.6,70.74,70.74,0,0,0,16.86-1.47,3.59,3.59,0,0,0,.47,0A71.33,71.33,0,0,0,255,156.12a44.43,44.43,0,0,0,11.45-7.53c1-1.16,2-2.3,3-3.5a3.39,3.39,0,0,0,.29-1.28l.19.05-.19,0-4.11,3.42c-2.13,1.37-4.2,2.87-6.42,4.1a81.57,81.57,0,0,1-21.56,8.18l-1.44.24-1.68.26a62.93,62.93,0,0,1-17.5-.27c-4.18-.65-8.31-1.72-12.46-2.6L200,155.67ZM61.09,144.85,60,151.9l2.55-4.41c.21-.56.73-1.22.58-1.65a33.12,33.12,0,0,0-1.77-3.71l-.26.05ZM212.76,230,209,228.27l6.79,6.66-.18.29.13-.91.54-3Zm7.06-79.61-1.52-1.27c-.52-.4-1-1.06-1.56-1.14a46.71,46.71,0,0,1-10.41-3.1c-5.66-2.22-10.59-5.37-13.72-10.81a1.28,1.28,0,0,0-.08-.35c-3.58-7.41-4.05-15.18-2.65-23.15.27-1.59.05-1.79-1.5-2.43-2.49-1-5-2.15-7.35-3.42a6.29,6.29,0,0,1-3.36-4.86,38.75,38.75,0,0,1-.27-7.14,34.67,34.67,0,0,1,1.21-5.4l-1.14-.46c-1-.47-2-.93-3-1.41a2.33,2.33,0,0,1-1.37-3.33,9,9,0,0,1,1.15-2.35c2.35-3.11,4.71-6.23,7.2-9.23a10.83,10.83,0,0,1,5.63-3.45,7.76,7.76,0,0,1,2.56.09,66.26,66.26,0,0,0,21.46,4.46,92.24,92.24,0,0,0,27.86-3,24.8,24.8,0,0,1,5.81-1.23,29,29,0,0,1,18,5.75c5.06,3.7,8.73,8.6,11.86,13.95,1.06,1.82,2,3.69,3.05,5.54,2.9,4.63,7.14,7.65,12,10a3.29,3.29,0,0,0,.07-.36,64.22,64.22,0,0,0-.83-23.69c-7.49-34-40.91-57.19-77.76-48.39-20.72,4.95-35.35,17.7-44,37.09-6.49,14.52-7.55,29.57-2.53,44.73a64.89,64.89,0,0,0,29,36.12,69.11,69.11,0,0,0,14.13,6.39,1.53,1.53,0,0,0,.31.16,57.44,57.44,0,0,0,17.3,2.59c2.61,0,5.22-.41,7.83-.63,7-.74,13.93-2.11,20.22-5.43S266,145,270.3,139.05c1.26-1.73,3.17-3,4.55-4.65,1.7-2,3.17-4.29,4.74-6.45.07-.09.19-.25.16-.3-.73-1.28.5-2,.87-2.93.72-1.78,1.59-3.51,2.4-5.27l.69,1.17c1.75-2.4,5.71-13.39,5.39-15.84-3.41,1.58-6.92,1.2-10.41.58.85,1.84,1.71,3.67,2.53,5.5.41.93.75,1.89,1.12,2.83l-1.94,4.87c-.14-.37-.27-.74-.42-1.11-1.35-3.23-2.65-6.48-4.06-9.69a29,29,0,0,0-1.77-2.83c-.75-1.28-.27-2.2,1.18-2.3.59,0,1.19,0,1.79,0h5.77l.06-.38c-3.84-3-6.29-7.06-8.78-11.12a84.3,84.3,0,0,0-5.08-7.4c-5.15-6.64-11.62-11.33-20-13a6.63,6.63,0,0,0-3.28.07c-5.32,1.55-10.68,3.1-16.24,3.42-4.9.29-9.82.36-14.72.22A78.91,78.91,0,0,1,191.72,70a5.26,5.26,0,0,0-4.25.18,15,15,0,0,0-2.85,1.72c-3.86,3.06-6.43,7.14-9,11.62a10.75,10.75,0,0,0,2.15.93c5.43,1,8.38,4,9.09,9.48.18,1.44.23,2.9.37,4.56.71-.6,1.3-1.06,1.85-1.56s1.1-1.16,1.7-1.69.88-.38,1.14.34a3.15,3.15,0,0,0,.86,1.4,52.06,52.06,0,0,0,11.12,7c3.2,1.44,6.46,2.75,9.66,4.19a4.38,4.38,0,0,1,1.57,1.37c1,1.34,1.85,2.81,2.89,4.11,1.73,2.18,3.7,4.12,6.5,4.89,2,.56,4.06.5,5.67-.94,2.29-2,4.61-6.09,2.46-10.27a3.87,3.87,0,0,1-.13-1.38c.56,0,1.33-.23,1.64,0A15.67,15.67,0,0,1,236,108.4a12.52,12.52,0,0,1-2,8.41,8.7,8.7,0,0,1-11.44,3.48,17,17,0,0,1-6.45-5.58c-1.38-1.79-2.62-3.65-4.77-4.74-7.07-3.59-14.26-7-20.35-12.12a35.27,35.27,0,0,1-3.08,2.51c-1.56,1-2.88.41-3.26-1.45-.28-1.4-.41-2.84-.73-4.24a10.15,10.15,0,0,0-3.11-6,26.38,26.38,0,0,0-.79,8.62,8.22,8.22,0,0,0,4.57,7,15.71,15.71,0,0,0,6.4,2.2c.94.08,1.79.41,1.72,1.56-.08,1.31-.26,2.61-.41,3.91a41.69,41.69,0,0,0-.21,11.91c1.24,7.64,4.89,13.57,12,16.9,3.82,1.79,7.85,3.13,11.78,4.67a10.74,10.74,0,0,1,2.11.82c2.15,1.43,4.25,2.95,6.36,4.44l-2.83.92-.49-.42,1.16-.76-.12-.25Zm-31,23.33c-2.25,2-4.55,4-6.72,6.08a8.85,8.85,0,0,0-1.29,2.44l2.64.91,5.57-9.21.16-.38Zm-3.93-11.35,3.08,3.42a23.85,23.85,0,0,1,1.12-3.1c.84-1.62.24-2.94-.78-4.12a9.85,9.85,0,0,0-2-1.45,5.5,5.5,0,0,0-4-.23c-1.39.47-2.75,1.66-2.64,3.17ZM40.81,174.09l-.15-.14.05.25L43,178.67a1.42,1.42,0,0,0,0,.36A75.62,75.62,0,0,1,48.08,194c.47-3.83.93-7.49,1.38-11.15a14.85,14.85,0,0,0,.41-2.09,1.26,1.26,0,0,0-.37-1C46.62,177.8,43.71,176,40.81,174.09ZM243.9,207.72l-.46-.27-3.95-.52c.17.7.29,1.21.42,1.72s0,1.11,0,1.67c-.09,1.23-.79,1.7-1.94,1.22a19.15,19.15,0,0,1-2.14-1.24c-.74-.67-1.45-1.36-2.22-2a1.13,1.13,0,0,0-.84-.21c-2,.38-3.85,1-5.07,2.81-1,1.49-2.1,2.91-3,4.45A39.07,39.07,0,0,0,219,236.2a5.64,5.64,0,0,0,3.84,5.58,3.64,3.64,0,0,0,1.1.17,10.72,10.72,0,0,1,7.06,1.13,76.18,76.18,0,0,0,17.18,6.5,39.51,39.51,0,0,0,21.27-.66,4.39,4.39,0,0,0,1.86-1c1.84-2.05,3.7-4.1,5.34-6.31,10.94-14.78,13.89-31.42,11.28-49.29-1.28-8.85-3.35-17.48-7.85-25.36-.51-.89-.81-1.84-1.79-2.35-.17-.09-.23-.39-.34-.59l.23-.22L280,165l.26-.24c-2.26-6.09-4.69-12.09-8.64-16.56-1.61,1.33-3.11,2.58-4.63,3.82a59,59,0,0,1-15.28,8.6,69.69,69.69,0,0,1-33.66,4.95,48.35,48.35,0,0,1-14.67-3.67c-.4-.36-.71-.5-1.14.06-2.69,3.52-5.52,6.93-8.1,10.53-4.2,5.84-7.47,12.24-10.7,18.65a31.42,31.42,0,0,1-2.62,3.81c-.61-.08-1.5.07-1.77-.27-.91-1.17-1.35-.65-1.88.26-.2.34-.57.57-.78.9a1.56,1.56,0,0,0-.3.93,6.67,6.67,0,0,0,2.48,4.66c1.51,1.09,2.88,2.39,4.29,3.63l22.89,20.19.11.39.15,0-.08-.5-.77-2.28a7.32,7.32,0,0,1-.16-2.26c.44-1.88-.39-3.17-1.51-4.55-1.94-2.4-1.89-3.19-.27-5.81a1.43,1.43,0,0,1,.12-.21c1.54-2.17,3-4.38,4.66-6.47a1.47,1.47,0,0,0,.34-1.77c-1.43-3-.51-5.82,1-8.52a4.5,4.5,0,0,1,3.66-2.71c.29-2.76.49-5.46.89-8.14a7.8,7.8,0,0,1,8.47-6.37,5.87,5.87,0,0,1,5,5.56c-.08,1.67-.2,3.34-.28,5-.11,2.1-.21,4.21-.31,6.31l1.86.91c.81.92,1.69,1.79,2.41,2.78.56.77.86,1.71,1.37,2.52.85,1.35.87,1.94-.2,3.06a7.54,7.54,0,0,0-1.69,4l1.07-.51c1.84-.88,2.11-.85,3.53.62.57.58,1.1,1.21,1.78,1.95.5-1.53-.25-3.44,2.05-3.47a9,9,0,0,0-4-3.82,2,2,0,0,1-1.12-2.19c.6-3.37,1.12-6.77,2-10.09a54.18,54.18,0,0,1,5.78-13.6l.62-1.4h0a27.88,27.88,0,0,1,2.41-3,18.82,18.82,0,0,1,2.7-1.83c-.17.3-.33.6-.51.9q-2.26,3.84-4.55,7.67c-.91,2-1.93,4-2.69,6.11a31,31,0,0,0-2.29,13,5.81,5.81,0,0,0,1.05,2.67c1.09,1.61,2.5,3,3.5,4.67a9.56,9.56,0,0,0,3.66,3.67,34.67,34.67,0,0,1,4.14,2.6q7.67,5.73,15.23,11.57c.33.26.37.88.54,1.34l.18,4.55c-1,.7-1.64-.12-2.24-.71-4.41-4.29-8.79-8.62-13.2-12.91-1.28-1.25-2.64-2.41-4-3.62.34.06.78,0,1,.18,3.78,3.25,7.53,6.52,11.29,9.79,1.89,1.64,3.78,3.26,5.66,4.9l.37-.2c-.24-.65-.29-1.53-.75-1.93-3.48-3-7-6.09-10.6-8.93-2.94-2.3-6.1-4.31-9.15-6.46ZM62,251.71l.25.1-.09-.27q-2.53-5-5.09-10c-.54-1.33-1-2.68-1.64-4a1.38,1.38,0,0,0-1-.63c-3.84-.47-7.61.28-11.43.92l3.48,1.52c3.13,2.25,6.34,4.41,9.37,6.79C58.06,247.86,60,249.85,62,251.71Zm157-56.24,4.59,3.56c0-.88,0-1.46,0-2,.22-2.84.46-5.69.7-8.53.14-1.7.21-3.41.46-5.09.58-3.87-1.2-4.92-3.85-4.88a6.33,6.33,0,0,0-4,1.68,1.65,1.65,0,0,0-.52,1.07c-.13,2.91.14,5.88-.39,8.7S216.78,194.28,219,195.47ZM83,295.25a5.61,5.61,0,0,0,.59-.06c6.08-1.54,12.19-2.73,18.51-2.16,1.15.11,2.3,0,3.46.06l.08.07-.1-.06-12.24-7.39-.56-.44c-1.42-1-1.4-1-2.7.18-3.13,2.83-5.27,6.43-7.68,9.82,0,0,.06.12.11.22Zm22.38-51.13-.15-.22-.09.06.17.21,1,2.4c-.57-.88-1.09-1.79-1.71-2.63-1.46-2-2.93-3.92-4.49-5.81a1.49,1.49,0,0,0-2.25-.1c-1.87,1.53-2.06,2.37-1.12,4.55l.11.21a150.29,150.29,0,0,1,9.69,28c1.33,5.17,2.53,10.38,3.88,15.54a4.81,4.81,0,0,0,4.65,3.51c.27,0,.73-.1.79-.27a6.07,6.07,0,0,0,.48-1.94c0-2.54.14-5.09,0-7.62a70.85,70.85,0,0,0-3-16.39c-.52-1.76-1-3.52-1.5-5.29a10.15,10.15,0,0,1,.51,1,97.06,97.06,0,0,1,4.57,18.7,4.24,4.24,0,0,0,0,.71,31,31,0,0,1,0,10.08l-.15.35.32-.19c1-.72,2-1.46,3-2.16a8.65,8.65,0,0,0,3.78-8.24,32.19,32.19,0,0,0-.52-4,52.39,52.39,0,0,0-6.1-15.87c-.34-.61-.82-.95-1.52-.45a8.6,8.6,0,0,1-1.64-1.47c-2.1-3.15-4.1-6.36-6.19-9.52C107.05,246.11,106.17,245.14,105.36,244.12Zm71.44-66.7a4.06,4.06,0,0,0-1.6-.26c-2.13.62-4.21,1.38-6.34,2-.35.1-.81-.15-1.22-.24a7.7,7.7,0,0,1,.74-1,2.13,2.13,0,0,1,.74-.36c2.24-.85,4.48-1.71,6.74-2.51a1.58,1.58,0,0,1,1,.24,5.68,5.68,0,0,1,.87.61l3.26,2.53,3.41-3.59a32.89,32.89,0,0,1-2.49-3.21,1.91,1.91,0,0,0-2.24-1.06l-10.13,1.16c.67-1.35,4-2.26,11.06-3a1.66,1.66,0,0,1,2,1,38.89,38.89,0,0,0,3.06,4.33l2.68-2c-1.63-3.26-3.09-6.51-5.73-9a10.3,10.3,0,0,0-2.3-.84,23,23,0,0,0-3.32,0c-2.73.07-5,.83-6.38,3.5a55.74,55.74,0,0,0-4.95,14.17c-.12.62-.28,1.24-.42,1.85-1.11,1.55-.71,3.31-.51,5,.06.49,1,.88,1.48,1.32l.38.11c-.52-3,2-2.9,3.55-3.78-.72-.75-.51-1.21.39-1.18a11.21,11.21,0,0,1,7.43,2.83,1.83,1.83,0,0,0,2.25.54c.79-.33,1.52-.8,2.44-1.3-1.62-.22-2.89-.49-3.57-2s.44-2.59,1.09-3.84Zm-81.33,48a29.9,29.9,0,0,0,1,3.92c.7,1.8,1.62,3.51,2.35,5,6.2,2.62,9.13,8.22,12.77,13.43-.26-2.92-.53-5.58-.74-8.23a72.76,72.76,0,0,0-2.3-13.83c-.18-.64-.47-.84-1.05-.83a11.43,11.43,0,0,1-.76-1.58,85.17,85.17,0,0,0-8.86-19.65c-.19-.32-.43-.6-.68-1a3.4,3.4,0,0,0-.26.43c-.16.4-.32.81-.47,1.23-1.94,5.46-1.86,11.11-1.54,16.78C95,222.62,95.27,224,95.47,225.45Zm143.87,24.78c-2.52-1.27-5.25-2.25-7.52-3.87a7.65,7.65,0,0,0-7.87-1.1l-1.4.12-.06-.09.08.08c.22.38.42.77.64,1.14A56.27,56.27,0,0,1,229.46,260a37.18,37.18,0,0,1,1.76,14.54c.43.11.8.23,1.18.3a11.6,11.6,0,0,0,9.49-2.64,79.85,79.85,0,0,0,11.21-11.6c1.7-2,3.29-4.16,5.09-6.44A47.91,47.91,0,0,1,239.34,250.23Zm37.21,46.92,5.54-1.77c-2.65-2.78-4.15-5.73-4.23-9.15s.18-6.54.29-9.89l-3.29-.27c-1-.17-2-.33-3-.52a135.81,135.81,0,0,1-21.92-5.7,1.17,1.17,0,0,0-1,.23c-.75.71-1.36,1.57-2.12,2.26-2.62,2.35-5.29,4.63-8.91,5.32a2.18,2.18,0,0,0-.93.48c-1,.77-1.95,1.57-3,2.41a9.05,9.05,0,0,0,1,1.57c1.71,1.78,3.4,3.59,5.23,5.24a43,43,0,0,0,13.55,8.16,42,42,0,0,0,11,2.69A32.16,32.16,0,0,0,276.55,297.15ZM97.62,253.26h0c-.76-2.3-1.5-4.61-2.27-6.91-.84-2.54-2.1-5-.37-7.7.53-.83,1-1.72,1.42-2.6a2,2,0,0,0,.36-1.14,8.15,8.15,0,0,0-3.8-5.62,21.16,21.16,0,0,1-3.78-3.1,57.74,57.74,0,0,1-12.45-19.73,99.23,99.23,0,0,1-7-35.63A92.2,92.2,0,0,1,72.92,146c.42-1.56.81-3.13,1.21-4.69h0l.27-.5,1.2-3.68c-27.91,31-34.42,81.52-6.66,121.37,28.54,40.95,74.93,50,110.51,38.52A47.64,47.64,0,0,1,158,290.12a31.92,31.92,0,0,1-14.11-17.53c-.48.58-.73.94-1,1.25-3.66,3.72-7.5,7.22-12.18,9.61a14.32,14.32,0,0,0-4.59,3.12,1.9,1.9,0,0,1-1.44.68c-1.55-.41-2.09.65-2.79,1.61a8.31,8.31,0,0,1-6.66,3.71,9.05,9.05,0,0,1-9.12-7.11c-1.48-5.87-2.67-11.82-4.16-17.7-1.22-4.78-2.69-9.5-4.06-14.24Zm209.2-18.47a63.44,63.44,0,0,1-.35,6.91,10.58,10.58,0,0,1-7.09,8.75,7.32,7.32,0,0,1-3.24.55,54.71,54.71,0,0,1-5.45-1.2q-6.57-1.49-13.15-2.94a3.27,3.27,0,0,0-4.07,2c-2.16,4.76-4.26,9.54-6.57,14.23-1.13,2.28-2.24,4.71-5.09,6,3.24.7,6.17,1.44,9.13,1.95,3.91.67,7.84,1.26,11.78,1.71,4.38.5,8.78.8,13.17,1.2a2.49,2.49,0,0,0,2.71-1.66c2-4.33,4.25-8.58,6.19-13,1.82-4.11,3.39-8.33,5.08-12.5.4-1.09.82-2.16,1.2-3.25a180.06,180.06,0,0,0,8.62-36.17c.89-6.62,1.47-13.29,1.86-19.95a113.69,113.69,0,0,0-.18-13.05c-.24-4.52-.73-9-1.2-13.55a10.06,10.06,0,0,0-3.5-7.2c-2.93-2.4-5.67-5-8.57-7.46a33.35,33.35,0,0,0-9.57-6c-1.61-.61-3.2-1.37-4.77-1.27.42,1.39,1.17,2.72,1.19,4.06.06,5.74,0,11.5-.19,17.24q-.31,9.44-1,18.85c-.26,3.52-.88,7-1.33,10.52-.35,2.76-.75,5.51-1,8.28a29.48,29.48,0,0,0,.2,3.09c0,2.78.08,5.57,0,8.35A54.64,54.64,0,0,1,291,215c-.27,1.79-.66,3.56-1,5.39a18.19,18.19,0,0,1,12.12.82,6.69,6.69,0,0,1,4.65,6.79C306.78,230.23,306.81,232.51,306.82,234.79Zm-34.51-89.24a5.34,5.34,0,0,1,.81.4,5.43,5.43,0,0,1,.79.73,27.26,27.26,0,0,1,5.8,9.12c1.5,3.56,3,7.17,3.32,11a7.28,7.28,0,0,0,1.19,3.5,2.89,2.89,0,0,1,.22.43,72.89,72.89,0,0,1,5.06,15.64c.3,1.37.63,2.73.94,4.09a27.26,27.26,0,0,0,.95-4.49c.52-4.38,1.09-8.75,1.46-13.14.49-5.86.84-11.73,1.17-17.6.13-2.31.06-4.64,0-7a56.35,56.35,0,0,0-.27-5.67c-.31-2.57-3.45-4.75-6.81-5-2.65-.19-5.32-.38-7.94-.79a2.19,2.19,0,0,0-2.37.83,14.77,14.77,0,0,1-4.27,4.1,2.57,2.57,0,0,0-.59.52C272,143.47,272.13,144.41,272.31,145.55Zm5.1,98.95c1.16.21,2.1.32,3,.54,4.3,1,8.57,2.1,12.88,3.06,1.56.34,3.11,1,4.8.37,4.11-1.54,7.09-6.71,6.77-11.11-.28-3.71-.06-7.47-.09-11.2a1.66,1.66,0,0,0-.35-1,5.6,5.6,0,0,0-3.39-2.31,30.93,30.93,0,0,0-5.91-.46c-1.69.08-3.51.4-4.55,2.22,3.38.34,6.71.68,9.26,3.23a11.59,11.59,0,0,0-9.52-1.59c1.3.13,2.48.16,3.63.39a12.27,12.27,0,0,1,6.79,3.23,7.18,7.18,0,0,1,.84,1.49,2.51,2.51,0,0,1-.59,0,.92.92,0,0,1-.25-.23,8.17,8.17,0,0,0-5.15-3c-2.59-.44-5.21-.65-7.81-1A60,60,0,0,1,277.41,244.5ZM252.61,266c2.33,1,4.44,2,6.81,1.83,2-.13,4.11-.49,5.15-2.49,2-3.92,3.92-7.93,5.86-11.91.38-.8.68-1.63,1.11-2.66a27.12,27.12,0,0,1-9.16,3,2.3,2.3,0,0,0-1.28.91c-1.63,2.21-3.17,4.48-4.81,6.69C255.17,262.92,253.94,264.38,252.61,266Zm-96.15,38.17-16.33-.64c-1,4-2.09,8.17-3.15,12.3l.38.15C143.18,311.08,149.82,307.46,156.46,304.21Zm21.9-115.14c-.73-.8-1.29-1.42-1.86-2a2.06,2.06,0,0,0-.63-.52c-1.27-.56-2.55-1.1-3.84-1.61a1,1,0,0,0-.75,0,5.86,5.86,0,0,0-2.65,3,11.1,11.1,0,0,1-1.16,2l6.7,4.09c1.08-1,1.25-2.85,3.13-2.76.13,0,.3-.35.39-.56C178,190.12,178.2,189.49,178.36,189.07Zm-4.47,6.61c.45-.56.26-1-.56-1.47a71,71,0,0,0-9.89-5.18c-1.28-.53-2.5-1.22-3.74-1.84a1.66,1.66,0,0,0-2,.25C163,190.16,168.37,192.89,173.89,195.68Zm33.72,25-.32.27A6.57,6.57,0,0,0,214,227.7ZM62.49,252.12l0,.08h.06Z" transform="translate(-37.02 -25.1)"/><path class="b" d="M259,300.13l10.27.79c1,5.26,1.58,10.55.56,16-.17-2.16-1.42-3.68-2.86-5.09-2.16-2.14-2.49-2.13-4.88-.32-3.21,2.44-5.51,5.64-7.83,8.85-1.19,1.65-2.35,3.33-3.65,4.89a33.85,33.85,0,0,1-3,2.83,34.72,34.72,0,0,0-.37-4.53c-.45-2.12-2-3-4.05-2.24a21.9,21.9,0,0,0-4.64,2.45,82.88,82.88,0,0,0-15.65,14.75c-.15.18-.31.35-.47.53-3.59-3-9.66-2.79-13.67-.32-7.64,4.7-15.91,8-24.35,11-3.49,1.22-7,2.26-10.57,3.38v-.45a77.67,77.67,0,0,0,23.65-15c1.91-1.77,3.43-4,5.17-5.93a1.62,1.62,0,0,1,1-.49,27.79,27.79,0,0,0,15.47-6.37,30.3,30.3,0,0,0,10.51-19.72c.22-1.65-.4-3.41-.64-5.12l-.36,0c0-.07,0-.17.08-.21,2.16-2,2.18-4-.17-5.89a43.4,43.4,0,0,0-4.45-2.86,50.79,50.79,0,0,0,12.33-2.57l8.95,6.49-6.23,2,.56.32c2.07,1,2.58,2.46,1.61,4.57a4.72,4.72,0,0,0-.3,1.36,17.07,17.07,0,0,1-.38,3.06c-.75,2.33-1.67,4.61-2.51,6.91l-.09.16.16-.09a9.36,9.36,0,0,0,4.3-2.35,5.77,5.77,0,0,1,8.08-.86.32.32,0,0,0,.22,0C252,308,253.22,306,254.38,304c.37-.63.84-.73,1.38-.35.95.66,1.86,1.37,2.59,1.91C258.56,303.88,258.79,302,259,300.13Z" transform="translate(-37.02 -25.1)"/><path class="b" d="M134.62,355.49a30,30,0,0,0,8.42-4.65,1,1,0,0,1,.86,0c2.12,1,4.23,2.07,6.24,3.07-1.3.58-2.87,1.3-4.47,2a.89.89,0,0,1-.68,0c-2.87-1.38-5.86-.86-8.84-.58C135.64,355.36,135.13,355.43,134.62,355.49Z" transform="translate(-37.02 -25.1)"/><path class="c" d="M173.88,352.59V353L170,354.13l-.08-.28Z" transform="translate(-37.02 -25.1)"/><path class="d" d="M236,108.4a15.67,15.67,0,0,0-1.88-2.37c-.31-.28-1.08,0-1.64,0a3.87,3.87,0,0,0,.13,1.38c2.15,4.18-.17,8.22-2.46,10.27-1.61,1.44-3.65,1.5-5.67.94-2.8-.77-4.77-2.71-6.5-4.89-1-1.3-1.88-2.77-2.89-4.11a4.38,4.38,0,0,0-1.57-1.37c-3.2-1.44-6.46-2.75-9.66-4.19a52.06,52.06,0,0,1-11.12-7,3.15,3.15,0,0,1-.86-1.4c-.26-.72-.63-.8-1.14-.34s-1.12,1.14-1.7,1.69-1.14,1-1.85,1.56c-.14-1.66-.19-3.12-.37-4.56-.71-5.46-3.66-8.48-9.09-9.48a10.75,10.75,0,0,1-2.15-.93c2.57-4.48,5.14-8.56,9-11.62a15,15,0,0,1,2.85-1.72,5.26,5.26,0,0,1,4.25-.18,78.91,78.91,0,0,0,23.11,4.32c4.9.14,9.82.07,14.72-.22,5.56-.32,10.92-1.87,16.24-3.42a6.63,6.63,0,0,1,3.28-.07c8.4,1.72,14.87,6.41,20,13a84.3,84.3,0,0,1,5.08,7.4c2.49,4.06,4.94,8.12,8.78,11.12l-.06.38h-5.77c-.6,0-1.2,0-1.79,0-1.45.1-1.93,1-1.18,2.3a29,29,0,0,1,1.77,2.83c1.41,3.21,2.71,6.46,4.06,9.69.15.37.28.74.42,1.11l-2,3.53c-.4-.17-.79-.36-1.2-.51-1.64-.6-3.28-1.18-4.92-1.76-.16-2.1-.26-4.2-.5-6.29-.34-2.91-.78-5.82-1.23-8.71,0-.27-.5-.47-.76-.71a6.22,6.22,0,0,0-.61.87c-.07.14.08.38.1.57.19,2.46.51,4.91.54,7.36,0,2.14-.31,4.28-.41,6.42a50.14,50.14,0,0,1-2,11.47c-.49,1.67-1.07,3.32-1.61,5v0l-.26.49-.72.47c.21-1.54.52-3.06.59-4.6.1-2.09,0-4.19,0-6.29l-.37,0c-.52,3.63-.8,7.31-2.31,10.71,1-5.29,2-10.58,1.29-16.06a1.42,1.42,0,0,0-.65.87c-.36,2.32-.58,4.65-1,6.94a38.56,38.56,0,0,1-1.37,4.4h0a4.28,4.28,0,0,1,.05-.72,44.58,44.58,0,0,0,1.39-13.46c0-.36-.06-.72-.09-1.08l-.36,0a3.72,3.72,0,0,0-.23.9c0,1.54,0,3.08,0,4.62a28.6,28.6,0,0,1-5.89,16.21c-1.83,2.44-4,4.29-7.2,4.59-1.18.12-2.37.19-3.56.22-1,0-1.83.43-2,1.4a2.27,2.27,0,0,1-1.25,1.71,2.64,2.64,0,0,0-.53.72l-1.16.28c-2.08.5-4.22.74-6.06,2.06a33.89,33.89,0,0,1-3.93,2.16c-.06-.17-.12-.35-.17-.53.52-.41,1.06-.79,1.55-1.23a12.34,12.34,0,0,0,.86-1l-.28-.29-3.7,1.54-1.06-.77v0a8.77,8.77,0,0,0-.57-1c-1.85-2.34-3.87-4.57-5.55-7a24.46,24.46,0,0,1-4.41-14.76c0-1.51.23-3,.23-4.53,0-1.71-.15-3.42-.23-5.13h0c1.32,1,2.62,2,4,2.86a8.56,8.56,0,0,0,6.08,1.68c1.1-.15,2.16-.51,3.25-.69,5.52-.91,8.82-3.68,8.3-9.45C238.26,110.37,237.15,108.7,236,108.4ZM249,90a10.82,10.82,0,0,0-6.32-1.47c-3.21.44-6.29,1.23-8.1,4.33-1.4.17-1.92.87-1.41,2.18a10.83,10.83,0,0,0,1.67,3.11,6,6,0,0,0,4.52,2.35,2.87,2.87,0,0,0,1.77-1c.17-.19-.14-1-.44-1.43-1-1.36-2.11-2.67-3.18-4a7.55,7.55,0,0,1,5.58,1.7c2.18,1.76,4.13,3.82,6.19,5.74.36.34.77.62,1.16.93.22.37.45.73.66,1.1.87,1.54,1.7,1.67,2.94.44,3.6-3.58,2.65-9.55-1.49-12.59C251.47,90.62,250.45,89.62,249,90Zm-12.67-3.3.33.14c.74-1.48,1.59-2.91,2.2-4.45a2.66,2.66,0,0,1,2.86-1.76,13.57,13.57,0,0,1,12,8c.14.32.34.61.58,1,.81-1.09,1.27-2,.72-3.14a33.48,33.48,0,0,0-2.7-5.14,15.23,15.23,0,0,0-6-5c-2.14-1-5.33-.82-6.5,2.21-1,2.56-2.23,5-3.35,7.52A3.42,3.42,0,0,0,236.28,86.65ZM193.11,76c-2.34.34-4.46.29-5.72,2-.22.29-.53.75-.44,1a1.46,1.46,0,0,0,1,.59c.61.14,1.27.07,1.88.21,2,.43,3.93,1,5.91,1.34a2.33,2.33,0,0,0,1.74-.62c.2-.2-.16-1-.34-1.54-.1-.29-.44-.51-.5-.8C196.14,76.22,194.57,76.18,193.11,76Zm45.6,49.17c3.58,0,6-2.48,5.64-5.6a2.26,2.26,0,0,0-1-1.66c-.76-.29-1.09.53-1.48,1.18-1.23,2-2.54,4-5.43,3.7a2.29,2.29,0,0,0-1.24.31,1.11,1.11,0,0,0-.56.8c0,.25.42.6.71.67C236.58,124.87,237.84,125.05,238.71,125.2Zm0-45.78-.32-.08c-.51,1-1.05,2-1.53,3s-.88,1.93-1.32,2.9l.44.19C236.89,83.41,238.19,81.6,238.69,79.42Zm31.05,22.89c.48-.57.95-.9,1-1.23s-.46-.68-.72-1c-.36.31-.87.56-1,.94S269.35,101.69,269.74,102.31Z" transform="translate(-37.02 -25.1)"/><path class="e" d="M178.85,205.8l-.18-.17a9.93,9.93,0,0,0-.36-1.09c-.67-1.34-1.36-2.67-2-4q5.13,4.59,10.25,9.18c5.89,5.34,11.86,10.59,17.63,16.06,3.88,3.68,7.47,7.67,11.19,11.51.92,3.07,3.57,4.92,5.21,7.45a58.64,58.64,0,0,1,9.13,25.2,10.88,10.88,0,0,1-.71,5.51,4.34,4.34,0,0,1-1.14,1.49,58.79,58.79,0,0,1-15.94,9.83,78.49,78.49,0,0,1-20.3,6.22c-12.14,1.75-23.65.2-34-6.91a31.21,31.21,0,0,1-11.41-14,2.15,2.15,0,0,1,.32-2.46c1.48-2,2.74-4.11,4.1-6.17a2.85,2.85,0,0,1,.78-.87,20.09,20.09,0,0,1,4.19-2.22c2.62-.75,3.5-2.61,4-5,.1-.51.61-.92.82-1.41a9.9,9.9,0,0,0,1-2.74,80.26,80.26,0,0,0-.12-19.22c-.28-1.84-.36-3.72-.54-5.58a1,1,0,0,0-.34-.71c.2,8.74.5,17.48-.83,26.3-.35,0-.73,0-1.11-.06-1.52-.14-2.11.35-2.25,1.9-.1,1.07-.12,2.16-.31,3.22a1.66,1.66,0,0,1-.83,1.08,17.23,17.23,0,0,0-7.65,5.78,71,71,0,0,1-21.24,18.92,4.54,4.54,0,0,1-.7.25c1.31-2.9.6-5.69.26-8.47a5.75,5.75,0,0,0,.89-.55c4.45-4,8.77-8.24,13.38-12.09,3.28-2.75,6.94-5,10.44-7.52.61-.43,1.57-.69,1.81-1.27.79-1.88,1.54-3.83,1.09-6-.2-.94.07-1.49,1.15-2a26.08,26.08,0,0,0,4.29-2.9.85.85,0,0,0,.26-.63c0-2-.05-3.91-.08-5.86,0-3.53-.13-7.07-.06-10.6,0-.65.59-1.75,1.06-1.84,1.08-.21,1.27,1,1.4,1.72.57,3.32,1.06,6.66,1.53,10,.2,1.49.3,3,.45,4.47l-.2,4,.36.05c.54-3.62,1.09-7.24,1.62-10.86s1-7.23,1.56-10.84a8.76,8.76,0,0,1,.75,6.34c-.41,1.91-.83,3.82-1.28,5.72-1.38,5.9-2.79,11.79-4.14,17.69a5,5,0,0,0,.18,1.6c.36-.41.89-.76,1.07-1.24.66-1.83,1.3-3.68,1.78-5.57,1.22-4.87,2.36-9.76,3.53-14.64-.28,2.71-.55,5.42-.83,8.12a.92.92,0,0,0,.62-.51c.68-1.66,1.3-3.34,2-5a8.53,8.53,0,0,1,1.19-1.53c.35.47.69.94,1,1.39,1.59,2,1.91,4.5,2.52,6.88a13,13,0,0,0,1.21,3.79c1.64,2.56,4.2,4.21,6.68,5.88,6.37,4.3,12.76,8.57,18.23,14a3.94,3.94,0,0,0,.82.39c-.21-2.67-.29-5.13-.61-7.56-.54-4.21-1.14-8.41-1.88-12.59-.58-3.28-1.43-6.51-2.08-9.78-.08-.41.3-.91.47-1.37l-.05.06a10.56,10.56,0,0,0,.29,1.38c.65,2,1.38,4,2,6,.48,1.62.82,3.28,1.23,4.93a20.78,20.78,0,0,0,.09,2.85,89,89,0,0,1,1.33,15.45c-.08,4.31-.21,8.62-.29,12.92a4.32,4.32,0,0,0,.23,1h.39a9.82,9.82,0,0,0,.45-1.49c.85-5.15.59-10.34.46-15.52a32.46,32.46,0,0,0-.36-3.69c-.32-2.36-.69-4.71-1-7.07.47,1.63,1,3.24,1.4,4.89.58,2.68,1,5.39,1.57,8.22.31-.53.56-.94.8-1.34l.2,1c1.3.09,1.7-.7,1.76-1.68.13-1.85.16-3.7.23-5.56l1.23,4.91h.41c0-2.6,0-5.19.07-7.79.09-4.91-1.38-9.49-3-14a2.66,2.66,0,0,0-.59-.89c-1.8-1.82-3.61-3.62-5.43-5.42a6.09,6.09,0,0,0-1.13-.65c.16.49.2.64.26.78,1.72,4,3.49,8,5.16,12.09a33.05,33.05,0,0,1,1.05,3.88l-3-7-.38.13c2.4,6,4.08,12.08,4,18.53-1.53-11-5.52-21.26-10.25-31.25a11.24,11.24,0,0,1-.33-1.33,7.54,7.54,0,0,0-.88-2.16c-3.39-4.34-6.81-8.66-10.31-12.91-2-2.47-4.23-4.78-6.35-7.16Zm40.18,46a5.91,5.91,0,0,0-.35-2.21c-1.78-2.68-3.66-5.3-5.53-7.92a37.68,37.68,0,0,0-3-3.89,7.17,7.17,0,0,0-2.23-1.11c.12.67.24,1.34.37,2a.67.67,0,0,0,.1.21c1.37,3.14,2.79,6.27,4.09,9.44,1,2.53,1.92,5.13,2.92,7.68a7.27,7.27,0,0,0,1,1.34c.46-.93.79-1.59,1.11-2.26l.35.17c-.25.56-.49,1.13-.73,1.69s-.7,1.16.1,1.54a1.06,1.06,0,0,0,1.52-.76c.44-1.51.82-3,1.15-4.59C220.09,252.38,219.87,251.75,219,251.79Z" transform="translate(-37.02 -25.1)"/><path class="c" d="M246.09,210.37c1.32,1.21,2.68,2.37,4,3.62,4.41,4.29,8.79,8.62,13.2,12.91.6.59,1.2,1.41,2.24.71.41-.38,1-.68,1.2-1.14.69-1.55-.34-2.51-1.38-3.41-.17-.46-.21-1.08-.54-1.34q-7.57-5.83-15.23-11.57a34.67,34.67,0,0,0-4.14-2.6,9.56,9.56,0,0,1-3.66-3.67c-1-1.66-2.41-3.06-3.5-4.67a5.81,5.81,0,0,1-1.05-2.67,31,31,0,0,1,2.29-13c.76-2.09,1.78-4.08,2.69-6.11a4,4,0,0,0,.82-.54c1.75-1.9,3.44-3.86,5.23-5.72a5.79,5.79,0,0,1,2.29-1.59c3.3-1,6.66-1.79,10-2.76a1.76,1.76,0,0,0,1-1.32c0-.44-.73-1-1.24-1.16a5.86,5.86,0,0,0-2.24.07,23.3,23.3,0,0,0-7.92,3c-.68-.24-1.2-.59-1.37-.46a6.48,6.48,0,0,0-1.13,1.35c-.14.17-.27.35-.4.53a18.82,18.82,0,0,0-2.7,1.83,27.88,27.88,0,0,0-2.41,3c.53-1,1.08-2,1.57-3a4,4,0,0,0,.18-1c-.29.15-.69.24-.83.48-1.93,3.29-3.82,6.59-5.71,9.9-.75,1.3-1.45,2.64-2.26,3.92-1,1.58-2.07,3.1-3.11,4.66l-3.41,5.14-1.86-.91c.1-2.1.2-4.21.31-6.31.08-1.68.2-3.35.28-5a5.87,5.87,0,0,0-5-5.56,7.8,7.8,0,0,0-8.47,6.37c-.4,2.68-.6,5.38-.89,8.14a4.5,4.5,0,0,0-3.66,2.71c-1.47,2.7-2.39,5.49-1,8.52a1.47,1.47,0,0,1-.34,1.77c-1.63,2.09-3.12,4.3-4.66,6.47a1.43,1.43,0,0,0-.12.21c-1.62,2.62-1.67,3.41.27,5.81,1.12,1.38,1.95,2.67,1.51,4.55a7.32,7.32,0,0,0,.16,2.26,2.8,2.8,0,0,1-.5-.31c-3.34-3-6.61-6.09-10-9-4.12-3.55-8.34-7-12.54-10.45a4.75,4.75,0,0,1-1.8-5.18c.24-1,.35-1.94.52-2.92a31.42,31.42,0,0,0,2.62-3.81c3.23-6.41,6.5-12.81,10.7-18.65,2.58-3.6,5.41-7,8.1-10.53.43-.56.74-.42,1.14-.06a14.88,14.88,0,0,0,7.64,9.33c4.49,2.41,9.26,2.35,14.07,1.37A99,99,0,0,0,247,165.16a103.17,103.17,0,0,0,18.13-10.82,12.08,12.08,0,0,1,1.37-.74c.26,2.38.5,4.5.73,6.62l-.47.41.46.38a16,16,0,0,0,.53,3.36,14.08,14.08,0,0,0,1.8,2.81c2.1,3.08,4.36,6.07,6.27,9.28a18.89,18.89,0,0,1,2.58,6.38,65.33,65.33,0,0,1,.54,10,58.68,58.68,0,0,1-.45,7.25c-.48,4.26-1,8.51-1.7,12.73a23,23,0,0,1-2.61,8.14,8.78,8.78,0,0,0-1.7,4.71,4.09,4.09,0,0,1-.39,2c-1.71,3.1-3.52,6.15-5.26,9.23-.39.69-.84.66-1.37.28-1.11-.77-2.2-1.57-3.31-2.36-4.22-3-8.49-5.94-10.86-10.8l-.12-.2c-3.2-4.71-6.38-9.44-9.62-14.12-.33-.48-1.05-.68-1.59-1l-.42-1.72,3.95.52.46.27h0a5.66,5.66,0,0,0,.65,1.19A21.1,21.1,0,0,0,246.09,210.37Zm19.79-49.49-.06-.61-2.18.23.07.59Zm-13.56,3.49.19.29c1.14-.07,1.75-.58,1.6-1.54Zm5.48-2.59.24.61,1.94-.83-.19-.49Zm-8.19,4.53c1.34.06,2-.55,2-1.7Zm13.2-5.28-.07-.58-2,.53.13.51Z" transform="translate(-37.02 -25.1)"/><path class="f" d="M192.61,134.07c3.13,5.44,8.06,8.59,13.72,10.81a46.71,46.71,0,0,0,10.41,3.1c.56.08,1,.74,1.56,1.14l-3.11,1.17c-.36-.11-.84-.4-1-.27s-.41.7-.6,1.06l-1.32.61c-1.06-.64-1.41,0-1.62.89l-2.89,1.95a69.11,69.11,0,0,1-14.13-6.39,64.89,64.89,0,0,1-29-36.12c-5-15.16-4-30.21,2.53-44.73,8.67-19.39,23.3-32.14,44-37.09,36.85-8.8,70.27,14.42,77.76,48.39a64.22,64.22,0,0,1,.83,23.69,3.29,3.29,0,0,1-.07.36c-4.86-2.32-9.1-5.34-12-10-.07-.91-.09-1.82-.23-2.72A51.85,51.85,0,0,0,272,73.87a49.46,49.46,0,0,0-15.61-17.61A52.71,52.71,0,0,0,236.67,48a38.38,38.38,0,0,0-6.5-.72,40.69,40.69,0,0,0-5.93.43,77.18,77.18,0,0,0-10,1.44,51.19,51.19,0,0,0-25.65,15.65,19.89,19.89,0,0,0-1.53,2.26,10.83,10.83,0,0,0-5.63,3.45c-2.49,3-4.85,6.12-7.2,9.23a9,9,0,0,0-1.15,2.35,2.33,2.33,0,0,0,1.37,3.33c1,.48,2,.94,3,1.41-.39,3.42-1,6.84-1.12,10.28a51.75,51.75,0,0,0,.68,8.77,42.23,42.23,0,0,0,6,16.74,88.28,88.28,0,0,0,6,8.16A30.84,30.84,0,0,0,192.61,134.07ZM166.5,83l.48.16a9.6,9.6,0,0,0,.94-1.41c.89-2,1.64-4.08,2.58-6.06a70.94,70.94,0,0,1,18.55-24,65.38,65.38,0,0,1,19-11.24,84.37,84.37,0,0,1,14.89-4,1.66,1.66,0,0,0,1.16-.78,1.47,1.47,0,0,0-.43-1.31,11.29,11.29,0,0,0-3-1.94,17.69,17.69,0,0,0-12.07.11c-11.73,3.86-21.76,10.24-29.53,20a59.34,59.34,0,0,0-12.74,29A6.55,6.55,0,0,0,166.5,83Zm55.59-52.07.07.43a24.88,24.88,0,0,1,2.22,1.59c.71.62,1.26,1.43,2,2.05a2.1,2.1,0,0,0,2.57,0c.88-.49.61-1.28.36-2a4.82,4.82,0,0,0-5.46-2.82A9.15,9.15,0,0,0,222.09,30.89Z" transform="translate(-37.02 -25.1)"/><path class="c" d="M163.3,239.6c-.15-1.49-.25-3-.45-4.47-.47-3.33-1-6.67-1.53-10-.13-.76-.32-1.93-1.4-1.72-.47.09-1,1.19-1.06,1.84-.07,3.53,0,7.07.06,10.6,0,1.95.07,3.9.08,5.86a.85.85,0,0,1-.26.63,26.08,26.08,0,0,1-4.29,2.9c-1.08.48-1.35,1-1.15,2,.45,2.15-.3,4.1-1.09,6-.24.58-1.2.84-1.81,1.27-3.5,2.48-7.16,4.77-10.44,7.52-4.61,3.85-8.93,8.05-13.38,12.09a5.75,5.75,0,0,1-.89.55c-1.21-3.75-2.39-7.51-3.64-11.25a23,23,0,0,0-1.29-2.7c-.92-1.84-2-3.52-4.11-4.24a6.36,6.36,0,0,1-1.37-1.09,6.3,6.3,0,0,1,.88-.15,2.56,2.56,0,0,0,2.81-2.08c1-2.9,1.86-5.84,2.87-8.73,2.21-6.36,4.16-12.83,6.78-19,5.16-12.17,14.33-20.74,25.63-27.23a7.8,7.8,0,0,1,7.3-.35,44.31,44.31,0,0,1,16.34,11.85c4,4.42,7.59,9.16,11.44,13.7a29.7,29.7,0,0,0,5,5.13c2,1.45,2.67,3.52,3.62,5.52-.17.46-.55,1-.47,1.37.65,3.27,1.5,6.5,2.08,9.78.74,4.18,1.34,8.38,1.88,12.59.32,2.43.4,4.89.61,7.56a3.94,3.94,0,0,1-.82-.39c-5.47-5.47-11.86-9.74-18.23-14-2.48-1.67-5-3.32-6.68-5.88a13,13,0,0,1-1.21-3.79c-.61-2.38-.93-4.86-2.52-6.88-.36-.45-.7-.92-1-1.39a8.53,8.53,0,0,0-1.19,1.53c-.74,1.63-1.36,3.31-2,5a.92.92,0,0,1-.62.51c.28-2.7.55-5.41.83-8.12a13.18,13.18,0,0,1,.25-1.53c1.19-4.17.19-8-1.69-11.76-.19-.37-.73-.56-1.11-.84a4.25,4.25,0,0,0-.48,1.19c-.31,3.58-.5,7.16-.87,10.72C164.28,233,163.75,236.27,163.3,239.6Z" transform="translate(-37.02 -25.1)"/><path class="g" d="M97.84,253.52c1.37,4.74,2.84,9.46,4.06,14.24,1.49,5.88,2.68,11.83,4.16,17.7a9.05,9.05,0,0,0,9.12,7.11,8.31,8.31,0,0,0,6.66-3.71c.7-1,1.24-2,2.79-1.61a1.9,1.9,0,0,0,1.44-.68,14.32,14.32,0,0,1,4.59-3.12c4.68-2.39,8.52-5.89,12.18-9.61.3-.31.55-.67,1-1.25A31.92,31.92,0,0,0,158,290.12,47.64,47.64,0,0,0,179.44,297c-35.58,11.51-82,2.43-110.51-38.52-27.76-39.85-21.25-90.35,6.66-121.37l-1.2,3.68-.27.5h0a10.76,10.76,0,0,0-1,1.18,77.81,77.81,0,0,0-8,18,73.66,73.66,0,0,0-2.8,16.05,82.23,82.23,0,0,0,0,9.42,101.11,101.11,0,0,0,1,11.14,104.85,104.85,0,0,0,4.66,18.25c1.51,4.29,2.86,8.69,5.48,12.44,2.85,4.06,6.06,7.88,9.2,11.74a98.31,98.31,0,0,0,12.73,12.42,15.13,15.13,0,0,0,2.19,1.35h0Z" transform="translate(-37.02 -25.1)"/><path class="h" d="M306.82,234.79c0-2.28,0-4.56,0-6.83a6.69,6.69,0,0,0-4.65-6.79,18.19,18.19,0,0,0-12.12-.82c.34-1.83.73-3.6,1-5.39a54.64,54.64,0,0,0,.61-5.69c.1-2.78.05-5.57,0-8.35a29.48,29.48,0,0,1-.2-3.09c.26-2.77.66-5.52,1-8.28.45-3.5,1.07-7,1.33-10.52q.68-9.41,1-18.85c.19-5.74.25-11.5.19-17.24,0-1.34-.77-2.67-1.19-4.06,1.57-.1,3.16.66,4.77,1.27a33.35,33.35,0,0,1,9.57,6c2.9,2.44,5.64,5.06,8.57,7.46a10.06,10.06,0,0,1,3.5,7.2c.47,4.51,1,9,1.2,13.55a113.69,113.69,0,0,1,.18,13.05c-.39,6.66-1,13.33-1.86,19.95a180.06,180.06,0,0,1-8.62,36.17c-.38,1.09-.8,2.16-1.2,3.25a7.89,7.89,0,0,1-.46-1.19c-.73-3.36-1.42-6.72-2.15-10.07A2.89,2.89,0,0,0,306.82,234.79Z" transform="translate(-37.02 -25.1)"/><path class="e" d="M239.91,208.65c.54.34,1.26.54,1.59,1,3.24,4.68,6.42,9.41,9.62,14.12l.12.2c2.37,4.86,6.64,7.81,10.86,10.8,1.11.79,2.2,1.59,3.31,2.36.53.38,1,.41,1.37-.28,1.74-3.08,3.55-6.13,5.26-9.23a4.09,4.09,0,0,0,.39-2,8.78,8.78,0,0,1,1.7-4.71,23,23,0,0,0,2.61-8.14c.71-4.22,1.22-8.47,1.7-12.73a58.68,58.68,0,0,0,.45-7.25,65.33,65.33,0,0,0-.54-10,18.89,18.89,0,0,0-2.58-6.38c-1.91-3.21-4.17-6.2-6.27-9.28a14.08,14.08,0,0,1-1.8-2.81,16,16,0,0,1-.53-3.36l1.66-.21v-.4l-1.64-.18c-.23-2.12-.47-4.24-.73-6.62a12.08,12.08,0,0,0-1.37.74A103.17,103.17,0,0,1,247,165.16a99,99,0,0,1-21.86,7.44c-4.81,1-9.58,1-14.07-1.37a14.88,14.88,0,0,1-7.64-9.33,48.35,48.35,0,0,0,14.67,3.67,69.69,69.69,0,0,0,33.66-4.95A59,59,0,0,0,267,152c1.52-1.24,3-2.49,4.63-3.82,3.95,4.47,6.38,10.47,8.64,16.56L280,165l-1.85-1.19-.23.22c.11.2.17.5.34.59,1,.51,1.28,1.46,1.79,2.35,4.5,7.88,6.57,16.51,7.85,25.36,2.61,17.87-.34,34.51-11.28,49.29-1.64,2.21-3.5,4.26-5.34,6.31a4.39,4.39,0,0,1-1.86,1,39.51,39.51,0,0,1-21.27.66,76.18,76.18,0,0,1-17.18-6.5,10.72,10.72,0,0,0-7.06-1.13,3.64,3.64,0,0,1-1.1-.17A15.17,15.17,0,0,1,227,233a17.08,17.08,0,0,1,2.06,1.34c2.11,1.89,4.15,3.85,6.25,5.74,1.44,1.29,2.91,2.55,5.1,1.76a3.74,3.74,0,0,1,1,0c2.35-.07,4.7-.14,7-.24,3.5-.15,7-.25,10.49-.52,1.32-.11,2.86.11,3.79-1.29,1.61.86,3.15,1.95,5.1,1.79a4.28,4.28,0,0,0,1.27-.59c-1.22-.6-2.37-.75-3.4-1.19a39.93,39.93,0,0,1-8.63-5.52,15.36,15.36,0,0,1-4.05-5c-1.8-3.24-3.65-6.45-5.5-9.66-.68-1.17-1.42-2.31-2.2-3.41-.2-.28-.67-.37-1.14-.61a2.81,2.81,0,0,0,0,.57c3.23,5.68,6.44,11.37,9.72,17,.54.93.7,2.54,2.49,2,.07,0,.2.12.29.2l1.9,1.62-5.63-1.09a22.84,22.84,0,0,1,.51,3.22,5,5,0,0,1-.62,1.67c-.5-.31-1.26-.51-1.44-.95-.61-1.45-1-3-1.49-4.5l1.49,2.6.27-.13c-.11-.4-.2-.82-.35-1.21-1.83-4.78-3.61-9.58-5.52-14.33-1.32-3.27-2.83-6.48-4.3-9.69-.13-.29-.62-.41-.94-.61a4.18,4.18,0,0,0,.17,1q2,5,4.12,9.89a7.8,7.8,0,0,1-2.38-.47c-1.79-1-3.49-2.2-5.19-3.37-.42-.3-.94-.79-1-1.23-.24-2.48-.35-5-.5-7.46a19.15,19.15,0,0,0,2.14,1.24c1.15.48,1.85,0,1.94-1.22C239.91,209.76,239.9,209.21,239.91,208.65Zm29.8-48.13,0,.35c1,.6,1.63.6,2.2-.17Zm4.78,1.85.19-.6-2-.56-.15.55Zm2.78,1.2.22-.58-2-.77-.2.52Z" transform="translate(-37.02 -25.1)"/><path class="i" d="M187.06,67.09a19.89,19.89,0,0,1,1.53-2.26,51.19,51.19,0,0,1,25.65-15.65,77.18,77.18,0,0,1,10-1.44,40.69,40.69,0,0,1,5.93-.43,38.38,38.38,0,0,1,6.5.72,52.71,52.71,0,0,1,19.72,8.23A49.46,49.46,0,0,1,272,73.87,51.85,51.85,0,0,1,277.45,90c.14.9.16,1.81.23,2.72-1-1.85-2-3.72-3.05-5.54-3.13-5.35-6.8-10.25-11.86-13.95a29,29,0,0,0-18-5.75,24.8,24.8,0,0,0-5.81,1.23,92.24,92.24,0,0,1-27.86,3,66.26,66.26,0,0,1-21.46-4.46A7.76,7.76,0,0,0,187.06,67.09Z" transform="translate(-37.02 -25.1)"/><path class="j" d="M97.66,253.26a15.13,15.13,0,0,1-2.19-1.35,98.31,98.31,0,0,1-12.73-12.42c-3.14-3.86-6.35-7.68-9.2-11.74-2.62-3.75-4-8.15-5.48-12.44a104.85,104.85,0,0,1-4.66-18.25,101.11,101.11,0,0,1-1-11.14,82.23,82.23,0,0,1,0-9.42,73.66,73.66,0,0,1,2.8-16.05,77.81,77.81,0,0,1,8-18,10.76,10.76,0,0,1,1-1.18c-.4,1.56-.79,3.13-1.21,4.69a92.2,92.2,0,0,0-3.16,24.86,99.23,99.23,0,0,0,7,35.63,57.74,57.74,0,0,0,12.45,19.73,21.16,21.16,0,0,0,3.78,3.1,8.15,8.15,0,0,1,3.8,5.62,2,2,0,0,1-.36,1.14c-.45.88-.89,1.77-1.42,2.6-1.73,2.67-.47,5.16.37,7.7C96.16,248.65,96.9,251,97.66,253.26Z" transform="translate(-37.02 -25.1)"/><path class="k" d="M306.82,234.79a2.89,2.89,0,0,1,.44.75c.73,3.35,1.42,6.71,2.15,10.07a7.89,7.89,0,0,0,.46,1.19c-1.69,4.17-3.26,8.39-5.08,12.5-1.94,4.38-4.15,8.63-6.19,13a2.49,2.49,0,0,1-2.71,1.66c-4.39-.4-8.79-.7-13.17-1.2-3.94-.45-7.87-1-11.78-1.71-3-.51-5.89-1.25-9.13-1.95,2.85-1.25,4-3.68,5.09-6,2.31-4.69,4.41-9.47,6.57-14.23a3.27,3.27,0,0,1,4.07-2q6.58,1.45,13.15,2.94a54.71,54.71,0,0,0,5.45,1.2,7.32,7.32,0,0,0,3.24-.55,10.58,10.58,0,0,0,7.09-8.75A63.44,63.44,0,0,0,306.82,234.79Z" transform="translate(-37.02 -25.1)"/><path class="l" d="M176.27,200.53c.68,1.34,1.37,2.67,2,4a9.93,9.93,0,0,1,.36,1.09,53.65,53.65,0,0,0-13.52-9.38c-5.12-2.4-10.05-2.24-14.8.81-2.78,1.79-5.51,3.68-8.1,5.73a59.91,59.91,0,0,0-12.5,13.79l-.21.31-.27.41a2,2,0,0,0-.63.28c-1.08,1-2.15,2.11-3.19,3.19a40.61,40.61,0,0,0-6.8,9.45,2.78,2.78,0,0,1-2.43,1.76c-1.09.09-2.11.42-1.78,2.16a4.57,4.57,0,0,1-.3-.55c-.09-.26-.14-.54-.23-.8-1.14-3.25-1.81-6.7-4.06-9.47a2.16,2.16,0,0,1,2-1.24c.47,0,1.13-.71,1.38-1.25,1.26-2.71,2.46-5.46,3.6-8.22,2.45-5.94,4.91-11.89,8.43-17.29,1.74-2.67,3.79-5.13,5.75-7.65a1.69,1.69,0,0,1,1.17-.61c9,.41,17.84,1.38,26.38,4.29a65.36,65.36,0,0,1,14.22,7.33C173.86,199.39,175.09,199.92,176.27,200.53Z" transform="translate(-37.02 -25.1)"/><path class="m" d="M236,108.4c1.11.3,2.22,2,2.36,3.53.52,5.77-2.78,8.54-8.3,9.45-1.09.18-2.15.54-3.25.69a8.56,8.56,0,0,1-6.08-1.68c-1.34-.91-2.64-1.9-4-2.86l-.09-.06.1,0c.08,1.71.22,3.42.23,5.13,0,1.51-.19,3-.23,4.53a24.46,24.46,0,0,0,4.41,14.76c1.68,2.45,3.7,4.68,5.55,7a7.41,7.41,0,0,1,.56,1l-3,.74c-2.11-1.49-4.21-3-6.36-4.44a10.74,10.74,0,0,0-2.11-.82c-3.93-1.54-8-2.88-11.78-4.67-7.13-3.33-10.78-9.26-12-16.9A41.69,41.69,0,0,1,192.3,112c.15-1.3.33-2.6.41-3.91.07-1.15-.78-1.48-1.72-1.56a15.71,15.71,0,0,1-6.4-2.2,8.22,8.22,0,0,1-4.57-7,26.38,26.38,0,0,1,.79-8.62,10.15,10.15,0,0,1,3.11,6c.32,1.4.45,2.84.73,4.24.38,1.86,1.7,2.48,3.26,1.45A35.27,35.27,0,0,0,191,97.85c6.09,5.12,13.28,8.53,20.35,12.12,2.15,1.09,3.39,3,4.77,4.74a17,17,0,0,0,6.45,5.58A8.7,8.7,0,0,0,234,116.81,12.52,12.52,0,0,0,236,108.4Zm-20.48,35.83a1.2,1.2,0,0,0,0-.39c-2.63-6.46-2.44-13.14-1.5-19.87a7,7,0,0,0-.06-2.24c-.9-4.68-4-8-7.19-11.18a6.93,6.93,0,0,0-3.78-.09,1.14,1.14,0,0,0-.34.7c-.26,3-.54,6.1-.72,9.15A15.93,15.93,0,0,0,205.37,131C208.68,135.46,212.12,139.79,215.56,144.23Z" transform="translate(-37.02 -25.1)"/><path class="k" d="M276.55,297.15a32.16,32.16,0,0,1-11.8,1.06,42,42,0,0,1-11-2.69,43,43,0,0,1-13.55-8.16c-1.83-1.65-3.52-3.46-5.23-5.24a9.05,9.05,0,0,1-1-1.57c1-.84,2-1.64,3-2.41a2.18,2.18,0,0,1,.93-.48c3.62-.69,6.29-3,8.91-5.32.76-.69,1.37-1.55,2.12-2.26a1.17,1.17,0,0,1,1-.23,135.81,135.81,0,0,0,21.92,5.7c1,.19,2,.35,3,.52a6.44,6.44,0,0,1-.28.88,25,25,0,0,0-2.88,11.54,8.63,8.63,0,0,0,3.58,7.14A9,9,0,0,1,276.55,297.15Z" transform="translate(-37.02 -25.1)"/><path class="c" d="M262.72,239.72c-.93,1.4-2.47,1.18-3.79,1.29-3.49.27-7,.37-10.49.52-2.34.1-4.69.17-7,.24a3.74,3.74,0,0,0-1,0c-2.19.79-3.66-.47-5.1-1.76-2.1-1.89-4.14-3.85-6.25-5.74A17.08,17.08,0,0,0,227,233a15.17,15.17,0,0,0-4.23,8.83A5.64,5.64,0,0,1,219,236.2a39.07,39.07,0,0,1,5.68-20.85c.91-1.54,2-3,3-4.45,1.22-1.81,3.08-2.43,5.07-2.81a1.13,1.13,0,0,1,.84.21c.77.64,1.48,1.33,2.22,2,.15,2.49.26,5,.5,7.46,0,.44.56.93,1,1.23,1.7,1.17,3.4,2.35,5.19,3.37a7.8,7.8,0,0,0,2.38.47l4.84,12,.22.5h0c.48,1.51.88,3,1.49,4.5.18.44.94.64,1.44.95a5,5,0,0,0,.62-1.67,22.84,22.84,0,0,0-.51-3.22l5.63,1.09h0l.33.21Z" transform="translate(-37.02 -25.1)"/><path class="n" d="M272.31,145.55c-.18-1.14-.33-2.08-.52-3.23a2.57,2.57,0,0,1,.59-.52,14.77,14.77,0,0,0,4.27-4.1,2.19,2.19,0,0,1,2.37-.83c2.62.41,5.29.6,7.94.79,3.36.24,6.5,2.42,6.81,5a56.35,56.35,0,0,1,.27,5.67c0,2.31.11,4.64,0,7-.33,5.87-.68,11.74-1.17,17.6-.37,4.39-.94,8.76-1.46,13.14a27.26,27.26,0,0,1-.95,4.49c-.31-1.36-.64-2.72-.94-4.09a72.89,72.89,0,0,0-5.06-15.64,2.89,2.89,0,0,0-.22-.43,7.28,7.28,0,0,1-1.19-3.5c-.37-3.87-1.82-7.48-3.32-11a27.26,27.26,0,0,0-5.8-9.12,5.43,5.43,0,0,0-.79-.73A5.34,5.34,0,0,0,272.31,145.55Z" transform="translate(-37.02 -25.1)"/><path class="n" d="M277.41,244.5a60,60,0,0,0,10.38-17.32c2.6.31,5.22.52,7.81,1a8.17,8.17,0,0,1,5.15,3,.92.92,0,0,0,.25.23,2.51,2.51,0,0,0,.59,0,7.18,7.18,0,0,0-.84-1.49,12.27,12.27,0,0,0-6.79-3.23c-1.15-.23-2.33-.26-3.63-.39a11.59,11.59,0,0,1,9.52,1.59c-2.55-2.55-5.88-2.89-9.26-3.23,1-1.82,2.86-2.14,4.55-2.22a30.93,30.93,0,0,1,5.91.46,5.6,5.6,0,0,1,3.39,2.31,1.66,1.66,0,0,1,.35,1c0,3.73-.19,7.49.09,11.2.32,4.4-2.66,9.57-6.77,11.11-1.69.63-3.24,0-4.8-.37-4.31-1-8.58-2-12.88-3.06C279.51,244.82,278.57,244.71,277.41,244.5Z" transform="translate(-37.02 -25.1)"/><path class="e" d="M222.55,245.38l1.4-.12,3.32,5.37c1.36,2.2,2.75,2.81,5.32,2.37.36-.06.71-.12,1-.21a12.42,12.42,0,0,0,5.7-2.56,47.91,47.91,0,0,0,18.85,4c-1.8,2.28-3.39,4.41-5.09,6.44a79.85,79.85,0,0,1-11.21,11.6,11.6,11.6,0,0,1-9.49,2.64c-.38-.07-.75-.19-1.18-.3A37.18,37.18,0,0,0,229.46,260a56.27,56.27,0,0,0-6.25-13.52c-.22-.37-.42-.76-.64-1.14Z" transform="translate(-37.02 -25.1)"/><path class="o" d="M264.78,136.72l.72-.47.26-.49v0c.18,0,.42,0,.53-.06,1.51-1.34,3-2.69,4.5-4l4.13-4.77,1.65-1.89,1.79-2.93,2-3.53c.65-1.62,1.3-3.25,1.94-4.87a4.87,4.87,0,0,0,.66-.87c.55-1.15,1-2.33,1.6-3.47.15-.3.51-.5.78-.75l.3.22A31.85,31.85,0,0,1,283,119.45c-.81,1.76-1.68,3.49-2.4,5.27-.37.94-1.6,1.65-.87,2.93,0,0-.09.21-.16.3-1.57,2.16-3,4.41-4.74,6.45-1.38,1.66-3.29,2.92-4.55,4.65C266,145,259.56,148,253.38,151.22s-13.19,4.69-20.22,5.43c-1,0-2.06.1-3.09.09-2.9,0-5.79-.11-8.69-.17l0-.27,5.22-2.26,3.51-1.81a33.89,33.89,0,0,0,3.93-2.16c1.84-1.32,4-1.56,6.06-2.06l1.16-.28A67.84,67.84,0,0,0,257,141.49C259.67,140,262.19,138.32,264.78,136.72Z" transform="translate(-37.02 -25.1)"/><path class="p" d="M111.76,258.3c.5,1.77,1,3.53,1.5,5.29a70.85,70.85,0,0,1,3,16.39c.13,2.53,0,5.08,0,7.62a6.07,6.07,0,0,1-.48,1.94c-.06.17-.52.29-.79.27a4.81,4.81,0,0,1-4.65-3.51c-1.35-5.16-2.55-10.37-3.88-15.54a150.29,150.29,0,0,0-9.69-28l-.11-.21c-.94-2.18-.75-3,1.12-4.55a1.49,1.49,0,0,1,2.25.1c1.56,1.89,3,3.85,4.49,5.81.62.84,1.14,1.75,1.71,2.63l0,0,2.17,4.09h0l.25.49h0l.24.5v0l1.21,2.66v0l.73,1.71v0l.49,1.22v0l.49,1.22Z" transform="translate(-37.02 -25.1)"/><path class="q" d="M221.62,215.89l-4.4,10.64-6.39-6.61-.2-.24,0,0-.32-.41h0c-.46-1.46-1-2.92-1.35-4.41a2.21,2.21,0,0,1,.15-1.5c1.24-2.28,2.66-4.46,3.78-6.78a4.73,4.73,0,0,0,.36-3.19,62.76,62.76,0,0,0-2.65-6.22l1.41-2.89,8.65,6,.27.19h0a10.44,10.44,0,0,0,.31,1.13c.51,1.33,1.12,2.64,1.54,4a4.26,4.26,0,0,1,.07,2.07C222.29,210.4,221.37,213.06,221.62,215.89Z" transform="translate(-37.02 -25.1)"/><path class="q" d="M95.47,225.45c-.2-1.41-.5-2.83-.58-4.25-.32-5.67-.4-11.32,1.54-16.78.15-.42.31-.83.47-1.23a3.4,3.4,0,0,1,.26-.43c.25.36.49.64.68,1a85.17,85.17,0,0,1,8.86,19.65,11.43,11.43,0,0,0,.76,1.58c-.07.39-.15.77-.2,1.16-.34,2.75-.69,5.5-1,8.25a9.9,9.9,0,0,0,.2,1.95c-2.2-1-4.26-1.7-5.61-3.47C99,230.42,97.27,227.92,95.47,225.45Z" transform="translate(-37.02 -25.1)"/><path class="i" d="M192.61,134.07a30.84,30.84,0,0,1-3.57-3.26,88.28,88.28,0,0,1-6-8.16,42.23,42.23,0,0,1-6-16.74,51.75,51.75,0,0,1-.68-8.77c.11-3.44.73-6.86,1.12-10.28l1.14.46a34.67,34.67,0,0,0-1.21,5.4,38.75,38.75,0,0,0,.27,7.14,6.29,6.29,0,0,0,3.36,4.86c2.38,1.27,4.86,2.39,7.35,3.42,1.55.64,1.77.84,1.5,2.43-1.4,8-.93,15.74,2.65,23.15A1.28,1.28,0,0,1,192.61,134.07Z" transform="translate(-37.02 -25.1)"/><path class="e" d="M109.85,223.32c2.25,2.77,2.92,6.22,4.06,9.47.09.26.14.54.23.8a4.57,4.57,0,0,0,.3.55c-.33-1.74.69-2.07,1.78-2.16a2.78,2.78,0,0,0,2.43-1.76,40.61,40.61,0,0,1,6.8-9.45c1-1.08,2.11-2.14,3.19-3.19a2,2,0,0,1,.63-.28c-1.78,3.69-3.84,7.27-5.29,11.09-2.44,6.43-4.49,13-6.71,19.53-.08.22-.14.52-.31.62-.75.42-1.52.82-2.3,1.17-1.17.52-1.55.25-1.7-1-.95-7.84-1.5-15.74-3.69-23.39C109.1,224.76,109.64,224,109.85,223.32Z" transform="translate(-37.02 -25.1)"/><path class="r" d="M238.14,313.22c.84-2.3,1.76-4.58,2.51-6.91a17.07,17.07,0,0,0,.38-3.06,4.72,4.72,0,0,1,.3-1.36c1-2.11.46-3.58-1.61-4.57l-.56-.32,6.23-2c3.39,1.41,6.77,2.86,10.18,4.22a30.54,30.54,0,0,0,3.44.92c-.22,1.87-.45,3.75-.66,5.43-.73-.54-1.64-1.25-2.59-1.91-.54-.38-1-.28-1.38.35-1.16,2-2.35,4-3.57,6.11a.32.32,0,0,1-.22,0,5.77,5.77,0,0,0-8.08.86,9.36,9.36,0,0,1-4.3,2.35Z" transform="translate(-37.02 -25.1)"/><path class="q" d="M165.16,181.79c.14-.61.3-1.23.42-1.85a55.74,55.74,0,0,1,4.95-14.17c1.33-2.67,3.65-3.43,6.38-3.5a23,23,0,0,1,3.32,0,10.3,10.3,0,0,1,2.3.84q-1,2.81-2,5.62c-7.09.75-10.39,1.66-11.06,3l10.13-1.16a17.68,17.68,0,0,1-.52,1.93c-.43,1.15-.94,2.27-1.42,3.4a5.68,5.68,0,0,0-.87-.61,1.58,1.58,0,0,0-1-.24c-2.26.8-4.5,1.66-6.74,2.51a2.13,2.13,0,0,0-.74.36,7.7,7.7,0,0,0-.74,1c.41.09.87.34,1.22.24,2.13-.64,4.21-1.4,6.34-2a4.06,4.06,0,0,1,1.6.26c0,.07-.08.13-.11.21-.63,1.53-1.36,2.34-3.44,2.2s-4.18.91-6.28,1.45C166.36,181.44,165.76,181.62,165.16,181.79Z" transform="translate(-37.02 -25.1)"/><path class="n" d="M252.61,266c1.33-1.66,2.56-3.12,3.68-4.64,1.64-2.21,3.18-4.48,4.81-6.69a2.3,2.3,0,0,1,1.28-.91,27.12,27.12,0,0,0,9.16-3c-.43,1-.73,1.86-1.11,2.66-1.94,4-3.82,8-5.86,11.91-1,2-3.15,2.36-5.15,2.49C257.05,268,254.94,267,252.61,266Z" transform="translate(-37.02 -25.1)"/><path class="h" d="M276.55,297.15a9,9,0,0,0-1.27-1.52,8.63,8.63,0,0,1-3.58-7.14A25,25,0,0,1,274.58,277a6.44,6.44,0,0,0,.28-.88l3.29.27c-.11,3.35-.37,6.62-.29,9.89s1.58,6.37,4.23,9.15Z" transform="translate(-37.02 -25.1)"/><path class="s" d="M116.79,288.77a31,31,0,0,0,0-10.08,4.24,4.24,0,0,1,0-.71,2.51,2.51,0,0,0,2.35-2.49c0-1.26-.11-2.53-.22-3.79a43.06,43.06,0,0,0-3.38-13.52c.7-.5,1.18-.16,1.52.45a52.39,52.39,0,0,1,6.1,15.87,32.19,32.19,0,0,1,.52,4,8.65,8.65,0,0,1-3.78,8.24c-1,.7-2,1.44-3,2.16A.87.87,0,0,0,116.79,288.77Z" transform="translate(-37.02 -25.1)"/><path class="t" d="M228.55,193.82l3.41-5.14c1-1.56,2.12-3.08,3.11-4.66.81-1.28,1.51-2.62,2.26-3.92,1.89-3.31,3.78-6.61,5.71-9.9.14-.24.54-.33.83-.48a4,4,0,0,1-.18,1c-.49,1-1,2-1.57,3h0c-.2.47-.41.93-.61,1.4a54.18,54.18,0,0,0-5.78,13.6c-.85,3.32-1.37,6.72-2,10.09a2,2,0,0,0,1.12,2.19,9,9,0,0,1,4,3.82c-2.3,0-1.55,1.94-2.05,3.47-.68-.74-1.21-1.37-1.78-1.95-1.42-1.47-1.69-1.5-3.53-.62l-1.07.51a7.54,7.54,0,0,1,1.69-4c1.07-1.12,1.05-1.71.2-3.06-.51-.81-.81-1.75-1.37-2.52C230.24,195.61,229.36,194.74,228.55,193.82Z" transform="translate(-37.02 -25.1)"/><path class="u" d="M237.92,162.09a70.74,70.74,0,0,1-16.86,1.47,50.23,50.23,0,0,1-15.13-2.6,3.29,3.29,0,0,1-.42-.21c.69-1.16.62-2.13-.66-2.86-.17-.09-.17-.48-.25-.73,4.15.88,8.28,2,12.46,2.6a62.93,62.93,0,0,0,17.5.27c0,.4-.09.88.09,1.16a4.57,4.57,0,0,0,1.12.9,4.88,4.88,0,0,0,.88-1.26c.09-.28-.26-.7-.41-1.06l1.44-.24Z" transform="translate(-37.02 -25.1)"/><path class="s" d="M95.47,225.45c1.8,2.47,3.55,5,5.4,7.39,1.35,1.77,3.41,2.5,5.61,3.47a9.9,9.9,0,0,1-.2-1.95c.29-2.75.64-5.5,1-8.25,0-.39.13-.77.2-1.16.58,0,.87.19,1.05.83a72.76,72.76,0,0,1,2.3,13.83c.21,2.65.48,5.31.74,8.23-3.64-5.21-6.57-10.81-12.77-13.43-.73-1.53-1.65-3.24-2.35-5A29.9,29.9,0,0,1,95.47,225.45Z" transform="translate(-37.02 -25.1)"/><path class="v" d="M156.46,304.21c-6.64,3.25-13.28,6.87-19.1,11.81l-.38-.15c1.06-4.13,2.12-8.26,3.15-12.3Z" transform="translate(-37.02 -25.1)"/><path class="u" d="M115.59,258.18A43.06,43.06,0,0,1,119,271.7c.11,1.26.21,2.53.22,3.79a2.51,2.51,0,0,1-2.35,2.49,97.06,97.06,0,0,0-4.57-18.7,10.15,10.15,0,0,0-.51-1l0,0-.49-1.22v0l-.49-1.22v0l-.73-1.71v0c-.4-.89-.8-1.78-1.21-2.66v0l-.24-.5h0l-.25-.49h0c-.72-1.36-1.44-2.73-2.17-4.09l0,0-1-2.4.08,0c.8,1,1.68,2,2.39,3.07,2.09,3.16,4.09,6.37,6.19,9.52A8.6,8.6,0,0,0,115.59,258.18Z" transform="translate(-37.02 -25.1)"/><path class="v" d="M105.54,293.09c-1.16,0-2.31.05-3.46-.06-6.32-.57-12.43.62-18.51,2.16a5.61,5.61,0,0,1-.59.06c2.79-3.46,5.56-6.93,9.75-8.85.24-.11.37-.45.55-.69l12.24,7.39Z" transform="translate(-37.02 -25.1)"/><path class="n" d="M220.87,178.49c2.65,0,4.43,1,3.85,4.88-.25,1.68-.32,3.39-.46,5.09-.24,2.84-.48,5.69-.7,8.53,0,.58,0,1.16,0,2L219,195.47c.17-1.77.3-3.55.49-5.32s.44-3.61.66-5.42Z" transform="translate(-37.02 -25.1)"/><path class="s" d="M165.16,181.79c.6-.17,1.2-.35,1.81-.51,2.1-.54,4.23-1.59,6.28-1.45s2.81-.67,3.44-2.2c0-.08.08-.14.11-.21l3.29,2c-.65,1.25-1.81,2.22-1.09,3.84s1.95,1.81,3.57,2c-.92.5-1.65,1-2.44,1.3a1.83,1.83,0,0,1-2.25-.54,11.21,11.21,0,0,0-7.43-2.83c-.9,0-1.11.43-.39,1.18-1.58.88-4.07.74-3.55,3.78l-.38-.11c-.51-.44-1.42-.83-1.48-1.32C164.45,185.1,164.05,183.34,165.16,181.79Z" transform="translate(-37.02 -25.1)"/><path class="l" d="M206.68,249.25a33.05,33.05,0,0,0-1.05-3.88c-1.67-4.06-3.44-8.07-5.16-12.09-.06-.14-.1-.29-.26-.78a6.09,6.09,0,0,1,1.13.65c1.82,1.8,3.63,3.6,5.43,5.42a2.66,2.66,0,0,1,.59.89c1.61,4.55,3.08,9.13,3,14,0,2.6,0,5.19-.07,7.79h-.41l-1.23-4.91c0-.11,0-.22,0-.34-.05-.28-.11-.57-.16-.85-.41-1.5-.82-3-1.24-4.5l-.25-.76v0l-.27-.72Z" transform="translate(-37.02 -25.1)"/><path class="s" d="M237.92,162.09l-.24-2.56a81.57,81.57,0,0,0,21.56-8.18c2.22-1.23,4.29-2.73,6.42-4.1.93.05.8.74.82,1.34A44.43,44.43,0,0,1,255,156.12a71.33,71.33,0,0,1-16.64,5.94A3.59,3.59,0,0,1,237.92,162.09Z" transform="translate(-37.02 -25.1)"/><path class="l" d="M239.34,250.23a12.42,12.42,0,0,1-5.7,2.56c-.34.09-.69.15-1,.21-2.57.44-4-.17-5.32-2.37L224,245.26a7.65,7.65,0,0,1,7.87,1.1C234.09,248,236.82,249,239.34,250.23Z" transform="translate(-37.02 -25.1)"/><path class="t" d="M180.82,195c-.17,1-.28,2-.52,2.92a4.75,4.75,0,0,0,1.8,5.18c4.2,3.47,8.42,6.9,12.54,10.45,3.41,2.93,6.68,6,10,9a2.8,2.8,0,0,0,.5.31l.77,2.28a.86.86,0,0,0-.18.14l-22.89-20.19c-1.41-1.24-2.78-2.54-4.29-3.63a6.67,6.67,0,0,1-2.48-4.66,1.56,1.56,0,0,1,.3-.93c.21-.33.58-.56.78-.9.53-.91,1-1.43,1.88-.26C179.32,195,180.21,194.87,180.82,195Z" transform="translate(-37.02 -25.1)"/><path class="s" d="M221.62,215.89c-.25-2.83.67-5.49,1.21-8.2a4.26,4.26,0,0,0-.07-2.07c-.42-1.36-1-2.67-1.54-4a10.44,10.44,0,0,1-.31-1.13c2.89,1.2,2.91,1.21,4.86-1.38a15.5,15.5,0,0,0,1.14-2.18,3,3,0,0,1,1.57,4.24,12.35,12.35,0,0,0-1.26,6.47.93.93,0,0,1-.2.71C224.61,210.43,223.21,213.23,221.62,215.89Z" transform="translate(-37.02 -25.1)"/><path class="f" d="M283,119.45a31.85,31.85,0,0,0,2.66-10.63l-.3-.22c-.27.25-.63.45-.78.75-.57,1.14-1.05,2.32-1.6,3.47a4.87,4.87,0,0,1-.66.87c-.37-.94-.71-1.9-1.12-2.83-.82-1.83-1.68-3.66-2.53-5.5,3.49.62,7,1,10.41-.58.32,2.45-3.64,13.44-5.39,15.84Z" transform="translate(-37.02 -25.1)"/><path class="s" d="M210.59,197.16a62.76,62.76,0,0,1,2.65,6.22,4.73,4.73,0,0,1-.36,3.19c-1.12,2.32-2.54,4.5-3.78,6.78a2.21,2.21,0,0,0-.15,1.5c.38,1.49.89,3,1.35,4.41-1.55-2-3.13-3.9-4.61-5.92-.23-.31,0-1,.08-1.48a5.85,5.85,0,0,1,.52-2c1.08-1.76,2-3.91,3.52-5s2.05-.85,1.43-2.88a20.2,20.2,0,0,0-.86-2.36A2.27,2.27,0,0,1,210.59,197.16Z" transform="translate(-37.02 -25.1)"/><path class="n" d="M178.36,189.07c-.16.42-.4,1.05-.67,1.66-.09.21-.26.56-.39.56-1.88-.09-2.05,1.75-3.13,2.76l-6.7-4.09a11.1,11.1,0,0,0,1.16-2,5.86,5.86,0,0,1,2.65-3,1,1,0,0,1,.75,0c1.29.51,2.57,1.05,3.84,1.61a2.06,2.06,0,0,1,.63.52C177.07,187.65,177.63,188.27,178.36,189.07Z" transform="translate(-37.02 -25.1)"/><path class="h" d="M220.87,178.49l-.75,6.24c-.22,1.81-.46,3.61-.66,5.42s-.32,3.55-.49,5.32c-2.19-1.19-3.54-2.59-3-5.53s.26-5.79.39-8.7a1.65,1.65,0,0,1,.52-1.07A6.33,6.33,0,0,1,220.87,178.49Z" transform="translate(-37.02 -25.1)"/><path class="e" d="M247.23,168.89c.13-.18.26-.36.4-.53a6.48,6.48,0,0,1,1.13-1.35c.17-.13.69.22,1.37.46a23.3,23.3,0,0,1,7.92-3,5.86,5.86,0,0,1,2.24-.07c.51.12,1.2.72,1.24,1.16a1.76,1.76,0,0,1-1,1.32c-3.31,1-6.67,1.77-10,2.76a5.79,5.79,0,0,0-2.29,1.59c-1.79,1.86-3.48,3.82-5.23,5.72a4,4,0,0,1-.82.54q2.28-3.83,4.55-7.67C246.9,169.49,247.06,169.19,247.23,168.89Z" transform="translate(-37.02 -25.1)"/><path class="t" d="M226.63,154l-5.22,2.26,0,.27c2.9.06,5.79.13,8.69.17,1,0,2.06-.06,3.09-.09-2.61.22-5.22.62-7.83.63a57.44,57.44,0,0,1-17.3-2.59,1.53,1.53,0,0,1-.31-.16l2.89-1.95.29.24c.11.23.2.63.33.64a4,4,0,0,0,1.42-.06c2.8-.72,5.59-1.47,8.39-2.21l.49.42-6.24,1.92-1.6.53.09.56a12.71,12.71,0,0,0,3.21-.05c2.1-.55,4.14-1.36,6.2-2.06l.84.4-5.11,2.41.07.32a5.84,5.84,0,0,0,1.46-.12c1.74-.57,3.45-1.21,5.17-1.83Z" transform="translate(-37.02 -25.1)"/><path class="v" d="M62,251.71c-2-1.86-4-3.85-6.12-5.55-3-2.38-6.24-4.54-9.37-6.79a1.77,1.77,0,0,1,.75-.17q2.51.51,5,1.09c1.61.39,3.21.82,4.82,1.24q2.55,5,5.09,10Z" transform="translate(-37.02 -25.1)"/><path class="s" d="M180.57,168.71q1-2.82,2-5.62c2.64,2.5,4.1,5.75,5.73,9l-2.68,2a38.89,38.89,0,0,1-3.06-4.33A1.66,1.66,0,0,0,180.57,168.71Z" transform="translate(-37.02 -25.1)"/><path class="w" d="M57.09,241.53c-1.61-.42-3.21-.85-4.82-1.24s-3.32-.75-5-1.09a1.77,1.77,0,0,0-.75.17l-3.48-1.52c3.82-.64,7.59-1.39,11.43-.92a1.38,1.38,0,0,1,1,.63C56.06,238.85,56.55,240.2,57.09,241.53Z" transform="translate(-37.02 -25.1)"/><path class="v" d="M49.46,182.8c-.45,3.66-.91,7.32-1.38,11.15A75.62,75.62,0,0,0,43,179a1.42,1.42,0,0,1,0-.36,7.43,7.43,0,0,1,1,.48C45.82,180.35,47.64,181.58,49.46,182.8Z" transform="translate(-37.02 -25.1)"/><path class="c" d="M201.42,246.37c-.41-1.65-.75-3.31-1.23-4.93-.61-2-1.34-4-2-6a10.56,10.56,0,0,1-.29-1.38c1.09,2.48,2.29,4.93,3.26,7.46a86.32,86.32,0,0,1,4.78,17c.22,1.37.33,2.75.5,4.13-.24.4-.49.81-.8,1.34-.54-2.83-1-5.54-1.57-8.22-.36-1.65-.93-3.26-1.4-4.89a.13.13,0,0,1-.05-.15l-.22-1-.23-.93L202,248a.16.16,0,0,1-.07-.14l-.17-.58a.13.13,0,0,1-.07-.13l-.25-.8Z" transform="translate(-37.02 -25.1)"/><path class="t" d="M246.09,210.37a21.1,21.1,0,0,1-1.53-1.46,5.66,5.66,0,0,1-.65-1.19c3.05,2.15,6.21,4.16,9.15,6.46,3.64,2.84,7.12,5.89,10.6,8.93.46.4.51,1.28.75,1.93l-.37.2c-1.88-1.64-3.77-3.26-5.66-4.9-3.76-3.27-7.51-6.54-11.29-9.79C246.87,210.36,246.43,210.43,246.09,210.37Z" transform="translate(-37.02 -25.1)"/><path class="p" d="M177.7,175.89c.48-1.13,1-2.25,1.42-3.4a17.68,17.68,0,0,0,.52-1.93,1.91,1.91,0,0,1,2.24,1.06,32.89,32.89,0,0,0,2.49,3.21L181,178.42Z" transform="translate(-37.02 -25.1)"/><path class="w" d="M49.46,182.8c-1.82-1.22-3.64-2.45-5.47-3.65a7.43,7.43,0,0,0-1-.48l-2.25-4.47.1-.11c2.9,1.87,5.81,3.71,8.69,5.61a1.26,1.26,0,0,1,.37,1A14.85,14.85,0,0,1,49.46,182.8Z" transform="translate(-37.02 -25.1)"/><path class="h" d="M184.92,162.37l-5.17-2.31c-.11-1.51,1.25-2.7,2.64-3.17a5.5,5.5,0,0,1,4,.23c-.12.49-.24,1-.37,1.49Z" transform="translate(-37.02 -25.1)"/><path class="n" d="M184.92,162.37l1.05-3.76c.13-.5.25-1,.37-1.49a9.85,9.85,0,0,1,2,1.45c1,1.18,1.62,2.5.78,4.12a23.85,23.85,0,0,0-1.12,3.1Z" transform="translate(-37.02 -25.1)"/><path class="s" d="M189.05,173.94l-5.57,9.21-2.64-.91a8.85,8.85,0,0,1,1.29-2.44c2.17-2.1,4.47-4.07,6.72-6.08Z" transform="translate(-37.02 -25.1)"/><path class="n" d="M173.89,195.68c-5.52-2.79-10.89-5.52-16.24-8.24a1.66,1.66,0,0,1,2-.25c1.24.62,2.46,1.31,3.74,1.84a71,71,0,0,1,9.89,5.18C174.15,194.71,174.34,195.12,173.89,195.68Z" transform="translate(-37.02 -25.1)"/><path class="w" d="M93.28,285.71c-.18.24-.31.58-.55.69-4.19,1.92-7,5.39-9.75,8.85l-.53.24c0-.1-.13-.19-.11-.22,2.41-3.39,4.55-7,7.68-9.82,1.3-1.19,1.28-1.22,2.7-.18Z" transform="translate(-37.02 -25.1)"/><path class="o" d="M223.19,152.51c-2.06.7-4.1,1.51-6.2,2.06a12.71,12.71,0,0,1-3.21.05l-.09-.56,1.6-.53,6.24-1.92,2.83-.92,3-.74v0l-1.48,1.35Z" transform="translate(-37.02 -25.1)"/><path class="s" d="M204.6,157.16c.08.25.08.64.25.73,1.28.73,1.35,1.7.66,2.86a14.28,14.28,0,0,1-5.73-3.12l.24-2Z" transform="translate(-37.02 -25.1)"/><path class="n" d="M207.61,220.64,214,227.7a6.57,6.57,0,0,1-6.67-6.79Z" transform="translate(-37.02 -25.1)"/><path class="o" d="M221,151.19c-2.8.74-5.59,1.49-8.39,2.21a4,4,0,0,1-1.42.06c-.13,0-.22-.41-.33-.64l1.15-.32.22-.19h0l7.55-1.93,2.26-.21.12.25Z" transform="translate(-37.02 -25.1)"/><path class="t" d="M215.78,234.31l-.13.91.18-.29L209,228.27l3.72,1.73c0,.1-.11.24-.07.29Z" transform="translate(-37.02 -25.1)"/><path class="t" d="M219.82,150.39l-7.55,1.93,0-.63,1.32-.61c.71.07,1.4.1,1.64-.79l3.11-1.17Z" transform="translate(-37.02 -25.1)"/><path class="u" d="M266.48,148.59c0-.6.11-1.29-.82-1.34l4.11-3.42v0a3.39,3.39,0,0,1-.29,1.28C268.53,146.29,267.49,147.43,266.48,148.59Z" transform="translate(-37.02 -25.1)"/><path class="v" d="M62.54,147.49,60,151.9c.39-2.53.75-4.79,1.1-7.05a15.87,15.87,0,0,0,.61,1.48A9.22,9.22,0,0,0,62.54,147.49Z" transform="translate(-37.02 -25.1)"/><path class="w" d="M62.54,147.49a9.22,9.22,0,0,1-.84-1.16,15.87,15.87,0,0,1-.61-1.48v-2.67l.26-.05a33.12,33.12,0,0,1,1.77,3.71C63.27,146.27,62.75,146.93,62.54,147.49Z" transform="translate(-37.02 -25.1)"/><path class="l" d="M215.78,234.31l-3.09-4s.05-.19.07-.29l3.56,1.31Z" transform="translate(-37.02 -25.1)"/><path class="t" d="M265.31,223.06c1,.9,2.07,1.86,1.38,3.41-.21.46-.79.76-1.2,1.14Z" transform="translate(-37.02 -25.1)"/><path class="u" d="M200,155.67l-.24,2c-1-1.06-1.91-2.12-2.87-3.17l0,0Z" transform="translate(-37.02 -25.1)"/><path class="p" d="M236.24,159.77c.15.36.5.78.41,1.06a4.88,4.88,0,0,1-.88,1.26,4.57,4.57,0,0,1-1.12-.9c-.18-.28-.07-.76-.09-1.16Z" transform="translate(-37.02 -25.1)"/><path class="t" d="M116.31,251.59l-.18,1.85-2.39-1,2.59-.8Z" transform="translate(-37.02 -25.1)"/><path class="c" d="M241.47,175.08c.2-.47.41-.93.61-1.4C241.88,174.15,241.67,174.61,241.47,175.08Z" transform="translate(-37.02 -25.1)"/><path class="e" d="M208.43,255.2c0,.28.11.57.16.85C208.54,255.77,208.48,255.48,208.43,255.2Z" transform="translate(-37.02 -25.1)"/><path class="e" d="M206.94,249.94c.08.26.17.51.25.76Z" transform="translate(-37.02 -25.1)"/><path class="e" d="M206.68,249.24l.27.72Z" transform="translate(-37.02 -25.1)"/><path class="s" d="M210.29,219.25l.32.41Z" transform="translate(-37.02 -25.1)"/><path class="j" d="M74.12,141.29l.27-.5Z" transform="translate(-37.02 -25.1)"/><path class="s" d="M188.85,173.72l.36-.16-.16.38Z" transform="translate(-37.02 -25.1)"/><path class="s" d="M117,288.93l-.32.19.15-.35A.87.87,0,0,1,117,288.93Z" transform="translate(-37.02 -25.1)"/><path class="t" d="M243.9,207.72l-.46-.27Z" transform="translate(-37.02 -25.1)"/><path class="t" d="M205.93,225.11l.08.5-.15,0-.11-.39A.86.86,0,0,1,205.93,225.11Z" transform="translate(-37.02 -25.1)"/><polygon class="v" points="25.47 227.02 25.5 227.1 25.43 227.1 25.47 227.02"/><path class="j" d="M97.84,253.52l-.22-.26Z" transform="translate(-37.02 -25.1)"/><path class="v" d="M62.18,251.54l.09.27-.25-.1Z" transform="translate(-37.02 -25.1)"/><path class="t" d="M116.33,251.61l.06-.1-.08.08Z" transform="translate(-37.02 -25.1)"/><path class="e" d="M129.54,216.89l.21-.31Z" transform="translate(-37.02 -25.1)"/><path class="s" d="M220.92,200.5l-.27-.19Z" transform="translate(-37.02 -25.1)"/><path class="l" d="M178.85,205.8l.3.3Z" transform="translate(-37.02 -25.1)"/><path class="u" d="M269.77,143.83l.19,0-.19-.05Z" transform="translate(-37.02 -25.1)"/><path class="u" d="M104.78,243.49l-.08-.19.14,0-.08.18Z" transform="translate(-37.02 -25.1)"/><path class="e" d="M222.57,245.37l-.08-.08.06.09Z" transform="translate(-37.02 -25.1)"/><path class="u" d="M104.76,243.52l.25,0v.11l-.24-.11Z" transform="translate(-37.02 -25.1)"/><path class="v" d="M105.52,293.1l.1.06-.08-.07Z" transform="translate(-37.02 -25.1)"/><path class="w" d="M40.71,174.2l-.05-.25.15.14Z" transform="translate(-37.02 -25.1)"/><path class="u" d="M105.29,244.17l-.17-.21.09-.06c.05.07.1.15.16.22Z" transform="translate(-37.02 -25.1)"/><path class="u" d="M196.91,154.46l-.13-.13h.14l0,.16Z" transform="translate(-37.02 -25.1)"/><path class="s" d="M210.63,219.68l.2.24Z" transform="translate(-37.02 -25.1)"/><path class="r" d="M238.21,313.29l-.16.09.09-.16Z" transform="translate(-37.02 -25.1)"/><path class="x" d="M250.39,102.43c-.39-.31-.8-.59-1.16-.93-2.06-1.92-4-4-6.19-5.74a7.55,7.55,0,0,0-5.58-1.7,11.27,11.27,0,0,0-1.42.08c-1.32.22-1.49.08-1.51-1.33,1.81-3.1,4.89-3.89,8.1-4.33A10.82,10.82,0,0,1,249,90c3.55,3.45,4.32,6.89,2.44,11.21A6.28,6.28,0,0,1,250.39,102.43Z" transform="translate(-37.02 -25.1)"/><path class="y" d="M264.78,136.72c-2.59,1.6-5.11,3.32-7.78,4.77a67.84,67.84,0,0,1-15.71,6.24,2.64,2.64,0,0,1,.53-.72,2.27,2.27,0,0,0,1.25-1.71c.12-1,1-1.38,2-1.4,1.19,0,2.38-.1,3.56-.22,3.18-.3,5.37-2.15,7.2-4.59a28.6,28.6,0,0,0,5.89-16.21c.07-1.54,0-3.08,0-4.62a3.72,3.72,0,0,1,.23-.9l.36,0c0,.36.08.72.09,1.08A44.58,44.58,0,0,1,261,131.92a4.28,4.28,0,0,0-.05.72l-.2.49.17,0,0-.53a38.56,38.56,0,0,0,1.37-4.4c.46-2.29.68-4.62,1-6.94a1.42,1.42,0,0,1,.65-.87c.67,5.48-.27,10.77-1.29,16.06,1.51-3.4,1.79-7.08,2.31-10.71l.37,0c0,2.1.07,4.2,0,6.29C265.3,133.66,265,135.18,264.78,136.72Zm-4.17-3-.07,0s0,.06,0,.09l.13,0Zm2,3.43s0-.06-.06-.07,0,0-.07,0l.09.11Z" transform="translate(-37.02 -25.1)"/><path class="y" d="M236.28,86.65a3.42,3.42,0,0,1,.15-.65c1.12-2.51,2.36-5,3.35-7.52,1.17-3,4.36-3.18,6.5-2.21a15.23,15.23,0,0,1,6,5,33.48,33.48,0,0,1,2.7,5.14c.55,1.11.09,2-.72,3.14-.24-.43-.44-.72-.58-1a13.57,13.57,0,0,0-12-8,2.66,2.66,0,0,0-2.86,1.76c-.61,1.54-1.46,3-2.2,4.45Z" transform="translate(-37.02 -25.1)"/><path class="y" d="M270.78,131.68c-1.5,1.35-3,2.7-4.5,4-.11.09-.35,0-.53.06.54-1.66,1.12-3.31,1.61-5a50.14,50.14,0,0,0,2-11.47c.1-2.14.43-4.28.41-6.42,0-2.45-.35-4.9-.54-7.36,0-.19-.17-.43-.1-.57a6.22,6.22,0,0,1,.61-.87c.26.24.72.44.76.71.45,2.89.89,5.8,1.23,8.71.24,2.09.34,4.19.5,6.29-1.2.17-1.37,1-1.23,2A29,29,0,0,1,270.78,131.68Z" transform="translate(-37.02 -25.1)"/><path class="m" d="M250.39,102.43a6.28,6.28,0,0,0,1-1.27C253.27,96.84,252.5,93.4,249,90c1.5-.33,2.52.67,3.55,1.43,4.14,3,5.09,9,1.49,12.59-1.24,1.23-2.07,1.1-2.94-.44C250.84,103.16,250.61,102.8,250.39,102.43Z" transform="translate(-37.02 -25.1)"/><path class="a" d="M270.78,131.68a29,29,0,0,0,.22-9.87c-.14-1,0-1.82,1.23-2,1.64.58,3.28,1.16,4.92,1.76.41.15.8.34,1.2.51L276.56,125l-2.43-1a.24.24,0,0,0-.05-.1s0,0-.07,0l.14.07c.26,1,.51,1.94.76,2.92Z" transform="translate(-37.02 -25.1)"/><path class="y" d="M193.11,76c1.46.15,3,.19,3.48,2.14.06.29.4.51.5.8.18.52.54,1.34.34,1.54a2.33,2.33,0,0,1-1.74.62c-2-.35-3.93-.91-5.91-1.34-.61-.14-1.27-.07-1.88-.21a1.46,1.46,0,0,1-1-.59c-.09-.23.22-.69.44-1C188.65,76.32,190.77,76.37,193.11,76Z" transform="translate(-37.02 -25.1)"/><path class="y" d="M234.53,92.81c0,1.41.19,1.55,1.51,1.33a11.27,11.27,0,0,1,1.42-.08c1.07,1.32,2.17,2.63,3.18,4,.3.4.61,1.24.44,1.43a2.87,2.87,0,0,1-1.77,1,6,6,0,0,1-4.52-2.35A10.83,10.83,0,0,1,233.12,95C232.61,93.68,233.13,93,234.53,92.81Z" transform="translate(-37.02 -25.1)"/><path class="y" d="M238.71,125.2c-.87-.15-2.13-.33-3.36-.6-.29-.07-.69-.42-.71-.67a1.11,1.11,0,0,1,.56-.8,2.29,2.29,0,0,1,1.24-.31c2.89.33,4.2-1.68,5.43-3.7.39-.65.72-1.47,1.48-1.18a2.26,2.26,0,0,1,1,1.66C244.68,122.72,242.29,125.2,238.71,125.2Z" transform="translate(-37.02 -25.1)"/><path class="o" d="M225.62,153.69c-1.72.62-3.43,1.26-5.17,1.83a5.84,5.84,0,0,1-1.46.12l-.07-.32,5.11-2.41,2.52-1.27,1.85-.95,3.7-1.54.28.29a12.34,12.34,0,0,1-.86,1c-.49.44-1,.82-1.55,1.23Z" transform="translate(-37.02 -25.1)"/><path class="y" d="M238.69,79.42c-.5,2.18-1.8,4-2.73,6l-.44-.19c.44-1,.85-2,1.32-2.9s1-2,1.53-3Z" transform="translate(-37.02 -25.1)"/><path class="z" d="M225.62,153.69l4.35-2c.05.18.11.36.17.53L226.63,154Z" transform="translate(-37.02 -25.1)"/><path class="y" d="M269.74,102.31c-.39-.62-.86-1.07-.77-1.31s.65-.63,1-.94c.26.34.72.69.72,1S270.22,101.74,269.74,102.31Z" transform="translate(-37.02 -25.1)"/><path class="m" d="M228.4,150.69l-1.85.95-.69-.37,1.48-1.35C227.7,150.17,228.05,150.43,228.4,150.69Z" transform="translate(-37.02 -25.1)"/><path class="y" d="M265.76,135.76l-.26.49Z" transform="translate(-37.02 -25.1)"/><path class="c" d="M219,251.79c.84,0,1.06.59.89,1.34-.33,1.55-.71,3.08-1.15,4.59a1.06,1.06,0,0,1-1.52.76c-.8-.38-.34-1-.1-1.54s.48-1.13.73-1.69l-.35-.17c-.32.67-.65,1.33-1.11,2.26a7.27,7.27,0,0,1-1-1.34c-1-2.55-1.88-5.15-2.92-7.68-1.3-3.17-2.72-6.3-4.09-9.44a.67.67,0,0,1-.1-.21c-.13-.67-.25-1.34-.37-2a7.17,7.17,0,0,1,2.23,1.11,37.68,37.68,0,0,1,3,3.89c1.87,2.62,3.75,5.24,5.53,7.92A5.91,5.91,0,0,1,219,251.79ZM218,254.46l-.06-.07-.06.06.09.1Zm.15-.77a.45.45,0,0,0,0,.11l.08,0a.54.54,0,0,0,0-.1S218.14,253.7,218.11,253.69Z" transform="translate(-37.02 -25.1)"/><path class="z" d="M163.3,239.6c.45-3.33,1-6.65,1.33-10,.37-3.56.56-7.14.87-10.72a4.25,4.25,0,0,1,.48-1.19c.38.28.92.47,1.11.84,1.88,3.72,2.88,7.59,1.69,11.76a13.18,13.18,0,0,0-.25,1.53c-1.17,4.88-2.31,9.77-3.53,14.64-.48,1.89-1.12,3.74-1.78,5.57-.18.48-.71.83-1.07,1.24a5,5,0,0,1-.18-1.6c1.35-5.9,2.76-11.79,4.14-17.69.45-1.9.87-3.81,1.28-5.72a8.76,8.76,0,0,0-.75-6.34c-.52,3.61-1,7.22-1.56,10.84S164,240,163.46,243.62l-.36-.05Z" transform="translate(-37.02 -25.1)"/><path class="z" d="M202.63,250.72a.13.13,0,0,0,.05.15c.35,2.36.72,4.71,1,7.07a32.46,32.46,0,0,1,.36,3.69c.13,5.18.39,10.37-.46,15.52a9.82,9.82,0,0,1-.45,1.49h-.39a4.32,4.32,0,0,1-.23-1c.08-4.3.21-8.61.29-12.92a89,89,0,0,0-1.33-15.45,20.78,20.78,0,0,1-.09-2.85v0c.09.26.17.53.25.8a.13.13,0,0,0,.07.13l.17.58a.16.16,0,0,0,.07.14l.21.75.23.93C202.48,250,202.56,250.37,202.63,250.72Z" transform="translate(-37.02 -25.1)"/><path class="n" d="M265.88,160.88l-2.17.21-.07-.59,2.18-.23Z" transform="translate(-37.02 -25.1)"/><path class="n" d="M252.32,164.37l1.79-1.25c.15,1-.46,1.47-1.6,1.54Z" transform="translate(-37.02 -25.1)"/><path class="z" d="M257.8,161.78l2-.71.19.49-1.94.83Z" transform="translate(-37.02 -25.1)"/><path class="n" d="M249.61,166.31l2-1.7C251.63,165.76,251,166.37,249.61,166.31Z" transform="translate(-37.02 -25.1)"/><path class="z" d="M262.81,161l-2,.46-.13-.51,2-.53Z" transform="translate(-37.02 -25.1)"/><path class="z" d="M267.18,160.22l1.64.18v.4l-1.66.21-.46-.38Z" transform="translate(-37.02 -25.1)"/><path class="aa" d="M166.5,83a6.55,6.55,0,0,1-.15-1.45,59.34,59.34,0,0,1,12.74-29c7.77-9.72,17.8-16.1,29.53-20a17.69,17.69,0,0,1,12.07-.11,11.29,11.29,0,0,1,3,1.94,1.47,1.47,0,0,1,.43,1.31,1.66,1.66,0,0,1-1.16.78,84.37,84.37,0,0,0-14.89,4,65.38,65.38,0,0,0-19,11.24,70.94,70.94,0,0,0-18.55,24c-.94,2-1.69,4-2.58,6.06a9.6,9.6,0,0,1-.94,1.41Z" transform="translate(-37.02 -25.1)"/><path class="aa" d="M222.09,30.89a9.15,9.15,0,0,1,1.73-.77,4.82,4.82,0,0,1,5.46,2.82c.25.73.52,1.52-.36,2a2.1,2.1,0,0,1-2.57,0c-.71-.62-1.26-1.43-2-2.05a24.88,24.88,0,0,0-2.22-1.59Z" transform="translate(-37.02 -25.1)"/><path class="z" d="M212.23,151.69l0,.63h0l-.22.19-1.15.32-.29-.24C210.82,151.68,211.17,151.05,212.23,151.69Z" transform="translate(-37.02 -25.1)"/><path class="z" d="M215.19,150.29c-.24.89-.93.86-1.64.79.19-.36.29-.87.6-1.06S214.83,150.18,215.19,150.29Z" transform="translate(-37.02 -25.1)"/><path class="z" d="M262.72,239.72l-3.83-2.56-.33-.21h0l-1.9-1.62c-.09-.08-.22-.22-.29-.2-1.79.49-1.95-1.12-2.49-2-3.28-5.64-6.49-11.33-9.72-17a2.81,2.81,0,0,1,0-.57c.47.24.94.33,1.14.61.78,1.1,1.52,2.24,2.2,3.41,1.85,3.21,3.7,6.42,5.5,9.66a15.36,15.36,0,0,0,4.05,5,39.93,39.93,0,0,0,8.63,5.52c1,.44,2.18.59,3.4,1.19a4.28,4.28,0,0,1-1.27.59C265.87,241.67,264.33,240.58,262.72,239.72Z" transform="translate(-37.02 -25.1)"/><path class="z" d="M249.68,234.8l-4.84-12q-2.07-5-4.12-9.89a4.18,4.18,0,0,1-.17-1c.32.2.81.32.94.61,1.47,3.21,3,6.42,4.3,9.69,1.91,4.75,3.69,9.55,5.52,14.33.15.39.24.81.35,1.21l-.27.13-1.49-2.6h0Z" transform="translate(-37.02 -25.1)"/><path class="z" d="M269.71,160.52l2.17.18c-.57.77-1.21.77-2.2.17Z" transform="translate(-37.02 -25.1)"/><path class="z" d="M274.49,162.37l-2-.61.15-.55,2,.56Z" transform="translate(-37.02 -25.1)"/><path class="z" d="M277.27,163.57l-2-.83.2-.52,2,.77Z" transform="translate(-37.02 -25.1)"/><path class="d" d="M215.56,144.23c-3.44-4.44-6.88-8.77-10.19-13.2A15.93,15.93,0,0,1,202,120.31c.18-3,.46-6.1.72-9.15a1.14,1.14,0,0,1,.34-.7,6.93,6.93,0,0,1,3.78.09c3.18,3.22,6.29,6.5,7.19,11.18a7,7,0,0,1,.06,2.24c-.94,6.73-1.13,13.41,1.5,19.87A1.2,1.2,0,0,1,215.56,144.23Z" transform="translate(-37.02 -25.1)"/><path class="d" d="M216.82,117.52l-.1,0,.09.06Z" transform="translate(-37.02 -25.1)"/><path class="e" d="M249.68,234.8l.22.5Z" transform="translate(-37.02 -25.1)"/><path class="e" d="M258.56,237l.33.21Z" transform="translate(-37.02 -25.1)"/><path class="f" d="M274.91,126.91c-.25-1-.5-2-.76-2.92l0,0,2.43,1Z" transform="translate(-37.02 -25.1)"/><path class="a" d="M106.25,246.55c.73,1.36,1.45,2.73,2.17,4.09C107.7,249.28,107,247.91,106.25,246.55Z" transform="translate(-37.02 -25.1)"/><path class="a" d="M108.89,251.59c.41.88.81,1.77,1.21,2.66C109.7,253.36,109.3,252.47,108.89,251.59Z" transform="translate(-37.02 -25.1)"/><path class="a" d="M110.09,254.22l.73,1.71Z" transform="translate(-37.02 -25.1)"/><path class="a" d="M111.29,257.1l.49,1.22Z" transform="translate(-37.02 -25.1)"/><path class="a" d="M110.81,255.9l.49,1.22Z" transform="translate(-37.02 -25.1)"/><path class="a" d="M108.41,250.63l.25.49Z" transform="translate(-37.02 -25.1)"/><path class="a" d="M108.66,251.11l.24.5Z" transform="translate(-37.02 -25.1)"/><path class="n" d="M225.86,151.27l.69.37L224,152.91l-.84-.4Z" transform="translate(-37.02 -25.1)"/><path class="e" d="M202.63,250.72c-.07-.35-.15-.69-.22-1C202.48,250,202.56,250.37,202.63,250.72Z" transform="translate(-37.02 -25.1)"/><path class="e" d="M202.18,248.75,202,248Z" transform="translate(-37.02 -25.1)"/><path class="e" d="M201.66,247.15c-.08-.27-.16-.54-.25-.8C201.5,246.61,201.58,246.88,201.66,247.15Z" transform="translate(-37.02 -25.1)"/><path class="e" d="M201.9,247.86l-.17-.58Z" transform="translate(-37.02 -25.1)"/><path class="t" d="M212.05,152.5l.22-.19Z" transform="translate(-37.02 -25.1)"/><path class="d" d="M261,132.64l0,.53-.17,0,.2-.49Z" transform="translate(-37.02 -25.1)"/><path class="d" d="M260.61,133.76l0,.09-.13,0s0-.06,0-.09Z" transform="translate(-37.02 -25.1)"/><path class="d" d="M262.57,137.19l0,.08-.09-.11s.06,0,.07,0S262.55,137.16,262.57,137.19Z" transform="translate(-37.02 -25.1)"/><path class="f" d="M274.15,124l-.14-.07s.06,0,.07,0a.24.24,0,0,1,.05.1Z" transform="translate(-37.02 -25.1)"/><path class="e" d="M218,254.46l0,.09-.09-.1.06-.06Z" transform="translate(-37.02 -25.1)"/><path class="e" d="M218.11,253.69s.08,0,.08,0a.54.54,0,0,1,0,.1l-.08,0A.45.45,0,0,1,218.11,253.69Z" transform="translate(-37.02 -25.1)"/></svg>