<svg xmlns="http://www.w3.org/2000/svg" viewBox="0 0 249.42 254.67"><defs><style>.a{fill:#060403;}.b{fill:#eeb155;}.c{fill:#de6238;}.d{fill:#e88e45;}.e{fill:#e98e45;}.f{fill:#eeb255;}.g{fill:#e29e45;}.h{fill:#b64e31;}.i{fill:#d3713a;}.j{fill:#b54d30;}.k{fill:#edb055;}.l{fill:#e19e45;}.m{fill:#b44d30;}.n{fill:#35aedc;}.o{fill:#d2703a;}.p{fill:#da6137;}.q{fill:#df9c44;}.r{fill:#a9e3f9;}.s{fill:#35afdd;}.t{fill:#34addb;}.u{fill:#1d83aa;}.v{fill:#dd9b44;}.w{fill:#1e86ae;}.x{fill:#b2e7fb;}.y{fill:#b1e3f7;}.z{fill:#2fa4d0;}.aa{fill:#d3813e;}.ab{fill:#fefefe;}.ac{fill:#0a0603;}.ad{fill:#000001;}</style></defs><path class="a" d="M144.72,214.47c-1,.52-2.08,1-3.05,1.56a5.37,5.37,0,0,0-2.62,5c0,1.31-.48,1.66-1.68,1.14a4.62,4.62,0,0,1-2.44-5.11c.44-1.87,1.2-3.66,1.82-5.49l.13-.25h-.3c-2.72.61-3.61,2.52-3.78,5.07a2.28,2.28,0,0,1-1.08,1.48c-.2.12-1.05-.46-1.32-.9-1.85-3-1.39-6,.4-8.9a22.59,22.59,0,0,1,13.69-10.27c4.5-1.2,8.9-2.81,13.34-4.26a3.93,3.93,0,0,0,1.56-1c-1.84.18-3.69.43-5.54.52-3.7.19-7.41.32-11.11.42a3,3,0,0,1-1.81-.49c-1.77-1.43-3.71-.82-5.6-.61-3.91.43-7.8,1-11.71,1.35a70.25,70.25,0,0,1-8.7.36,6.87,6.87,0,0,0-4,1.12q-8.56,5-17.23,9.78a26.65,26.65,0,0,0-5.28,4.23c-1.16,1.1-2.37,2.15-3.62,3.13a3.15,3.15,0,0,1-1.81.82c-1.24,0-1.69.79-2.24,1.58A14.08,14.08,0,0,0,78.57,221a6.43,6.43,0,0,1-.64,1.55c-.52-.28-1.22-.43-1.53-.86a10.82,10.82,0,0,1-1.67-7.3c0-.21,0-.43.1-1-1.84,2.35-3.5,4.38-4,7.15a2.7,2.7,0,0,1-1.18,1.85,2.26,2.26,0,0,1-2.63-.93c-2.47-2.81-2.51-6.06-1.73-9.45.12-.55.31-1.07.46-1.61l.1-.49-.33.15a35.1,35.1,0,0,0-1.51,3.31c-.36,1-.77,1.32-1.71.75a4.16,4.16,0,0,1-1.81-3.71,10.8,10.8,0,0,1,2.15-6.81c3.89-5.27,9.08-8.89,14.7-12,2-1.14,3.89-2.6,6-4.07-18.14-7.77-31-20.55-39.19-38.11a15.43,15.43,0,0,1-9,2.81,31.49,31.49,0,0,1-7.33-1.43,5,5,0,0,1-2.54-2.19c-5.15-8.63-6.61-23.55,2.67-34.06,2.5-2.83,5.75-5,8.74-7.41A8.94,8.94,0,0,0,40,102.65a41.61,41.61,0,0,1,9.19-15.81,37,37,0,0,0,3.37-5,5,5,0,0,1-4.66-3.66,3,3,0,0,1,.55-2.9c2.31-3,4.61-5.92,6.78-9,1.42-2,3-3.57,5.52-4.08a7.42,7.42,0,0,0,1-.35c.07,0,.12-.1-.06,0,0-2.59-.07-5,0-7.36a37.22,37.22,0,0,1,.64-4.69,1.43,1.43,0,0,1,1.57-1.33c1,.11,1,.91,1.09,1.71a33.4,33.4,0,0,0,2.36,9c1.12-1.25,2.18-2.36,3.15-3.56a1.72,1.72,0,0,0,.18-1.22,39.56,39.56,0,0,1,2.22-20A3,3,0,0,1,73.74,33a2.49,2.49,0,0,1,1.7-.38c.26.05.49.82.56,1.28.39,2.59.6,5.2,1.09,7.76.44,2.28,1.16,4.49,1.8,6.89,1.47-.87,2.77-1.56,4-2.38A1.59,1.59,0,0,0,83.17,45C82.05,34.38,82.78,24,86.81,14.07a22.48,22.48,0,0,1,1.68-3.41,2.22,2.22,0,0,1,1.54-1c.84,0,.89.86.86,1.57-.34,6.7,1.13,13.17,2.5,19.65.76,3.61,1.66,7.19,2.51,10.83H97a5.21,5.21,0,0,1-.1-.82c.15-3,0-6.1.53-9a112.71,112.71,0,0,1,3-11.08,4.19,4.19,0,0,1,1.08-1.68,1.47,1.47,0,0,1,1.26-.37c.33.12.57.68.71,1.1a4.26,4.26,0,0,1,0,1.19A95.53,95.53,0,0,0,106,40.59c.27,1.14.26,1.14,2.47,1.53.76-3.15,1.53-6.3,2.29-9.45.08-.3.08-.69.27-.89.41-.42.91-1,1.39-1a1.65,1.65,0,0,1,1.18,1.05c.42,1.93.71,3.89,1,5.85.29,2.13.46,4.27.78,6.4.05.37.5.77.86,1,5.69,3.36,10.61,7.52,14,13.2,2.51-.51,5-1.19,7.47-1.47s5.33-.24,8-.28c1.79,0,3.58,0,5.36.11,1.51.09,3,.32,4.51.5A1.89,1.89,0,0,1,157.46,59a63.4,63.4,0,0,1,.18,7.16c-.12,2-.61,2.3-3,2.51-.24,3.1-.41,6.23-.76,9.35a19.42,19.42,0,0,1-1.11,5.68c-1.3,2.94-3.35,5.29-7,5.14,0,1.78-.06,3.48,0,5.17.12,2.81-1.24,4.2-3.56,5a5.42,5.42,0,0,0-2.61,2c-3.48,4.43-7.85,7.55-13.68,8.5A11.13,11.13,0,0,0,127,114.9c2.81,7.14,7.71,12.61,13.82,17.07a71.45,71.45,0,0,0,19.1,9.53A273.94,273.94,0,0,0,187,149c9.49,2.23,18.95,4.61,28,8.32,17.93,7.33,32.85,18.46,43.86,34.55,4.75,6.92,8.62,14.29,10.5,22.55,1.63,7.18,2.08,14.37-.31,21.51-1.53,4.56-4.34,8.31-7.42,11.91-7.91,9.22-18.38,13.77-30,15.64-17.47,2.82-33.73-1.1-48.65-10.4-4.93-3.07-9.49-6.75-14.17-10.22a16.85,16.85,0,0,1-2.49-2.57,3,3,0,0,1-.67-1.37c-.27-1.41.6-2.39,2-2a9.11,9.11,0,0,1,3.37,1.67c8.57,7.17,18.24,12,29.34,13.59a55.54,55.54,0,0,0,34.24-5.6,37.68,37.68,0,0,0,12.58-10.91c3.12-4.08,3.36-8.45,1.62-13.18a43.24,43.24,0,0,0-13-18c-9.27-8-20.21-12.65-32-15.22-5.09-1.11-10.29-1.65-15.45-2.4a1.2,1.2,0,0,0-1,.54c-6.51,11.7-16,20.24-27.83,26.3-1.16.6-2.3,1.25-3.5,1.77a4.62,4.62,0,0,1-2.16.55,2.88,2.88,0,0,0-2.65,1.4c-1.74,2.05-2.12,4.49-2.31,7-.11,1.42-.51,1.7-1.82,1.12a4.64,4.64,0,0,1-2.93-4.54c.07-2.1.52-4.18.79-6.26l.06-.31ZM124.94,61.88h0l3.59,0,2.86,1.47-.2.59a6.66,6.66,0,0,0-5.28-1.52c.06.11.07.17.1.18.31.06.62.14.93.18a4.77,4.77,0,0,1,4.21,4.1c.21,1,.27,2,.53,2.92a6.23,6.23,0,0,0,.85,1.47l.35-.19-.06-.57c-.08-1.83-.13-3.66-.25-5.48a1.69,1.69,0,0,1,1.28-1.9c1.32-.42,2.66-.78,4-1.17l.51-.08.7,0c3.22.25,6.44.39,9.63.78,2.2.26,2.58.85,2.65,3.08a70.23,70.23,0,0,1-.74,13.82C150,83,148.25,85,145,85.82l.3,1.08a2.64,2.64,0,0,0,.45.06,6.84,6.84,0,0,0,5.82-6c.64-4.25,1-8.53,1.45-12.81.11-1.14.63-1.61,1.66-1.54s1.28-.52,1.14-1.41c0-1.68,0-3.35,0-5,0-.54,0-1.11-.88-1.15-2.46-.12-4.92-.3-7.38-.45a44.86,44.86,0,0,0-15.38,1.48l-1.19.38-2.65.29-3.09-.07-3.18.4-1.38.36-1.24-.66-3.61-1.49c-.59-.21-1.16-.46-1.76-.63A55.53,55.53,0,0,0,92.72,57c-3.67.39-7.29,1.16-10.94,1.76-.73,0-1.25.12-1.25,1.1,0,2.12-.09,4.24-.15,6.36a1.47,1.47,0,0,0,1.4,1.92c.09.33.21.65.27,1q1.33,6.81,2.66,13.63A10.48,10.48,0,0,0,92,89.88a33.29,33.29,0,0,0,18.43.46c1.26-.31,2.33-1.38,3.49-2.1a16.62,16.62,0,0,0,2.18-3.2,48.89,48.89,0,0,0,3.63-17.55,19.6,19.6,0,0,1,.22-2l1.2-1.44,2.64-1.69.65-.28Zm43.64,177.69-.05-.09h-.07l.13.09c.13.23.19.54.38.68q3.5,2.7,7,5.36c.08.09.14.21.24.26,4.3,2.65,8.48,5.51,12.93,7.85,3.68,1.94,7.68,3.28,11.54,4.88a.76.76,0,0,0,.19.12c12.29,3.72,24.68,4.71,37.16,1.07,7.93-2.31,15.12-5.86,20.77-12.19,4-4.51,7.5-9.23,8.68-15.3a38.79,38.79,0,0,0-.15-14.41A54.18,54.18,0,0,0,260,198.93c-.29-.53-.54-1.07-.85-1.58a89.78,89.78,0,0,0-25.31-27c-12.53-8.89-26.6-14.31-41.42-17.81-10.33-2.43-20.69-4.69-30.8-7.95a86.11,86.11,0,0,1-14.79-6.15c-8.55-4.67-15.71-10.78-20.36-19.52a25.82,25.82,0,0,1-2.86-9.59h-3.69a5.1,5.1,0,0,0-5,.62,12,12,0,0,0-3.78,4.81c-1.69,3.37-3.16,6.85-4.84,10.23a10,10,0,0,1-2.11,2.7,2,2,0,0,1-1.63.16c-.2-.06-.29-.89-.25-1.35.1-1.33.28-2.65.43-4a1.57,1.57,0,0,0-.69.72c-1.51,2.72-2.93,5.49-4.56,8.13a9.85,9.85,0,0,1-2.6,2.59c-1.1.83-2,.29-2-1.07,0-1,0-2,0-3.42a10.59,10.59,0,0,0-.85,1.22c-1,1.95-2,3.88-2.9,5.89a7,7,0,0,1-3.62,3.93,5.25,5.25,0,0,1-1.37.24l1-6.5.23-.48.43.08-.8,6c.25-.23.44-.33.52-.48.77-1.4,1.51-2.8,2.27-4.2,1.23-2.27,2.42-4.58,3.76-6.79a2.55,2.55,0,0,1,1.84-1.15c.94.08,1.11,1.1,1.17,2s.13,1.6.19,2.4l.42.15c1.15-1.89,2.34-3.76,3.45-5.67s2.09-4,3.23-5.87a1.82,1.82,0,0,1,1.44-.75c.32,0,.75.77.83,1.25.2,1.31.24,2.65.34,4,2-3.73,3.94-7.49,5.91-11.24a19.63,19.63,0,0,1,6.73-5.51,20.38,20.38,0,0,1,4.35-.5c6.66.59,11.72-2.33,16-7a12.41,12.41,0,0,0,.82-1.09l-.16-.39c-2.27.31-4.56.49-6.79,1-4,.8-7.91,1.77-11.85,2.67-2.1-.44-4.21-.81-6.28-1.34A5.19,5.19,0,0,1,109.74,98a2,2,0,0,1,.23-1.81,3.85,3.85,0,0,1,2.19-.89c.69,0,1,.93.58,1.58a8.81,8.81,0,0,1-.84.9A7.46,7.46,0,0,0,113.49,99c2.8,1.12,5.67,1.93,8.73,1.22,1.36-.32,2.7-.69,4-1,4.7-1.26,9.38-2.63,14.33-1.57.19,0,.43-.15.65-.24,2.1-.69,2.64-1.34,2.56-3.43a52.42,52.42,0,0,0-.47-5.6,20.25,20.25,0,0,0-7.13-12.76,13.21,13.21,0,0,0-9.88-3.62c-.47,0-.95,0-1.42,0a4.8,4.8,0,0,1,1.26-.46c1.13-.06,2.27,0,3.4,0v-.3h-3.42v-.4h3.63c-.19-1.16-.42-2.09-.5-3-.23-2.89-3.74-3.94-5.76-3a2.72,2.72,0,0,0-1.87,2.72,33.06,33.06,0,0,1-.32,4.88c-1,6.17-1.85,12.4-5.77,17.62h0l-.27.26a28,28,0,0,1-4.75,2.36,31.67,31.67,0,0,1-12.93.72A23.94,23.94,0,0,1,89,90.86a14.61,14.61,0,0,1-5.36-5.48c-.47-1.55-1.08-3.07-1.4-4.64-.77-3.78-1.4-7.58-2.1-11.41l-2.72-.28a11.26,11.26,0,0,1-3,5.69,1.4,1.4,0,0,0-.37.61c-.41,2.09-.8,4.19-1.13,5.92l4,3.23a12.78,12.78,0,0,1,2.2,9c-.36,3.24-2.52,7.48-7.19,7.31L67.36,99c-.37,1-.78,2.33-1.3,3.57-2.3,5.47-4.63,10.92-6.94,16.37-.74,1.84-1.54,3.66-2.2,5.53-2,5.59-3.89,11.19-5.82,16.79-1.55,2.06-3.12,4.11-4.63,6.2a1.2,1.2,0,0,0-.08,1,70,70,0,0,0,9.43,15.33,1.2,1.2,0,0,0,.13.33,71.24,71.24,0,0,0,28.29,21.47,1.4,1.4,0,0,0,1.21-.25A52.12,52.12,0,0,0,100.3,163a6.15,6.15,0,0,0,.17-1.14l.18,0,0-.11-.14.15c-1.37,1.41-2.7,2.86-4.12,4.21a18.37,18.37,0,0,1-2.19,1.56l2-2.33c2.51-2.48,5.37-4.71,6-8.41l-5.55,6.29c-2.13,1.61-4,3.53-6.57,4.52l7.31-6.3c2.87-2.83,5.25-6,6.13-10,.64-2.92,1.22-5.85,1.76-8.79,1.62-8.9,3.73-17.62,9.38-25l.24-.35v0l1.59-1.42a3.2,3.2,0,0,1,3.88-.42,6.37,6.37,0,0,1,2.33,2.16c1.49,2.46,2.79,5,4.17,7.58l.28,1,.12.41,2.67,19.26c0,3.07.11,6.15-.13,9.2a6.63,6.63,0,0,0,1.61,5c2,2.45,4.08,4.7,7.33,5.36a2.7,2.7,0,0,0,2.79-.51c1.26-1.33,2.57-2.61,3.86-3.92l1.37-.63c1,.45.82.91.11,1.55a52.29,52.29,0,0,0-8.76,9.79,46.75,46.75,0,0,0-2.5,5.62,11.18,11.18,0,0,0,9.06,14.22,28,28,0,0,0,5.49,0c3.94-.29,7.87-.66,11.79-1.07a3.89,3.89,0,0,0,2-.81c2-1.64,3.94-3.37,5.87-5.09.58-.51,1.09-.64,1.62,0a6.51,6.51,0,0,1-.93,1.56q-2.72,2.55-5.52,5a18.83,18.83,0,0,1-6.28,4.07c-4.66,1.51-9.3,3.09-14,4.39A19.54,19.54,0,0,0,133,208.14a8.28,8.28,0,0,0-1.53,4.71,14.13,14.13,0,0,1,2.73-2.32,32.78,32.78,0,0,0,7.69-5.16l.18.2-.09.41a31.52,31.52,0,0,0-4.4,8.65,6.09,6.09,0,0,0-.34,4,9.44,9.44,0,0,1,4.26-4.6c2.19-1.3,4.34-2.65,6.51-4-.11.35-.21.7-.32,1.05l-1.41,4.47c-.33,2.45-.42,4.86.74,7.17a12,12,0,0,1,3.41-7.13,3.28,3.28,0,0,1,2.68-1.28,4.47,4.47,0,0,0,2.07-.52c4.82-2.37,9.65-4.69,13.85-8.18,6.21-5.16,11.93-10.72,16-17.82a24.7,24.7,0,0,0,3.14-8.21c.82-2.53.49-4.66-1.66-6.55a55.33,55.33,0,0,0-9.19-6.64,53,53,0,0,0-12.6-5c-1.35-.37-1.45-.62-.79-1.66,2.28.6,4.56,1.22,6.85,1.81.5.13,1,.21,1.52.3l0,.18.15,0-.16-.13a19.89,19.89,0,0,0-8.4-3.39,1.42,1.42,0,0,1,.94-.46c1,.12,1.93.36,2.9.55a33.05,33.05,0,0,1,3.21,1.44,25.73,25.73,0,0,1,2.79,2,12.19,12.19,0,0,0,1.65,1.35c4.77,2.36,9.33,5,13.05,8.91a4.43,4.43,0,0,0,2.62,1.36c1.13.18,2.26.36,3.37.64,2.94.72,5.87,1.5,8.8,2.25h0l.5.19a2.46,2.46,0,0,0,.42.23,86.37,86.37,0,0,1,30.92,17.75,59.08,59.08,0,0,1,12.33,15.41,42.24,42.24,0,0,1,4.82,16.29,13.82,13.82,0,0,1-2.66,10,40.68,40.68,0,0,1-14.9,12.71A58.66,58.66,0,0,1,176,245c-2-1.48-3.9-3-5.87-4.43C169.65,240.2,169.1,239.91,168.58,239.57ZM77.42,61.13l.11-1c-.87.19-1.6.35-2.33.53C70.11,61.94,65,63.2,59.94,64.53a6.26,6.26,0,0,0-1.69,1.15l-1.48,2c-2,2.72-4,5.52-6.13,8.12-.88,1-1.13,1.8-.29,2.85l1.34,1.27c2.17-3.41,4.34-6.52,6.19-9.81a4.8,4.8,0,0,1,4.21-2.57A12.47,12.47,0,0,0,65,66.45c1.24-.63,2.51-1.21,3.72-1.9.89-.51,1.66-.9,2,.25a25.41,25.41,0,0,1,3.5-.94c1.29-.16,1.91.9,1.33,2l-.27.6h2.12ZM219,184.4l-.27-.22c-.27-.17-.53-.35-.81-.49a87,87,0,0,0-17.84-7.2c-3.29-.9-6.63-1.66-10.19-2.54,1.68,4.14-.15,7.53-1.31,11,3.09.32,6.1.54,9.09,1a84,84,0,0,1,25.46,7.59c3,1.48,5.86,3.22,8.79,4.84.25.2.48.41.74.59a52.81,52.81,0,0,1,15.8,16.92,7.75,7.75,0,0,0,.58.69,7.94,7.94,0,0,0-.29-1.11c-1.07-2.25-2-4.58-3.26-6.73a60,60,0,0,0-17-18.23c-3-2.21-6.34-4.06-9.52-6.07Zm-109.43-54-.2.53a82.07,82.07,0,0,0-1.9,9.33,109.28,109.28,0,0,1-2.4,16.31c-4,16.41-13.06,29-27.73,37.48a44.72,44.72,0,0,0-12,9.25,24.19,24.19,0,0,0-2.12,3.42c-.26,1.25-.51,2.49-.77,3.74l.39.17a9.53,9.53,0,0,1,4.42-4.14A20.31,20.31,0,0,0,70,204.31l1.29-1.24c-1.1,2.65-2.2,5.19-3.23,7.76a11.78,11.78,0,0,0-.4,7.62l.73,1.78A23.89,23.89,0,0,1,74,211.58c.83-.87,1.53-1.88,2.32-2.8s1.52-1.71,2.29-2.56c-.54,2.14-1.23,4.26-1.56,6.44a34.42,34.42,0,0,0,0,5.08,11.09,11.09,0,0,0,.68-1.32,25.38,25.38,0,0,1,2.68-4c.68-.75,1.88-1,2.85-1.5A35.17,35.17,0,0,1,86,208.48c3.26-2.29,6.48-4.65,9.86-6.73,5.6-3.44,11.4-6.57,17-10.07,3.73-2.34,6.19-5.92,8.06-9.88a44.19,44.19,0,0,0,4.33-10.92l.13-.38.13-.56.12-.4.28-1.19.16-.5.12-.69.13-.51.11-.68a3,3,0,0,0,.18-.56c.41-3.56,1-7.11,1.17-10.69a79.9,79.9,0,0,0,0-10.38c-.28-4.05-.9-8.08-1.46-12.11a27.22,27.22,0,0,0-5-13c-2.09-2.74-3.46-2.81-5.87-.31a3.61,3.61,0,0,0-.33.35,32.69,32.69,0,0,0-5.59,11.15Zm-3.31-85.58c-.56-.17-1.1-.37-1.67-.49-3.26-.66-6.49-.17-9.7.42C84.94,46.56,77.21,52,70.6,59.36c-.06.06,0,.2-.1.39,1.51-.32,3-.62,4.38-.94a12.93,12.93,0,0,0,1.73-.45A31.85,31.85,0,0,1,81,56.61a74.44,74.44,0,0,1,26.89-1.45c4.21.59,8.41,1.44,12.18,3.62.37,0,.74.06,1.11.06,1.58,0,3.16-.11,4.75-.13.53,0,1.06.07,1.85.12-3-4.61-7-7.78-11.45-10.63l-.14,1a24.73,24.73,0,0,0-2.83-1.66C111,46.55,108.94,44.86,106.23,44.83Zm-31,25.08-1.59.9a17,17,0,0,0-6.07,6.47,47.85,47.85,0,0,1-3.18,4.52L64,81.54A50.22,50.22,0,0,1,73.1,66a.72.72,0,0,0-.26-.07,2.18,2.18,0,0,0-.45.16A27.48,27.48,0,0,0,61.48,75a50.44,50.44,0,0,1-4.18,4.74c0,.06-.14.16-.18.15-1.36-.54-1.54.79-2,1.4A77,77,0,0,0,46.8,96.7c-1.34,3.23-2.76,6.4-5.35,8.81s-5.33,4.56-8,6.89c-8.63,7.64-10.73,17.25-8.4,28.17.81,2.28,1.61,4.57,2.46,6.84a3.22,3.22,0,0,0,2.5,2,15.49,15.49,0,0,0,13.07-2.53,22.09,22.09,0,0,0,7.68-11Q55.54,122.24,61.22,109c2.52-5.84,4.35-12,6.47-18a1.92,1.92,0,0,0,.13-1.27c-.44-.88,0-1.54.31-2.26a31.18,31.18,0,0,0,1.63-3.71c.86-2.82,1.55-5.69,2.37-8.52A7.44,7.44,0,0,1,73,73.64c.75-1.2,1.51-2.4,2.27-3.6l.13-.14ZM116.27,191.7c5.94.54,16.89-.44,20.12-1.78a3.73,3.73,0,0,0-.28-.38A11.81,11.81,0,0,1,133,179.6,20.77,20.77,0,0,1,138,168.86c.68-.85,1.4-1.68,2.2-2.63-5.11-.33-7.81-3.79-10.51-7.55C128.15,171,125.08,182.45,116.27,191.7ZM79.8,59c-.65.45-1.52.74-1.56,1.11a58.52,58.52,0,0,0-.18,6.07c0,1,.64,1.47,1.74,1.1Zm-15,10c-2.7.63-7.23,6.34-7.36,9.42C59.81,75,61.53,71.39,64.75,69Z" transform="translate(-21.3 -9.67)"/><path class="b" d="M146.74,160.3l-1.37.63a20.32,20.32,0,0,1-2.37-1.09,32.61,32.61,0,0,1-4.43-3,35.85,35.85,0,0,1-7.92-10.4c-.14-.27-.49-.44-.74-.66l-2.67-19.26-.12-.41-.28-1A6.21,6.21,0,0,0,127,124c-.14-1.68-.33-3.36-.5-5,4.65,8.74,11.81,14.85,20.36,19.52a86.11,86.11,0,0,0,14.79,6.15c10.11,3.26,20.47,5.52,30.8,7.95,14.82,3.5,28.89,8.92,41.42,17.81a89.78,89.78,0,0,1,25.31,27c.31.51.56,1.05.85,1.58.34,1.3.73,2.59,1,3.9.64,3.07,1.66,6.14,1.71,9.22a29.75,29.75,0,0,1-1.45,9.35,41.84,41.84,0,0,1-10.88,17.89A52.93,52.93,0,0,1,236,249.46c-3,1.41-6.12,2.73-9.24,3.91a67.12,67.12,0,0,1-22.65,4.69,22.67,22.67,0,0,0-3.45.53c-3.86-1.6-7.86-2.94-11.54-4.88-4.45-2.34-8.63-5.2-12.93-7.85-.1-.05-.16-.17-.24-.26l0-.59a58.66,58.66,0,0,0,58.5,4.12,40.68,40.68,0,0,0,14.9-12.71,13.82,13.82,0,0,0,2.66-10,42.24,42.24,0,0,0-4.82-16.29,59.08,59.08,0,0,0-12.33-15.41A86.37,86.37,0,0,0,204,176.93a2.46,2.46,0,0,1-.42-.23l-.5-.19h0a18.46,18.46,0,0,0-1.86-1.89c-5.58-4.27-12-7-18.33-9.89-3.84-1.73-7.52-3.79-11.28-5.69-2.31-1.17-4.62-2.32-6.95-3.43a3.52,3.52,0,0,0-1.3,0l-.09.48a22.67,22.67,0,0,1,2.3,1,20.38,20.38,0,0,1,2,1.47c-1-.19-1.93-.43-2.9-.55a1.42,1.42,0,0,0-.94.46,19.89,19.89,0,0,1,8.4,3.39l0,0c-.51-.09-1-.17-1.52-.3-2.29-.59-4.57-1.21-6.85-1.81-.38-.09-.77-.17-1.16-.28-3.88-1.1-7.83-1.94-11.86-1.13C149.38,158.62,148.09,159.62,146.74,160.3Z" transform="translate(-21.3 -9.67)"/><path class="c" d="M97.37,161.41l-7.31,6.3c2.53-1,4.44-2.91,6.57-4.52l-.42,2.12c-.68.78-1.36,1.55-2,2.33a3.94,3.94,0,0,0-.7.39A22.67,22.67,0,0,1,86,172.2c-4.78,1.6-9.64,1.14-14.49.65a6.65,6.65,0,0,1-2.82-.77c-3.3-2.08-6.49-4.31-9.75-6.45-1-.67-2.11-1.21-3.16-1.81a70,70,0,0,1-9.43-15.33,1.2,1.2,0,0,1,.08-1c1.51-2.09,3.08-4.14,4.63-6.2a31.83,31.83,0,0,0,3.62-2.38,48.51,48.51,0,0,0,8.37-10.39,58,58,0,0,1,9.78-12c.91-.81,1.68-1.89,3.26-1.57,1.78.35,3.61.45,5.42.69a6.79,6.79,0,0,1,2.07.47,16.67,16.67,0,0,0,8.09,1.68c.86,0,1.72,0,2.91,0l-2.33,1.83.13.43a6.91,6.91,0,0,0,1.21-.07,14.43,14.43,0,0,0,1.57-.52h0l-2.88,2.06.18.38a6.23,6.23,0,0,0,1.38-.37,26.22,26.22,0,0,0,4-2.32c3.53-2.8,7.78-4.11,11.75-6,.15-.06.43.17.65.26-2,3.75-3.94,7.51-5.91,11.24-.1-1.31-.14-2.65-.34-4-.08-.48-.51-1.22-.83-1.25a1.82,1.82,0,0,0-1.44.75c-1.14,1.92-2.12,3.93-3.23,5.87s-2.3,3.78-3.45,5.67l-.42-.15c-.06-.8-.13-1.6-.19-2.4s-.23-1.9-1.17-2a2.55,2.55,0,0,0-1.84,1.15c-1.34,2.21-2.53,4.52-3.76,6.79-.76,1.4-1.5,2.8-2.27,4.2-.08.15-.27.25-.52.48l.8-6-.43-.08-.23.48h-.35L84.55,133l-.43,1a4.91,4.91,0,0,0-.89.72,25.33,25.33,0,0,0-4.29,9.9c-.31,1.34-.42,2.73-.62,4.1l.53.18A12.59,12.59,0,0,0,80.06,147a8,8,0,0,1,4.07-4.32c1.5-.74,3-1.57,4.49-2.22,3.18-1.33,6.39-2.57,9.65-3.88.1,1.88.17,3.7.3,5.51.1,1.47.34,2.92.4,4.38A40.59,40.59,0,0,1,99,153C98.68,155.84,97.94,158.61,97.37,161.41Z" transform="translate(-21.3 -9.67)"/><path class="d" d="M63.23,206.73a24.19,24.19,0,0,1,2.12-3.42,44.72,44.72,0,0,1,12-9.25C92,185.59,101.07,173,105,156.58a109.28,109.28,0,0,0,2.4-16.31,82.07,82.07,0,0,1,1.9-9.33l.2-.53h0a4.91,4.91,0,0,0,1.07-.62c.93-.87,1.77-1.85,2.74-2.68,1.49-1.28,1.82-1.22,3.26.21a2.61,2.61,0,0,1,.53.79c1,2.34,2.14,4.64,3,7a129.31,129.31,0,0,1,5.95,23.16,44.77,44.77,0,0,1,.3,5.06c0,.87,0,1.74.06,2.62l-.11.68-.13.51-.12.69-.16.5-.28,1.19-.12.4-.13.56-.13.38a44.19,44.19,0,0,1-4.33,10.92,5.58,5.58,0,0,0-.91.47c-1.38,1.19-2.7,2.47-4.13,3.6-5.56,4.4-11.68,7.94-17.79,11.52-4.17,2.44-8.53,4.72-11.71,8.5a40.94,40.94,0,0,0-3.13,5c-1,.48-2.17.75-2.85,1.5a25.38,25.38,0,0,0-2.68,4,11.09,11.09,0,0,1-.68,1.32,34.42,34.42,0,0,1,0-5.08c.33-2.18,1-4.3,1.56-6.44v0l.22-.19c-.31-.13-.74-.47-.92-.37a19,19,0,0,0-3.63,2.2c-2.91,2.56-4.5,6-6,9.47a11.91,11.91,0,0,1-.62,1.1,11.78,11.78,0,0,1,.4-7.62c1-2.57,2.13-5.11,3.23-7.76L70,204.31c-.91-1.06-1.89-.67-2.84-.09C65.84,205,64.54,205.89,63.23,206.73Z" transform="translate(-21.3 -9.67)"/><path class="e" d="M146.74,160.3c1.35-.68,2.64-1.68,4.07-2,4-.81,8,0,11.86,1.13.39.11.78.19,1.16.28-.66,1-.56,1.29.79,1.66a53,53,0,0,1,12.6,5,55.33,55.33,0,0,1,9.19,6.64c2.15,1.89,2.48,4,1.66,6.55-1.43,2.19-2.85,4.39-4.3,6.57a64.08,64.08,0,0,1-14.2,15.37,69.88,69.88,0,0,1-17.33,10.21c-2.19.85-4.66,1.24-5.8,3.72,0,.06-.13.07-.21.1l1.41-4.47c.11-.35.21-.7.32-1.05v0l.28-.26c.77-.66,1.56-1.29,2.29-2,.17-.17.13-.55.18-.84-.28,0-.63-.2-.83-.1-2.37,1.28-4.77,2.51-7.06,3.93-1.84,1.15-3.52,2.53-5.28,3.81a31.52,31.52,0,0,1,4.4-8.65,6.25,6.25,0,0,0,1.58-.76c.3-.28.33-.86.49-1.31-.44-.06-1-.31-1.3-.16-2.93,1.32-5.83,2.72-8.75,4.07a8.32,8.32,0,0,1-1,.32,19.54,19.54,0,0,1,11.71-8.66c4.72-1.3,9.36-2.88,14-4.39A18.83,18.83,0,0,0,165,191q2.81-2.42,5.52-5a6.51,6.51,0,0,0,.93-1.56,6.21,6.21,0,0,1,1.27-1.49c1.35-.84,2.81-1.49,4.18-2.29.36-.22.53-.74.78-1.13-.4-.07-.91-.34-1.2-.19-2,1.06-4,2.25-6.05,3.3a5.35,5.35,0,0,1-2.41.73,56.88,56.88,0,0,0-11.51,1c-3.66.67-7.31,1.44-11,2a4.84,4.84,0,0,1-3.11-.25,9.14,9.14,0,0,1-3.78-5.21,23.36,23.36,0,0,1-.5-9.34,52.29,52.29,0,0,1,8.76-9.79C147.56,161.21,147.77,160.75,146.74,160.3Z" transform="translate(-21.3 -9.67)"/><path class="d" d="M25.09,140.57c-2.33-10.92-.23-20.53,8.4-28.17,2.63-2.33,5.4-4.5,8-6.89s4-5.58,5.35-8.81a77,77,0,0,1,8.34-15.44c.44-.61.62-1.94,2-1.4,0,0,.13-.09.18-.15A50.44,50.44,0,0,0,61.48,75a27.48,27.48,0,0,1,10.91-8.88,2.18,2.18,0,0,1,.45-.16.72.72,0,0,1,.26.07A50.22,50.22,0,0,0,64,81.54l.39.26a47.85,47.85,0,0,0,3.18-4.52,17,17,0,0,1,6.07-6.47A9,9,0,0,1,73,72.16a33.91,33.91,0,0,0-3,4.85c-1.12,2.83-1.76,5.84-2.77,8.72-.85,2.42-2,4.76-2.91,7.15-2.75,6.91-5.35,13.89-8.26,20.73-2.27,5.35-4.91,10.55-7.41,15.8a9.54,9.54,0,0,1-1.45,2.32,62.69,62.69,0,0,1-4.46,4.47,29.43,29.43,0,0,1-11.1,6.34,2.91,2.91,0,0,1-2.47-.18A39.89,39.89,0,0,0,25.09,140.57Z" transform="translate(-21.3 -9.67)"/><path class="f" d="M141.24,97.35c-.22.09-.46.28-.65.24-5-1.06-9.63.31-14.33,1.57-1.34.36-2.68.73-4,1-3.06.71-5.93-.1-8.73-1.22a7.46,7.46,0,0,1-1.59-1.24,8.81,8.81,0,0,0,.84-.9c.42-.65.11-1.63-.58-1.58a3.85,3.85,0,0,0-2.19.89,2,2,0,0,0-.23,1.81,5.19,5.19,0,0,0,3.43,3.27c2.07.53,4.18.9,6.28,1.34a15.65,15.65,0,0,1-2.37,1c-1.41.36-2.9.45-4.3.86-2.51.75-5,1.64-7.46,2.48a12,12,0,0,1-5.53.36c-3.3-.43-6.61-.82-9.93-1-2.53-.13-5.08.19-7.62.16a14.51,14.51,0,0,1-3.51-.55c-2.91-.78-4.78-3-6.79-5,4.67.17,6.83-4.07,7.19-7.31a12.78,12.78,0,0,0-2.2-9c1.44-2,1.42-1.94,3.37-.76,1.07.64,2.24,1.1,3.37,1.64A14.61,14.61,0,0,0,89,90.86a23.94,23.94,0,0,0,8.58,2.37,31.67,31.67,0,0,0,12.93-.72,28,28,0,0,0,4.75-2.36l.27-.26h0c2.13-.25,3.36-1.68,4.26-3.41a27.3,27.3,0,0,0,3-12c.07-2.47.28-2.51,2.1-2.55.47,0,.95,0,1.42,0a13.21,13.21,0,0,1,9.88,3.62c.19.51.34,1,.57,1.55,1.35,3,2.9,6,4,9.14a15.59,15.59,0,0,1,.94,8.66C141.54,95.72,141.4,96.54,141.24,97.35Z" transform="translate(-21.3 -9.67)"/><path class="g" d="M200.69,258.59a22.67,22.67,0,0,1,3.45-.53,67.12,67.12,0,0,0,22.65-4.69c3.12-1.18,6.2-2.5,9.24-3.91a52.93,52.93,0,0,0,14.34-10.17,41.84,41.84,0,0,0,10.88-17.89,29.75,29.75,0,0,0,1.45-9.35c-.05-3.08-1.07-6.15-1.71-9.22-.27-1.31-.66-2.6-1-3.9a54.18,54.18,0,0,1,7.35,18.95,38.79,38.79,0,0,1,.15,14.41c-1.18,6.07-4.66,10.79-8.68,15.3-5.65,6.33-12.84,9.88-20.77,12.19-12.48,3.64-24.87,2.65-37.16-1.07A.76.76,0,0,1,200.69,258.59Z" transform="translate(-21.3 -9.67)"/><path class="h" d="M110.31,113.44c-.22-.09-.5-.32-.65-.26-4,1.89-8.22,3.2-11.75,6a26.22,26.22,0,0,1-4,2.32,6.23,6.23,0,0,1-1.38.37l-.18-.38,2.88-2.06.59-.29-.28-.31-.31.59a14.43,14.43,0,0,1-1.57.52,6.91,6.91,0,0,1-1.21.07l-.13-.43,2.33-1.83c-1.19,0-2.05,0-2.91,0a16.67,16.67,0,0,1-8.09-1.68,6.79,6.79,0,0,0-2.07-.47c-1.81-.24-3.64-.34-5.42-.69-1.58-.32-2.35.76-3.26,1.57a58,58,0,0,0-9.78,12,48.51,48.51,0,0,1-8.37,10.39,31.83,31.83,0,0,1-3.62,2.38c1.93-5.6,3.85-11.2,5.82-16.79.66-1.87,1.46-3.69,2.2-5.53.37-.22.75-.43,1.12-.66,1.26-.75,2.43-1.81,3.79-2.19,4-1.12,8-2,12-2.92,1.3,0,2.61,1,3.93-.14l-1.83-.13,2.61-.62h1.9l0-.3-.45-.28,2.62-1.35c3.84-.56,7.65-1.43,11.59-.55l0-.57-3.25-.54a56.21,56.21,0,0,1,7.47.37,23.82,23.82,0,0,0,8.5.15c2.61-.48,5.23-.86,7.85-1.28A19.63,19.63,0,0,0,110.31,113.44Z" transform="translate(-21.3 -9.67)"/><path class="i" d="M25.09,140.57a39.89,39.89,0,0,1,4.13,1.79,2.91,2.91,0,0,0,2.47.18,29.43,29.43,0,0,0,11.1-6.34,62.69,62.69,0,0,0,4.46-4.47,9.54,9.54,0,0,0,1.45-2.32c2.5-5.25,5.14-10.45,7.41-15.8,2.91-6.84,5.51-13.82,8.26-20.73.95-2.39,2.06-4.73,2.91-7.15,1-2.88,1.65-5.89,2.77-8.72a33.91,33.91,0,0,1,3-4.85,9,9,0,0,0,.58-1.35l1.59-.9.12.13c-.76,1.2-1.52,2.4-2.27,3.6a7.44,7.44,0,0,0-.91,1.62c-.82,2.83-1.51,5.7-2.37,8.52a31.18,31.18,0,0,1-1.63,3.71c-.33.72-.75,1.38-.31,2.26A1.92,1.92,0,0,1,67.69,91c-2.12,6-3.95,12.14-6.47,18q-5.7,13.25-10.42,26.83a22.09,22.09,0,0,1-7.68,11,15.49,15.49,0,0,1-13.07,2.53,3.22,3.22,0,0,1-2.5-2C26.7,145.14,25.9,142.85,25.09,140.57Z" transform="translate(-21.3 -9.67)"/><path class="j" d="M84.73,134.28h.35l-1,6.5a5.25,5.25,0,0,0,1.37-.24,7,7,0,0,0,3.62-3.93c.85-2,1.91-3.94,2.9-5.89a10.59,10.59,0,0,1,.85-1.22c0,1.39,0,2.41,0,3.42,0,1.36,1,1.9,2,1.07a9.85,9.85,0,0,0,2.6-2.59c1.63-2.64,3-5.41,4.56-8.13a1.57,1.57,0,0,1,.69-.72c-.15,1.32-.33,2.64-.43,4,0,.46,0,1.29.25,1.35a2,2,0,0,0,1.63-.16,10,10,0,0,0,2.11-2.7c1.68-3.38,3.15-6.86,4.84-10.23a12,12,0,0,1,3.78-4.81,5.1,5.1,0,0,1,5-.62,9.93,9.93,0,0,0-1.43.46c-.67.33-1.69.6-1.88,1.14-.72,2.06-1.17,4.22-1.73,6.34v0l-.24.35c-5.65,7.4-7.76,16.12-9.38,25-.54,2.94-1.12,5.87-1.76,8.79-.88,4-3.26,7.16-6.13,10,.57-2.8,1.31-5.57,1.65-8.4a40.59,40.59,0,0,0,0-6.52c-.06-1.46-.3-2.91-.4-4.38-.13-1.81-.2-3.63-.3-5.51-3.26,1.31-6.47,2.55-9.65,3.88-1.53.65-3,1.48-4.49,2.22A8,8,0,0,0,80.06,147a12.59,12.59,0,0,1-1.21,1.92l-.53-.18c.2-1.37.31-2.76.62-4.1a25.33,25.33,0,0,1,4.29-9.9,4.91,4.91,0,0,1,.89-.72L84,136.32l.41,0Z" transform="translate(-21.3 -9.67)"/><path class="k" d="M120.09,58.78c-3.77-2.18-8-3-12.18-3.62A74.44,74.44,0,0,0,81,56.61a31.85,31.85,0,0,0-4.41,1.75,12.93,12.93,0,0,1-1.73.45c-1.43.32-2.87.62-4.38.94,0-.19,0-.33.1-.39,6.61-7.33,14.34-12.8,24.26-14.6,3.21-.59,6.44-1.08,9.7-.42.57.12,1.11.32,1.67.49a1.39,1.39,0,0,0,.36.29,39.4,39.4,0,0,1,8.69,5.18,13.59,13.59,0,0,1,5,7.87C120.35,58.34,120.17,58.58,120.09,58.78Z" transform="translate(-21.3 -9.67)"/><path class="l" d="M76.06,113.17c-4,1-8.06,1.8-12,2.92-1.36.38-2.53,1.44-3.79,2.19-.37.23-.75.44-1.12.66,2.31-5.45,4.64-10.9,6.94-16.37.52-1.24.93-2.54,1.3-3.57l4.58,1.84c2,2,3.88,4.27,6.79,5a14.51,14.51,0,0,0,3.51.55c2.54,0,5.09-.29,7.62-.16,3.32.17,6.63.56,9.93,1a12,12,0,0,0,5.53-.36c2.48-.84,5-1.73,7.46-2.48,1.4-.41,2.89-.5,4.3-.86a15.65,15.65,0,0,0,2.37-1c3.94-.9,7.88-1.87,11.85-2.67,2.23-.46,4.52-.64,6.79-1l.16.39a12.41,12.41,0,0,1-.82,1.09c-4.32,4.66-9.38,7.58-16,7a20.38,20.38,0,0,0-4.35.5c-2.62.42-5.24.8-7.85,1.28a23.82,23.82,0,0,1-8.5-.15,56.21,56.21,0,0,0-7.47-.37c-1.51.11-3,.16-4.52.35-3,.36-6,.89-9,.08-4.73-1.28-8.7-3.46-10.47-8.4,0-.08-.18-.11-.2-.12-1.22.88-.87,2-.53,3.07a2.55,2.55,0,0,1,.17.81,6.06,6.06,0,0,0,2.08,5A63.53,63.53,0,0,0,76.06,113.17Z" transform="translate(-21.3 -9.67)"/><path class="j" d="M231.89,198.31c-2.93-1.62-5.79-3.36-8.79-4.84a84,84,0,0,0-25.46-7.59c-3-.43-6-.65-9.09-1,1.16-3.43,3-6.82,1.31-11,3.56.88,6.9,1.64,10.19,2.54a87,87,0,0,1,17.84,7.2c.28.14.54.32.81.49l.27.22v0a3.17,3.17,0,0,0,.47.75c1.19,1.11,2.46,2.14,3.61,3.3q3.51,3.51,6.89,7.14A25.78,25.78,0,0,1,231.89,198.31Z" transform="translate(-21.3 -9.67)"/><path class="j" d="M55.82,163.82c1,.6,2.15,1.14,3.16,1.81,3.26,2.14,6.45,4.37,9.75,6.45a6.65,6.65,0,0,0,2.82.77c4.85.49,9.71,1,14.49-.65A22.67,22.67,0,0,0,93.48,168a3.94,3.94,0,0,1,.7-.39,19.1,19.1,0,0,0,2.18-1.56c1.42-1.35,2.75-2.8,4.12-4.21h0a6.15,6.15,0,0,1-.17,1.14,52.12,52.12,0,0,1-14.85,22.37,1.4,1.4,0,0,1-1.21.25A71.24,71.24,0,0,1,56,164.15,1.2,1.2,0,0,1,55.82,163.82Z" transform="translate(-21.3 -9.67)"/><path class="m" d="M116.27,191.7c8.81-9.25,11.88-20.68,13.37-33,2.7,3.76,5.4,7.22,10.51,7.55-.8,1-1.52,1.78-2.2,2.63A20.77,20.77,0,0,0,133,179.6a11.81,11.81,0,0,0,3.08,9.94,3.73,3.73,0,0,1,.28.38C133.16,191.26,122.21,192.24,116.27,191.7Z" transform="translate(-21.3 -9.67)"/><path class="i" d="M126.43,166c0-.88,0-1.75-.06-2.62a44.77,44.77,0,0,0-.3-5.06,129.31,129.31,0,0,0-5.95-23.16c-.85-2.39-2-4.69-3-7a2.61,2.61,0,0,0-.53-.79c-1.44-1.43-1.77-1.49-3.26-.21-1,.83-1.81,1.81-2.74,2.68a4.91,4.91,0,0,1-1.07.62,32.69,32.69,0,0,1,5.59-11.15,3.61,3.61,0,0,1,.33-.35c2.41-2.5,3.78-2.43,5.87.31a27.22,27.22,0,0,1,5,13c.56,4,1.18,8.06,1.46,12.11a79.9,79.9,0,0,1,0,10.38c-.22,3.58-.76,7.13-1.17,10.69A3,3,0,0,1,126.43,166Z" transform="translate(-21.3 -9.67)"/><path class="i" d="M138.09,171.64a23.36,23.36,0,0,0,.5,9.34,9.14,9.14,0,0,0,3.78,5.21,4.84,4.84,0,0,0,3.11.25c3.68-.6,7.33-1.37,11-2a56.88,56.88,0,0,1,11.51-1,5.35,5.35,0,0,0,2.41-.73c2-1.05,4-2.24,6.05-3.3.29-.15.8.12,1.2.19-.25.39-.42.91-.78,1.13-1.37.8-2.83,1.45-4.18,2.29a6.21,6.21,0,0,0-1.27,1.49c-.53-.65-1-.52-1.62,0-1.93,1.72-3.87,3.45-5.87,5.09a3.89,3.89,0,0,1-2,.81c-3.92.41-7.85.78-11.79,1.07a28,28,0,0,1-5.49,0,11.18,11.18,0,0,1-9.06-14.22A46.75,46.75,0,0,1,138.09,171.64Z" transform="translate(-21.3 -9.67)"/><path class="n" d="M119.92,65.48a19.6,19.6,0,0,0-.22,2A48.89,48.89,0,0,1,116.07,85a16.62,16.62,0,0,1-2.18,3.2,10.43,10.43,0,0,0-1.36.35,28,28,0,0,1-9.25,2.08,30.42,30.42,0,0,1-9.4-1.3c-3.63-1-6.95-2.38-8.55-6.17-.09-.21-.41-.33-.62-.49q-1.32-6.81-2.66-13.63c-.06-.34-.18-.66-.27-1,0-1-.12-1.88-1.4-1.92.06-2.12.17-4.24.15-6.36,0-1,.52-1.1,1.25-1.1,0,1.38-.07,2.77,0,4.15,0,.72-.18,1.88.86,2s.9-1.07,1-1.74c.54-2.64,1.7-3.06,3.85-3.33,2.71-.34,5.47-.41,8.21-.56,1-.06,2.08.05,3.11,0a49.33,49.33,0,0,1,11.77.53c1.41.22,2.79.63,4.2.88a3.52,3.52,0,0,0,1.21-.28l-.28-1,3.61,1.49C119.57,62.33,119.75,63.91,119.92,65.48Zm-3,11.25q.39-2.85.79-5.72c.26-1.81.59-3.62.77-5.44a2.93,2.93,0,0,0-1.77-3,28.35,28.35,0,0,0-3.13-1.11,32.72,32.72,0,0,0-11.25-1.67,89.51,89.51,0,0,0-10.29,1,8.68,8.68,0,0,0-2.09.81c-.69.2-1.39.38-2.06.61a3.46,3.46,0,0,0-2.57,3.48A78.5,78.5,0,0,0,87,82.05a7.48,7.48,0,0,0,4.21,5.29c2.83,1.46,5.94,1.7,9,2.09s6.26-.3,9.34-.94a5.65,5.65,0,0,0,4.75-2.31c1.76-2.11,2.21-4.72,2.68-7.3A9.23,9.23,0,0,0,116.88,76.73Z" transform="translate(-21.3 -9.67)"/><path class="o" d="M146.23,215.58c.08,0,.19,0,.21-.1,1.14-2.48,3.61-2.87,5.8-3.72a69.88,69.88,0,0,0,17.33-10.21,64.08,64.08,0,0,0,14.2-15.37c1.45-2.18,2.87-4.38,4.3-6.57a24.7,24.7,0,0,1-3.14,8.21c-4,7.1-9.74,12.66-16,17.82-4.2,3.49-9,5.81-13.85,8.18a4.47,4.47,0,0,1-2.07.52,3.28,3.28,0,0,0-2.68,1.28,12,12,0,0,0-3.41,7.13C145.81,220.44,145.9,218,146.23,215.58Z" transform="translate(-21.3 -9.67)"/><path class="g" d="M129.91,145.81c.25.22.6.39.74.66a35.85,35.85,0,0,0,7.92,10.4,32.61,32.61,0,0,0,4.43,3,20.32,20.32,0,0,0,2.37,1.09c-1.29,1.31-2.6,2.59-3.86,3.92a2.7,2.7,0,0,1-2.79.51c-3.25-.66-5.35-2.91-7.33-5.36a6.63,6.63,0,0,1-1.61-5C130,152,129.89,148.88,129.91,145.81Z" transform="translate(-21.3 -9.67)"/><path class="o" d="M83.25,210.87a40.94,40.94,0,0,1,3.13-5c3.18-3.78,7.54-6.06,11.71-8.5,6.11-3.58,12.23-7.12,17.79-11.52,1.43-1.13,2.75-2.41,4.13-3.6a5.58,5.58,0,0,1,.91-.47c-1.87,4-4.33,7.54-8.06,9.88-5.56,3.5-11.36,6.63-17,10.07-3.38,2.08-6.6,4.44-9.86,6.73A35.17,35.17,0,0,0,83.25,210.87Z" transform="translate(-21.3 -9.67)"/><path class="g" d="M167.61,158.57a20.38,20.38,0,0,0-2-1.47,22.67,22.67,0,0,0-2.3-1l.09-.48a3.52,3.52,0,0,1,1.3,0c2.33,1.11,4.64,2.26,6.95,3.43,3.76,1.9,7.44,4,11.28,5.69,6.35,2.86,12.75,5.62,18.33,9.89a18.46,18.46,0,0,1,1.86,1.89c-2.93-.75-5.86-1.53-8.8-2.25-1.11-.28-2.24-.46-3.37-.64a4.43,4.43,0,0,1-2.62-1.36c-3.72-3.88-8.28-6.55-13.05-8.91a12.19,12.19,0,0,1-1.65-1.35,25.73,25.73,0,0,0-2.79-2A33.05,33.05,0,0,0,167.61,158.57Z" transform="translate(-21.3 -9.67)"/><path class="l" d="M83.67,85.38c-1.13-.54-2.3-1-3.37-1.64-2-1.18-1.93-1.22-3.37.76l-4-3.23c.33-1.73.72-3.83,1.13-5.92a1.4,1.4,0,0,1,.37-.61,11.26,11.26,0,0,0,3-5.69l2.72.28c.7,3.83,1.33,7.63,2.1,11.41C82.59,82.31,83.2,83.83,83.67,85.38Z" transform="translate(-21.3 -9.67)"/><path class="p" d="M231.89,198.31a25.78,25.78,0,0,0-2-2.75q-3.37-3.63-6.89-7.14c-1.15-1.16-2.42-2.19-3.61-3.3a3.17,3.17,0,0,1-.47-.75c3.18,2,6.48,3.86,9.52,6.07a60,60,0,0,1,17,18.23c1.25,2.15,2.19,4.48,3.26,6.73a7.94,7.94,0,0,1,.29,1.11,7.75,7.75,0,0,1-.58-.69,52.81,52.81,0,0,0-15.8-16.92C232.37,198.72,232.14,198.51,231.89,198.31Z" transform="translate(-21.3 -9.67)"/><path class="q" d="M124.9,71.94c-1.82,0-2,.08-2.1,2.55a27.3,27.3,0,0,1-3,12c-.9,1.73-2.13,3.16-4.26,3.41,3.92-5.22,4.76-11.45,5.77-17.62a33.06,33.06,0,0,0,.32-4.88,2.72,2.72,0,0,1,1.87-2.72c2-.9,5.53.15,5.76,3,.08,1,.31,1.88.5,3h-3.63v.4h3.42v.3c-1.13,0-2.27,0-3.4,0A4.8,4.8,0,0,0,124.9,71.94Z" transform="translate(-21.3 -9.67)"/><path class="r" d="M115.78,59.27l.28,1a3.52,3.52,0,0,1-1.21.28c-1.41-.25-2.79-.66-4.2-.88a49.33,49.33,0,0,0-11.77-.53c-1,.09-2.08,0-3.11,0-2.74.15-5.5.22-8.21.56-2.15.27-3.31.69-3.85,3.33-.14.67,0,1.82-1,1.74s-.81-1.24-.86-2c-.1-1.38,0-2.77,0-4.15,3.65-.6,7.27-1.37,10.94-1.76A55.53,55.53,0,0,1,114,58.64C114.62,58.81,115.19,59.06,115.78,59.27Z" transform="translate(-21.3 -9.67)"/><path class="q" d="M114.87,117.29c.56-2.12,1-4.28,1.73-6.34.19-.54,1.21-.81,1.88-1.14a9.93,9.93,0,0,1,1.43-.46h3.69a25.82,25.82,0,0,0,2.86,9.59c.17,1.68.36,3.36.5,5a6.21,6.21,0,0,1-.12,1.21c-1.38-2.54-2.68-5.12-4.17-7.58a6.37,6.37,0,0,0-2.33-2.16,3.2,3.2,0,0,0-3.88.42Z" transform="translate(-21.3 -9.67)"/><path class="s" d="M137.85,61.93c-1.34.39-2.68.75-4,1.17a1.69,1.69,0,0,0-1.28,1.9c.12,1.82.17,3.65.25,5.48l-1.2-6-.45-.61,0,0,.2-.59c-.15-1-.3-1.92-.46-2.88l1.19-.38c.2,1.19.56,1.4,1.82.91,4.62-1.8,9.38-1.72,14.19-1.11,1.77.23,3.55.41,5.33.55.3,0,.63-.28.95-.43-.26-.25-.48-.59-.79-.72a5,5,0,0,0-1.4-.27c-1.57-.15-3.15-.27-4.72-.41,2.46.15,4.92.33,7.38.45.83,0,.87.61.88,1.15,0,1.67,0,3.34,0,5l-3.39.86c-.12-.51-.24-1-.33-1.43-.37-1.89-1.46-3.23-3.31-3.36a72.37,72.37,0,0,0-7.51,0,12.38,12.38,0,0,0-2.17.51l-.7,0Z" transform="translate(-21.3 -9.67)"/><path class="t" d="M50.35,78.66c-.84-1-.59-1.8.29-2.85,2.18-2.6,4.11-5.4,6.13-8.12l1.48-2a20.75,20.75,0,0,0,3.07-.34c3.15-.79,6.28-1.7,9.43-2.53,2.21-.59,4.44-1.12,6.67-1.68v5.35H75.3l.27-.6c.58-1.12,0-2.18-1.33-2a25.41,25.41,0,0,0-3.5.94c-.36-1.15-1.13-.76-2-.25-1.21.69-2.48,1.27-3.72,1.9-.09-.07-.19-.22-.27-.21-1.88.27-3.75.55-5.62.87-.2,0-.4.26-.53.45C56.76,70.26,55,73,53.12,75.67A30,30,0,0,1,50.35,78.66Z" transform="translate(-21.3 -9.67)"/><path class="q" d="M120.09,58.78c.08-.2.26-.44.21-.61a13.59,13.59,0,0,0-5-7.87,39.4,39.4,0,0,0-8.69-5.18,1.39,1.39,0,0,1-.36-.29c2.71,0,4.8,1.72,7.15,2.72a24.73,24.73,0,0,1,2.83,1.66l.14-1c4.43,2.85,8.41,6,11.45,10.63-.79,0-1.32-.13-1.85-.12-1.59,0-3.17.09-4.75.13C120.83,58.84,120.46,58.8,120.09,58.78Z" transform="translate(-21.3 -9.67)"/><path class="u" d="M139.06,61.81a12.38,12.38,0,0,1,2.17-.51,72.37,72.37,0,0,1,7.51,0c1.85.13,2.94,1.47,3.31,3.36.09.46.21.92.33,1.43l3.39-.86c.14.89,0,1.47-1.14,1.41s-1.55.4-1.66,1.54c-.42,4.28-.81,8.56-1.45,12.81a6.84,6.84,0,0,1-5.82,6,2.64,2.64,0,0,1-.45-.06l-.3-1.08c3.3-.8,5.05-2.85,5.65-6.33a70.23,70.23,0,0,0,.74-13.82c-.07-2.23-.45-2.82-2.65-3.08C145.5,62.2,142.28,62.06,139.06,61.81Z" transform="translate(-21.3 -9.67)"/><path class="v" d="M141.24,97.35c.16-.81.3-1.63.48-2.44a15.59,15.59,0,0,0-.94-8.66c-1.11-3.13-2.66-6.1-4-9.14-.23-.51-.38-1-.57-1.55a20.25,20.25,0,0,1,7.13,12.76,52.42,52.42,0,0,1,.47,5.6C143.88,96,143.34,96.66,141.24,97.35Z" transform="translate(-21.3 -9.67)"/><path class="o" d="M137.53,214.63c1.76-1.28,3.44-2.66,5.28-3.81,2.29-1.42,4.69-2.65,7.06-3.93.2-.1.55.06.83.1,0,.29,0,.67-.18.84-.73.7-1.52,1.33-2.29,2l-.28.26v0c-2.17,1.32-4.32,2.67-6.51,4a9.44,9.44,0,0,0-4.26,4.6A6.09,6.09,0,0,1,137.53,214.63Z" transform="translate(-21.3 -9.67)"/><path class="o" d="M67.66,218.45a11.91,11.91,0,0,0,.62-1.1c1.53-3.47,3.12-6.91,6-9.47a19,19,0,0,1,3.63-2.2c.18-.1.61.24.92.37l-.22.19v0c-.77.85-1.55,1.69-2.29,2.56s-1.49,1.93-2.32,2.8a23.89,23.89,0,0,0-5.65,8.65Z" transform="translate(-21.3 -9.67)"/><path class="o" d="M133,208.14a8.32,8.32,0,0,0,1-.32c2.92-1.35,5.82-2.75,8.75-4.07.34-.15.86.1,1.3.16-.16.45-.19,1-.49,1.31a6.25,6.25,0,0,1-1.58.76l.09-.41c.06-.1.12-.2.17-.3l.14-.14h-.11v.17l-.37.08a32.78,32.78,0,0,1-7.69,5.16,14.13,14.13,0,0,0-2.73,2.32A8.28,8.28,0,0,1,133,208.14Z" transform="translate(-21.3 -9.67)"/><path class="w" d="M84.71,82.71c.21.16.53.28.62.49,1.6,3.79,4.92,5.2,8.55,6.17a30.42,30.42,0,0,0,9.4,1.3,28,28,0,0,0,9.25-2.08,10.43,10.43,0,0,1,1.36-.35c-1.16.72-2.23,1.79-3.49,2.1A33.29,33.29,0,0,1,92,89.88,10.48,10.48,0,0,1,84.71,82.71Z" transform="translate(-21.3 -9.67)"/><path class="x" d="M147.5,58.58c1.57.14,3.15.26,4.72.41a5,5,0,0,1,1.4.27c.31.13.53.47.79.72-.32.15-.65.45-.95.43-1.78-.14-3.56-.32-5.33-.55-4.81-.61-9.57-.69-14.19,1.11-1.26.49-1.62.28-1.82-.91A44.86,44.86,0,0,1,147.5,58.58Z" transform="translate(-21.3 -9.67)"/><path class="y" d="M77.42,61.13c-2.23.56-4.46,1.09-6.67,1.68-3.15.83-6.28,1.74-9.43,2.53a20.75,20.75,0,0,1-3.07.34,6.26,6.26,0,0,1,1.69-1.15C65,63.2,70.11,61.94,75.2,60.67c.73-.18,1.46-.34,2.33-.53Z" transform="translate(-21.3 -9.67)"/><path class="w" d="M50.35,78.66a30,30,0,0,0,2.77-3C55,73,56.76,70.26,58.58,67.56c.13-.19.33-.42.53-.45,1.87-.32,3.74-.6,5.62-.87.08,0,.18.14.27.21a12.47,12.47,0,0,1-2.91,1.1,4.8,4.8,0,0,0-4.21,2.57c-1.85,3.29-4,6.4-6.19,9.81Z" transform="translate(-21.3 -9.67)"/><path class="o" d="M63.23,206.73c1.31-.84,2.61-1.7,3.93-2.51,1-.58,1.93-1,2.84.09a20.31,20.31,0,0,1-2.73,2.19,9.53,9.53,0,0,0-4.42,4.14l-.39-.17C62.72,209.22,63,208,63.23,206.73Z" transform="translate(-21.3 -9.67)"/><path class="z" d="M79.8,59v8.28c-1.1.37-1.73-.07-1.74-1.1a58.52,58.52,0,0,1,.18-6.07C78.28,59.73,79.15,59.44,79.8,59Z" transform="translate(-21.3 -9.67)"/><path class="u" d="M131.19,63.91l0,0,.45.61,1.2,6,.06.57-.35.19a6.23,6.23,0,0,1-.85-1.47c-.26-1-.32-2-.53-2.92a4.77,4.77,0,0,0-4.21-4.1c-.31,0-.62-.12-.93-.18,0,0,0-.07-.1-.18A6.66,6.66,0,0,1,131.19,63.91Z" transform="translate(-21.3 -9.67)"/><path class="m" d="M96.21,165.31l.42-2.12,5.55-6.29C101.58,160.6,98.72,162.83,96.21,165.31Z" transform="translate(-21.3 -9.67)"/><path class="aa" d="M64.75,69c-3.22,2.41-4.94,6-7.36,9.42C57.52,75.32,62.05,69.61,64.75,69Z" transform="translate(-21.3 -9.67)"/><path class="w" d="M119.92,65.48c-.17-1.57-.35-3.15-.53-4.72l1.24.66c.16.87.32,1.75.49,2.62Z" transform="translate(-21.3 -9.67)"/><path class="aa" d="M176,245l0,.59q-3.51-2.67-7-5.36c-.19-.14-.25-.45-.38-.68h0c.52.34,1.07.63,1.57,1C172.12,242,174.07,243.53,176,245Z" transform="translate(-21.3 -9.67)"/><path class="w" d="M130.93,60.44c.16,1,.31,1.92.46,2.88l-2.86-1.47c-.09-.37-.17-.75-.25-1.12Z" transform="translate(-21.3 -9.67)"/><path class="n" d="M121.12,64c-.17-.87-.33-1.75-.49-2.62l1.38-.36c.18,1,.69,1.5,1.75,1.29Z" transform="translate(-21.3 -9.67)"/><path class="x" d="M123.76,62.35c-1.06.21-1.57-.32-1.75-1.29l3.18-.4c-.08.41-.17.81-.25,1.22h0l-.53.19Z" transform="translate(-21.3 -9.67)"/><path class="t" d="M124.94,61.88c.08-.41.17-.81.25-1.22l3.09.07.25,1.12Z" transform="translate(-21.3 -9.67)"/><path class="w" d="M80.38,66.17c1.28,0,1.43.91,1.4,1.92A1.47,1.47,0,0,1,80.38,66.17Z" transform="translate(-21.3 -9.67)"/><path class="u" d="M137.85,61.93l.51-.08Z" transform="translate(-21.3 -9.67)"/><path class="i" d="M126.19,167.16l.13-.51Z" transform="translate(-21.3 -9.67)"/><path class="i" d="M125.91,168.35l.16-.5Z" transform="translate(-21.3 -9.67)"/><path class="t" d="M124.41,62.07l.53-.19Z" transform="translate(-21.3 -9.67)"/><path class="g" d="M203.09,176.51l.5.19Z" transform="translate(-21.3 -9.67)"/><path class="i" d="M109.54,130.41l-.2.53Z" transform="translate(-21.3 -9.67)"/><path class="ab" d="M65.57,210.06l.33-.15-.1.49Z" transform="translate(-21.3 -9.67)"/><path class="i" d="M125.51,169.94l.12-.4Z" transform="translate(-21.3 -9.67)"/><path class="i" d="M125.25,170.88l.13-.38Z" transform="translate(-21.3 -9.67)"/><path class="j" d="M100.48,161.87l.14-.15,0,.11-.18,0Z" transform="translate(-21.3 -9.67)"/><path class="q" d="M127.12,126.14l.12.41Z" transform="translate(-21.3 -9.67)"/><path class="b" d="M172.17,161.87l.16.13-.15,0,0-.18Z" transform="translate(-21.3 -9.67)"/><path class="p" d="M219,184.4l-.27-.22Z" transform="translate(-21.3 -9.67)"/><path class="q" d="M114.64,117.61l.24-.35Z" transform="translate(-21.3 -9.67)"/><path class="i" d="M75.19,69.91h.25l-.13.14Z" transform="translate(-21.3 -9.67)"/><path class="q" d="M115.56,89.89l-.27.26Z" transform="translate(-21.3 -9.67)"/><path class="ab" d="M136.58,211.33h.3l-.13.25Z" transform="translate(-21.3 -9.67)"/><path class="ab" d="M144.72,214.47l.3,0-.06.31Z" transform="translate(-21.3 -9.67)"/><path class="aa" d="M168.59,239.56l-.13-.09h.07l.05.09Z" transform="translate(-21.3 -9.67)"/><path class="ac" d="M84.73,134.28l-.31,2.08-.41,0,.11-2.28.43-1Z" transform="translate(-21.3 -9.67)"/><path class="a" d="M78.64,206.24l.22-.19Z" transform="translate(-21.3 -9.67)"/><path class="a" d="M148,210.08l.28-.26Z" transform="translate(-21.3 -9.67)"/><path class="ac" d="M76.06,113.17a63.53,63.53,0,0,1-5.29-3.72,6.06,6.06,0,0,1-2.08-5,2.55,2.55,0,0,0-.17-.81c-.34-1.1-.69-2.19.53-3.07,0,0,.17,0,.2.12,1.77,4.94,5.74,7.12,10.47,8.4,3,.81,6,.28,9-.08,1.5-.19,3-.24,4.52-.35l3.25.54,0,.57c-3.94-.88-7.75,0-11.59.55A20.49,20.49,0,0,1,76.59,109a15.78,15.78,0,0,1-7.53-6.39,6.23,6.23,0,0,0,.09.86,10.09,10.09,0,0,0,6.8,6.76,59.76,59.76,0,0,0,6.29,1.43l.45.28,0,.3h-1.9c-.42-.1-.84-.22-1.27-.29a16,16,0,0,1-8.84-4.26l-.32-.36c-.11-.14-.22-.27-.32-.41l-.11-.18,0,.15H70l.14.58.29.43a11.45,11.45,0,0,0,7.7,5L80,113C78.67,114.19,77.36,113.21,76.06,113.17Z" transform="translate(-21.3 -9.67)"/><path class="v" d="M82.24,111.7A59.76,59.76,0,0,1,76,110.27a10.09,10.09,0,0,1-6.8-6.76,6.23,6.23,0,0,1-.09-.86A15.78,15.78,0,0,0,76.59,109a20.49,20.49,0,0,0,8.27,1.31Z" transform="translate(-21.3 -9.67)"/><path class="q" d="M70.66,107.73A16,16,0,0,0,79.5,112c.43.07.85.19,1.27.29l-2.61.62a11.45,11.45,0,0,1-7.7-5Z" transform="translate(-21.3 -9.67)"/><path class="c" d="M95.2,119.42l.31-.59.28.31-.59.29Z" transform="translate(-21.3 -9.67)"/><path class="ad" d="M117.67,71q-.4,2.86-.79,5.72c-.6,2-1.16,4-1.79,5.92-.89,2.83-2.51,5-5.52,5.84-3.08.64-6.16,1.34-9.34.94s-6.18-.63-9-2.09A7.48,7.48,0,0,1,87,82.05a78.5,78.5,0,0,1-1.73-16.38,3.46,3.46,0,0,1,2.57-3.48c.67-.23,1.37-.41,2.06-.61,1.7-.17,3.4-.37,5.1-.51a54.89,54.89,0,0,1,19.74,2,3.18,3.18,0,0,1,2.57,3C117.45,67.76,117.55,69.39,117.67,71Z" transform="translate(-21.3 -9.67)"/><path class="w" d="M117.67,71c-.12-1.62-.22-3.25-.35-4.87a3.18,3.18,0,0,0-2.57-3,54.89,54.89,0,0,0-19.74-2c-1.7.14-3.4.34-5.1.51A8.68,8.68,0,0,1,92,60.77a89.51,89.51,0,0,1,10.29-1,32.72,32.72,0,0,1,11.25,1.67,28.35,28.35,0,0,1,3.13,1.11,2.93,2.93,0,0,1,1.77,3C118.26,67.39,117.93,69.2,117.67,71Z" transform="translate(-21.3 -9.67)"/><path class="y" d="M109.57,88.49c3-.85,4.63-3,5.52-5.84.63-2,1.19-3.94,1.79-5.92a9.23,9.23,0,0,1,.12,2.15c-.47,2.58-.92,5.19-2.68,7.3A5.65,5.65,0,0,1,109.57,88.49Z" transform="translate(-21.3 -9.67)"/><path class="a" d="M131.62,64.5l-.45-.61Z" transform="translate(-21.3 -9.67)"/><path class="a" d="M142.21,205.29v-.17h.11l-.14.14Z" transform="translate(-21.3 -9.67)"/><path class="a" d="M141.84,205.37l.37-.08,0,0c-.05.1-.11.2-.17.3Z" transform="translate(-21.3 -9.67)"/><path class="q" d="M70.46,108l-.29-.43.17-.15.32.36Z" transform="translate(-21.3 -9.67)"/><path class="q" d="M70.17,107.52l-.14-.58v0c.1.14.21.27.32.41Z" transform="translate(-21.3 -9.67)"/><path class="q" d="M70,106.94h-.17l0-.15L70,107Z" transform="translate(-21.3 -9.67)"/></svg>