<svg width="231" height="44" viewBox="0 0 231 44" fill="none" xmlns="http://www.w3.org/2000/svg">
<path d="M0 0.000413895H5.48101L11.5551 9.77236L17.6302 0.000413895H23.1102V23.1106H18.0917V8.0226L11.5875 17.8937H11.4559L5.01755 8.12177V23.1106H0V0.000413895Z" fill="#225AA5"/>
<path d="M43.3813 13.6024L40.3108 6.10845L37.2404 13.6024H43.3813ZM38.0328 3.8147e-06H42.7214L52.6259 23.2751H47.3099L45.1968 18.0926H35.4249L33.3118 23.2751H28.1283L38.0328 3.8147e-06Z" fill="#225AA5"/>
<path d="M57.6079 0.000413895H62.6922V18.5212H74.2139V23.1106H57.6079V0.000413895Z" fill="#225AA5"/>
<path d="M94.3092 8.22091L99.5251 23.3413H103.95L111.84 0.0671482H106.524L101.737 15.8837L96.5539 0.000377655H92.1962L91.8171 1.15019" fill="#225AA5"/>
<path d="M128.498 13.6024L125.428 6.10845L122.357 13.6024H128.498ZM123.15 3.8147e-06H127.837L137.742 23.2751H132.426L130.314 18.0926H120.542L118.429 23.2751H113.245L123.15 3.8147e-06Z" fill="#225AA5"/>
<path d="M146.832 4.68853H139.799V0.000905991H158.947V4.68853H151.916V23.1101H146.832V4.68853Z" fill="#225AA5"/>
<path d="M166.234 0.000413895H171.319V19.2792L166.234 23.1106V0.000413895Z" fill="#225AA5"/>
<path d="M210.44 0.000413895H215.128L225.957 14.2292V0.000413895H230.975V23.1106H226.65L215.459 8.41929V23.1106H210.44V0.000413895Z" fill="#225AA5"/>
<path d="M184.421 0.000308037H179.336V5.08463V10.1689H184.421V5.08463H189.505V0.000308037H184.421Z" fill="#225AA5"/>
<path d="M197.338 23.1104H202.422V18.026V12.9417H197.338V18.026H192.253V23.1104H197.338Z" fill="#37ABE2"/>
<path d="M179.324 18.0138V23.0981H184.409H189.493V18.0138H184.409V12.9295H179.324V18.0138Z" fill="#5FC2D5"/>
<path d="M202.434 5.09708V0.0127592H197.35H192.266V5.09708H197.35V10.1814H202.434V5.09708Z" fill="#5FC2D5"/>
<path d="M184.421 5.08496H189.505V0.0006423H184.421H179.336L184.421 5.08496Z" fill="#21ACBC"/>
<path d="M202.422 23.1104V18.026V12.9417H197.337V18.026" fill="#225AA5"/>
<path d="M179.324 23.0979H184.409H189.493V18.0136H184.409" fill="#21ACBC"/>
<path d="M202.434 0.0128493H197.35H192.265V5.09717H197.35" fill="#21ACBC"/>
<path d="M1.11137 31.8222H2.43785L5.55687 39.4405H5.66442L8.78344 31.8222H10.1099V41H9.07024V34.027H8.98061L6.11255 41H5.10873L2.24067 34.027H2.15105V41H1.11137V31.8222ZM14.2204 41.1613C13.7842 41.1613 13.3884 41.0792 13.0329 40.9149C12.6773 40.7476 12.395 40.5071 12.1859 40.1934C11.9768 39.8767 11.8722 39.4943 11.8722 39.0461C11.8722 38.6518 11.9499 38.3321 12.1052 38.0871C12.2606 37.8392 12.4682 37.645 12.7281 37.5046C12.9881 37.3641 13.2749 37.2596 13.5886 37.1909C13.9052 37.1192 14.2234 37.0624 14.5431 37.0206C14.9613 36.9668 15.3004 36.9265 15.5603 36.8996C15.8233 36.8697 16.0145 36.8204 16.134 36.7517C16.2564 36.683 16.3177 36.5635 16.3177 36.3932V36.3573C16.3177 35.9152 16.1967 35.5716 15.9547 35.3266C15.7157 35.0816 15.3527 34.9591 14.8657 34.9591C14.3608 34.9591 13.965 35.0697 13.6782 35.2908C13.3914 35.5118 13.1897 35.7479 13.0732 35.9988L12.0694 35.6403C12.2486 35.2221 12.4876 34.8964 12.7864 34.6634C13.0881 34.4274 13.4168 34.263 13.7723 34.1704C14.1308 34.0748 14.4833 34.027 14.8299 34.027C15.051 34.027 15.3049 34.0539 15.5917 34.1077C15.8815 34.1585 16.1608 34.2645 16.4297 34.4259C16.7016 34.5872 16.9272 34.8307 17.1064 35.1563C17.2857 35.482 17.3753 35.9182 17.3753 36.4649V41H16.3177V40.0679H16.2639C16.1922 40.2173 16.0727 40.3771 15.9054 40.5474C15.7381 40.7177 15.5155 40.8626 15.2377 40.9821C14.9598 41.1016 14.6208 41.1613 14.2204 41.1613ZM14.3818 40.2113C14.8 40.2113 15.1525 40.1291 15.4394 39.9648C15.7291 39.8005 15.9472 39.5884 16.0936 39.3285C16.243 39.0685 16.3177 38.7952 16.3177 38.5084V37.5404C16.2729 37.5942 16.1743 37.6435 16.0219 37.6883C15.8725 37.7301 15.6993 37.7675 15.5021 37.8003C15.3079 37.8302 15.1182 37.8571 14.933 37.881C14.7507 37.9019 14.6028 37.9198 14.4893 37.9348C14.2145 37.9706 13.9575 38.0289 13.7185 38.1095C13.4825 38.1872 13.2913 38.3052 13.1449 38.4636C13.0015 38.6189 12.9298 38.831 12.9298 39.0999C12.9298 39.4674 13.0657 39.7452 13.3376 39.9334C13.6125 40.1187 13.9605 40.2113 14.3818 40.2113ZM20.3632 31.8222V41H19.3056V31.8222H20.3632ZM23.8598 41L21.7625 34.1167H22.8739L24.3617 39.3867H24.4334L25.9033 34.1167H27.0326L28.4845 39.3688H28.5562L30.0441 34.1167H31.1554L29.0582 41H28.0185L26.5128 35.712H26.4052L24.8995 41H23.8598ZM34.5792 41.1613C34.143 41.1613 33.7471 41.0792 33.3916 40.9149C33.0361 40.7476 32.7538 40.5071 32.5446 40.1934C32.3355 39.8767 32.2309 39.4943 32.2309 39.0461C32.2309 38.6518 32.3086 38.3321 32.464 38.0871C32.6193 37.8392 32.827 37.645 33.0869 37.5046C33.3468 37.3641 33.6336 37.2596 33.9473 37.1909C34.264 37.1192 34.5822 37.0624 34.9018 37.0206C35.3201 36.9668 35.6592 36.9265 35.9191 36.8996C36.182 36.8697 36.3732 36.8204 36.4927 36.7517C36.6152 36.683 36.6764 36.5635 36.6764 36.3932V36.3573C36.6764 35.9152 36.5554 35.5716 36.3135 35.3266C36.0744 35.0816 35.7115 34.9591 35.2245 34.9591C34.7196 34.9591 34.3237 35.0697 34.0369 35.2908C33.7501 35.5118 33.5485 35.7479 33.432 35.9988L32.4281 35.6403C32.6074 35.2221 32.8464 34.8964 33.1451 34.6634C33.4469 34.4274 33.7755 34.263 34.131 34.1704C34.4895 34.0748 34.8421 34.027 35.1886 34.027C35.4097 34.027 35.6637 34.0539 35.9505 34.1077C36.2403 34.1585 36.5196 34.2645 36.7885 34.4259C37.0603 34.5872 37.2859 34.8307 37.4652 35.1563C37.6444 35.482 37.734 35.9182 37.734 36.4649V41H36.6764V40.0679H36.6227C36.551 40.2173 36.4315 40.3771 36.2642 40.5474C36.0969 40.7177 35.8743 40.8626 35.5964 40.9821C35.3186 41.1016 34.9795 41.1613 34.5792 41.1613ZM34.7405 40.2113C35.1588 40.2113 35.5113 40.1291 35.7981 39.9648C36.0879 39.8005 36.306 39.5884 36.4524 39.3285C36.6018 39.0685 36.6764 38.7952 36.6764 38.5084V37.5404C36.6316 37.5942 36.533 37.6435 36.3807 37.6883C36.2313 37.7301 36.058 37.7675 35.8608 37.8003C35.6666 37.8302 35.4769 37.8571 35.2917 37.881C35.1095 37.9019 34.9616 37.9198 34.8481 37.9348C34.5732 37.9706 34.3163 38.0289 34.0773 38.1095C33.8412 38.1872 33.65 38.3052 33.5037 38.4636C33.3602 38.6189 33.2885 38.831 33.2885 39.0999C33.2885 39.4674 33.4245 39.7452 33.6963 39.9334C33.9712 40.1187 34.3193 40.2113 34.7405 40.2113ZM39.6644 41V34.1167H40.6861V35.1563H40.7578C40.8833 34.8157 41.1104 34.5394 41.439 34.3273C41.7676 34.1152 42.1381 34.0091 42.5504 34.0091C42.628 34.0091 42.7251 34.0106 42.8417 34.0136C42.9582 34.0166 43.0463 34.0211 43.1061 34.027V35.1026C43.0702 35.0936 42.988 35.0801 42.8596 35.0622C42.7341 35.0413 42.6012 35.0308 42.4607 35.0308C42.1261 35.0308 41.8274 35.1011 41.5645 35.2415C41.3045 35.3789 41.0984 35.5701 40.946 35.8151C40.7967 36.0571 40.722 36.3334 40.722 36.6441V41H39.6644ZM47.0362 41.1434C46.373 41.1434 45.8008 40.997 45.3198 40.7042C44.8418 40.4085 44.4729 39.9962 44.2129 39.4674C43.956 38.9356 43.8275 38.3172 43.8275 37.6121C43.8275 36.907 43.956 36.2856 44.2129 35.7479C44.4729 35.2071 44.8344 34.7859 45.2974 34.4841C45.7635 34.1794 46.3072 34.027 46.9286 34.027C47.2871 34.027 47.6412 34.0868 47.9907 34.2063C48.3403 34.3258 48.6584 34.52 48.9452 34.7889C49.2321 35.0547 49.4606 35.4073 49.6309 35.8465C49.8012 36.2856 49.8863 36.8264 49.8863 37.4687V37.9168H44.5804V37.0026H48.8108C48.8108 36.6143 48.7331 36.2677 48.5778 35.963C48.4254 35.6582 48.2073 35.4177 47.9235 35.2415C47.6427 35.0652 47.311 34.9771 46.9286 34.9771C46.5074 34.9771 46.1429 35.0816 45.8352 35.2908C45.5305 35.4969 45.2959 35.7658 45.1316 36.0974C44.9673 36.429 44.8851 36.7845 44.8851 37.164V37.7734C44.8851 38.2933 44.9748 38.7339 45.154 39.0954C45.3363 39.4539 45.5887 39.7273 45.9114 39.9155C46.234 40.1007 46.609 40.1934 47.0362 40.1934C47.314 40.1934 47.565 40.1545 47.7891 40.0768C48.0161 39.9962 48.2118 39.8767 48.3761 39.7183C48.5404 39.557 48.6674 39.3568 48.757 39.1178L49.7788 39.4046C49.6712 39.7512 49.4905 40.0559 49.2365 40.3188C48.9826 40.5788 48.6689 40.7819 48.2954 40.9283C47.922 41.0717 47.5023 41.1434 47.0362 41.1434ZM55.5642 41H54.399L57.769 31.8222H58.9162L62.2862 41H61.1211L58.3785 33.2742H58.3068L55.5642 41ZM55.9944 37.4149H60.6908V38.4008H55.9944V37.4149ZM64.6299 36.8592V41H63.5724V34.1167H64.5941V35.1922H64.6837C64.8451 34.8426 65.09 34.5618 65.4187 34.3497C65.7473 34.1346 66.1715 34.027 66.6914 34.027C67.1574 34.027 67.5652 34.1226 67.9148 34.3138C68.2643 34.5021 68.5362 34.7889 68.7304 35.1743C68.9246 35.5567 69.0217 36.0406 69.0217 36.6262V41H67.9641V36.6979C67.9641 36.1572 67.8237 35.7359 67.5428 35.4342C67.262 35.1294 66.8766 34.9771 66.3866 34.9771C66.049 34.9771 65.7473 35.0503 65.4814 35.1967C65.2185 35.343 65.0109 35.5567 64.8585 35.8375C64.7061 36.1183 64.6299 36.4589 64.6299 36.8592ZM72.9798 41.1613C72.5436 41.1613 72.1478 41.0792 71.7923 40.9149C71.4367 40.7476 71.1544 40.5071 70.9453 40.1934C70.7362 39.8767 70.6316 39.4943 70.6316 39.0461C70.6316 38.6518 70.7093 38.3321 70.8646 38.0871C71.02 37.8392 71.2276 37.645 71.4875 37.5046C71.7474 37.3641 72.0342 37.2596 72.3479 37.1909C72.6646 37.1192 72.9828 37.0624 73.3025 37.0206C73.7207 36.9668 74.0598 36.9265 74.3197 36.8996C74.5826 36.8697 74.7738 36.8204 74.8933 36.7517C75.0158 36.683 75.0771 36.5635 75.0771 36.3932V36.3573C75.0771 35.9152 74.9561 35.5716 74.7141 35.3266C74.4751 35.0816 74.1121 34.9591 73.6251 34.9591C73.1202 34.9591 72.7244 35.0697 72.4376 35.2908C72.1508 35.5118 71.9491 35.7479 71.8326 35.9988L70.8288 35.6403C71.008 35.2221 71.247 34.8964 71.5458 34.6634C71.8475 34.4274 72.1762 34.263 72.5317 34.1704C72.8902 34.0748 73.2427 34.027 73.5893 34.027C73.8104 34.027 74.0643 34.0539 74.3511 34.1077C74.6409 34.1585 74.9202 34.2645 75.1891 34.4259C75.461 34.5872 75.6865 34.8307 75.8658 35.1563C76.0451 35.482 76.1347 35.9182 76.1347 36.4649V41H75.0771V40.0679H75.0233C74.9516 40.2173 74.8321 40.3771 74.6648 40.5474C74.4975 40.7177 74.2749 40.8626 73.9971 40.9821C73.7192 41.1016 73.3801 41.1613 72.9798 41.1613ZM73.1411 40.2113C73.5594 40.2113 73.9119 40.1291 74.1987 39.9648C74.4885 39.8005 74.7066 39.5884 74.853 39.3285C75.0024 39.0685 75.0771 38.7952 75.0771 38.5084V37.5404C75.0323 37.5942 74.9337 37.6435 74.7813 37.6883C74.6319 37.7301 74.4587 37.7675 74.2615 37.8003C74.0673 37.8302 73.8776 37.8571 73.6923 37.881C73.5101 37.9019 73.3622 37.9198 73.2487 37.9348C72.9738 37.9706 72.7169 38.0289 72.4779 38.1095C72.2419 38.1872 72.0507 38.3052 71.9043 38.4636C71.7609 38.6189 71.6892 38.831 71.6892 39.0999C71.6892 39.4674 71.8251 39.7452 72.097 39.9334C72.3718 40.1187 72.7199 40.2113 73.1411 40.2113ZM79.1226 31.8222V41H78.065V31.8222H79.1226ZM81.7408 43.5813C81.5616 43.5813 81.4018 43.5663 81.2613 43.5364C81.1209 43.5096 81.0238 43.4827 80.97 43.4558L81.2389 42.5237C81.4959 42.5894 81.7229 42.6133 81.9201 42.5954C82.1173 42.5774 82.292 42.4893 82.4444 42.331C82.5998 42.1756 82.7417 41.9232 82.8701 41.5736L83.0673 41.0359L80.5219 34.1167H81.6691L83.5692 39.6018H83.6409L85.541 34.1167H86.6882L83.7664 42.0038C83.635 42.3593 83.4721 42.6536 83.2779 42.8866C83.0837 43.1227 82.8582 43.2974 82.6013 43.411C82.3473 43.5245 82.0605 43.5813 81.7408 43.5813ZM92.9599 35.6582L92.0098 35.9271C91.9501 35.7688 91.862 35.6149 91.7454 35.4655C91.6319 35.3132 91.4766 35.1877 91.2794 35.0891C91.0822 34.9905 90.8298 34.9412 90.522 34.9412C90.1008 34.9412 89.7497 35.0383 89.4689 35.2325C89.1911 35.4237 89.0522 35.6672 89.0522 35.963C89.0522 36.2259 89.1478 36.4335 89.339 36.5859C89.5302 36.7382 89.8289 36.8652 90.2352 36.9668L91.257 37.2177C91.8724 37.3671 92.331 37.5957 92.6327 37.9034C92.9345 38.2081 93.0854 38.601 93.0854 39.082C93.0854 39.4763 92.9718 39.8289 92.7448 40.1396C92.5207 40.4503 92.207 40.6953 91.8037 40.8745C91.4004 41.0538 90.9313 41.1434 90.3966 41.1434C89.6945 41.1434 89.1134 40.991 88.6533 40.6863C88.1932 40.3816 87.9019 39.9364 87.7794 39.3509L88.7833 39.0999C88.8789 39.4704 89.0596 39.7482 89.3255 39.9334C89.5944 40.1187 89.9454 40.2113 90.3786 40.2113C90.8716 40.2113 91.2629 40.1067 91.5527 39.8976C91.8455 39.6855 91.9919 39.4315 91.9919 39.1358C91.9919 38.8968 91.9083 38.6966 91.741 38.5353C91.5737 38.3709 91.3167 38.2485 90.9702 38.1678L89.8229 37.8989C89.1926 37.7495 88.7295 37.518 88.4337 37.2043C88.1409 36.8876 87.9946 36.4918 87.9946 36.0167C87.9946 35.6284 88.1036 35.2848 88.3217 34.986C88.5428 34.6873 88.843 34.4528 89.2224 34.2825C89.6049 34.1122 90.038 34.027 90.522 34.027C91.2032 34.027 91.738 34.1764 92.1264 34.4752C92.5177 34.7739 92.7956 35.1683 92.9599 35.6582ZM94.6774 41V34.1167H95.735V41H94.6774ZM95.2151 32.9694C95.009 32.9694 94.8312 32.8992 94.6818 32.7588C94.5354 32.6184 94.4623 32.4496 94.4623 32.2524C94.4623 32.0552 94.5354 31.8864 94.6818 31.746C94.8312 31.6056 95.009 31.5354 95.2151 31.5354C95.4213 31.5354 95.5975 31.6056 95.7439 31.746C95.8933 31.8864 95.968 32.0552 95.968 32.2524C95.968 32.4496 95.8933 32.6184 95.7439 32.7588C95.5975 32.8992 95.4213 32.9694 95.2151 32.9694ZM102.548 35.6582L101.598 35.9271C101.538 35.7688 101.45 35.6149 101.333 35.4655C101.22 35.3132 101.064 35.1877 100.867 35.0891C100.67 34.9905 100.418 34.9412 100.11 34.9412C99.6886 34.9412 99.3376 35.0383 99.0568 35.2325C98.7789 35.4237 98.64 35.6672 98.64 35.963C98.64 36.2259 98.7356 36.4335 98.9268 36.5859C99.118 36.7382 99.4168 36.8652 99.8231 36.9668L100.845 37.2177C101.46 37.3671 101.919 37.5957 102.221 37.9034C102.522 38.2081 102.673 38.601 102.673 39.082C102.673 39.4763 102.56 39.8289 102.333 40.1396C102.109 40.4503 101.795 40.6953 101.392 40.8745C100.988 41.0538 100.519 41.1434 99.9844 41.1434C99.2823 41.1434 98.7012 40.991 98.2411 40.6863C97.7811 40.3816 97.4898 39.9364 97.3673 39.3509L98.3711 39.0999C98.4667 39.4704 98.6475 39.7482 98.9134 39.9334C99.1822 40.1187 99.5333 40.2113 99.9665 40.2113C100.459 40.2113 100.851 40.1067 101.141 39.8976C101.433 39.6855 101.58 39.4315 101.58 39.1358C101.58 38.8968 101.496 38.6966 101.329 38.5353C101.161 38.3709 100.905 38.2485 100.558 38.1678L99.4108 37.8989C98.7804 37.7495 98.3173 37.518 98.0216 37.2043C97.7288 36.8876 97.5824 36.4918 97.5824 36.0167C97.5824 35.6284 97.6914 35.2848 97.9095 34.986C98.1306 34.6873 98.4309 34.4528 98.8103 34.2825C99.1927 34.1122 99.6259 34.027 100.11 34.027C100.791 34.027 101.326 34.1764 101.714 34.4752C102.106 34.7739 102.383 35.1683 102.548 35.6582ZM112.977 34.1167C112.923 33.6625 112.705 33.31 112.323 33.0591C111.94 32.8081 111.471 32.6826 110.916 32.6826C110.509 32.6826 110.154 32.7484 109.849 32.8798C109.547 33.0113 109.311 33.192 109.141 33.422C108.974 33.6521 108.89 33.9135 108.89 34.2063C108.89 34.4513 108.948 34.6619 109.065 34.8382C109.184 35.0114 109.337 35.1563 109.522 35.2728C109.707 35.3864 109.901 35.4805 110.104 35.5552C110.308 35.6269 110.494 35.6851 110.665 35.7299L111.597 35.9809C111.836 36.0436 112.102 36.1303 112.394 36.2408C112.69 36.3514 112.972 36.5022 113.241 36.6934C113.513 36.8816 113.737 37.1236 113.914 37.4194C114.09 37.7152 114.178 38.0782 114.178 38.5084C114.178 39.0043 114.048 39.4524 113.788 39.8528C113.531 40.2531 113.155 40.5713 112.659 40.8073C112.166 41.0433 111.567 41.1613 110.862 41.1613C110.204 41.1613 109.635 41.0553 109.154 40.8432C108.676 40.631 108.3 40.3353 108.025 39.9558C107.753 39.5764 107.599 39.1358 107.563 38.6339H108.711C108.741 38.9804 108.857 39.2672 109.06 39.4943C109.266 39.7183 109.526 39.8856 109.84 39.9962C110.157 40.1037 110.497 40.1575 110.862 40.1575C111.286 40.1575 111.667 40.0888 112.004 39.9514C112.342 39.8109 112.609 39.6168 112.807 39.3688C113.004 39.1178 113.102 38.8251 113.102 38.4904C113.102 38.1857 113.017 37.9377 112.847 37.7465C112.677 37.5553 112.453 37.4 112.175 37.2805C111.897 37.161 111.597 37.0564 111.274 36.9668L110.145 36.6441C109.428 36.438 108.86 36.1437 108.442 35.7613C108.024 35.3789 107.814 34.8785 107.814 34.2601C107.814 33.7462 107.953 33.2981 108.231 32.9157C108.512 32.5303 108.888 32.2315 109.36 32.0194C109.836 31.8043 110.366 31.6967 110.951 31.6967C111.543 31.6967 112.069 31.8028 112.529 32.0149C112.989 32.224 113.353 32.5108 113.622 32.8753C113.894 33.2398 114.038 33.6536 114.052 34.1167H112.977ZM118.658 41.1434C118.037 41.1434 117.492 40.9955 117.022 40.6997C116.556 40.404 116.192 39.9902 115.929 39.4584C115.669 38.9266 115.539 38.3052 115.539 37.5942C115.539 36.8772 115.669 36.2513 115.929 35.7165C116.192 35.1817 116.556 34.7664 117.022 34.4707C117.492 34.1749 118.037 34.027 118.658 34.027C119.28 34.027 119.823 34.1749 120.289 34.4707C120.758 34.7664 121.123 35.1817 121.383 35.7165C121.646 36.2513 121.777 36.8772 121.777 37.5942C121.777 38.3052 121.646 38.9266 121.383 39.4584C121.123 39.9902 120.758 40.404 120.289 40.6997C119.823 40.9955 119.28 41.1434 118.658 41.1434ZM118.658 40.1934C119.13 40.1934 119.519 40.0724 119.823 39.8304C120.128 39.5884 120.354 39.2702 120.5 38.8758C120.646 38.4815 120.72 38.0543 120.72 37.5942C120.72 37.1341 120.646 36.7054 120.5 36.308C120.354 35.9107 120.128 35.5895 119.823 35.3445C119.519 35.0996 119.13 34.9771 118.658 34.9771C118.186 34.9771 117.798 35.0996 117.493 35.3445C117.188 35.5895 116.963 35.9107 116.816 36.308C116.67 36.7054 116.597 37.1341 116.597 37.5942C116.597 38.0543 116.67 38.4815 116.816 38.8758C116.963 39.2702 117.188 39.5884 117.493 39.8304C117.798 40.0724 118.186 40.1934 118.658 40.1934ZM124.449 31.8222V41H123.392V31.8222H124.449ZM130.724 38.1857V34.1167H131.782V41H130.724V39.8349H130.652C130.491 40.1844 130.24 40.4817 129.9 40.7266C129.559 40.9686 129.129 41.0896 128.609 41.0896C128.179 41.0896 127.796 40.9955 127.462 40.8073C127.127 40.6161 126.864 40.3293 126.673 39.9469C126.482 39.5615 126.386 39.076 126.386 38.4904V34.1167H127.444V38.4187C127.444 38.9207 127.584 39.321 127.865 39.6197C128.149 39.9185 128.51 40.0679 128.95 40.0679C129.212 40.0679 129.48 40.0007 129.752 39.8662C130.027 39.7318 130.257 39.5256 130.442 39.2478C130.63 38.97 130.724 38.6159 130.724 38.1857ZM136.712 34.1167V35.0129H133.145V34.1167H136.712ZM134.185 32.4675H135.242V39.0282C135.242 39.327 135.286 39.551 135.372 39.7004C135.462 39.8468 135.576 39.9454 135.713 39.9962C135.853 40.044 136.001 40.0679 136.157 40.0679C136.273 40.0679 136.369 40.0619 136.443 40.05C136.518 40.035 136.578 40.0231 136.623 40.0141L136.838 40.9641C136.766 40.991 136.666 41.0179 136.538 41.0448C136.409 41.0747 136.246 41.0896 136.049 41.0896C135.75 41.0896 135.458 41.0254 135.171 40.8969C134.887 40.7685 134.651 40.5728 134.463 40.3099C134.278 40.047 134.185 39.7153 134.185 39.315V32.4675ZM138.303 41V34.1167H139.361V41H138.303ZM138.841 32.9694C138.635 32.9694 138.457 32.8992 138.308 32.7588C138.161 32.6184 138.088 32.4496 138.088 32.2524C138.088 32.0552 138.161 31.8864 138.308 31.746C138.457 31.6056 138.635 31.5354 138.841 31.5354C139.047 31.5354 139.223 31.6056 139.37 31.746C139.519 31.8864 139.594 32.0552 139.594 32.2524C139.594 32.4496 139.519 32.6184 139.37 32.7588C139.223 32.8992 139.047 32.9694 138.841 32.9694ZM144.094 41.1434C143.473 41.1434 142.928 40.9955 142.459 40.6997C141.993 40.404 141.628 39.9902 141.365 39.4584C141.105 38.9266 140.975 38.3052 140.975 37.5942C140.975 36.8772 141.105 36.2513 141.365 35.7165C141.628 35.1817 141.993 34.7664 142.459 34.4707C142.928 34.1749 143.473 34.027 144.094 34.027C144.716 34.027 145.259 34.1749 145.725 34.4707C146.195 34.7664 146.559 35.1817 146.819 35.7165C147.082 36.2513 147.213 36.8772 147.213 37.5942C147.213 38.3052 147.082 38.9266 146.819 39.4584C146.559 39.9902 146.195 40.404 145.725 40.6997C145.259 40.9955 144.716 41.1434 144.094 41.1434ZM144.094 40.1934C144.566 40.1934 144.955 40.0724 145.259 39.8304C145.564 39.5884 145.79 39.2702 145.936 38.8758C146.082 38.4815 146.156 38.0543 146.156 37.5942C146.156 37.1341 146.082 36.7054 145.936 36.308C145.79 35.9107 145.564 35.5895 145.259 35.3445C144.955 35.0996 144.566 34.9771 144.094 34.9771C143.622 34.9771 143.234 35.0996 142.929 35.3445C142.624 35.5895 142.399 35.9107 142.252 36.308C142.106 36.7054 142.033 37.1341 142.033 37.5942C142.033 38.0543 142.106 38.4815 142.252 38.8758C142.399 39.2702 142.624 39.5884 142.929 39.8304C143.234 40.0724 143.622 40.1934 144.094 40.1934ZM149.885 36.8592V41H148.828V34.1167H149.849V35.1922H149.939C150.1 34.8426 150.345 34.5618 150.674 34.3497C151.003 34.1346 151.427 34.027 151.947 34.027C152.413 34.027 152.821 34.1226 153.17 34.3138C153.52 34.5021 153.792 34.7889 153.986 35.1743C154.18 35.5567 154.277 36.0406 154.277 36.6262V41H153.219V36.6979C153.219 36.1572 153.079 35.7359 152.798 35.4342C152.517 35.1294 152.132 34.9771 151.642 34.9771C151.304 34.9771 151.003 35.0503 150.737 35.1967C150.474 35.343 150.266 35.5567 150.114 35.8375C149.961 36.1183 149.885 36.4589 149.885 36.8592ZM161.085 35.6582L160.135 35.9271C160.075 35.7688 159.987 35.6149 159.871 35.4655C159.757 35.3132 159.602 35.1877 159.405 35.0891C159.208 34.9905 158.955 34.9412 158.647 34.9412C158.226 34.9412 157.875 35.0383 157.594 35.2325C157.316 35.4237 157.178 35.6672 157.178 35.963C157.178 36.2259 157.273 36.4335 157.464 36.5859C157.656 36.7382 157.954 36.8652 158.361 36.9668L159.382 37.2177C159.998 37.3671 160.456 37.5957 160.758 37.9034C161.06 38.2081 161.211 38.601 161.211 39.082C161.211 39.4763 161.097 39.8289 160.87 40.1396C160.646 40.4503 160.332 40.6953 159.929 40.8745C159.526 41.0538 159.057 41.1434 158.522 41.1434C157.82 41.1434 157.239 40.991 156.779 40.6863C156.319 40.3816 156.027 39.9364 155.905 39.3509L156.909 39.0999C157.004 39.4704 157.185 39.7482 157.451 39.9334C157.72 40.1187 158.071 40.2113 158.504 40.2113C158.997 40.2113 159.388 40.1067 159.678 39.8976C159.971 39.6855 160.117 39.4315 160.117 39.1358C160.117 38.8968 160.034 38.6966 159.866 38.5353C159.699 38.3709 159.442 38.2485 159.096 38.1678L157.948 37.8989C157.318 37.7495 156.855 37.518 156.559 37.2043C156.266 36.8876 156.12 36.4918 156.12 36.0167C156.12 35.6284 156.229 35.2848 156.447 34.986C156.668 34.6873 156.968 34.4528 157.348 34.2825C157.73 34.1122 158.163 34.027 158.647 34.027C159.329 34.027 159.863 34.1764 160.252 34.4752C160.643 34.7739 160.921 35.1683 161.085 35.6582Z" fill="#225AA5"/>
<path d="M87.0648 15.8835L82.2259 0.0668964H76.7783L84.6689 23.342H89.0924L93.404 9.85554L91.0798 3.40244L87.0648 15.8835Z" fill="#225AA5"/>
</svg>
