<svg xmlns="http://www.w3.org/2000/svg" viewBox="0 0 380.33 241.44"><defs><style>.a{fill:#060504;}.b{fill:#d1c6b0;}.c{fill:#eeb155;}.d{fill:#eeb255;}.e{fill:#dd6238;}.f{fill:#e88e44;}.g{fill:#d1c6af;}.h{fill:#b3a994;}.i{fill:#e09e45;}.j{fill:#d0c5af;}.k{fill:#e19e45;}.l{fill:#b54d31;}.m{fill:#e78d44;}.n{fill:#265391;}.o{fill:#b64d31;}.p{fill:#ecb054;}.q{fill:#d3703a;}.r{fill:#b1a793;}.s{fill:#b34c30;}.t{fill:#d2703a;}.u{fill:#f9f9f9;}.v{fill:#c7bca7;}.w{fill:#090703;}.x{fill:#fefefe;}.y{fill:#050403;}.z{fill:#010100;}</style></defs><path class="a" d="M292.32,212.87c-7.9,3.39-15.85,6.67-23.69,10.19-12.31,5.51-24.56,11.16-36.81,16.81a10.39,10.39,0,0,1-7.54.68,334.33,334.33,0,0,0-38-7.86c-8.19-1.28-16.4-2.37-24.62-3.36-6.51-.79-13.06-1.29-19.58-2-2.57-.26-5.13-.55-7.67-1a14.63,14.63,0,0,1-2.91-1.14,2.11,2.11,0,0,1-2.14,2.16,65.39,65.39,0,0,1-9.47.42c-4.32-.32-8.61-1.1-12.88-1.85a14.68,14.68,0,0,1-7.34-3.57,1.65,1.65,0,0,0-.9-.43c-4.54-.13-9.08-.11-13.6-.38-6.78-.4-13.54-1-20.31-1.51-4.29-.35-8.57-.77-12.85-1.16-6.72-.61-13.43-1.16-20.14-1.87-5.07-.53-10.12-1.28-15.19-1.88-.93-.11-1.15-.51-1.23-1.38-.19-2.23.59-3.37,2.71-3.82,2.34-.5,4.68-1,7-1.62a4,4,0,0,0,1.57-1,22.53,22.53,0,0,0,6-9,2.54,2.54,0,0,1,1.95-1.77c17.5-5,35-9.78,52.44-15,9.63-2.91,19-6.57,28.53-9.87a26.78,26.78,0,0,1,9.74-1.47c6.49.2,13,.13,19.47.39,11.11.43,22.21,1,33.32,1.56,7.11.35,14.23.72,21.34,1.06a7.84,7.84,0,0,1,5,2.2,1.9,1.9,0,0,0,2.4.38,24.45,24.45,0,0,1,11.76-2.25c5.29.33,10.58.78,15.87,1.14,3,.2,6.07.35,9.1.47,3.59.13,7.17.23,10.76.29a2.3,2.3,0,0,0,1.49-.43,32.91,32.91,0,0,0,7-9c-14.1-4.08-26.83-10.47-37-21.17-1.91,2.13-3.7,4.3-5.68,6.28a46.06,46.06,0,0,1-15.55,10c-1.15.46-2.46,1.21-3.54,1-3.15-.58-6.15-1.65-7.59-5a22.66,22.66,0,0,1-1.8-9.29c.06-6.48.32-13,.7-19.44.31-5.17,2.49-9.76,5-14.18a4.45,4.45,0,0,0,.34-1.85,23.36,23.36,0,0,1,.16-3.76,17.4,17.4,0,0,1,6.86-10.61c.25-.18.49-.39.82-.66-.21-.35-.39-.69-.6-1-2.73-4.1-2.49-8.33-.7-12.7a11.71,11.71,0,0,0,.92-4A64.5,64.5,0,0,1,210,56.36c2.74-6.52,7.45-11.06,13.56-14.33l1.08-.54c.25-2,.47-3.81.73-5.64a2.37,2.37,0,0,1,.37-1.15c.33-.36.86-.81,1.27-.78s.89.58,1,1c.51,1.53.9,3.1,1.32,4.59,1.71,0,2.24-.81,2.59-2.24a42.21,42.21,0,0,1,6.63-15.06A11.76,11.76,0,0,1,240.81,20a1.87,1.87,0,0,1,1.6-.16c.25.1.34.95.26,1.42-.82,5-1.69,10-2.54,15.08a9.09,9.09,0,0,0,0,1.28h3.15a41.58,41.58,0,0,1,7-12.83,95.2,95.2,0,0,1,7-7.17,3,3,0,0,1,1.79-.83c1.34-.06,1.9,1.3,1.13,2.69A50.67,50.67,0,0,0,255,33.35c-.34,1.63-.62,3.28-.94,5l2.89,1.17c1.29-1.5,2.54-3.05,3.9-4.51a40.73,40.73,0,0,1,9.24-7.55,2.5,2.5,0,0,1,1-.46c.54,0,1.29-.11,1.56.19a1.72,1.72,0,0,1,.06,1.57q-3.72,7.57-7.59,15.1a1.6,1.6,0,0,0,.39,2.21c1.2,1.15,2.26,2.46,3.39,3.71a22.43,22.43,0,0,1,9.09-4.46,2.25,2.25,0,0,1,1.89.44,2.11,2.11,0,0,1,0,2c-2.29,3.37-3.11,7.27-4.19,11.08a2.25,2.25,0,0,0,0,1.43c1,2.21,2.09,4.39,3.15,6.59a37,37,0,0,1,3.44-1.41c1.59-.49,2.51.29,2,1.84-.7,2.22-1.71,4.35-2.51,6.54a2.85,2.85,0,0,0-.08,1.73c.87,2.74,1.83,5.46,2.78,8.24,1.47-.46,2.76-.94,4.1-1.25a2.3,2.3,0,0,1,1.73.23c.29.24.26,1.13.08,1.62-.69,1.8-1.54,3.55-2.22,5.36a2.7,2.7,0,0,0,0,1.86c.68,1.52,1.55,3,2.28,4.31,1.85-.21,3.54-.47,5.24-.57a1.82,1.82,0,0,1,1.46.67c.2.36-.06,1.09-.31,1.55-.67,1.23-1.52,2.37-2.13,3.62a2,2,0,0,0,.13,1.67c2.62,4,2.64,4,7.4,3.84.37,0,.73,0,1.09,0,1.15,0,1.65.78,1.13,1.79s-1.1,1.86-1.73,2.91a50.11,50.11,0,0,0,4.14,3.52,6.11,6.11,0,0,0,2.59.51c1.65.21,3.32.29,5,.57,1.32.22,1.57,1.12.65,2.09-.59.62-1.27,1.14-2,1.78,4.09,3.27,8.21,6.19,13.61,6.51a15.85,15.85,0,0,1,2.79.56c1.56.41,1.86,1.45.81,2.73-.25.31-.52.61-.74.87a34.48,34.48,0,0,0,16,7.28,5,5,0,0,1,.78.22c1.39.45,1.58,1,.73,2.15-.19.26-.4.5-.67.84a40.71,40.71,0,0,0,5.43,3.07,30.76,30.76,0,0,0,5.4,1.1c.18,0,.34.12.52.17,2.52.66,2.57.74,1.61,3.29,3.09,1.77,6.21,3.52,9.29,5.33,10.21,6,17.55,14.64,22.71,25.18a46.72,46.72,0,0,1,4.31,24.37c-.71,9.51-3.47,18.44-9.23,26.12a63,63,0,0,1-17.81,15.85,87.18,87.18,0,0,1-33.72,12c-8.12,1.14-16.18,1.17-24.12-1.12-7.11-2.06-13.39-5.36-17.19-12.12-4.71-8.34-5.14-17.15-2.63-26.22.46-1.65,1.14-3.25,1.71-4.86l0-.35Zm-185.06-1.28a.44.44,0,0,0,.17.16l.55.81.31-.29-.62-.65-.26-.28-.28-.27-1-1.22.22-.26a6.73,6.73,0,0,1,1.19.72,12.76,12.76,0,0,1,3.41,5.3,4.47,4.47,0,0,0,.59.94,3.47,3.47,0,0,0,.1-1.09,10.46,10.46,0,0,0-7.7-7.91c-.39-.12-.77-.27-1.16-.41.25-.32.49-.46.64-.39a28.34,28.34,0,0,1,5.15,2.45,9.84,9.84,0,0,1,3.92,6.43,3.56,3.56,0,0,0,.51,1l.36-.14c0-.22.05-.44.05-.66a1.93,1.93,0,0,0,0-.68c-1.45-4.46-3.61-8.22-8.62-9.55A99.45,99.45,0,0,0,84.8,202.7c-4.48-.26-9-.4-13.45-.65Q63,201.57,54.54,201c-2.66-.18-5.31-.5-8-.68-3.57-.24-7.14-.42-10.71-.63-.84,0-1.28.33-1.27,1.24,6,.71,12,.65,18,1.75a26.32,26.32,0,0,1-4.44,0c-3.7-.25-7.4-.55-11.1-.74-1-.06-2.52-.2-3.08.38A29.35,29.35,0,0,0,30.83,207l6.1.4v.39c-2.45.22-5-.09-7.41.16l0,.39,13.64.91,0,.47c-1.38,0-2.76,0-4.13,0-3.35-.14-6.69-.34-10-.46a4.25,4.25,0,0,0-1.36.5l.09.32,24.68,1.11v.5c-1,0-1.93,0-2.89,0-3.86-.1-7.71-.22-11.57-.35s-7.6-.32-11.41-.43a4.07,4.07,0,0,0-1.38.48c2.56.4,5,.66,7.5.8,5.57.3,11.13.54,16.7.83s11,.53,16.56.88q9.13.58,18.28,1.33c5.94.48,11.94.46,17.9,1.73-1.76-1.4-4-1.25-6.22-2,.33-.19.44-.32.56-.32,2.61,0,5.11.39,7.13,2.3a1.72,1.72,0,0,0,1.22.45c1.46-.17,2.89-.46,4.38-.72-1.4-5.37-5.67-6.93-10.46-7.86a12.9,12.9,0,0,1,8.25,2.56ZM306.52,188.9l-.57.27-.4.39-.85.25L297,193.2l-.22-.47a10.82,10.82,0,0,1,1.08-.67l12.27-5.87c.65-.3,1.46-.57.57-1.57-2.09,1-4.18,2-6.32,3a4.19,4.19,0,0,1-1.55.06l7.65-3.78.19-.23h-.36L296,189.79l-.81.33-.4.22c-.06,0-.11,0-.14,0l-.55.25-.82.31-.4.23-.08,0-.06.06-.55.25-.81.31-.44.24-.06,0,0,.05-5,2.15a.11.11,0,0,0-.16,0l-.55.25-.82.31-.41.23-.08,0,0,.06-.56.24-.81.31-6.13,2.69-.07,0-.06.06-.55.25-.82.31-.41.23-.07,0-.06.06-1.8.79-.11,0-8.56,3.55-15,6.24a.11.11,0,0,0-.16,0L248,210l-.8.3-.55.25-.27,0-.34.22a.8.8,0,0,0-.27,0q-12.52,5.33-25,10.67c-.29.13-.42.61-.62.93l.23.18,4.2-2,.24.51c-1.19.64-2.37,1.33-3.59,1.9-1.06.5-.86,1-.27,1.75a137.47,137.47,0,0,1,15.51-7.3c-5,3-10.49,5.18-15.46,8.24l.2.39,6.68-3.32.25.51-6.82,3.63,5.23,8.68c.59-.37.87-.57,1.18-.74q7.71-4.05,15.44-8.1c11.14-5.83,22.27-11.72,34-16.25,11.11-4.3,22.39-8.18,33.6-12.24,2.16-.78,4.31-1.58,6.18-2.27a30.79,30.79,0,0,1-2.09-2.53c-.48-.72-.95-.63-1.58-.34q-2.62,1.23-5.27,2.43c-.39.18-.81.29-1.21.43l-.18-.48,7.14-3.43-2-4.27c-.35.13-.6.21-.85.32l-5.07,2.2c-.61.26-.68.21-.95-.32l.66-.47.55-.26.55-.27.5-.21-.09-.16Zm1.85-.58.55-.23,2.61-1.16-.2-.4-2.58,1.33-.57.24-.48.24.09.19Zm9.15,8.87-.89.19c-.47.13-1,.23-1.43.4-5.23,1.89-10.42,3.86-15.68,5.67-12.19,4.2-24.37,8.41-35.92,14.2C251.38,223.76,239.21,230,227,236.11a2.23,2.23,0,0,1-1.35.15c-6.65-1.46-13.27-3-19.93-4.41-7-1.45-14-2.77-21-4.07-4.34-.81-8.7-1.58-13.07-2.18-3.84-.53-7.72-.82-11.59-1.17-5.18-.47-10.36-.9-15.53-1.34-2.21-.18-4.42-.32-6.63-.5-2.43-.2-4.86-.48-7.3-.62-.66,0-1.74.13-2,.55-1,1.77-2.66,1.56-4,1.54a69.57,69.57,0,0,1-9.45-.74c-3.24-.49-6.44-1.27-9.62-2.08a5.14,5.14,0,0,1-3.54-2.73,2.37,2.37,0,0,0-1.6-1.09c-3.37-.37-6.76-.62-10.14-.87-2.93-.21-5.87-.37-8.8-.58-4.74-.34-9.47-.72-14.21-1-3.39-.23-6.78-.39-10.17-.58l-18-1-13.95-.86a10,10,0,0,1-3.18-.25,3.37,3.37,0,0,0-2.69-.06c-.36.13-.61.52-.92.79.33.19.64.52,1,.56,6.22.66,12.43,1.34,18.66,1.91,5.23.47,10.49.77,15.72,1.21,7.86.66,15.71,1.48,23.57,2,6,.43,12,.6,17.94.84,1.28.06,2.57-.13,3.86-.06a2.2,2.2,0,0,1,1.56.64c1.75,2.4,4.36,3.25,7,3.74a104.94,104.94,0,0,0,11.84,1.62,68.73,68.73,0,0,0,8.94-.39,1.6,1.6,0,0,0,1-.55c1.3-1.63,2.47-1.88,4.34-.9a6.32,6.32,0,0,0,2,.77c2.07.27,4.15.42,6.23.6,5.55.49,11.12.81,16.65,1.49,9.09,1.11,18.15,2.42,27.21,3.7q17.06,2.42,33.77,6.52c2.52.62,5,1.28,7.58,1.92.12-1.61.09-1.67,1.57-2.43,4.92-2.5,9.82-5.05,14.81-7.41,10.84-5.12,21.61-10.42,32.62-15.13,10.59-4.54,21.45-8.42,32.18-12.63,2.81-1.1,5.57-2.32,8.35-3.49l.78-.31.46-.07-.08-.17Zm-206.6,20.52a16.08,16.08,0,0,0-7.31,1.22l.06.34,7.25-1.14h6.13l0-.15ZM367,193.47l.33.28-.15-.42-6-9-.23-.24-.31-.34a2.76,2.76,0,0,0-.34-.58c-2.53-2.52-5.06-5-7.62-7.54-.57-.55-1.22-1-1.84-1.51l.18.4-3.24,2.73a57,57,0,0,1,5.44,3.23c3.18,2.38,6.21,5,9.31,7.45ZM208.51,98.2l-2.22,1.2c-.29.21-.61.39-.88.63a14.93,14.93,0,0,0-5.33,12.63,5.26,5.26,0,0,1-.76,2.79c-2.48,4.22-4.58,8.56-4.85,13.55-.28,5.2-.61,10.4-.65,15.6A28.92,28.92,0,0,0,196,155.75a7.29,7.29,0,0,0,6.26,4l.6-.17h0a4.83,4.83,0,0,0,.66-.14,47.23,47.23,0,0,0,20.75-16.37c-3.18-4.35-4.67-9.41-6.14-14.6a18.16,18.16,0,0,1-7.37,5.76c-.49.24-.81.85-1.19,1.25.53.65,1,1.12,1.34,1.63,2.46,3.24,1.84,7.08,1.77,10.69,0,1.85-1.26,3.69-2.05,5.5a3.91,3.91,0,0,1-1.22,1.21c-.33.26-.79.36-1.09.65-.92.9-1.8,1.86-2.69,2.8l-.37-.37c.3-.35.6-.71.92-1.05a20,20,0,0,0,5.67-13.13,8.73,8.73,0,0,0-2.43-6.84l-3.92,3.16-.83.39v0h-1.78l0-.3,1.84-.53c2.59-1.12,3.28-3.54,4.08-5.9.34-1,.43-2.25,1.07-3a25.78,25.78,0,0,1,3.66-3v2.73c2.29-1.13,2.77-3.08,2.69-5.34s-.69-3-3-2.81l-7.43,2c2-2.6,4.55-3.34,7.16-4h2l.26-.4-2.21-2c-2.61-1-5.32-.75-8-.67a10.49,10.49,0,0,1,7.78-1.59l2,.79c.42-2.82.25-3.09-2-3.31-2.36-.06-4.73-.09-7.09-.2A5.47,5.47,0,0,1,204,112l.7-1.29c.12-.36.39-.74.34-1.06a11.32,11.32,0,0,1,.92-6.75c.76-1.63,1.69-3.18,2.54-4.77l.08-.18Zm10.85-13.68c-1.22.57-2.43,1.16-3.65,1.71-3.09,1.4-7.18-1.57-7.47-4.47a22.81,22.81,0,0,0,1.78,2c1.69,1.52,4.2,1.89,5.55.48a6.91,6.91,0,0,1-1.35-5.62c.52-3,2.9-5.14,5.48-4.75a13.82,13.82,0,0,1,2.62,1c.06-.76.12-1.47.19-2.38l-14.5.55c-.12,2.49-.23,4.89-.34,7.28-.46,1.49-.92,3-1.39,4.47-.21.69-.51,1.36-.68,2.06-.8,3.45-.45,6.64,2.18,9.28a13.71,13.71,0,0,1,2.31-.92,8,8,0,0,1,2,.12l-.36,1.94-1.52,1.85a30.33,30.33,0,0,0,11.72,7.53,33.62,33.62,0,0,0,16.14,1.72c7-1.12,13.63-3.79,20.13-6.67.57-.26,1.13-.57,1.69-.86l.24.44-3,1.72.14.3L261,101.6a12.44,12.44,0,0,1,.33,1.7c.27,3.94,2.57,6.62,5.46,9a7.22,7.22,0,0,1,1.34,1.42c1.47,2.1,2.9,4.23,4.29,6.27,1.69-3,3.16-5.8,4.84-8.48a13,13,0,0,1,5.45-5c2.74-1.29,4.95-.69,6.52,1.85a52.38,52.38,0,0,1,8.14,31.22,1.48,1.48,0,0,0,1.16,1.76c2.78,1,5.54,2.11,8.29,3.21,3.11,1.24,6.2,2.53,9.24,3.76l1.75-3.16a16.59,16.59,0,0,1,6.57-4.63,4.74,4.74,0,0,1,1.82.09v.91a9.58,9.58,0,0,1-1,.81c-1.17.75-2.43,1.39-3.53,2.24a10.23,10.23,0,0,0-3.11,12.28c.64,2.61,2.35,4.49,4.16,6.34,1.31,1.34,2.61,1.88,4.39,1,1.24-.64,2.9-.4,3.77-1.82,2.29-.94,4.58-1.84,7.19-1.35l-5.29,1.32.08.3,5-.8.15.44c-3.3,1.28-6.55,2.75-9.92,3.79-6.9,2.13-12.16,6.11-15.34,12.68-.2.41-.37.83-.55,1.25l.32.23a19.09,19.09,0,0,1,10.56-8.43,1.84,1.84,0,0,1-.92.87c-4.22,1.65-6.65,5-8.3,9a9.78,9.78,0,0,0-.38,1.53c.18.86.36,1.72.61,2.89a28.25,28.25,0,0,1,10.47-8.93l1.55-.38.14.37c-1,.52-2,1-3,1.57-1.63,1-3.34,1.85-4,3.85l-.78,3.66.41.13a14.59,14.59,0,0,1,7.77-3.9c1.74-.28,3.51-.38,5.22-.76a26.17,26.17,0,0,0,3.68-1.34,86.29,86.29,0,0,0,9-3.59c3.79-2,6.35-5.18,6.55-9.68.25-5.48-2.27-9.94-5.63-14-.39-.49-.75-1-1.17-1.47a36.8,36.8,0,0,0-12-8.65c-1.34-.61-1.45-1-.58-2l4.53,1.51a18.83,18.83,0,0,0-3.16-2.36,3.82,3.82,0,0,1-.7-.87c2.63.56,4.51,2.28,6.37,4.07,1.64,1.58,3.38,3.07,5.07,4.61a33.55,33.55,0,0,1,8.9,12.89c.09.39.17.79.27,1.18a14.56,14.56,0,0,1-1.34,10.78c-.16.3-.32.61-.46.86,1.35,1.2,2.68,2.29,3.9,3.5,2.17,2.15,4.28,4.38,6.42,6.58.25.37.49.76.77,1.11A49.37,49.37,0,0,1,373,207.18c1,5.89,1.17,11.76-2.61,16.85a65.64,65.64,0,0,1-7.68,8.79,112.43,112.43,0,0,1-9.27,7.17c.24-.09.75-.24,1.22-.45a66.7,66.7,0,0,0,20.14-13.8c7.08-7,12.54-15,15.32-24.71,1.71-5.95,2.51-12,.11-17.93a56,56,0,0,0-23-27.55c-10-6.12-20.33-11.75-30.48-17.65A251.56,251.56,0,0,1,308,118.64c-8.32-6.51-15.81-13.76-20.6-23.4-.86-1.73-1.81-3.41-2.8-5.27l-.86,3.24a15.84,15.84,0,0,1-6.83,6.56c-3.55,1.74-7.95,2.74-9.06,1.88.74-.17,1.37-.34,2-.47,4.05-.79,7.87-2.12,10.77-5.21s4-6.42,2.12-10.52c-1.33-2.92-2.4-6-3.47-9-.87-2.43-1.45-5-2.35-7.38a59.9,59.9,0,0,0-14.87-23,20.88,20.88,0,0,0-7.45-4.88h0l-.56-.24-2.45-.79h-.81c-1.62.07-3.23.12-4.85.22-1.06.06-2.79.66-3.07.24-1-1.4-1.89-.28-2.82-.49a3.42,3.42,0,0,0-.09.76c.22,1.38-.42,2.15-1.54,2.94a31.59,31.59,0,0,0-8.17,8c-.25.37-.49.74-.73,1.11l-.24.29q-1.34,2.22-2.69,4.42l-.41-.07c-.52-4.32-1-8.64-1.56-13C217,47,207.71,62.38,208.7,71l14.78-.42h1.05c0-1,.08-1.81.14-2.91,1.07,1.46.92,4,0,4.88a1.28,1.28,0,0,0-.35.77C224,77.67,222.63,81.52,219.36,84.52ZM236,123c.71-.52,1.4-1.09,2.16-1.55a2.3,2.3,0,0,1,3.21.47c.11,1.85.27,3.7.33,5.56a13.61,13.61,0,0,0,1.81,6.62,7.84,7.84,0,0,1,.88-1.29,23,23,0,0,1,1.82-1.44,12.62,12.62,0,0,1,1.24,1.78c1.54,3.2,3,6.42,4.63,9.83,1.31-1.31,1.88-.67,2.45.3.9,1.52,1.88,3,2.84,4.48.34.53.71,1,1.06,1.56l-.38.31c-1.25-1.22-2.48-2.45-3.75-3.66-.29-.28-.8-.75-1-.66-1.11.52-1.6-.27-2.12-.91a11.93,11.93,0,0,1-1.24-2c-1.38-2.6-2.74-5.22-4.15-7.91l-1.66,3.18a13.8,13.8,0,0,1-2-2.13,16.5,16.5,0,0,1-2.41-8.67c0-1.28-.11-2.57-.18-4.08-.46.3-.69.43-.89.58a19,19,0,0,0-5.82,7.42c-.24.52-1,.78-1.56,1.17-.26-.56-.76-1.12-.76-1.67,0-2.81.19-5.62.3-8.43.78-3.75,1.55-7.5,2.36-11.39a36.4,36.4,0,0,1-14.71-2.69,7.7,7.7,0,0,0-.12,1c.18,3.8.19,7.63.61,11.41.34,3.12,1.16,6.2,1.77,9.3.88,4.11,2.11,8.13,4.8,11.42a61.22,61.22,0,0,0,20.18,15.64c1.12.58,2.19,1.27,3.36,1.74,4.93,2,9.89,3.92,15.1,6l2.69-7.19a58.83,58.83,0,0,0,2.87-20.19,31.59,31.59,0,0,1,.87-10.11c.54-1.81,1.07-3.64,1.6-5.46,0-.28,0-.66-.14-.83-2.93-3.12-4.69-7.21-8.17-9.86a4.88,4.88,0,0,1-.62-.73,12,12,0,0,1-2.82-6.71c-1.74.17-3.35.31-5,.48a3.54,3.54,0,0,0-.9.25c-6,2.34-12.13,4.53-18.52,5.49a46.71,46.71,0,0,0-3.12,13c-.18,1.47-.36,2.94-.56,4.6Zm58.09,116.45a21.13,21.13,0,0,0,10.36,11.92,42.87,42.87,0,0,0,19,4.45c15.39.17,29.65-4,43-11.54A59.78,59.78,0,0,0,383.55,230c6.82-8.37,9.41-18.27,9.71-28.86.09-2.92-.23-5.85-.36-8.77h-.38a14.66,14.66,0,0,0-.28,1.72,35.36,35.36,0,0,1-2.66,11.25c-5.08,12.55-13.72,22.12-24.83,29.6a64.5,64.5,0,0,1-18.07,8.33c-1.4.32-2.8.61-4.19,1a49,49,0,0,1-22.66.64c-12.79-2.87-21-10.51-23.95-23.46a54,54,0,0,1-.67-7.52,34.36,34.36,0,0,0-2.9,10A29.53,29.53,0,0,0,294.12,239.45Zm-73.87-13.38,0,.21h.13l-.14-.19c-1.09-.29-2.18-.65-3.28-.87-6.24-1.28-12.48-2.52-18.73-3.78l-3.79-.73.1-.52c8.55,1.05,16.9,3.24,25.43,4.87-.24-1-.33-1.57-1.46-1.77-5.43-1-10.83-2.12-16.24-3.23-.76-.15-1.49-.43-2.24-.65l.14-.51,19.15,3.78.25-.31c-.3-.29-.56-.77-.92-.86-1.75-.44-3.52-.78-5.28-1.14-8.63-1.8-17.25-3.65-25.9-5.37-5.65-1.13-11.33-2.12-17-3.08-4.35-.73-8.73-1.39-13.11-2q-6.1-.78-12.26-1.3c-3.15-.26-6.33-.4-9.5-.46a81,81,0,0,0-9.09.18c-4.82.46-7.78,3.69-10.21,7.51a4.27,4.27,0,0,0-.32,1,53.65,53.65,0,0,1,3.94-4.22c1.44-1.27,3.05-2.44,5.21-2.16a3.91,3.91,0,0,1-1.34.85c-2.35,1-4.51,2.25-5.77,4.63l-.63,1.12.25.13.6-1c1.21-1.14,2.18-2.58,4-2.91l-3.84,3.89c2.86,1,5.43,1.92,8,2.8a3,3,0,0,0,1.15,0c2.37-.24,4.73-.5,7.09-.73.19,0,.4.18.72.33l-7.41.89,0,.5h1.2a21.91,21.91,0,0,1,2.29,0c3.1.31,6.19.72,9.28,1,3.52.28,7.05.39,10.57.67s7,.66,10.51,1,7.19.67,10.76,1.18c4.09.59,8.16,1.34,12.23,2.1,6.35,1.18,12.7,2.37,19,3.67,7.07,1.46,14.11,3.06,21.15,4.59l.33.11-.05-.34c-1.37-2.31-2.73-4.64-4.14-6.93A2.29,2.29,0,0,0,220,227c-3.74-.71-7.51-1.32-11.27-2-.88-.15-1.75-.36-2.62-.55l0-.37a3.39,3.39,0,0,1,1-.13c2.3.38,4.59.82,6.89,1.2C216.06,225.48,218.15,225.76,220.25,226.07Zm35.85-36.8.23,4.75c.94-1.92,1.58-3.57,2.51-5.05a23.37,23.37,0,0,1,3.27-4.14,14.21,14.21,0,0,1,3.06-1.79l-1.06,3.23a8.35,8.35,0,0,0-.11,7c.19-.47.29-.71.38-.95a20.92,20.92,0,0,1,4.32-7.47c3.94-4.13,8-8.17,11.63-12.58,4.67-5.67,9-11.63,11.65-18.61a47.07,47.07,0,0,0,3.08-20.55c0-.22,0-.45,0-.68a55.35,55.35,0,0,0-7.67-23.46,2.69,2.69,0,0,0-2.11-1.05,4.9,4.9,0,0,0-2.85,1.05,24.23,24.23,0,0,0-4.11,4.48c-3.31,4.94-4.87,10.6-6.05,16.35a24.48,24.48,0,0,0-.44,6.22,58.47,58.47,0,0,1-3.69,25c-2.67,6.78-6.6,12.73-12.51,17.17a9.91,9.91,0,0,0-3.8,6.21l-.69,2.54a12.83,12.83,0,0,0,1.92-2.16,8.56,8.56,0,0,1,5.52-3.09,8.06,8.06,0,0,1-.51,1.24A12.9,12.9,0,0,0,256.1,189.27Zm-55.5-11.21,1.76-.54a5.73,5.73,0,0,0-3.85-1.57c-6.08-.17-12.16-.36-18.24-.65-5.53-.26-11.05-.75-16.58-1-12.61-.46-25.22-.73-37.83-1.23a24.9,24.9,0,0,0-10.5,1.42,559.5,559.5,0,0,1-65.42,21.1c-3.56.91-7.09,2-10.63,3a2.5,2.5,0,0,0,1.42.45c2.08.11,4.16.16,6.24.32,4.19.32,8.37.76,12.57,1,5.06.33,10.13.56,15.2.78,8,.33,16,.54,23.92,1.95,4.59.82,9.15,1.64,12.75,5,1.17,1.79,2.33,3.59,3.51,5.41-.07.06.06,0,.12-.08a23.26,23.26,0,0,1,11.45-8.15q30.92-11.22,61.78-22.61C192.39,181.19,196.49,179.61,200.6,178.06Zm53.8,8.07-3.22,5.23c-1.24-2.16-2.72-4.08-1.64-6.71.86-2.07,1.66-4.16,2.5-6.28-3.38-.16-6.87-.26-10.35-.5q-9-.62-18.06-1.36c-4.66-.38-9.25-.65-13.82,1q-39.5,14.46-79.05,28.75c-.64.23-1.26.51-1.88.77a26.2,26.2,0,0,0,3.72.17,153.93,153.93,0,0,1,21.67,1.4c5.5.72,11,1.37,16.48,2.27,6.27,1,12.5,2.24,18.73,3.48q14.7,2.94,29.36,6.06a4.29,4.29,0,0,0,2.83-.29c7.28-3.18,14.55-6.35,21.86-9.44q32-13.56,64-27c.78-.33,1.55-.71,2.33-1.07a.68.68,0,0,0-.56-.33l-16.69-1.33c-4.75-.38-9.5-.74-14.25-1.14a3,3,0,0,0-2.73,1c-1.61,1.79-3.43,3.38-5.07,5.14a17.68,17.68,0,0,0-3,3.79c-1.07,2.11-1.77,4.4-2.67,6.7-3.52-1.16-3.67-4.24-3.6-7.51-1.89,2.1-2.7,4.32-3.45,9.28-2.52-.35-3.05-2.35-3.61-4.34-.73-2.55-.11-5,.32-7.54l.13-.45Zm62.15.52c-1.54,1.83-1.42,1.77-.51,3.76,1.26,2.73,3.59,3.52,6.25,3.76a4.73,4.73,0,0,1,4.08,2.92c.92,1.95.52,2.8-1.53,3.38-.13,0-.25.1-.37.15q-12.39,4.63-24.79,9.25a1.77,1.77,0,0,0-1.3,1.51,26.07,26.07,0,0,0,4.34,19.9,23,23,0,0,0,13,9.73,47.65,47.65,0,0,0,18,1.86c13-1.23,23.64-7.06,32.16-16.86,2-2.26,3.82-4.61,4.52-7.65a24.49,24.49,0,0,0-.5-13.29c-4-12.29-12.65-20.35-24-25.88a2,2,0,0,0-1.34.1c-2.64.92-5.25,1.89-7.88,2.83a5.79,5.79,0,0,0-1.14.32,12,12,0,0,1-6.84,1.84,10.1,10.1,0,0,0-9.2,5,1.53,1.53,0,0,1-1.16.7,1.79,1.79,0,0,1-1.16-.93A14.74,14.74,0,0,1,316.55,186.65ZM286,168.47c.92.15,1.57.27,2.23.36,8.46,1.06,16.91,2.14,25.38,3.15a2.37,2.37,0,0,0,1.47-.59c2.12-1.61,4.19-3.28,6.29-4.92.3-.23.65-.4,1-.64-5.28-4.43-7.87-9.8-6.53-16.83l-18.69-7.36C296.24,151.78,292,160.39,286,168.47Zm26.58,6c-.4-.09-.7-.2-1-.24q-13.11-1.77-26.21-3.51a1.37,1.37,0,0,0-1.09.27c-1.55,1.85-3,3.75-4.64,5.75,2.14.16,4.12.3,6.11.47,7.77.67,15.53,1.36,23.31,2a1.62,1.62,0,0,0,1.29-.55C311.17,177.4,311.83,176,312.61,174.51Zm-16.74,33.16-.34-.37c-.16,0-.33.09-.49.15-6,2.24-12,4.22-17.85,6.79-10.87,4.82-21.61,9.92-32.35,15-5.4,2.56-10.68,5.35-16,8.07-.36.18-.53.71-.8,1.07l.34.29c.54-.23,1.08-.44,1.61-.69,6-2.85,12-5.81,18.08-8.53,15.32-6.84,30.68-13.57,46-20.37A9.1,9.1,0,0,0,295.87,207.67Zm-88.6-97.21a28.5,28.5,0,0,1,3.2,0c1.91.2,3.73.25,5.06-1.48l.1-.08a1.73,1.73,0,0,0,.12-2.51l-6.95-5A11,11,0,0,0,207.27,110.46Zm116.54,87.35c-.66-.9-1.25-1.35-2.34-.91-4.9,2-9.84,3.85-14.73,5.83-2.75,1.11-5.45,2.35-8.17,3.53l.05.42a4.72,4.72,0,0,0,1.55,0c4.8-1.79,9.57-3.64,14.37-5.45C317.57,200.07,320.63,199,323.81,197.81Zm4.65-69.27-3-.61C326.29,128.38,326.88,130,328.46,128.54ZM102.31,216.9l-.27.25,1,1.06.33-.31Zm16.12,1.78,0-.21-.82,0v.17Zm200.06-22,0,.25.46-.09Zm13.57-34v.1h.41v-.1Zm4.8-20-.21-.28c0,.06-.16.13-.15.16a1.57,1.57,0,0,0,.19.33Z" transform="translate(-15.45 -16.78)"/><path class="b" d="M254.62,186.33c-.43,2.5-1.05,5-.32,7.54.56,2,1.09,4,3.61,4.34.75-5,1.56-7.18,3.45-9.28-.07,3.27.08,6.35,3.6,7.51.9-2.3,1.6-4.59,2.67-6.7a17.68,17.68,0,0,1,3-3.79c1.64-1.76,3.46-3.35,5.07-5.14a3,3,0,0,1,2.73-1c4.75.4,9.5.76,14.25,1.14l16.69,1.33a.68.68,0,0,1,.56.33c-.78.36-1.55.74-2.33,1.07q-32,13.53-64,27c-7.31,3.09-14.58,6.26-21.86,9.44a4.29,4.29,0,0,1-2.83.29q-14.67-3.1-29.36-6.06c-6.23-1.24-12.46-2.45-18.73-3.48-5.47-.9-11-1.55-16.48-2.27a153.93,153.93,0,0,0-21.67-1.4,26.2,26.2,0,0,1-3.72-.17c.62-.26,1.24-.54,1.88-.77q39.53-14.35,79.05-28.75c4.57-1.67,9.16-1.4,13.82-1q9,.74,18.06,1.36c3.48.24,7,.34,10.35.5-.84,2.12-1.64,4.21-2.5,6.28-1.08,2.63.4,4.55,1.64,6.71l3.22-5.23Z" transform="translate(-15.45 -16.78)"/><path class="b" d="M111.41,208.13c-3.6-3.33-8.16-4.15-12.75-5-7.92-1.41-15.92-1.62-23.92-1.95-5.07-.22-10.14-.45-15.2-.78-4.2-.27-8.38-.71-12.57-1-2.08-.16-4.16-.21-6.24-.32a2.5,2.5,0,0,1-1.42-.45c3.54-1,7.07-2.08,10.63-3a559.5,559.5,0,0,0,65.42-21.1,24.9,24.9,0,0,1,10.5-1.42c12.61.5,25.22.77,37.83,1.23,5.53.2,11.05.69,16.58,1,6.08.29,12.16.48,18.24.65a5.73,5.73,0,0,1,3.85,1.57l-1.76.54c-.4-.26-.81-.78-1.18-.75a17.15,17.15,0,0,0-4.25.67c-10.81,3.79-21.56,7.74-32.39,11.48-6.71,2.31-13.52,4.35-20.29,6.52a169.35,169.35,0,0,0-22,8.52C117.56,205.91,114.44,206.93,111.41,208.13Z" transform="translate(-15.45 -16.78)"/><path class="c" d="M326.23,140.58a4.74,4.74,0,0,0-1.82-.09,16.59,16.59,0,0,0-6.57,4.63c-4.57-2.2-9.14-4.38-13.7-6.59-2.07-1-3.56-2.21-4.11-4.83a97.14,97.14,0,0,0-6.8-20.28c-2.45-5.4-5-10.75-7.5-16.12-.24-.53-.45-1.08-.67-1.62l.65-2.58-.44-.11c-.25.55-.51,1.1-.76,1.64l-.82-1.42.86-3.24c1,1.86,1.94,3.54,2.8,5.27,4.79,9.64,12.28,16.89,20.6,23.4a251.56,251.56,0,0,0,28.83,19.26c10.15,5.9,20.47,11.53,30.48,17.65a56,56,0,0,1,23,27.55c2.4,5.92,1.6,12-.11,17.93-2.78,9.67-8.24,17.7-15.32,24.71a66.7,66.7,0,0,1-20.14,13.8c-.47.21-1,.36-1.22.45a112.43,112.43,0,0,0,9.27-7.17,65.64,65.64,0,0,0,7.68-8.79c3.78-5.09,3.62-11,2.61-16.85a49.37,49.37,0,0,0-10.57-22.5c-.28-.35-.52-.74-.77-1.11a52.77,52.77,0,0,0-.44-5.77c-1.13-6-3.93-11.37-7.35-16.4a3.8,3.8,0,0,0-1-.73,33.55,33.55,0,0,0-8.9-12.89,7.7,7.7,0,0,0-3.44-4.82c-2.36-1.62-4.9-3-7.39-4.41-.21-.12-.55,0-.83,0l.22.56a3.82,3.82,0,0,0,.7.87,18.83,18.83,0,0,1,3.16,2.36l-4.53-1.51-3.34-.29C327.73,139.48,327,140.72,326.23,140.58Z" transform="translate(-15.45 -16.78)"/><path class="d" d="M223.48,70.61,208.7,71c-1-8.65,8.27-24,15.88-26.45.51,4.31,1,8.63,1.56,13l.41.07q1.35-2.2,2.69-4.42l.24-.29.73-1.11a8.8,8.8,0,0,0,1.32-.81c1.67-1.46,3.23-3,5-4.42,3.77-3,8.2-4.52,12.81-5.65a6.94,6.94,0,0,0,1.45-.76h.81l2.45.79.56.24h0a6.87,6.87,0,0,0,.7.91c2.61,2.42,5.42,4.65,7.81,7.28,5.33,5.87,8.49,12.94,10.58,20.52.85,3.08,1.81,6.14,2.71,9.2a6.31,6.31,0,0,0-4.68,1.22,10.32,10.32,0,0,0-3.83,7.57c-.35,3.74,1.08,7.18,4.15,8.45a64.86,64.86,0,0,1-6.41,2.81c-2.67.86-5.57.85-8.17,2.18-1.25.64-2.13-.3-2.08-1.72,0-1,.47-2.25-.66-3a2.05,2.05,0,0,0-1.26-.21c-.17,0-.42.47-.42.72,0,2,0,2-2,1.89l-.41,0c.59-.9.21-1.4-.6-2-1.34-1-2.68-.51-4.1-.41-4.75.3-9.52.36-14.27.67-3.88.26-7.75.81-11.64,1.11-1.86.15-2.24-.33-2.39-2.21a12.69,12.69,0,0,1,6.83-11.68c3.11-1.43,6.32-2.53,9.84-2.15.21,0,.44-.12.66-.18v-.55l2.08.51.14-.36-2.22-1c-.36-.36-.67-.94-1.08-1a32.81,32.81,0,0,0-4.91-.79c-1-.07-1.38-.27-1.41-1.38-.06-2.29-.28-4.58-.54-6.87a38.87,38.87,0,0,0-.84-4.78,10.65,10.65,0,0,0-1.2-3,1.83,1.83,0,0,0-1.59-.48c-.29.06-.68,1-.54,1.39C223.71,66,223.45,68.31,223.48,70.61Zm20.45.85,1.76-.27c.31,7.14,3,12.41,10.51,13.94a9.56,9.56,0,0,0,6.28.9,10.67,10.67,0,0,0,7-4.8c1.81-2.64,3.39-5.39,3.1-8.77-.17-2-.83-3.41-2.68-3.74-.29-1.43-1.48-1.36-2.48-1.31q-7,.36-14,.88c-3,.21-5.95.53-8.92.8-.29-1.4-.58-2.8-.88-4.2l.09-.79a15.64,15.64,0,0,0,1.17-2.58c.14-.5-.18-1.13-.3-1.71-.55.29-1.39.44-1.6.89a17.64,17.64,0,0,0-1.68,4.79,15.37,15.37,0,0,0,.34,4.81,1.18,1.18,0,0,0,1.5,1.1l.53.11Z" transform="translate(-15.45 -16.78)"/><path class="e" d="M245.74,156.61A61.22,61.22,0,0,1,225.56,141c-2.69-3.29-3.92-7.31-4.8-11.42a13.94,13.94,0,0,0,.26-1.68c.15-3.49.26-7,.4-10.77a33.69,33.69,0,0,0,3.83,2.57c1.81.87,3.73,1.5,5.6,2.24-.11,2.81-.27,5.62-.3,8.43,0,.55.5,1.11.76,1.67.54-.39,1.32-.65,1.56-1.17a19,19,0,0,1,5.82-7.42c.2-.15.43-.28.89-.58.07,1.51.19,2.8.18,4.08a16.5,16.5,0,0,0,2.41,8.67,13.8,13.8,0,0,0,2,2.13l1.66-3.18c1.41,2.69,2.77,5.31,4.15,7.91a11.93,11.93,0,0,0,1.24,2c.52.64,1,1.43,2.12.91.19-.09.7.38,1,.66,1.27,1.21,2.5,2.44,3.75,3.66l.38-.31c-.35-.52-.72-1-1.06-1.56-1-1.49-1.94-3-2.84-4.48-.57-1-1.14-1.61-2.45-.3-1.6-3.41-3.09-6.63-4.63-9.83a12.62,12.62,0,0,0-1.24-1.78,23,23,0,0,0-1.82,1.44,7.84,7.84,0,0,0-.88,1.29,13.61,13.61,0,0,1-1.81-6.62c-.06-1.86-.22-3.71-.33-5.56.35-.1.71-.16,1-.29,5-2,9.95-4.14,14.95-6.15a4.66,4.66,0,0,1,2.82-.47,49.89,49.89,0,0,1,7,3,57.5,57.5,0,0,1,5.06,3.35c-.53,1.82-1.06,3.65-1.6,5.46a31.59,31.59,0,0,0-.87,10.11,58.83,58.83,0,0,1-2.87,20.19l-9.46.23A53.84,53.84,0,0,1,245.74,156.61Z" transform="translate(-15.45 -16.78)"/><path class="f" d="M264.11,186.27c.35-1.08.7-2.15,1.06-3.23a7.38,7.38,0,0,0,.29-1c.08-.46.29-1.16.08-1.35a2.28,2.28,0,0,0-1.47-.32,2.17,2.17,0,0,0-.95.49c-2.7,1.89-4.46,4.56-6.11,7.32a8.65,8.65,0,0,1-.91,1.11,12.9,12.9,0,0,1,2-6.38,8.06,8.06,0,0,0,.51-1.24c.14,0,.31,0,.4,0a7.42,7.42,0,0,0,1.51-1.32c.13-.19-.23-1.08-.43-1.1a3.8,3.8,0,0,0-1.72.28,18.29,18.29,0,0,0-6.51,4.88,9.91,9.91,0,0,1,3.8-6.21c5.91-4.44,9.84-10.39,12.51-17.17a58.47,58.47,0,0,0,3.69-25,24.48,24.48,0,0,1,.44-6.22c1.18-5.75,2.74-11.41,6.05-16.35a24.23,24.23,0,0,1,4.11-4.48,4.9,4.9,0,0,1,2.85-1.05,2.69,2.69,0,0,1,2.11,1.05,55.35,55.35,0,0,1,7.67,23.46c0,.23,0,.46,0,.68a11.11,11.11,0,0,0-.68,1.93,56.42,56.42,0,0,1-9.1,23.3c-4.1,5.87-8.76,11.35-13.11,17-2.33,3.05-4.54,6.18-6.8,9.27C265,185.18,264.53,185.72,264.11,186.27Z" transform="translate(-15.45 -16.78)"/><path class="g" d="M118,216c1.26-2.38,3.42-3.62,5.77-4.63a3.91,3.91,0,0,0,1.34-.85c-2.16-.28-3.77.89-5.21,2.16a53.65,53.65,0,0,0-3.94,4.22,4.27,4.27,0,0,1,.32-1c2.43-3.82,5.39-7,10.21-7.51a81,81,0,0,1,9.09-.18c3.17.06,6.35.2,9.5.46q6.15.53,12.26,1.3c4.38.57,8.76,1.23,13.11,2,5.68,1,11.36,2,17,3.08,8.65,1.72,17.27,3.57,25.9,5.37,1.76.36,3.53.7,5.28,1.14.36.09.62.57.92.86l-.25.31-19.15-3.78-.14.51c.75.22,1.48.5,2.24.65,5.41,1.11,10.81,2.27,16.24,3.23,1.13.2,1.22.79,1.46,1.77-8.53-1.63-16.88-3.82-25.43-4.87l-.1.52,3.79.73c6.25,1.26,12.49,2.5,18.73,3.78,1.1.22,2.19.58,3.28.87l0,0c-2.1-.31-4.19-.59-6.28-.94-2.3-.38-4.59-.82-6.89-1.2a3.39,3.39,0,0,0-1,.13l0,.37c.87.19,1.74.4,2.62.55,3.76.65,7.53,1.26,11.27,2a2.29,2.29,0,0,1,1.2,1.07c1.41,2.29,2.77,4.62,4.14,6.93l-.28.23c-7-1.53-14.08-3.13-21.15-4.59-6.33-1.3-12.68-2.49-19-3.67-4.07-.76-8.14-1.51-12.23-2.1-3.57-.51-7.17-.81-10.76-1.18s-7-.75-10.51-1-7-.39-10.57-.67c-3.09-.26-6.18-.67-9.28-1a21.91,21.91,0,0,0-2.29,0H128l0-.5,7.41-.89c-.32-.15-.53-.34-.72-.33-2.36.23-4.72.49-7.09.73a3,3,0,0,1-1.15,0c-2.58-.88-5.15-1.79-8-2.8l3.84-3.89c-1.87.33-2.84,1.77-4,2.91Z" transform="translate(-15.45 -16.78)"/><path class="h" d="M247.19,210.29l.8-.3.57-.25a.11.11,0,0,1,.16,0,5.88,5.88,0,0,0,1.2-.12c2.18-.75,4.39-1.43,6.51-2.32,4.38-1.83,8.71-3.76,13-5.7a29.32,29.32,0,0,0,2.8-1.65l.11,0,1.8-.79.06-.06.07,0,.41-.23.82-.31.55-.25.06-.06.07,0c1.27-.43,2.57-.78,3.8-1.29a17.33,17.33,0,0,0,2.33-1.4l.81-.31.56-.24,0-.06.08,0,.41-.23.82-.31.55-.25a.11.11,0,0,1,.16,0c1.1-.34,2.23-.62,3.3-1.05a10.88,10.88,0,0,0,1.72-1.1l0-.05.06,0,.44-.24.81-.31.55-.25.06-.06.08,0,.4-.23.82-.31.55-.25c0-.06.08-.07.14,0l.4-.22.81-.33a4.4,4.4,0,0,0,1.21,0c1.89-.67,3.76-1.4,5.64-2.1a4.19,4.19,0,0,0,1.55-.06c2.14-.94,4.23-2,6.32-3,.89,1,.08,1.27-.57,1.57l-12.27,5.87a10.82,10.82,0,0,0-1.08.67l.22.47,7.71-3.39a1.56,1.56,0,0,0,.16.2c.27.53.34.58.95.32l5.07-2.2c.25-.11.5-.19.85-.32l2,4.27-7.14,3.43.18.48c.4-.14.82-.25,1.21-.43q2.64-1.2,5.27-2.43c.63-.29,1.1-.38,1.58.34a30.79,30.79,0,0,0,2.09,2.53c-1.87.69-4,1.49-6.18,2.27-11.21,4.06-22.49,7.94-33.6,12.24-11.74,4.53-22.87,10.42-34,16.25q-7.72,4-15.44,8.1c-.31.17-.59.37-1.18.74l-5.23-8.68,6.82-3.63-.25-.51-6.68,3.32-.2-.39c5-3.06,10.42-5.27,15.46-8.24a137.47,137.47,0,0,0-15.51,7.3c-.59-.71-.79-1.25.27-1.75,1.22-.57,2.4-1.26,3.59-1.9l-.24-.51-4.2,2-.23-.18c.2-.32.33-.8.62-.93q12.49-5.37,25-10.67a.8.8,0,0,1,.27,0l.34-.22.27,0Z" transform="translate(-15.45 -16.78)"/><path class="i" d="M250.6,98.94l.41,0c2,.16,2,.16,2-1.89,0-.25.25-.7.42-.72a2.05,2.05,0,0,1,1.26.21c1.13.76.69,2,.66,3-.05,1.42.83,2.36,2.08,1.72,2.6-1.33,5.5-1.32,8.17-2.18A64.86,64.86,0,0,0,272,96.32a12.66,12.66,0,0,0,3,0c2.85-.74,4.32-2.94,5.27-5.53,1.61-4.36.52-10-3.93-11.66-.9-3.06-1.86-6.12-2.71-9.2-2.09-7.58-5.25-14.65-10.58-20.52-2.39-2.63-5.2-4.86-7.81-7.28a6.87,6.87,0,0,1-.7-.91A20.88,20.88,0,0,1,262,46.05a59.9,59.9,0,0,1,14.87,23c.9,2.42,1.48,5,2.35,7.38,1.07,3,2.14,6.07,3.47,9,1.86,4.1.72,7.49-2.12,10.52s-6.72,4.42-10.77,5.21c-.64.13-1.27.3-2,.47,1.11.86,5.51-.14,9.06-1.88a15.84,15.84,0,0,0,6.83-6.56l.82,1.42c-1.92,4.58-5.7,6.75-10.26,7.91-.93.23-1.88.44-2.82.66l.09.47a15.68,15.68,0,0,0,1.94-.14c5-1,9.13-3.16,11.6-7.85.22.54.43,1.09.67,1.62,2.5,5.37,5,10.72,7.5,16.12A97.14,97.14,0,0,1,300,133.7c.55,2.62,2,3.83,4.11,4.83,4.56,2.21,9.13,4.39,13.7,6.59l-1.75,3.16c-3-1.23-6.13-2.52-9.24-3.76-2.75-1.1-5.51-2.18-8.29-3.21a1.48,1.48,0,0,1-1.16-1.76,52.38,52.38,0,0,0-8.14-31.22c-1.57-2.54-3.78-3.14-6.52-1.85a13,13,0,0,0-5.45,5c-1.68,2.68-3.15,5.49-4.84,8.48-1.39-2-2.82-4.17-4.29-6.27a7.22,7.22,0,0,0-1.34-1.42c-2.89-2.35-5.19-5-5.46-9a12.44,12.44,0,0,0-.33-1.7l-3.77,1.71-.14-.3,3-1.72-.24-.44c-.56.29-1.12.6-1.69.86-6.5,2.88-13.11,5.55-20.13,6.67a33.62,33.62,0,0,1-16.14-1.72,30.33,30.33,0,0,1-11.72-7.53l1.52-1.85L216.11,99c.4,1.31,1.43,1.43,2.58,1.47a2.06,2.06,0,0,1,1.46.57,7.68,7.68,0,0,0,5,3.57c4.21.88,8.09.64,11.13-2.89l.19-.15-.12,0,0,.21a4.29,4.29,0,0,0-.89.22c-3.47,1.65-7,1.47-10.59.39a3.18,3.18,0,0,1-2.38-2c3.29-.66,6.53-1.24,9.73-2,5.74-1.29,11.44-1.85,17.1.34A5.66,5.66,0,0,0,250.6,98.94Zm24.17,6.35c3.24.73,9.62-3.07,9.29-5.58C281.77,103,278.34,104.25,274.77,105.29Z" transform="translate(-15.45 -16.78)"/><path class="j" d="M107,211.31a12.9,12.9,0,0,0-8.25-2.56c4.79.93,9.06,2.49,10.46,7.86-1.49.26-2.92.55-4.38.72a1.72,1.72,0,0,1-1.22-.45c-2-1.91-4.52-2.26-7.13-2.3-.12,0-.23.13-.56.32,2.21.75,4.46.6,6.22,2-6-1.27-12-1.25-17.9-1.73s-12.19-.94-18.28-1.33c-5.52-.35-11-.6-16.56-.88s-11.13-.53-16.7-.83c-2.47-.14-4.94-.4-7.5-.8a4.07,4.07,0,0,1,1.38-.48c3.81.11,7.61.29,11.41.43s7.71.25,11.57.35c1,0,1.92,0,2.89,0v-.5L27.75,210l-.09-.32a4.25,4.25,0,0,1,1.36-.5c3.35.12,6.69.32,10,.46,1.37.05,2.75,0,4.13,0l0-.47-13.64-.91,0-.39c2.45-.25,5,.06,7.41-.16v-.39l-6.1-.4A29.35,29.35,0,0,1,34,202.28c.56-.58,2-.44,3.08-.38,3.7.19,7.4.49,11.1.74a26.32,26.32,0,0,0,4.44,0c-5.94-1.1-12-1-18-1.75,0-.91.43-1.28,1.27-1.24,3.57.21,7.14.39,10.71.63,2.66.18,5.31.5,8,.68q8.41.57,16.81,1.06c4.48.25,9,.39,13.45.65a99.45,99.45,0,0,1,19.92,2.91c5,1.33,7.17,5.09,8.62,9.55a1.93,1.93,0,0,1,0,.68c0,.22,0,.44-.05.66l-.36.14a3.56,3.56,0,0,1-.51-1,9.84,9.84,0,0,0-3.92-6.43,28.34,28.34,0,0,0-5.15-2.45c-.15-.07-.39.07-.64.39.39.14.77.29,1.16.41a10.46,10.46,0,0,1,7.7,7.91,3.47,3.47,0,0,1-.1,1.09,4.47,4.47,0,0,1-.59-.94,12.76,12.76,0,0,0-3.41-5.3,6.73,6.73,0,0,0-1.19-.72l-.22.26,1,1.22Z" transform="translate(-15.45 -16.78)"/><path class="k" d="M346.68,243.31A64.5,64.5,0,0,0,364.75,235c11.11-7.48,19.75-17,24.83-29.6a35.36,35.36,0,0,0,2.66-11.25,14.66,14.66,0,0,1,.28-1.72h.38c.13,2.92.45,5.85.36,8.77-.3,10.59-2.89,20.49-9.71,28.86a59.78,59.78,0,0,1-17.05,14.24c-13.32,7.54-27.58,11.71-43,11.54a42.87,42.87,0,0,1-19-4.45,21.13,21.13,0,0,1-10.36-11.92,19.56,19.56,0,0,1,2.36,1.36A40,40,0,0,0,310,247.17a41.87,41.87,0,0,0,17,1.61,78.12,78.12,0,0,0,17.2-4.11A19.14,19.14,0,0,0,346.68,243.31Z" transform="translate(-15.45 -16.78)"/><path class="f" d="M328.52,140.53l3.34.29c-.87,1.06-.76,1.43.58,2a36.8,36.8,0,0,1,12,8.65c.42.46.78,1,1.17,1.47.13.53.23,1.06.38,1.57a42.51,42.51,0,0,1,1.91,6.49c.48,3.73.47,7.52-1.26,11a2.49,2.49,0,0,1-1.25,1.17q-7.14,2.59-14.32,5.08c-2.86,1-5.75,1.91-8.61,2.89-1.06.37-2.08.83-3.11,1.26.62-2,2.33-2.9,4-3.85,1-.58,2-1,3-1.57l-.14-.37-1.55.38c.07-.35.14-.7.29-1.39a21.19,21.19,0,0,0-2,1c-3.14,2.12-6.25,4.28-9.37,6.42a9.78,9.78,0,0,1,.38-1.53c1.65-4,4.08-7.32,8.3-9a1.84,1.84,0,0,0,.92-.87,19.09,19.09,0,0,0-10.56,8.43l-.32-.23c.18-.42.35-.84.55-1.25,3.18-6.57,8.44-10.55,15.34-12.68,3.37-1,6.62-2.51,9.92-3.79l-.15-.44-5,.8-.08-.3,5.29-1.32c-2.61-.49-4.9.41-7.19,1.35-.55-.19-1.1-.4-1.66-.58-3.59-1.13-7.43-1.75-10.16-4.76-.1-.11-.33-.1-.5-.15a10.23,10.23,0,0,1,3.11-12.28c1.1-.85,2.36-1.49,3.53-2.24a9.58,9.58,0,0,0,1-.81c.32,0,.69-.18,1-.07C328.12,141.81,328.49,141.46,328.52,140.53Z" transform="translate(-15.45 -16.78)"/><path class="l" d="M286,168.47c6-8.08,10.21-16.69,11.19-26.83L315.91,149c-1.34,7,1.25,12.4,6.53,16.83-.39.24-.74.41-1,.64-2.1,1.64-4.17,3.31-6.29,4.92a2.37,2.37,0,0,1-1.47.59c-8.47-1-16.92-2.09-25.38-3.15C287.6,168.74,287,168.62,286,168.47Z" transform="translate(-15.45 -16.78)"/><path class="m" d="M212.85,120c-2.61.65-5.18,1.39-7.16,4l7.43-2a15.36,15.36,0,0,1,.26,2,1.66,1.66,0,0,1-.38,1.16c-2.28,1.91-4.68,3.66-6.89,5.63s-2.7,6-1.45,8.54l-1.84.53,0,.3h1.78l1.26.87c1.33,2.47,1.15,5.25.44,8-.88,3.36-1.16,6.95-3.42,9.84-.14.17-.06.52-.08.78h0l-.6.17a7.29,7.29,0,0,1-6.26-4,28.92,28.92,0,0,1-2.15-11.15c0-5.2.37-10.4.65-15.6.27-5,2.37-9.33,4.85-13.55a5.26,5.26,0,0,0,.76-2.79A14.93,14.93,0,0,1,205.41,100c.27-.24.59-.42.88-.63a7.69,7.69,0,0,1-.23,1.18c-.67,2-1.42,4-2,6a4.5,4.5,0,0,0,.66,4.14L204,112a5.47,5.47,0,0,0,1.48.56c2.36.11,4.73.14,7.09.2l0,2.52a10.49,10.49,0,0,0-7.78,1.59c2.73-.08,5.44-.38,8,.67Z" transform="translate(-15.45 -16.78)"/><path class="n" d="M316.73,197.49c-2.78,1.17-5.54,2.39-8.35,3.49-10.73,4.21-21.59,8.09-32.18,12.63-11,4.71-21.78,10-32.62,15.13-5,2.36-9.89,4.91-14.81,7.41-1.48.76-1.45.82-1.57,2.43-2.54-.64-5.06-1.3-7.58-1.92q-16.73-4.08-33.77-6.52c-9.06-1.28-18.12-2.59-27.21-3.7-5.53-.68-11.1-1-16.65-1.49-2.08-.18-4.16-.33-6.23-.6a6.32,6.32,0,0,1-2-.77c-1.87-1-3-.73-4.34.9a1.6,1.6,0,0,1-1,.55,68.73,68.73,0,0,1-8.94.39,104.94,104.94,0,0,1-11.84-1.62c-2.67-.49-5.28-1.34-7-3.74a2.2,2.2,0,0,0-1.56-.64c-1.29-.07-2.58.12-3.86.06-6-.24-12-.41-17.94-.84-7.86-.56-15.71-1.38-23.57-2-5.23-.44-10.49-.74-15.72-1.21-6.23-.57-12.44-1.25-18.66-1.91-.34,0-.65-.37-1-.56.31-.27.56-.66.92-.79a3.37,3.37,0,0,1,2.69.06,10,10,0,0,0,3.18.25l14,.86,18,1c3.39.19,6.78.35,10.17.58,4.74.32,9.47.7,14.21,1,2.93.21,5.87.37,8.8.58,3.38.25,6.77.5,10.14.87a2.37,2.37,0,0,1,1.6,1.09,5.14,5.14,0,0,0,3.54,2.73c3.18.81,6.38,1.59,9.62,2.08a69.57,69.57,0,0,0,9.45.74c1.39,0,3.1.23,4-1.54.22-.42,1.3-.58,2-.55,2.44.14,4.87.42,7.3.62,2.21.18,4.42.32,6.63.5,5.17.44,10.35.87,15.53,1.34,3.87.35,7.75.64,11.59,1.17,4.37.6,8.73,1.37,13.07,2.18,7,1.3,14,2.62,21,4.07,6.66,1.38,13.28,3,19.93,4.41a2.23,2.23,0,0,0,1.35-.15c12.2-6.15,24.37-12.35,36.59-18.46,11.55-5.79,23.73-10,35.92-14.2,5.26-1.81,10.45-3.78,15.68-5.67.47-.17,1-.27,1.43-.4Z" transform="translate(-15.45 -16.78)"/><path class="o" d="M272.23,121.37a57.5,57.5,0,0,0-5.06-3.35,49.89,49.89,0,0,0-7-3,4.66,4.66,0,0,0-2.82.47c-5,2-10,4.1-14.95,6.15-.33.13-.69.19-1,.29a2.3,2.3,0,0,0-3.21-.47c-.76.46-1.45,1-2.16,1.55l-3.05-.57a46.71,46.71,0,0,1,3.12-13c6.39-1,12.48-3.15,18.52-5.49a3.54,3.54,0,0,1,.9-.25c1.61-.17,3.22-.31,5-.48A12,12,0,0,0,263.3,110a4.88,4.88,0,0,0,.62.73c3.48,2.65,5.24,6.74,8.17,9.86C272.25,120.71,272.19,121.09,272.23,121.37Z" transform="translate(-15.45 -16.78)"/><path class="p" d="M346.68,243.31a19.14,19.14,0,0,1-2.51,1.36,78.12,78.12,0,0,1-17.2,4.11,41.87,41.87,0,0,1-17-1.61,40,40,0,0,1-13.54-6.36,19.56,19.56,0,0,0-2.36-1.36,29.53,29.53,0,0,1-1.81-15.5,34.36,34.36,0,0,1,2.9-10,54,54,0,0,0,.67,7.52c2.91,13,11.16,20.59,23.95,23.46a49,49,0,0,0,22.66-.64C343.88,243.92,345.28,243.63,346.68,243.31Z" transform="translate(-15.45 -16.78)"/><path class="q" d="M202.83,159.61c0-.26-.06-.61.08-.78,2.26-2.89,2.54-6.48,3.42-9.84.71-2.74.89-5.52-.44-8l-1.26-.87v0l.83-.39,3.92-3.16a8.73,8.73,0,0,1,2.43,6.84,20,20,0,0,1-5.67,13.13c-.32.34-.62.7-.92,1.05l.37.37c.89-.94,1.77-1.9,2.69-2.8.3-.29.76-.39,1.09-.65a3.91,3.91,0,0,0,1.22-1.21c.79-1.81,2-3.65,2.05-5.5.07-3.61.69-7.45-1.77-10.69-.39-.51-.81-1-1.34-1.63.38-.4.7-1,1.19-1.25a18.16,18.16,0,0,0,7.37-5.76c1.47,5.19,3,10.25,6.14,14.6a47.23,47.23,0,0,1-20.75,16.37A4.83,4.83,0,0,1,202.83,159.61Z" transform="translate(-15.45 -16.78)"/><path class="r" d="M111.41,208.13c3-1.2,6.15-2.22,9.07-3.63a169.35,169.35,0,0,1,22-8.52c6.77-2.17,13.58-4.21,20.29-6.52,10.83-3.74,21.58-7.69,32.39-11.48a17.15,17.15,0,0,1,4.25-.67c.37,0,.78.49,1.18.75-4.11,1.55-8.21,3.13-12.33,4.64Q157.4,194,126.49,205.31A23.26,23.26,0,0,0,115,213.46c-.06.09-.19.14-.12.08C113.74,211.72,112.58,209.92,111.41,208.13Z" transform="translate(-15.45 -16.78)"/><path class="q" d="M264.11,186.27c.42-.55.85-1.09,1.26-1.65,2.26-3.09,4.47-6.22,6.8-9.27,4.35-5.7,9-11.18,13.11-17a56.42,56.42,0,0,0,9.1-23.3,11.11,11.11,0,0,1,.68-1.93A47.07,47.07,0,0,1,292,153.62c-2.63,7-7,12.94-11.65,18.61-3.62,4.41-7.69,8.45-11.63,12.58a20.92,20.92,0,0,0-4.32,7.47c-.09.24-.19.48-.38.95A8.35,8.35,0,0,1,264.11,186.27Z" transform="translate(-15.45 -16.78)"/><path class="s" d="M230.85,121.91c-1.87-.74-3.79-1.37-5.6-2.24a33.69,33.69,0,0,1-3.83-2.57c-.14,3.79-.25,7.28-.4,10.77a13.94,13.94,0,0,1-.26,1.68c-.61-3.1-1.43-6.18-1.77-9.3-.42-3.78-.43-7.61-.61-11.41a7.7,7.7,0,0,1,.12-1,36.4,36.4,0,0,0,14.71,2.69C232.4,114.41,231.63,118.16,230.85,121.91Z" transform="translate(-15.45 -16.78)"/><path class="t" d="M319.33,182.48c1-.43,2.05-.89,3.11-1.26,2.86-1,5.75-1.89,8.61-2.89q7.17-2.49,14.32-5.08a2.49,2.49,0,0,0,1.25-1.17c1.73-3.52,1.74-7.31,1.26-11a42.51,42.51,0,0,0-1.91-6.49c-.15-.51-.25-1-.38-1.57,3.36,4.08,5.88,8.54,5.63,14-.2,4.5-2.76,7.69-6.55,9.68a86.29,86.29,0,0,1-9,3.59,26.17,26.17,0,0,1-3.68,1.34c-1.71.38-3.48.48-5.22.76a14.59,14.59,0,0,0-7.77,3.9l-.41-.13Z" transform="translate(-15.45 -16.78)"/><path class="p" d="M216.11,99l-4.39-1.72.36-1.94a8,8,0,0,0-2-.12,13.71,13.71,0,0,0-2.31.92c-2.63-2.64-3-5.83-2.18-9.28.17-.7.47-1.37.68-2.06.47-1.49.93-3,1.39-4.47l.57,1.43c.29,2.9,4.38,5.87,7.47,4.47,1.22-.55,2.43-1.14,3.65-1.71l.31.55c-.26.31-.53.61-.77.93C215.94,89.9,214.43,94.11,216.11,99Z" transform="translate(-15.45 -16.78)"/><path class="n" d="M295.87,207.67a9.1,9.1,0,0,1-1.78,1.42c-15.33,6.8-30.69,13.53-46,20.37C242,232.18,236,235.14,230,238c-.53.25-1.07.46-1.61.69l-.34-.29c.27-.36.44-.89.8-1.07,5.31-2.72,10.59-5.51,16-8.07,10.74-5.09,21.48-10.19,32.35-15,5.81-2.57,11.89-4.55,17.85-6.79.16-.06.33-.1.49-.15Z" transform="translate(-15.45 -16.78)"/><path class="k" d="M352.87,160.67a3.8,3.8,0,0,1,1,.73c3.42,5,6.22,10.36,7.35,16.4a52.77,52.77,0,0,1,.44,5.77c-2.14-2.2-4.25-4.43-6.42-6.58-1.22-1.21-2.55-2.3-3.9-3.5.14-.25.3-.56.46-.86a14.56,14.56,0,0,0,1.34-10.78C353,161.46,353,161.06,352.87,160.67Z" transform="translate(-15.45 -16.78)"/><path class="u" d="M208.24,81.76l-.57-1.43c.11-2.39.22-4.79.34-7.28l14.5-.55c-.07.91-.13,1.62-.19,2.38a13.82,13.82,0,0,0-2.62-1c-2.58-.39-5,1.72-5.48,4.75a6.91,6.91,0,0,0,1.35,5.62c-1.35,1.41-3.86,1-5.55-.48A22.81,22.81,0,0,1,208.24,81.76Z" transform="translate(-15.45 -16.78)"/><path class="i" d="M219.67,85.07l-.31-.55c3.27-3,4.61-6.85,4.92-11.17a1.28,1.28,0,0,1,.35-.77c1-.92,1.11-3.42,0-4.88-.06,1.1-.1,2-.14,2.91h-1.05c0-2.3.23-4.62-.65-6.86-.14-.37.25-1.33.54-1.39a1.83,1.83,0,0,1,1.59.48,10.65,10.65,0,0,1,1.2,3,38.87,38.87,0,0,1,.84,4.78c.26,2.29.48,4.58.54,6.87,0,1.11.39,1.31,1.41,1.38a32.81,32.81,0,0,1,4.91.79c.41.09.72.67,1.08,1-1.8-.08-3.57-.89-5.75-.22l5.75,1.1v.55C229.34,80.52,224.1,80.7,219.67,85.07Z" transform="translate(-15.45 -16.78)"/><path class="s" d="M245.74,156.61a53.84,53.84,0,0,0,11.69.75l9.46-.23-2.69,7.19c-5.21-2-10.17-4-15.1-6C247.93,157.88,246.86,157.19,245.74,156.61Z" transform="translate(-15.45 -16.78)"/><path class="q" d="M204.66,139.3c-1.25-2.54-.66-6.66,1.45-8.54s4.61-3.72,6.89-5.63a1.66,1.66,0,0,0,.38-1.16,15.36,15.36,0,0,0-.26-2c2.35-.15,3,.46,3,2.81s-.4,4.21-2.69,5.34v-2.73a25.78,25.78,0,0,0-3.66,3c-.64.77-.73,2-1.07,3C207.94,135.76,207.25,138.18,204.66,139.3Z" transform="translate(-15.45 -16.78)"/><path class="s" d="M362.48,187.92c-3.1-2.49-6.13-5.07-9.31-7.45a57,57,0,0,0-5.44-3.23l3.24-2.73-.18-.4c.62.5,1.27,1,1.84,1.51,2.56,2.5,5.09,5,7.62,7.54a2.76,2.76,0,0,1,.34.58c.1.12.21.23.31.34l.23.24c.17.5.33,1,.51,1.5C361.91,186.53,362.2,187.22,362.48,187.92Z" transform="translate(-15.45 -16.78)"/><path class="n" d="M323.81,197.81c-3.18,1.16-6.24,2.26-9.27,3.4-4.8,1.81-9.57,3.66-14.37,5.45a4.72,4.72,0,0,1-1.55,0l-.05-.42c2.72-1.18,5.42-2.42,8.17-3.53,4.89-2,9.83-3.86,14.73-5.83C322.56,196.46,323.15,196.91,323.81,197.81Z" transform="translate(-15.45 -16.78)"/><path class="t" d="M318.6,156.82c.17.05.4,0,.5.15,2.73,3,6.57,3.63,10.16,4.76.56.18,1.11.39,1.66.58-.87,1.42-2.53,1.18-3.77,1.82-1.78.91-3.08.37-4.39-1C321,161.31,319.24,159.43,318.6,156.82Z" transform="translate(-15.45 -16.78)"/><path class="i" d="M250.75,40.14a6.94,6.94,0,0,1-1.45.76c-4.61,1.13-9,2.67-12.81,5.65-1.73,1.38-3.29,3-5,4.42a8.8,8.8,0,0,1-1.32.81,31.59,31.59,0,0,1,8.17-8c1.12-.79,1.76-1.56,1.54-2.94a3.42,3.42,0,0,1,.09-.76c.93.21,1.86-.91,2.82.49.28.42,2-.18,3.07-.24C247.52,40.26,249.13,40.21,250.75,40.14Z" transform="translate(-15.45 -16.78)"/><path class="t" d="M256.1,189.27a8.65,8.65,0,0,0,.91-1.11c1.65-2.76,3.41-5.43,6.11-7.32a2.17,2.17,0,0,1,.95-.49,2.28,2.28,0,0,1,1.47.32c.21.19,0,.89-.08,1.35a7.38,7.38,0,0,1-.29,1,14.21,14.21,0,0,0-3.06,1.79,23.37,23.37,0,0,0-3.27,4.14c-.93,1.48-1.57,3.13-2.51,5.05Z" transform="translate(-15.45 -16.78)"/><path class="t" d="M313.53,183.11c3.12-2.14,6.23-4.3,9.37-6.42a21.19,21.19,0,0,1,2-1c-.15.69-.22,1-.29,1.39A28.25,28.25,0,0,0,314.14,186C313.89,184.83,313.71,184,313.53,183.11Z" transform="translate(-15.45 -16.78)"/><path class="t" d="M251.84,184.36a18.29,18.29,0,0,1,6.51-4.88,3.8,3.8,0,0,1,1.72-.28c.2,0,.56.91.43,1.1a7.42,7.42,0,0,1-1.51,1.32c-.09.07-.26,0-.4,0a8.56,8.56,0,0,0-5.52,3.09,12.83,12.83,0,0,1-1.92,2.16Z" transform="translate(-15.45 -16.78)"/><path class="v" d="M272.27,199.91a29.32,29.32,0,0,1-2.8,1.65c-4.33,1.94-8.66,3.87-13,5.7-2.12.89-4.33,1.57-6.51,2.32a5.88,5.88,0,0,1-1.2.12l15-6.24Z" transform="translate(-15.45 -16.78)"/><path class="i" d="M332.53,139.1l-.22-.56c.28,0,.62-.11.83,0,2.49,1.44,5,2.79,7.39,4.41a7.7,7.7,0,0,1,3.44,4.82c-1.69-1.54-3.43-3-5.07-4.61C337,141.38,335.16,139.66,332.53,139.1Z" transform="translate(-15.45 -16.78)"/><path class="t" d="M204.69,110.75a4.5,4.5,0,0,1-.66-4.14c.61-2,1.36-4,2-6a7.69,7.69,0,0,0,.23-1.18l2.22-1.2,0,0c-.85,1.59-1.78,3.14-2.54,4.77a11.32,11.32,0,0,0-.92,6.75C205.08,110,204.81,110.39,204.69,110.75Z" transform="translate(-15.45 -16.78)"/><path class="v" d="M302.82,187.64c-1.88.7-3.75,1.43-5.64,2.1a4.4,4.4,0,0,1-1.21,0l14.33-6.16.17.23Z" transform="translate(-15.45 -16.78)"/><path class="e" d="M362.48,187.92c-.28-.7-.57-1.39-.84-2.1-.18-.49-.34-1-.51-1.5l6,9-.18.14Z" transform="translate(-15.45 -16.78)"/><path class="e" d="M233,122.43,236,123l-3.61,4C232.62,125.37,232.8,123.9,233,122.43Z" transform="translate(-15.45 -16.78)"/><path class="t" d="M212.58,115.32l0-2.52c2.25.22,2.42.49,2,3.31Z" transform="translate(-15.45 -16.78)"/><path class="v" d="M110.92,218.13l-7.25,1.14-.06-.34a16.08,16.08,0,0,1,7.31-1.22Z" transform="translate(-15.45 -16.78)"/><path class="t" d="M212.85,120v-2.39l2.21,2-.26.4Z" transform="translate(-15.45 -16.78)"/><path class="w" d="M328.52,140.53c0,.93-.4,1.28-1.34.89-.27-.11-.64,0-1,.07v-.91C327,140.72,327.73,139.48,328.52,140.53Z" transform="translate(-15.45 -16.78)"/><path class="v" d="M282.35,195.56A17.33,17.33,0,0,1,280,197c-1.23.51-2.53.86-3.8,1.29Z" transform="translate(-15.45 -16.78)"/><path class="r" d="M110.92,218.13v-.42l6.15.27,0,.15Z" transform="translate(-15.45 -16.78)"/><path class="v" d="M290.81,192a10.88,10.88,0,0,1-1.72,1.1c-1.07.43-2.2.71-3.3,1.05Z" transform="translate(-15.45 -16.78)"/><path d="M328.46,128.54c-1.58,1.44-2.17-.16-3-.61Z" transform="translate(-15.45 -16.78)"/><path class="h" d="M308.75,187.86l2.58-1.33.2.4-2.61,1.16Z" transform="translate(-15.45 -16.78)"/><path class="j" d="M102.31,216.9l1.06,1-.33.31-1-1.06Z" transform="translate(-15.45 -16.78)"/><path class="v" d="M274.18,199.1l-1.8.79Z" transform="translate(-15.45 -16.78)"/><path class="g" d="M118.2,216.22l-.6,1-.25-.13L118,216Z" transform="translate(-15.45 -16.78)"/><path class="v" d="M285.63,194.19l-.55.25Z" transform="translate(-15.45 -16.78)"/><path class="v" d="M276.09,198.28l-.55.25Z" transform="translate(-15.45 -16.78)"/><path class="v" d="M294.62,190.37l-.55.25Z" transform="translate(-15.45 -16.78)"/><path class="v" d="M292.71,191.19l-.55.25Z" transform="translate(-15.45 -16.78)"/><path class="j" d="M107.67,211.62l.62.65-.31.29-.55-.81Z" transform="translate(-15.45 -16.78)"/><path class="r" d="M118.43,218.68h-.84v-.17l.82,0Z" transform="translate(-15.45 -16.78)"/><path class="m" d="M205.47,139.76l-.83.39Z" transform="translate(-15.45 -16.78)"/><path class="v" d="M283.72,195l-.56.24Z" transform="translate(-15.45 -16.78)"/><path class="n" d="M317.51,197.18l-.78.31-.1-.11.89-.19Z" transform="translate(-15.45 -16.78)"/><path class="h" d="M304.7,189.81l.85-.25,0,0-.66.47A1.56,1.56,0,0,1,304.7,189.81Z" transform="translate(-15.45 -16.78)"/><path class="n" d="M318.49,196.64l.49.16-.46.09Z" transform="translate(-15.45 -16.78)"/><path class="q" d="M202.23,159.77l.6-.17Z" transform="translate(-15.45 -16.78)"/><path class="v" d="M247.19,210.29l-.55.25Z" transform="translate(-15.45 -16.78)"/><path class="e" d="M367.16,193.33l.15.42-.33-.28Z" transform="translate(-15.45 -16.78)"/><path class="f" d="M332.06,162.64h.41v.1h-.41Z" transform="translate(-15.45 -16.78)"/><path class="i" d="M254.57,41.17l-.56-.24Z" transform="translate(-15.45 -16.78)"/><path class="n" d="M317.52,197.19l.37-.25.08.17-.46.07Z" transform="translate(-15.45 -16.78)"/><path class="c" d="M336.86,142.62l-.17.21a1.57,1.57,0,0,1-.19-.33s.1-.1.15-.16Z" transform="translate(-15.45 -16.78)"/><path class="b" d="M254.4,186.13l.35-.25-.13.45Z" transform="translate(-15.45 -16.78)"/><path class="h" d="M308.92,188.09l-.55.23-.19-.22.57-.24Z" transform="translate(-15.45 -16.78)"/><path class="v" d="M248.56,209.74,248,210Z" transform="translate(-15.45 -16.78)"/><path class="h" d="M305.55,189.56l.4-.39.12.11-.55.26Z" transform="translate(-15.45 -16.78)"/><path class="h" d="M306.62,189l-.55.27-.12-.11.57-.27Z" transform="translate(-15.45 -16.78)"/><path class="h" d="M306.52,188.9l.51-.26.09.16-.5.21Z" transform="translate(-15.45 -16.78)"/><path class="h" d="M308.37,188.32l-.58.21-.09-.19.48-.24Z" transform="translate(-15.45 -16.78)"/><path class="v" d="M274.72,198.84l-.41.23Z" transform="translate(-15.45 -16.78)"/><path class="v" d="M284.26,194.75l-.41.23Z" transform="translate(-15.45 -16.78)"/><path class="v" d="M246.37,210.58l-.34.22Z" transform="translate(-15.45 -16.78)"/><path class="j" d="M107.26,211.59l-.29-.28.16-.24.28.27Z" transform="translate(-15.45 -16.78)"/><path class="j" d="M107.41,211.34l.26.28-.24.13a.44.44,0,0,1-.17-.16Z" transform="translate(-15.45 -16.78)"/><path class="v" d="M295.16,190.12l-.4.22Z" transform="translate(-15.45 -16.78)"/><path class="x" d="M292.32,212.87l.34-.08,0,.35Z" transform="translate(-15.45 -16.78)"/><path class="i" d="M251.56,40.14h0Z" transform="translate(-15.45 -16.78)"/><path class="t" d="M208.51,98.2l.06-.21-.08.18Z" transform="translate(-15.45 -16.78)"/><path class="e" d="M360.9,184.08c-.1-.11-.21-.22-.31-.34C360.69,183.86,360.8,184,360.9,184.08Z" transform="translate(-15.45 -16.78)"/><path class="v" d="M293.25,190.93l-.4.23Z" transform="translate(-15.45 -16.78)"/><path class="v" d="M291.35,191.75l-.44.24Z" transform="translate(-15.45 -16.78)"/><path class="i" d="M229.48,52.89l-.24.29Z" transform="translate(-15.45 -16.78)"/><path class="g" d="M220.21,226.09l.14.19h-.13l0-.21Z" transform="translate(-15.45 -16.78)"/><path class="g" d="M225.31,235l.05.34-.33-.11Z" transform="translate(-15.45 -16.78)"/><path class="v" d="M310.3,183.63h.36l-.19.23Z" transform="translate(-15.45 -16.78)"/><path class="w" d="M285.06,95.68c-2.47,4.69-6.62,6.9-11.6,7.85a15.68,15.68,0,0,1-1.94.14l-.09-.47c.94-.22,1.89-.43,2.82-.66,4.56-1.16,8.34-3.33,10.26-7.91.25-.54.51-1.09.76-1.64l.44.11Z" transform="translate(-15.45 -16.78)"/><path class="y" d="M256.2,85.13c-7.5-1.53-10.2-6.8-10.51-13.94l-1.76.27-.27.05-.53-.11c-1.46-2.37-.93-4.77,0-7.15,0-.11.4-.11.62-.15l-.09.79c-.07,1.23-.2,2.46-.17,3.68,0,.18.68.35,1.05.52,3-.27,5.94-.59,8.92-.8q7-.51,14-.88c1,0,2.19-.12,2.48,1.31l-.34.63a8.8,8.8,0,0,1-1.32.26c-3.26.17-6.52.29-9.77.48-3.08.19-6.15.4-9.22.67-1.73.15-2.17.77-2,2.5a11.78,11.78,0,0,0,3.94,7.82,8.24,8.24,0,0,0,7,2,7.58,7.58,0,0,1-.82-9c1.89-3.43,6.35-4.45,9-2.08A5.22,5.22,0,0,0,269,73.63a9.47,9.47,0,0,1-.11,1.61C267.41,81.47,262.7,85.13,256.2,85.13Z" transform="translate(-15.45 -16.78)"/><path class="z" d="M276.36,79.08c4.45,1.69,5.54,7.3,3.93,11.66-1,2.59-2.42,4.79-5.27,5.53a12.66,12.66,0,0,1-3,0c-3.07-1.27-4.5-4.71-4.15-8.45a10.32,10.32,0,0,1,3.83-7.57A6.31,6.31,0,0,1,276.36,79.08Z" transform="translate(-15.45 -16.78)"/><path class="w" d="M219.67,85.07c4.43-4.37,9.67-4.55,15.26-3-.22.06-.45.21-.66.18-3.52-.38-6.73.72-9.84,2.15a12.69,12.69,0,0,0-6.83,11.68c.15,1.88.53,2.36,2.39,2.21,3.89-.3,7.76-.85,11.64-1.11,4.75-.31,9.52-.37,14.27-.67,1.42-.1,2.76-.55,4.1.41.81.58,1.19,1.08.6,2a5.66,5.66,0,0,1-1.31-.17c-5.66-2.19-11.36-1.63-17.1-.34-3.2.72-6.44,1.3-9.73,2a3.18,3.18,0,0,0,2.38,2c3.57,1.08,7.12,1.26,10.59-.39a4.29,4.29,0,0,1,.89-.22l0,0c-3,3.53-6.92,3.77-11.13,2.89a7.68,7.68,0,0,1-5-3.57,2.06,2.06,0,0,0-1.46-.57c-1.15,0-2.18-.16-2.58-1.47-1.68-4.89-.17-9.1,2.79-13C219.14,85.68,219.41,85.38,219.67,85.07Z" transform="translate(-15.45 -16.78)"/><path class="k" d="M269.52,69.35l.34-.63c1.85.33,2.51,1.74,2.68,3.74.29,3.38-1.29,6.13-3.1,8.77a10.67,10.67,0,0,1-7,4.8,9.56,9.56,0,0,1-6.28-.9c6.5,0,11.21-3.66,12.67-9.89a9.47,9.47,0,0,0,.11-1.61Z" transform="translate(-15.45 -16.78)"/><path class="i" d="M243.7,64.1c-.22,0-.58,0-.62.15-.88,2.38-1.41,4.78,0,7.15a1.18,1.18,0,0,1-1.5-1.1,15.37,15.37,0,0,1-.34-4.81A17.64,17.64,0,0,1,243,60.7c.21-.45,1.05-.6,1.6-.89.12.58.44,1.21.3,1.71A15.64,15.64,0,0,1,243.7,64.1Z" transform="translate(-15.45 -16.78)"/><path class="w" d="M234.94,81.56l-5.75-1.1c2.18-.67,3.95.14,5.75.22l2.22,1-.14.36Z" transform="translate(-15.45 -16.78)"/><path class="i" d="M244.49,69.09c-.37-.17-1.05-.34-1.05-.52,0-1.22.1-2.45.17-3.68C243.91,66.29,244.2,67.69,244.49,69.09Z" transform="translate(-15.45 -16.78)"/><path class="i" d="M243.66,71.51l.27-.05Z" transform="translate(-15.45 -16.78)"/><path class="w" d="M274.77,105.29c3.57-1,7-2.25,9.29-5.58C284.39,102.22,278,106,274.77,105.29Z" transform="translate(-15.45 -16.78)"/><path class="w" d="M236.32,101.74l0-.21.12,0-.19.15Z" transform="translate(-15.45 -16.78)"/><path class="u" d="M269.52,69.35,269,73.63A5.22,5.22,0,0,1,266.37,72c-2.68-2.37-7.14-1.35-9,2.08a7.58,7.58,0,0,0,.82,9,8.24,8.24,0,0,1-7-2,11.78,11.78,0,0,1-3.94-7.82c-.21-1.73.23-2.35,2-2.5,3.07-.27,6.14-.48,9.22-.67,3.25-.19,6.51-.31,9.77-.48A8.8,8.8,0,0,0,269.52,69.35Z" transform="translate(-15.45 -16.78)"/></svg>